<svg width="15px" height="14px" viewBox="0 0 15 14" version="1.1" xmlns="http://www.w3.org/2000/svg"><g id="arrow" stroke="none" stroke-width="1" fill="#17191D" fill-rule="evenodd"><path d="M15,5.8331803 L2.67898833,5.8331803 L7.24068927,1.43309052 C7.5725403,1.11308399 7.58254586,0.585573231 7.26236798,0.254733147 C6.94219011,-0.0761069365 6.41523068,-0.0861071406 6.08337966,0.233066038 L0.46942746,5.64984323 C0.17176209,5.90401508 0,6.27485598 0,6.66653064 C0,7.0582053 0.17176209,7.4290462 0.431072818,7.64821734 L6.08337966,13.0999952 C6.24513619,13.2558318 6.45358533,13.3333333 6.66203446,13.3333333 C6.88048916,13.3333333 7.09811006,13.2474982 7.26236798,13.0783281 C7.58254586,12.747488 7.5725403,12.2199773 7.24068927,11.8999708 L2.67732073,7.49988098 L15,7.49988098 L15,5.8331803 Z" id="path-1"></path></g></svg>