<svg width="309" height="40" viewBox="0 0 309 40" fill="none" xmlns="http://www.w3.org/2000/svg">
<path d="M10.2 31C19.76 31 25.16 25 25.16 16.8C25.16 8.6 19.76 2.6 10.2 2.6H1.19209e-07V31H10.2ZM19 16.8C19 22.28 16 25.64 10.04 25.64H5.84V7.96H10.04C16 7.96 19 11.32 19 16.8ZM32.2838 7.32C34.2438 7.32 35.7238 5.88 35.7238 3.92C35.7238 1.96 34.2438 0.48 32.2838 0.48C30.3238 0.48 28.8438 1.96 28.8438 3.92C28.8438 5.88 30.3238 7.32 32.2838 7.32ZM35.1238 31V10.04H29.4438V31H35.1238ZM47.7822 31.48C52.7022 31.48 56.6622 29.04 56.6622 24.76C56.6622 23.6 56.4622 22.64 56.1022 21.88C55.3022 20.32 53.9022 19.08 50.1022 18.4C48.1822 18.04 47.0622 17.84 46.7422 17.72C46.3822 17.64 46.1022 17.52 45.8222 17.32C45.2622 17 45.0622 16.6 45.0622 16.16C45.0622 15 46.1822 14.12 47.9422 14.12C49.8622 14.12 50.9822 15.24 51.1022 16.64H56.5822C56.4222 14.04 55.0622 12.04 53.5422 11.04C52.0222 10.08 50.1822 9.56 47.9822 9.56C41.5822 9.56 39.5822 13.92 39.5822 16.48C39.8222 20.44 41.5422 21.16 43.9422 22.12C44.5822 22.36 45.6622 22.6 47.1822 22.88C48.6622 23.16 49.6622 23.4 50.1422 23.6C51.4622 24.24 51.2222 25 51.2222 25C51.2222 26.16 50.0222 26.92 47.9422 26.92C45.7422 26.92 44.5822 25.68 44.4622 24.2H38.7022C39.0622 29.16 42.3822 31.48 47.7822 31.48ZM66.0613 28.76C67.2213 30.32 69.5013 31.48 72.2613 31.48C78.2613 31.48 81.9013 26.6 81.9013 20.52C81.9013 14.44 78.2613 9.56 72.2613 9.56C69.3813 9.56 66.9413 10.68 65.6213 12.6V10.04H60.3813V39.32H66.0613V28.76ZM65.9013 20.52C65.9013 18.92 66.4613 17.04 67.5813 15.96C68.7013 14.88 69.9413 14.56 71.0613 14.56C74.1813 14.56 76.2213 17.12 76.2213 20.52C76.2213 22.12 75.6613 24 74.5413 25.08C73.4213 26.16 72.1813 26.48 71.0613 26.48C67.9413 26.48 65.9013 23.92 65.9013 20.52ZM91.4519 0.999998H85.7719V31H91.4519V0.999998ZM109.31 22.4C109.31 25.16 107.43 27.08 104.23 27.08C102.11 27.08 101.07 26.36 101.07 24.88C101.07 23.6 102.15 22.76 104.27 22.4L109.31 21.56V22.4ZM102.95 31.48C106.07 31.48 108.27 30.56 109.59 28.68C109.59 29.56 109.67 30.32 109.83 31H115.31C114.99 30.2 114.71 28.52 114.71 27.24V17.36C114.71 12.4 111.55 9.56 105.51 9.56C99.7103 9.56 96.4703 12.4 96.0703 16.8H101.67C101.87 15.24 103.11 14.24 105.55 14.24C107.99 14.24 109.31 15.28 109.31 17.32V17.52L103.71 18.36C98.1503 19.2 95.5903 21.4 95.5903 25.04C95.5903 28.88 98.2703 31.48 102.95 31.48ZM126.657 39.32L138.377 10.04H132.457L127.377 24.04L122.337 10.04H116.297L124.577 30.64L121.057 39.32H126.657ZM169.478 2.6V13.92H157.598V2.6H151.758V31H157.598V19.28H169.478V31H175.318V2.6H169.478ZM200.528 20.48C200.528 14.32 196.208 9.56 190.128 9.56C184.008 9.56 179.608 14.32 179.608 20.48C179.608 26.88 184.088 31.48 190.168 31.48C192.528 31.48 194.648 30.8 196.448 29.48C198.248 28.16 199.488 26.44 200.088 24.32H194.368C193.728 25.76 192.088 26.6 190.328 26.6C187.008 26.6 185.488 24.24 185.248 22.16H200.448L200.528 20.48ZM190.088 14.12C192.648 14.12 194.408 15.72 194.848 18.08H185.328C185.808 15.68 187.568 14.12 190.088 14.12ZM217.006 22.4C217.006 25.16 215.126 27.08 211.926 27.08C209.806 27.08 208.766 26.36 208.766 24.88C208.766 23.6 209.846 22.76 211.966 22.4L217.006 21.56V22.4ZM210.646 31.48C213.766 31.48 215.966 30.56 217.286 28.68C217.286 29.56 217.366 30.32 217.526 31H223.006C222.686 30.2 222.406 28.52 222.406 27.24V17.36C222.406 12.4 219.246 9.56 213.206 9.56C207.406 9.56 204.166 12.4 203.766 16.8H209.366C209.566 15.24 210.806 14.24 213.246 14.24C215.686 14.24 217.006 15.28 217.006 17.32V17.52L211.406 18.36C205.846 19.2 203.286 21.4 203.286 25.04C203.286 28.88 205.966 31.48 210.646 31.48ZM242.011 12.28C240.851 10.72 238.571 9.56 235.811 9.56C229.811 9.56 226.171 14.44 226.171 20.52C226.171 26.6 229.811 31.48 235.811 31.48C238.691 31.48 241.131 30.36 242.451 28.44V31H247.691V0.999998H242.011V12.28ZM242.171 20.52C242.171 22.12 241.611 24 240.491 25.08C239.371 26.16 238.131 26.48 237.011 26.48C233.891 26.48 231.851 23.92 231.851 20.52C231.851 18.92 232.411 17.04 233.531 15.96C234.651 14.88 235.891 14.56 237.011 14.56C240.131 14.56 242.171 17.12 242.171 20.52ZM255.721 7.32C257.681 7.32 259.161 5.88 259.161 3.92C259.161 1.96 257.681 0.48 255.721 0.48C253.761 0.48 252.281 1.96 252.281 3.92C252.281 5.88 253.761 7.32 255.721 7.32ZM258.561 31V10.04H252.881V31H258.561ZM263.78 10.04V31H269.46V19C269.46 16.24 271.06 14.44 273.74 14.44C275.62 14.44 277.3 15.6 277.3 18.56V31H282.98V17.92C282.98 12.84 280.18 9.56 275.26 9.56C272.26 9.56 269.98 10.8 269.02 12.6V10.04H263.78ZM302.798 12.6C301.478 10.68 299.118 9.56 296.238 9.56C295.718 9.56 294.158 9.56 292.118 10.48C288.958 11.92 286.678 15.76 286.678 20.08C286.678 21.48 286.878 23.24 287.838 25.32C289.238 28.64 293.198 30.8 296.238 30.6C298.958 30.6 301.198 29.44 302.358 27.88V30.8C302.358 33.32 300.758 34.88 297.998 34.88C295.758 34.88 294.278 33.84 293.958 32.12H288.278C288.678 36.72 293.238 39.96 297.918 39.76C304.238 39.76 308.038 35.68 308.038 30.2V10.04H302.798V12.6ZM302.518 20.08C302.558 23.8 299.598 25.84 297.438 25.6C293.838 25.68 292.238 22.32 292.358 20.08C292.318 16.36 295.278 14.32 297.438 14.56C301.038 14.48 302.638 17.84 302.518 20.08Z" fill="white"/>
</svg>
