<?xml version="1.0" standalone="no"?>
<!DOCTYPE svg PUBLIC "-//W3C//DTD SVG 1.1//EN" "http://www.w3.org/Graphics/SVG/1.1/DTD/svg11.dtd" >
<svg xmlns="http://www.w3.org/2000/svg" xmlns:xlink="http://www.w3.org/1999/xlink" version="1.1">
<metadata>
Created by FontForge 20170731 at Mon Nov  4 22:57:26 2019
 By Aleksey,,,
Copyright (C)2017 Commercial Type.
</metadata>
<defs>
<font id="GraphikCompactWeb-Medium" horiz-adv-x="520" >
  <font-face 
    font-family="Graphik Compact Web Med"
    font-weight="500"
    font-stretch="normal"
    units-per-em="1000"
    panose-1="1 0 2 1 1 0 0 1 0 1"
    ascent="800"
    descent="-200"
    x-height="523"
    cap-height="715"
    bbox="-212 -211 1004 1090"
    underline-thickness="66"
    underline-position="-290"
    unicode-range="U+000D-FB02"
  />
<missing-glyph horiz-adv-x="506" 
 />
    <glyph glyph-name="f_f" unicode="ff" horiz-adv-x="577" 
d="M81 440h-62v83h62v76q0 76 40 116q39 41 113 41q16 0 34 -2q16 -4 24 -7v-83q-16 6 -42 6q-34 0 -47 -18q-14 -20 -14 -51v-78h155v83q0 76 40 116t115 40q16 0 34 -2q14 -2 26 -6v-83q-1 0 -8 1.5t-11 2.5q-16 2 -26 2q-35 0 -48 -19q-15 -20 -15 -51v-84h104v-83h-104
v-440h-107v440h-155v-440h-108v440z" />
    <glyph glyph-name=".notdef" horiz-adv-x="506" 
 />
    <glyph glyph-name=".null" horiz-adv-x="0" 
 />
    <glyph glyph-name=".null" horiz-adv-x="0" 
 />
    <glyph glyph-name="nonmarkingreturn" unicode="&#xd;" horiz-adv-x="190" 
 />
    <glyph glyph-name="space" unicode=" " horiz-adv-x="190" 
 />
    <glyph glyph-name="exclam" unicode="!" horiz-adv-x="264" 
d="M73 715h119l-17 -512h-85zM133 -6q-29 0 -51 20q-21 20 -21 49t21 49q22 20 51 20q28 0 50 -20q20 -20 20 -49t-20 -49q-22 -20 -50 -20z" />
    <glyph glyph-name="quotedbl" unicode="&#x22;" horiz-adv-x="358" 
d="M45 715h109l-17 -235h-76zM205 715h109l-16 -235h-77z" />
    <glyph glyph-name="numbersign" unicode="#" horiz-adv-x="483" 
d="M101 289h-71v87h84l15 110h-76v87h89l20 142h81l-20 -142h76l20 142h80l-20 -142h73v-87h-85l-16 -110h77v-87h-89l-23 -162h-80l23 162h-77l-23 -162h-81zM271 376l16 110h-77l-15 -110h76z" />
    <glyph glyph-name="dollar" unicode="$" horiz-adv-x="547" 
d="M246 -123v114q-104 7 -156 67q-51 57 -56 151h107q3 -56 25 -90q23 -35 80 -42v248q-50 16 -84 34q-36 18 -61 43q-25 23 -37 57q-13 32 -13 77q0 39 14 73q12 30 40 58q26 24 61 39q38 14 80 17v84h57v-85q84 -8 135 -54q51 -47 55 -137h-104q-4 47 -26 73
q-21 24 -60 32v-221q46 -15 85 -32q38 -18 63 -43q28 -28 40 -59q13 -33 13 -84q0 -89 -54 -144q-54 -54 -147 -62v-114h-57zM155 544q0 -40 20 -65q20 -26 71 -45v204q-43 -4 -67 -30t-24 -64zM397 187q0 47 -22 72q-24 27 -72 46v-228q43 6 69 35q25 28 25 75z" />
    <glyph glyph-name="percent" unicode="%" horiz-adv-x="699" 
d="M187 406q-33 0 -61 12q-29 10 -50 32q-21 20 -34 50q-12 28 -12 63q0 37 13 64q13 30 34 50q21 21 50 33q30 11 60 11q31 0 61 -11q25 -11 50 -32q20 -20 34 -50q12 -28 12 -63t-12 -64q-14 -30 -34 -50q-21 -21 -49 -33t-62 -12zM526 715h78l-431 -715h-77zM187 480
q32 0 51 22q18 22 18 62t-18 62q-19 22 -51 22t-50 -22q-19 -22 -19 -63q0 -42 19 -62q18 -21 50 -21zM512 -8q-32 0 -61 12q-28 10 -50 32q-21 18 -34 49q-12 29 -12 63q0 37 13 64q13 30 34 50q21 21 50 33q30 11 61 11t61 -11q27 -11 49 -32q21 -21 34 -49q12 -28 12 -63
q0 -37 -12 -65q-14 -30 -34 -50q-22 -22 -49 -32q-28 -12 -62 -12zM513 65q32 0 51 22q18 21 18 62q0 39 -18 61q-20 23 -51 23q-32 0 -51 -22t-19 -63q0 -43 19 -62q20 -21 51 -21z" />
    <glyph glyph-name="ampersand" unicode="&#x26;" horiz-adv-x="615" 
d="M413 71q-30 -35 -70 -57q-39 -23 -102 -23q-46 0 -82 13q-40 14 -65 38q-28 25 -41 60q-15 34 -15 81v30q0 75 36 120q36 43 99 75q-54 72 -54 148q0 40 14 73q13 30 38 52q26 21 56 31t66 10q35 0 64 -10q31 -11 51 -29q21 -18 35 -48q12 -29 12 -65q0 -62 -36 -106
t-102 -75l116 -164l60 144h96l-98 -226l101 -143h-129zM224 557q0 -33 13 -58q12 -27 35 -56q45 25 65 52q19 25 19 72q0 36 -17 56q-18 18 -45 18q-30 0 -49 -19q-21 -20 -21 -65zM148 192q0 -56 27 -84q27 -30 80 -30q34 0 60 16t49 45l-147 207q-32 -20 -50 -48
q-19 -28 -19 -77v-29z" />
    <glyph glyph-name="quotesingle" unicode="'" horiz-adv-x="200" 
d="M45 715h111l-17 -235h-78z" />
    <glyph glyph-name="parenleft" unicode="(" horiz-adv-x="303" 
d="M194 -143q-28 35 -57 85q-26 46 -48 104q-21 56 -33 123q-13 64 -13 143q0 80 13 145q12 66 33 123q22 60 49 104q28 48 56 85h94q-21 -31 -53 -88q-22 -41 -44 -104q-19 -55 -30 -122q-12 -66 -12 -143q0 -78 12 -142q11 -67 30 -122q22 -63 44 -104q29 -53 53 -87h-94z
" />
    <glyph glyph-name="parenright" unicode=")" horiz-adv-x="303" 
d="M14 -142q24 34 53 87q25 47 45 104q18 52 31 122q11 69 11 143t-11 143q-13 70 -31 121q-20 57 -45 104q-29 53 -53 87h93q25 -32 58 -85q24 -41 49 -103q20 -54 34 -123q12 -68 12 -144q0 -78 -12 -144q-14 -70 -34 -123q-24 -61 -49 -104q-33 -53 -58 -85h-93z" />
    <glyph glyph-name="asterisk" unicode="*" horiz-adv-x="390" 
d="M66 475l77 94l-109 21l25 80l103 -46l-11 118h90l-13 -118l104 46l23 -80l-110 -21l78 -94l-68 -50l-62 108l-58 -108z" />
    <glyph glyph-name="plus" unicode="+" horiz-adv-x="471" 
d="M190 300h-157v83h157v173h91v-173h157v-83h-157v-173h-91v173z" />
    <glyph glyph-name="comma" unicode="," horiz-adv-x="251" 
d="M23 -85l77 217l102 -39l-113 -205z" />
    <glyph glyph-name="hyphen" unicode="-" horiz-adv-x="314" 
d="M49 324h215v-90h-215v90z" />
    <glyph glyph-name="period" unicode="." horiz-adv-x="249" 
d="M125 -6q-28 0 -50 20q-21 20 -21 49t21 50q22 20 50 20t50 -20q20 -22 20 -50q0 -29 -20 -49q-22 -20 -50 -20z" />
    <glyph glyph-name="slash" unicode="/" horiz-adv-x="373" 
d="M263 770h92l-269 -912h-92z" />
    <glyph glyph-name="zero" unicode="0" horiz-adv-x="593" 
d="M298 -10q-58 0 -103 19q-49 21 -79 56q-33 36 -51 89q-18 52 -18 120v166q0 69 18 121q18 53 51 89t79 55q45 19 102 19q58 0 103 -19q46 -19 79 -55q33 -37 50 -88q18 -52 18 -120v-165q0 -136 -66 -211q-66 -76 -183 -76zM299 84q66 0 98 47t32 146v165q0 92 -33 141
t-99 49q-65 0 -98 -47q-34 -46 -34 -144v-165q0 -99 35 -146q34 -46 99 -46z" />
    <glyph glyph-name="one" unicode="1" horiz-adv-x="359" 
d="M155 598l-127 -93v105l139 105h104v-715h-116v598z" />
    <glyph glyph-name="two" unicode="2" horiz-adv-x="504" 
d="M19 20l224 276q46 57 74 113q25 50 25 108v10q0 106 -91 106q-46 0 -73 -29q-27 -30 -33 -100h-108q4 104 60 163q55 57 156 57t153 -52q53 -53 53 -143v-11q0 -70 -32 -132q-31 -60 -92 -135l-136 -160h263v-91h-443v20z" />
    <glyph glyph-name="three" unicode="3" horiz-adv-x="535" 
d="M490 191q0 -94 -59 -147q-60 -54 -169 -54q-108 0 -167 56q-60 56 -61 154h107q3 -56 31 -87q29 -32 87 -32t85 29q27 28 27 83v18q0 64 -28 92t-91 28h-39v85h38q59 0 84 27q25 25 25 80v11q0 48 -23 74q-24 26 -72 26t-75 -28q-28 -28 -33 -80h-104q2 44 16 80
q15 37 43 63t66 41q40 14 88 14q98 0 151 -49q54 -49 54 -136v-12q0 -59 -29 -96q-29 -36 -81 -53q60 -14 94 -54q35 -43 35 -114v-19z" />
    <glyph glyph-name="four" unicode="4" horiz-adv-x="555" 
d="M330 154h-303v38l269 523h147v-473h85v-88h-85v-154h-113v154zM331 242v371l-182 -371h182z" />
    <glyph glyph-name="five" unicode="5" horiz-adv-x="521" 
d="M253 -10q-53 0 -94 15q-38 13 -67 40q-28 27 -41 61q-15 39 -16 79h108q6 -28 11 -42q6 -19 19 -32q12 -14 31 -21q21 -8 48 -8q52 0 79 35t27 102v24q0 67 -30 102q-30 34 -84 34q-48 0 -76 -16q-31 -17 -53 -39h-51l5 391h375v-95h-284l-2 -205q20 20 51 35
q30 15 78 15q40 0 76 -14q34 -13 60 -41q25 -28 39 -69q14 -42 14 -96v-28q0 -55 -16 -96q-16 -43 -45 -72q-31 -29 -71 -44t-91 -15z" />
    <glyph glyph-name="six" unicode="6" horiz-adv-x="546" 
d="M285 -10q-64 0 -107 20q-46 20 -74 55q-30 36 -43 85q-14 51 -14 109v159q0 76 18 133t51 96t77 58t99 19q88 0 142 -42q54 -43 64 -134h-111q-8 43 -29 64q-22 21 -67 21q-57 0 -91 -49q-36 -51 -37 -152v-58q21 37 59 60q37 22 94 22q44 0 77 -13q34 -13 61 -40
q26 -26 41 -63q14 -39 14 -86v-50q0 -102 -59 -158q-61 -56 -165 -56zM285 79q51 0 80 33q29 34 29 90v49q0 56 -29 90q-29 32 -83 32q-51 0 -82 -31q-32 -32 -32 -92v-34q0 -70 32 -104q31 -33 85 -33z" />
    <glyph glyph-name="seven" unicode="7" horiz-adv-x="474" 
d="M315 620h-288v95h430v-14l-223 -701h-117z" />
    <glyph glyph-name="eight" unicode="8" horiz-adv-x="541" 
d="M270 -10q-46 0 -87 12t-72 37q-32 24 -50 62q-19 37 -19 87v29q0 67 33 107q31 40 84 60q-44 18 -70 54q-25 35 -25 91v13q0 43 17 79q17 35 45 57q30 23 66 35q39 11 79 11q41 0 80 -11q35 -11 65 -35q28 -22 45 -56q16 -33 16 -78v-14q0 -56 -26 -91q-25 -35 -71 -55
q56 -20 87 -60t31 -105v-28q0 -51 -18 -88q-18 -38 -49 -63t-72 -37q-40 -13 -89 -13zM272 422q43 0 69 26q25 25 25 76v16q0 47 -26 73q-26 25 -69 25t-68 -25q-27 -25 -27 -75v-15q0 -49 27 -75q28 -26 69 -26zM271 79q48 0 80 29q30 28 30 88v31q0 58 -31 86
q-32 29 -79 29t-79 -29q-33 -29 -33 -88v-31q0 -57 32 -86t80 -29z" />
    <glyph glyph-name="nine" unicode="9" horiz-adv-x="547" 
d="M260 -10q-95 0 -151 46q-59 47 -66 137h110q6 -45 32 -68t74 -23q59 0 92 45q31 45 33 147v65q-20 -38 -57 -59t-94 -21q-41 0 -78 14t-62 39q-26 26 -41 63t-15 85v48q0 102 61 159q62 57 167 57q115 0 175 -69t60 -197v-178q0 -148 -64 -218q-64 -72 -176 -72zM265 637
q-55 0 -83 -34q-30 -35 -30 -92v-47q0 -58 28 -89q29 -32 82 -32q54 0 85 31t31 90v36q0 68 -30 103q-31 34 -83 34z" />
    <glyph glyph-name="colon" unicode=":" horiz-adv-x="257" 
d="M128 289q-30 0 -49 21q-21 20 -21 49t21 50q20 20 49 20q28 0 50 -20q21 -21 21 -50t-21 -49q-21 -21 -50 -21zM128 -6q-29 0 -49 20q-21 20 -21 49t21 50q20 20 49 20q28 0 50 -20q21 -21 21 -50t-21 -49q-22 -20 -50 -20z" />
    <glyph glyph-name="semicolon" unicode=";" horiz-adv-x="259" 
d="M138 289q-30 0 -49 21q-21 20 -21 49t21 50q20 20 49 20q28 0 50 -20q21 -21 21 -50t-21 -49q-21 -21 -50 -21zM13 -85l76 217l102 -39l-113 -205z" />
    <glyph glyph-name="less" unicode="&#x3c;" horiz-adv-x="450" 
d="M41 309v24l356 201v-100l-208 -113l208 -113v-99z" />
    <glyph glyph-name="equal" unicode="=" horiz-adv-x="456" 
d="M35 365v84h386v-84h-386zM35 195v83h386v-83h-386z" />
    <glyph glyph-name="greater" unicode="&#x3e;" horiz-adv-x="450" 
d="M52 210l209 111l-209 114v99l356 -201v-23l-356 -201v101z" />
    <glyph glyph-name="question" unicode="?" horiz-adv-x="451" 
d="M151 250q0 31 7 53q6 23 18 44q16 25 28 40q11 15 33 40q19 24 25 30q11 12 21 29q9 17 13 30q5 18 5 36q0 83 -78 83q-41 0 -65 -26q-23 -25 -28 -78h-103q3 95 57 144q52 49 143 49q93 0 140 -45q46 -45 46 -123q0 -28 -6 -50q-6 -21 -17 -42q-9 -17 -25 -38
q-2 -2 -32 -38q-5 -6 -10.5 -12t-12 -12.5t-9.5 -10.5q-15 -16 -26 -34q-10 -16 -18 -35q-7 -18 -7 -40v-41h-99v47zM202 -6q-28 0 -50 20q-22 19 -22 49q0 29 22 50q22 20 50 20t50 -20q20 -22 20 -50q0 -29 -20 -49q-22 -20 -50 -20z" />
    <glyph glyph-name="at" unicode="@" horiz-adv-x="796" 
d="M402 -145q-88 0 -154 28q-69 29 -114 77q-47 50 -71 117t-24 144v77q0 85 29 157q29 71 78 122q48 49 118 79q66 28 145 28q81 0 145 -24q65 -26 110 -68q44 -42 70 -104q24 -61 24 -133v-79q0 -60 -15 -100q-15 -41 -38 -67q-25 -26 -54 -38q-30 -12 -60 -12
q-54 0 -79 22q-27 22 -34 56q-19 -37 -49 -58q-31 -24 -76 -24q-64 0 -101 43q-38 42 -36 119l4 54q2 48 14 83q15 39 35 62q22 27 50 40q30 14 63 14q42 0 68 -17q24 -18 33 -42l5 51h97l-28 -270q-7 -72 43 -72q18 0 35 9q16 7 28 27q11 18 19 48q7 27 7 71v79
q0 62 -18 111q-19 49 -54 84q-35 33 -88 53q-52 18 -119 18q-68 0 -122 -22t-94 -65q-39 -42 -60 -102q-22 -59 -22 -134v-75q0 -64 18 -119q19 -57 54 -97q37 -42 91 -65q55 -23 127 -23q78 0 126 22t83 60h75q-36 -65 -111 -106q-75 -39 -173 -39zM380 133q37 0 62 31
q25 32 26 91l4 49q2 46 -17 67q-19 22 -54 22q-36 0 -58 -31q-24 -33 -25 -89l-4 -53q-1 -42 15 -64q17 -23 51 -23z" />
    <glyph glyph-name="A" unicode="A" horiz-adv-x="584" 
d="M398 175h-222l-44 -175h-108l190 715h159l188 -715h-119zM198 262h178l-89 357z" />
    <glyph glyph-name="B" unicode="B" horiz-adv-x="557" 
d="M68 715h208q99 0 158 -41q57 -40 57 -134v-19q0 -111 -111 -146q68 -14 103 -52q34 -38 34 -113v-15q0 -101 -58 -147q-59 -48 -167 -48h-224v715zM266 412q62 0 87 25q26 24 26 80v18q0 54 -28 75q-29 20 -86 20h-83v-218h84zM281 85q121 0 121 115v18q0 62 -30 87
q-29 25 -97 25h-93v-245h99z" />
    <glyph glyph-name="C" unicode="C" horiz-adv-x="615" 
d="M327 -10q-67 0 -119 21q-53 20 -89 59t-54 95q-19 54 -19 124v137q0 68 21 124t58 94q38 39 88 60q51 21 112 21q53 0 96 -13q45 -14 78 -40q33 -29 54 -70q20 -42 25 -101h-117q-7 68 -40 100q-34 32 -96 32q-75 0 -117 -54t-42 -152v-138q0 -99 41 -152t119 -53
q61 0 101 34q39 34 45 108h112q-4 -59 -25 -105q-22 -46 -55 -74q-37 -30 -79 -43q-47 -14 -98 -14z" />
    <glyph glyph-name="D" unicode="D" horiz-adv-x="613" 
d="M263 715q153 0 228 -76q75 -77 75 -213v-135q0 -67 -18 -120q-20 -56 -56 -92q-39 -39 -95 -58q-57 -21 -134 -21h-195v715h195zM184 624v-532h75q99 0 143 51q44 50 44 149v133q0 95 -42 148q-44 51 -146 51h-74z" />
    <glyph glyph-name="E" unicode="E" horiz-adv-x="500" 
d="M68 715h381v-92h-266v-208h215v-88h-215v-235h281v-92h-396v715z" />
    <glyph glyph-name="F" unicode="F" horiz-adv-x="478" 
d="M68 715h379v-92h-263v-227h210v-91h-210v-305h-116v715z" />
    <glyph glyph-name="G" unicode="G" horiz-adv-x="643" 
d="M345 369h254v-112q0 -132 -70 -199q-71 -68 -196 -68q-71 0 -124 21q-54 21 -90 60t-54 94q-19 54 -19 122v140q0 67 21 123q19 53 58 94q37 39 90 60t117 21q47 0 94 -11q42 -12 78 -38q32 -24 56 -67q22 -43 26 -102h-115q-8 69 -44 98q-37 28 -94 28q-82 0 -124 -54
q-43 -55 -43 -151v-142q0 -92 41 -148t127 -56q79 0 115 45q35 43 37 121v35h-141v86z" />
    <glyph glyph-name="H" unicode="H" horiz-adv-x="626" 
d="M68 715h115v-308h259v308h116v-715h-116v312h-259v-312h-115v715z" />
    <glyph glyph-name="I" unicode="I" horiz-adv-x="261" 
d="M72 715h117v-715h-117v715z" />
    <glyph glyph-name="J" unicode="J" horiz-adv-x="373" 
d="M121 -7q-34 0 -57 5q-22 4 -37 12v91q11 -4 33 -10q15 -4 43 -4q43 0 68 24q24 24 24 82v522h116v-526q0 -50 -14 -89q-13 -37 -39 -61q-26 -25 -60 -35q-36 -11 -77 -11z" />
    <glyph glyph-name="K" unicode="K" horiz-adv-x="560" 
d="M68 715h116v-325l229 325h123l-244 -337l255 -378h-132l-231 343v-343h-116v715z" />
    <glyph glyph-name="L" unicode="L" horiz-adv-x="471" 
d="M68 715h116v-622h258v-93h-374v715z" />
    <glyph glyph-name="M" unicode="M" horiz-adv-x="745" 
d="M68 715h151l155 -480l151 480h153v-715h-115v544l-178 -544h-35l-179 544v-544h-103v715z" />
    <glyph glyph-name="N" unicode="N" horiz-adv-x="624" 
d="M68 715h138l245 -514v514h105v-715h-121l-262 553v-553h-105v715z" />
    <glyph glyph-name="O" unicode="O" horiz-adv-x="672" 
d="M337 -10q-68 0 -119 22q-55 21 -92 60q-39 41 -58 94q-21 54 -21 120v141q0 67 21 122t60 94q37 38 91 60q53 21 118 21q64 0 118 -21q53 -21 91 -59q37 -38 58 -93q21 -54 21 -121v-141q0 -65 -20 -122q-21 -56 -58 -94q-36 -39 -91 -61q-51 -22 -119 -22zM337 84
q82 0 125 55t43 149v140q0 43 -11 82q-10 36 -32 64q-23 28 -53 42q-31 15 -72 15q-83 0 -126 -54q-44 -56 -44 -149v-141q0 -96 46 -149q47 -54 124 -54z" />
    <glyph glyph-name="P" unicode="P" horiz-adv-x="527" 
d="M68 715h197q109 0 171 -49q62 -50 62 -152v-25q0 -53 -16 -89q-16 -37 -47 -63q-31 -25 -73 -37q-44 -12 -95 -12h-84v-288h-115v715zM265 374q118 0 118 115v24q0 63 -30 88q-31 24 -88 24h-82v-251h82z" />
    <glyph glyph-name="Q" unicode="Q" horiz-adv-x="672" 
d="M337 -10q-68 0 -119 22q-55 21 -92 60q-39 41 -58 94q-21 54 -21 120v141q0 67 21 122t60 94q37 38 91 60q53 21 118 21q64 0 118 -21q53 -21 91 -59q37 -38 58 -93q21 -54 21 -121v-141q0 -77 -25 -136t-74 -100l70 -81l-72 -66l-86 99q-46 -15 -101 -15zM337 83
q11 0 16 1q11 0 16 1l-50 58l74 64l65 -75q47 56 47 155v141q0 43 -11 82q-10 36 -32 64q-23 28 -53 42q-31 15 -72 15q-83 0 -126 -54q-44 -56 -44 -149v-142q0 -96 46 -149q47 -54 124 -54z" />
    <glyph glyph-name="R" unicode="R" horiz-adv-x="561" 
d="M68 715h205q108 0 170 -46q63 -47 63 -147v-22q0 -41 -10 -70q-11 -31 -28 -51q-18 -23 -42 -36q-29 -15 -54 -22l165 -321h-125l-154 305h-75v-305h-115v715zM273 388q60 0 90 27q29 26 29 84v21q0 58 -30 81q-32 23 -89 23h-90v-236h90z" />
    <glyph glyph-name="S" unicode="S" horiz-adv-x="544" 
d="M277 -10q-119 0 -177 58q-59 59 -63 161h112q1 -31 9 -55t22 -40q14 -18 38 -25q24 -9 59 -9q48 0 79 28q30 28 30 80q0 30 -7 48q-8 22 -23 35q-18 16 -41 27q-31 13 -63 23q-47 14 -86 33q-37 18 -62 43q-24 25 -38 59q-13 32 -13 79q0 43 15 77q15 35 43 60t66 38
q40 14 87 14q98 0 157 -47q57 -48 63 -147h-108q-4 56 -34 81q-28 24 -78 24t-75 -24q-26 -26 -26 -68q0 -23 6 -40q5 -17 20 -31q15 -15 39 -25q24 -12 63 -24q48 -15 88 -33q40 -19 65 -43q27 -25 42 -62q14 -37 14 -87t-16 -86q-16 -39 -45 -66q-31 -28 -71 -41
q-41 -15 -91 -15z" />
    <glyph glyph-name="T" unicode="T" horiz-adv-x="498" 
d="M190 623h-166v92h450v-92h-167l-1 -623h-116v623z" />
    <glyph glyph-name="U" unicode="U" horiz-adv-x="615" 
d="M551 715v-477q0 -122 -63 -185t-184 -63q-115 0 -177 61q-64 60 -64 181v483h118v-477q0 -82 30 -117q28 -36 95 -36q62 0 95 35q32 35 32 125v470h118z" />
    <glyph glyph-name="V" unicode="V" horiz-adv-x="571" 
d="M441 715h109l-193 -715h-144l-192 715h119l150 -594z" />
    <glyph glyph-name="W" unicode="W" horiz-adv-x="808" 
d="M23 715h118l101 -527l120 527h90l123 -529l102 529h108l-148 -715h-111l-119 508l-123 -508h-113z" />
    <glyph glyph-name="X" unicode="X" horiz-adv-x="584" 
d="M218 369l-177 346h128l128 -260l125 260h119l-174 -344l188 -371h-130l-140 287l-139 -287h-117z" />
    <glyph glyph-name="Y" unicode="Y" horiz-adv-x="534" 
d="M213 309l-198 406h127l134 -298l131 298h112l-188 -406v-309h-118v309z" />
    <glyph glyph-name="Z" unicode="Z" horiz-adv-x="509" 
d="M19 15l308 609h-276v91h431v-15l-305 -607h296v-93h-454v15z" />
    <glyph glyph-name="bracketleft" unicode="[" horiz-adv-x="323" 
d="M67 769h221v-80h-115v-751h115v-81h-221v912z" />
    <glyph glyph-name="backslash" unicode="\" horiz-adv-x="373" 
d="M378 -142h-92l-270 912h93z" />
    <glyph glyph-name="bracketright" unicode="]" horiz-adv-x="323" 
d="M34 -143v81h116v751h-116v80h222v-912h-222z" />
    <glyph glyph-name="asciicircum" unicode="^" horiz-adv-x="452" 
d="M174 715h104l142 -294h-101l-94 201l-94 -201h-100z" />
    <glyph glyph-name="underscore" unicode="_" horiz-adv-x="356" 
d="M-1 -82h358v-69h-358v69z" />
    <glyph glyph-name="grave" unicode="`" horiz-adv-x="400" 
d="M72 746h122l53 -150h-79z" />
    <glyph glyph-name="a" unicode="a" horiz-adv-x="482" 
d="M186 -9q-32 0 -61 9t-48 28q-22 21 -32 47q-12 27 -12 65v11q0 42 17 73q16 30 46 49q29 18 70 26q43 8 88 8h64v47q0 47 -17 72q-18 23 -63 23q-77 0 -83 -76h-104q1 42 18 72q15 30 41 50q25 19 59 28q35 9 74 9t74 -9q34 -11 57 -31q25 -22 38 -54q13 -33 13 -81v-357
h-106v57q-20 -29 -50 -47q-29 -19 -83 -19zM214 70q46 0 75 23t29 71v72h-60q-56 0 -88 -18q-31 -19 -31 -64v-9q0 -37 18 -56q16 -19 57 -19z" />
    <glyph glyph-name="b" unicode="b" horiz-adv-x="538" 
d="M167 758v-310q19 33 58 60q37 24 88 24q40 0 76 -14q33 -13 59 -42q25 -30 38 -68q14 -42 14 -94v-100q0 -107 -52 -165t-139 -58q-52 0 -89 23q-36 23 -53 58v-72h-107v758h107zM165 217q0 -73 31 -107q32 -35 85 -35q110 0 110 137v100q0 71 -30 104q-32 32 -79 32
q-52 0 -84 -35q-33 -35 -33 -107v-89z" />
    <glyph glyph-name="c" unicode="c" horiz-adv-x="490" 
d="M257 -9q-46 0 -88 14q-41 13 -69 42q-30 28 -46 70q-17 43 -17 97v92q0 52 17 97q17 42 47 71q28 28 69 43q40 15 85 15q39 0 74 -9t63 -30q27 -21 45 -55q17 -36 20 -85h-103q-5 54 -32 74q-28 20 -66 20q-50 0 -80 -35q-31 -34 -31 -104v-94q0 -73 31 -105
q30 -34 83 -34q20 0 38 6q19 7 32 19q14 13 23 33q7 19 9 49h98q-3 -94 -57 -142q-55 -49 -145 -49z" />
    <glyph glyph-name="d" unicode="d" horiz-adv-x="538" 
d="M478 0h-108v76q-18 -34 -56 -60q-37 -25 -89 -25q-39 0 -75 14q-35 14 -59 42q-25 27 -39 68q-14 42 -14 94v99q0 51 14 95q13 41 40 71q25 28 61 43q35 15 78 15q54 0 88 -22q32 -22 51 -58v306h108v-758zM372 306q0 72 -30 107t-84 35t-82 -34q-29 -35 -29 -104v-100
q0 -70 29 -102t77 -32q53 0 86 35q33 34 33 106v89z" />
    <glyph glyph-name="e" unicode="e" horiz-adv-x="497" 
d="M257 -9q-49 0 -90 15q-40 15 -69 44q-28 28 -45 71q-16 39 -16 95v90q0 54 16 95q17 43 45 71q29 29 68 45q40 15 87 15q43 0 81 -12q38 -14 66 -40q28 -27 45 -69q16 -41 16 -101v-72h-317v-23q0 -73 30 -108q28 -34 85 -34q88 0 100 80h102q-7 -80 -62 -121t-142 -41z
M254 452q-46 0 -78 -33q-32 -34 -32 -105h213v11q0 70 -28 98q-29 29 -75 29z" />
    <glyph glyph-name="f" unicode="f" horiz-adv-x="316" 
d="M81 440h-62v83h62v83q0 76 40 116t115 40q15 0 35 -2q15 -2 25 -6v-83q-1 0 -5 1t-7.5 2t-7.5 1q-16 2 -24 2q-35 0 -48 -19q-15 -20 -15 -51v-84h104v-83h-104v-440h-108v440z" />
    <glyph glyph-name="g" unicode="g" horiz-adv-x="535" 
d="M253 -187q-51 0 -90 11q-38 12 -64 32q-28 23 -40 49q-14 30 -17 63h107q5 -34 30 -54q25 -19 74 -19q55 0 86 29q29 31 29 92v80q-19 -36 -55 -59q-37 -25 -89 -25q-40 0 -75 15q-32 13 -59 41q-24 25 -38 66q-14 40 -14 89v94q0 47 14 89q13 36 40 67q24 27 61 44
q34 15 77 15q55 0 87 -22t51 -58v71h107v-508q0 -103 -60 -153q-59 -49 -162 -49zM253 95q54 0 85 34t31 100v84q0 66 -29 101q-28 34 -83 34q-54 0 -82 -34t-28 -97v-95q0 -63 29 -95t77 -32z" />
    <glyph glyph-name="h" unicode="h" horiz-adv-x="517" 
d="M60 758h107v-308q16 33 53 58q34 24 89 24q68 0 110 -42q42 -44 42 -136v-354h-108v347q0 49 -20 74q-20 23 -64 23q-43 0 -72 -26q-30 -27 -30 -79v-339h-107v758z" />
    <glyph glyph-name="i" unicode="i" horiz-adv-x="231" 
d="M115 603q-28 0 -46 19q-19 18 -19 44q0 27 19 46q18 18 46 18q27 0 46 -18q19 -19 19 -46q0 -26 -18 -44q-19 -19 -47 -19zM62 523h107v-523h-107v523z" />
    <glyph glyph-name="j" unicode="j" horiz-adv-x="231" 
d="M115 603q-28 0 -46 19q-19 18 -19 44q0 27 19 46q18 18 46 18q27 0 46 -18q19 -19 19 -46q0 -26 -18 -44q-19 -19 -47 -19zM-8 -99q38 5 54 21q16 17 16 50v551h107v-548q0 -37 -9 -66q-9 -30 -30 -49q-23 -21 -55 -31q-35 -11 -83 -12v84z" />
    <glyph glyph-name="k" unicode="k" horiz-adv-x="469" 
d="M60 758h107v-467l165 232h114l-176 -241l188 -282h-121l-170 258v-258h-107v758z" />
    <glyph glyph-name="l" unicode="l" horiz-adv-x="234" 
d="M63 758h108v-758h-108v758z" />
    <glyph glyph-name="m" unicode="m" horiz-adv-x="781" 
d="M60 523h107v-71q17 33 51 57q34 23 83 23q46 0 78 -19q32 -20 49 -64q24 43 65 63q42 20 85 20q32 0 58 -10q29 -11 47 -31q21 -25 31 -55q11 -36 11 -81v-355h-108v348q0 52 -19 74t-57 22t-67 -26t-29 -78v-340h-106v348q0 52 -19 74t-58 22q-37 0 -66 -26t-29 -78
v-340h-107v523z" />
    <glyph glyph-name="n" unicode="n" horiz-adv-x="517" 
d="M60 523h107v-73q16 33 53 58q34 24 89 24q68 0 110 -42q42 -44 42 -136v-354h-108v347q0 49 -20 74q-20 23 -64 23q-43 0 -72 -26q-30 -27 -30 -79v-339h-107v523z" />
    <glyph glyph-name="o" unicode="o" horiz-adv-x="519" 
d="M259 -9q-50 0 -89 16q-41 15 -70 44q-29 27 -46 71q-17 42 -17 93v91q0 52 17 95q17 44 46 71q30 28 71 45q40 15 89 15q48 0 89 -15q43 -18 71 -44q30 -30 46 -71t16 -94v-91q0 -54 -16 -95q-17 -42 -47 -71q-31 -29 -71 -44q-39 -16 -89 -16zM260 75q55 0 85 37
q29 38 29 103v92q0 67 -30 105q-30 36 -84 36t-84 -36q-31 -37 -31 -104v-93q0 -65 30 -103q28 -37 85 -37z" />
    <glyph glyph-name="p" unicode="p" horiz-adv-x="538" 
d="M167 523v-75q19 33 58 60q37 24 88 24q40 0 76 -14q33 -13 59 -42q25 -30 38 -68q14 -42 14 -94v-100q0 -107 -52 -165t-139 -58q-52 0 -89 23t-53 57v-248h-107v700h107zM165 217q0 -73 31 -107q32 -35 85 -35q110 0 110 137v100q0 71 -30 104q-32 32 -79 32
q-52 0 -84 -35q-33 -35 -33 -107v-89z" />
    <glyph glyph-name="q" unicode="q" horiz-adv-x="538" 
d="M478 -177h-108v252q-17 -32 -56 -59q-37 -25 -89 -25q-39 0 -75 14q-35 14 -59 42q-25 27 -39 68q-14 42 -14 94v99q0 51 14 95q13 41 40 71q25 28 61 43q35 15 78 15q54 0 88 -22q32 -22 51 -58v71h108v-700zM372 306q0 72 -30 107t-84 35t-82 -34q-29 -35 -29 -104
v-100q0 -70 29 -102t77 -32q53 0 86 35q33 34 33 106v89z" />
    <glyph glyph-name="r" unicode="r" horiz-adv-x="340" 
d="M60 523h107v-86q23 47 56 68q36 24 91 25v-103q-38 -2 -62 -7q-25 -6 -46 -20q-18 -14 -29 -38q-10 -23 -10 -59v-303h-107v523z" />
    <glyph glyph-name="s" unicode="s" horiz-adv-x="436" 
d="M221 -9q-90 0 -139 43q-51 43 -52 123h103q1 -40 22 -64q19 -22 65 -22q41 0 61 17q18 17 18 52t-25 51q-22 14 -77 32q-46 15 -71 28q-29 13 -49 33t-27 44q-9 25 -9 59q0 35 14 63q13 25 38 46q23 18 54 27t64 9q35 0 69 -8q30 -7 55 -26q23 -18 38 -47q14 -30 17 -71
h-101q-7 73 -78 73q-33 0 -52 -16t-19 -44q0 -15 5 -27q5 -11 17 -20q9 -8 30 -16q25 -10 46 -17q29 -8 68 -23q30 -14 52 -31q22 -19 34 -45q11 -28 11 -66q0 -76 -46 -116q-47 -41 -136 -41z" />
    <glyph glyph-name="t" unicode="t" horiz-adv-x="322" 
d="M188 634v-111h100v-83h-100v-297q0 -62 55 -62q29 0 48 8v-85q-9 -4 -26 -7t-40 -3q-75 0 -109 37q-36 36 -36 103v306h-61v83h61v111h108z" />
    <glyph glyph-name="u" unicode="u" horiz-adv-x="515" 
d="M455 0h-107v73q-17 -36 -51 -58q-35 -24 -89 -24q-34 0 -61 10q-29 11 -48 31q-22 22 -32 54q-11 35 -11 78v359h108v-349q0 -50 20 -73t62 -23t72 27q30 25 30 77v341h107v-523z" />
    <glyph glyph-name="v" unicode="v" horiz-adv-x="475" 
d="M16 523h114l113 -406l110 406h105l-156 -523h-127z" />
    <glyph glyph-name="w" unicode="w" horiz-adv-x="702" 
d="M18 523h112l86 -384l99 384h84l93 -384l88 384h104l-137 -523h-112l-82 351l-92 -351h-111z" />
    <glyph glyph-name="x" unicode="x" horiz-adv-x="474" 
d="M169 268l-142 255h120l93 -178l92 178h111l-143 -248l156 -275h-121l-102 196l-106 -196h-109z" />
    <glyph glyph-name="y" unicode="y" horiz-adv-x="477" 
d="M247 182l108 341h106l-244 -700h-106l80 227l-175 473h115z" />
    <glyph glyph-name="z" unicode="z" horiz-adv-x="421" 
d="M16 13l238 424h-213v86h362v-15l-235 -421h227v-87h-379v13z" />
    <glyph glyph-name="braceleft" unicode="{" horiz-adv-x="346" 
d="M30 356q64 2 86 31q23 29 15 71l-20 116q-9 53 0 91q9 36 35 61q27 23 67 35q44 11 98 11v-80q-30 -2 -51 -6q-22 -6 -33 -19q-12 -13 -15 -36q-3 -21 2 -56l19 -124q8 -58 -19 -89q-27 -33 -77 -45q50 -14 77 -45t19 -89l-19 -127q-5 -36 -2 -57q3 -23 15 -36
q11 -13 33 -19q21 -4 51 -6v-80q-113 0 -165 46q-53 47 -35 151l20 119q7 44 -15 72q-23 30 -86 31v79z" />
    <glyph glyph-name="bar" unicode="|" horiz-adv-x="228" 
d="M73 770h82v-912h-82v912z" />
    <glyph glyph-name="braceright" unicode="}" horiz-adv-x="346" 
d="M315 277q-62 -1 -85 -31q-22 -28 -15 -72l19 -119q18 -104 -35 -151q-52 -46 -165 -46v80q29 1 52 6q22 6 33 19q12 13 15 36q3 21 -2 57l-19 127q-8 58 19 89t77 45q-50 12 -77 45q-28 31 -19 89l19 124q5 35 2 56q-3 23 -15 36q-11 13 -33 19q-23 5 -52 6v80
q54 0 98 -11q42 -12 68 -35q25 -24 34 -61q9 -38 0 -91l-19 -116q-8 -42 15 -71q22 -30 85 -31v-79z" />
    <glyph glyph-name="asciitilde" unicode="~" horiz-adv-x="415" 
d="M35 229q5 73 36 104q32 32 70 32q21 0 40 -6q3 -1 15.5 -6t18.5 -8q20 -10 29 -14q13 -7 24 -7q15 0 26 11t12 32h75q-1 -34 -11 -61q-11 -28 -24 -43q-16 -18 -32 -25q-19 -8 -36 -8q-24 0 -41 7q-17 5 -35 15q-11 5 -29 15q-13 6 -25 6q-14 0 -25 -11q-12 -12 -13 -33
h-75z" />
    <glyph glyph-name="uni00A0" unicode="&#xa0;" horiz-adv-x="190" 
 />
    <glyph glyph-name="exclamdown" unicode="&#xa1;" horiz-adv-x="264" 
d="M192 -117h-119l17 512h85zM132 604q29 0 51 -20q21 -20 21 -49t-21 -49q-22 -20 -51 -20t-49 20q-21 20 -21 49t21 49q20 20 49 20z" />
    <glyph glyph-name="cent" unicode="&#xa2;" horiz-adv-x="495" 
d="M231 -8q-43 4 -78 21q-37 17 -61 44q-28 31 -40 68q-15 39 -15 90v89q0 50 15 91q15 40 41 69q25 28 62 45q37 18 76 22v90h54v-90q32 -3 66 -14q30 -10 55 -32q23 -22 40 -54q15 -33 18 -78h-101q-4 45 -25 67q-22 22 -53 26v-371q34 6 58 31q25 25 26 75h98
q-4 -84 -53 -133q-47 -48 -129 -56v-115h-54v115zM144 215q0 -62 23 -97q22 -34 64 -42v369q-41 -7 -63 -42q-24 -35 -24 -97v-91z" />
    <glyph glyph-name="sterling" unicode="&#xa3;" horiz-adv-x="533" 
d="M36 383h57q-10 45 -13 71q-6 34 -6 74v1q0 47 16 83q17 37 44 61q25 24 65 38q36 13 83 13q98 0 148 -49q51 -51 55 -140h-110q-6 50 -26 73t-65 23q-41 0 -67 -26t-26 -79v-2q0 -33 5 -71q1 -12 4 -35t5 -35h169v-74h-158q4 -25 6 -51q2 -34 2 -55q0 -44 -14 -80
q44 -12 70 -23q30 -13 56 -13q29 0 46 14q16 13 18 48h101q-2 -34 -12 -62q-11 -30 -28 -50q-18 -21 -45 -33t-62 -12q-29 0 -56 8q-25 7 -50 17q-9 4 -25.5 10t-18.5 7q-22 8 -39 8q-25 0 -35 -12q-12 -15 -13 -30h-92q1 39 23 76q21 37 63 50q6 19 8 34q3 18 3 43
q0 30 -4 54q-2 9 -5 26.5t-4 25.5h-73v74z" />
    <glyph glyph-name="yen" unicode="&#xa5;" 
d="M65 230h142v59h-142v61h129l-174 365h125l125 -285l119 285h110l-163 -365h128v-61h-140v-59h140v-60h-140v-170h-117v170h-142v60z" />
    <glyph glyph-name="brokenbar" unicode="&#xa6;" horiz-adv-x="231" 
d="M73 770h81v-402h-81v402zM73 298h81v-440h-81v440z" />
    <glyph glyph-name="section" unicode="&#xa7;" horiz-adv-x="494" 
d="M244 -122q-86 0 -133 40q-48 40 -51 121h105q1 -40 20 -60q18 -19 57 -19q38 0 56 19q17 20 17 53q0 16 -5 31q-6 13 -19 25q-17 13 -36 22q-23 10 -57 24q-31 11 -69 31q-30 16 -53 37q-23 20 -35 47q-13 26 -13 62q0 47 29 82q29 33 77 47q-30 24 -43 54q-14 31 -14 72
v1q0 35 14 65q13 28 37 49t55 31q33 11 67 11q80 0 126 -40q46 -41 47 -117h-103q-1 36 -17 56q-15 19 -53 19t-54 -19q-18 -20 -18 -49q0 -17 6 -30q5 -15 18 -25q13 -13 34 -23q25 -12 54 -23q37 -13 70 -29q33 -17 56 -36q22 -21 36 -48q13 -27 13 -67q0 -44 -27 -78
q-29 -35 -77 -51q30 -24 44 -53q13 -27 13 -71v-1q0 -73 -46 -116q-47 -44 -128 -44zM290 205q70 16 70 75q0 36 -28 57q-32 22 -78 40q-12 4 -26 11q-3 1 -24 10q-72 -16 -72 -75q0 -33 28 -54q29 -23 80 -42z" />
    <glyph glyph-name="dieresis" unicode="&#xa8;" horiz-adv-x="400" 
d="M111 606q-27 0 -43 18q-18 16 -18 42q0 25 18 43q17 17 43 17q25 0 44 -17q17 -19 17 -43q0 -25 -17 -42q-18 -18 -44 -18zM289 606q-25 0 -43 18q-18 16 -18 42q0 25 18 43q19 17 43 17q25 0 44 -17q18 -18 18 -43q0 -26 -18 -42q-18 -18 -44 -18z" />
    <glyph glyph-name="copyright" unicode="&#xa9;" horiz-adv-x="757" 
d="M378 26q-69 0 -132 26q-62 26 -107 72q-46 45 -72 107q-27 62 -27 134q0 73 27 134q25 61 72 108q45 45 107 72q63 26 134 26t134 -26q61 -25 106 -72q47 -48 71 -107q25 -60 25 -134q0 -71 -26 -134q-25 -62 -71 -108q-47 -47 -107 -72q-63 -26 -134 -26zM378 69
q60 0 111 22q51 20 92 60q40 40 62 94q23 57 23 121q0 67 -22 121q-22 53 -62 93q-38 38 -91 61q-53 21 -111 21q-60 0 -113 -21q-54 -23 -92 -61q-39 -38 -61 -94q-23 -57 -23 -121q0 -66 23 -121q22 -55 63 -94q39 -39 91 -60t110 -21zM380 171q-82 0 -125 45
q-44 46 -44 126v47q0 42 13 72q12 32 34 54t53 34q32 12 68 12q65 0 106 -31q42 -32 46 -100h-85q-9 63 -67 63q-38 0 -59 -26q-21 -25 -21 -76v-50q0 -51 21 -76q20 -26 60 -26q30 0 50 17q17 16 22 51h81q-5 -69 -45 -102q-41 -34 -108 -34z" />
    <glyph glyph-name="ordfeminine" unicode="&#xaa;" horiz-adv-x="388" 
d="M150 292q-53 0 -88 30q-36 30 -36 93v5q0 34 13 59q13 24 37 40q21 14 56 22q31 7 73 7h50v32q0 36 -13 52q-14 17 -46 17q-30 0 -45 -15t-18 -41v-1h-94v1q4 65 49 99q43 33 112 33q72 0 112 -33q41 -35 41 -110v-282h-97v46q-16 -23 -39 -38q-23 -16 -67 -16zM178 363
q34 0 56 18q21 17 21 54v51h-46q-40 0 -63 -14t-23 -47v-5q0 -30 13 -43q12 -14 42 -14z" />
    <glyph glyph-name="guillemotleft" unicode="&#xab;" horiz-adv-x="439" 
d="M43 261l110 176h87l-107 -176l107 -176h-87zM202 261l111 176h87l-107 -176l107 -176h-87z" />
    <glyph glyph-name="registered" unicode="&#xae;" horiz-adv-x="469" 
d="M234 316q-44 0 -80 16q-37 15 -64 43q-26 25 -44 65q-16 36 -16 81t16 81q15 37 43 65q28 27 65 43q36 16 81 16q46 0 82 -16q37 -16 65 -43q27 -28 43 -65q15 -38 15 -80q0 -45 -16 -81q-17 -38 -43 -66q-28 -28 -66 -43q-36 -16 -81 -16zM234 351q37 0 67 13
q30 12 53 35q21 21 35 54q12 31 12 69t-12 69q-14 33 -35 54q-22 22 -52 34q-32 12 -67 12q-37 0 -67 -12q-32 -13 -53 -35q-22 -22 -34 -54q-13 -30 -13 -69q0 -40 13 -70t36 -53q24 -24 52 -35q30 -12 65 -12zM163 629h73q77 0 77 -63v-4q0 -22 -9 -34q-10 -13 -26 -19
l46 -91h-53l-40 81h-17v-81h-51v211zM234 534q29 0 29 27v3q0 26 -29 26h-20v-56h20z" />
    <glyph glyph-name="macron" unicode="&#xaf;" horiz-adv-x="400" 
d="M74 697h252v-73h-252v73z" />
    <glyph glyph-name="degree" unicode="&#xb0;" horiz-adv-x="392" 
d="M196 427q-32 0 -59 12q-28 12 -48 32q-21 19 -33 47q-12 26 -12 56t12 59q12 28 33 47q20 20 48 32q27 12 59 12q30 0 59 -12q27 -11 49 -32q21 -19 33 -47q12 -29 12 -59t-12 -56q-12 -28 -33 -47q-22 -21 -49 -32q-29 -12 -59 -12zM196 486q35 0 58 26q22 25 22 62
q0 40 -22 65q-23 26 -58 26t-58 -26q-24 -25 -24 -65q0 -36 24 -62q23 -26 58 -26z" />
    <glyph glyph-name="plusminus" unicode="&#xb1;" horiz-adv-x="471" 
d="M190 325h-158v84h158v156h91v-156h157v-84h-157v-157h-91v157zM32 104h407v-82h-407v82z" />
    <glyph glyph-name="twosuperior" unicode="&#xb2;" horiz-adv-x="290" 
d="M7 358l113 133q27 33 45 62q15 27 15 55v4q0 44 -40 44q-20 0 -32 -14q-12 -13 -15 -47h-78q1 61 36 93t92 32q61 0 90 -28q30 -28 30 -77v-4q0 -40 -19 -71q-17 -29 -49 -66l-57 -65h128v-63h-259v12z" />
    <glyph glyph-name="threesuperior" unicode="&#xb3;" horiz-adv-x="308" 
d="M151 341q-67 0 -98 31q-33 30 -34 85h76q2 -26 14 -40q12 -15 38 -15q49 0 49 50v7q0 50 -53 50h-23v54h23q51 0 51 47v4q0 22 -10 33q-11 12 -32 12t-33 -12q-14 -14 -15 -38h-77q1 51 35 81q32 30 92 30q57 0 89 -26q31 -27 31 -72v-5q0 -57 -59 -77q31 -6 49 -27
t18 -56v-8q0 -51 -34 -79q-35 -29 -97 -29z" />
    <glyph glyph-name="acute" unicode="&#xb4;" horiz-adv-x="400" 
d="M204 746h122l-95 -150h-79z" />
    <glyph glyph-name="paragraph" unicode="&#xb6;" horiz-adv-x="516" 
d="M240 364h-9q-42 0 -80 11q-39 11 -63 32q-27 24 -40 54q-15 31 -15 76t15 79q15 32 42 55q26 23 63 33q38 11 78 11h215v-803h-69v745h-69v-745h-68v452z" />
    <glyph glyph-name="periodcentered" unicode="&#xb7;" horiz-adv-x="254" 
d="M127 260q-30 0 -50 20q-21 20 -21 50q0 29 21 50q20 20 50 20q28 0 50 -20q20 -22 20 -50q0 -30 -20 -50q-22 -20 -50 -20z" />
    <glyph glyph-name="cedilla" unicode="&#xb8;" horiz-adv-x="400" 
d="M208 -211q-46 0 -74 22q-27 22 -32 62h63q1 -12 12 -23q9 -9 26 -9q15 0 26 9q9 10 9 24q0 16 -9 23q-11 9 -25 9q-10 0 -16 -3q-5 -2 -11 -6l-34 31l43 72h57l-28 -48q21 2 35 -2q17 -3 30 -13q14 -11 21 -26q8 -18 8 -38q0 -42 -29 -63q-28 -21 -72 -21z" />
    <glyph glyph-name="onesuperior" unicode="&#xb9;" horiz-adv-x="234" 
d="M96 630l-74 -50v73l85 62h75v-369h-86v284z" />
    <glyph glyph-name="ordmasculine" unicode="&#xba;" horiz-adv-x="437" 
d="M218 292q-42 0 -75 13q-34 13 -59 37t-39 59q-14 36 -14 77v57q0 43 14 80q13 35 39 60q25 23 60 37q33 13 75 13t75 -13q34 -13 59 -37t39 -59q14 -36 14 -79v-57q0 -43 -14 -79q-14 -35 -39 -59q-25 -23 -60 -37q-33 -13 -75 -13zM219 368q43 0 65 30q22 28 22 80v60
q0 53 -22 81t-65 28t-65 -28q-23 -29 -23 -81v-60q0 -52 23 -81t65 -29z" />
    <glyph glyph-name="guillemotright" unicode="&#xbb;" horiz-adv-x="439" 
d="M147 261l-108 176h87l111 -176l-111 -176h-87zM305 261l-106 176h87l111 -176l-111 -176h-87z" />
    <glyph glyph-name="onequarter" unicode="&#xbc;" horiz-adv-x="674" 
d="M99 630l-74 -50v73l85 62h75v-369h-86v284zM532 715h71l-482 -715h-72zM526 76h-165v27l143 266h103v-233h44v-60h-44v-76h-81v76zM528 136v169l-85 -169h85z" />
    <glyph glyph-name="onehalf" unicode="&#xbd;" horiz-adv-x="686" 
d="M526 715h71l-482 -715h-72zM99 630l-74 -50v73l85 62h75v-369h-86v284zM399 12l113 133q27 33 45 62q15 27 15 55v4q0 44 -40 44q-20 0 -32 -14q-12 -13 -15 -47h-78q1 61 36 93t92 32q61 0 90 -28q30 -28 30 -77v-3q0 -41 -19 -72q-17 -29 -49 -66l-57 -65h128v-63h-259
v12z" />
    <glyph glyph-name="threequarters" unicode="&#xbe;" horiz-adv-x="703" 
d="M154 341q-67 0 -98 31q-33 30 -34 85h76q2 -26 14 -40q12 -15 38 -15q49 0 49 50v7q0 50 -53 50h-23v54h23q51 0 51 47v4q0 22 -10 33q-11 12 -32 12t-33 -12q-14 -14 -15 -38h-77q1 51 35 81q32 30 92 30q57 0 89 -26q31 -27 31 -72v-5q0 -57 -59 -77q31 -6 49 -27
t18 -56v-8q0 -51 -34 -79q-35 -29 -97 -29zM578 715h71l-482 -715h-72zM555 76h-165v27l143 266h103v-233h44v-60h-44v-76h-81v76zM557 136v169l-85 -169h85z" />
    <glyph glyph-name="questiondown" unicode="&#xbf;" horiz-adv-x="451" 
d="M301 348q0 -30 -6 -52q-8 -27 -19 -44q-11 -19 -27 -40q-5 -6 -16.5 -19.5t-17.5 -21.5q-19 -24 -25 -30q-12 -13 -20 -28q-10 -17 -14 -31q-5 -18 -5 -36q0 -83 78 -83q41 0 65 26q23 25 28 78h103q-3 -93 -56 -143q-55 -50 -144 -50q-93 0 -140 45q-46 45 -46 123
q0 28 6 51q6 21 17 42q8 14 26 38q2 3 31 37q10 12 32 36q17 18 26 33q11 17 18 36q7 17 7 39v41h99v-47zM250 604q28 0 51 -20q21 -20 21 -49t-21 -49q-23 -21 -51 -21q-30 0 -49 21q-21 20 -21 49t21 49q20 20 49 20z" />
    <glyph glyph-name="Agrave" unicode="&#xc0;" horiz-adv-x="584" 
d="M398 175h-222l-44 -175h-108l190 715h159l188 -715h-119zM198 262h178l-89 357zM167 894h124l47 -130h-81z" />
    <glyph glyph-name="Aacute" unicode="&#xc1;" horiz-adv-x="584" 
d="M398 175h-222l-44 -175h-108l190 715h159l188 -715h-119zM198 262h178l-89 357zM292 894h124l-91 -130h-81z" />
    <glyph glyph-name="Acircumflex" unicode="&#xc2;" horiz-adv-x="584" 
d="M398 175h-222l-44 -175h-108l190 715h159l188 -715h-119zM198 262h178l-89 357zM244 894h95l96 -130h-78l-67 55l-68 -55h-75z" />
    <glyph glyph-name="Atilde" unicode="&#xc3;" horiz-adv-x="584" 
d="M398 175h-222l-44 -175h-108l190 715h159l188 -715h-119zM198 262h178l-89 357zM344 766q-16 0 -30 6q-15 4 -27 12q-4 2 -12 6.5t-12 6.5q-12 5 -21 5q-14 0 -21 -10q-9 -10 -12 -27h-68q4 57 32 89q25 31 64 31q14 0 31 -5q10 -4 28 -12q12 -8 24 -12q10 -6 21 -6
q12 0 21 10q8 11 11 27h68q-4 -58 -32 -90q-27 -31 -65 -31z" />
    <glyph glyph-name="Adieresis" unicode="&#xc4;" horiz-adv-x="584" 
d="M398 175h-222l-44 -175h-108l190 715h159l188 -715h-119zM198 262h178l-89 357zM196 775q-24 0 -41 17q-18 16 -18 42t18 42q17 17 41 17q25 0 44 -17q17 -17 17 -42t-17 -42q-19 -17 -44 -17zM385 775q-25 0 -42 17q-18 16 -18 42t18 42q17 17 42 17q26 0 43 -17t17 -42
t-17 -42t-43 -17z" />
    <glyph glyph-name="Aring" unicode="&#xc5;" horiz-adv-x="584" 
d="M398 175h-222l-44 -175h-108l190 715h159l188 -715h-119zM198 262h178l-89 357zM291 751q-19 0 -40 8q-18 7 -32 21q-16 16 -22 31q-8 19 -8 39q0 19 8 38q7 17 22 32q14 14 32 21q21 8 40 8t40 -8q19 -7 33 -21q13 -13 21 -32t8 -38q0 -20 -8 -39q-7 -17 -21 -31
t-33 -21q-21 -8 -40 -8zM291 800q19 0 33 14q12 14 12 36q0 21 -12 36q-14 14 -33 14q-20 0 -32 -14q-13 -14 -13 -36q0 -23 13 -36q12 -14 32 -14z" />
    <glyph glyph-name="AE" unicode="&#xc6;" horiz-adv-x="810" 
d="M294 715h469v-92h-257v-208h205v-88h-205v-235h270v-92h-387v179h-191l-67 -179h-112zM230 264h159v359h-25z" />
    <glyph glyph-name="Ccedilla" unicode="&#xc7;" horiz-adv-x="615" 
d="M327 -10q-67 0 -119 21q-53 20 -89 59t-54 95q-19 54 -19 124v137q0 68 21 124t58 94q38 39 88 60q51 21 112 21q53 0 96 -13q45 -14 78 -40q33 -29 54 -70q20 -42 25 -101h-117q-7 68 -40 100q-34 32 -96 32q-75 0 -117 -54t-42 -152v-138q0 -99 41 -152t119 -53
q61 0 101 34q39 34 45 108h112q-4 -59 -25 -105q-22 -46 -55 -74q-37 -30 -79 -43q-47 -14 -98 -14zM316 -211q-46 0 -74 22q-27 22 -32 62h63q1 -12 12 -23q9 -9 26 -9q15 0 26 9q9 10 9 24q0 16 -9 23q-11 9 -25 9q-10 0 -16 -3q-5 -2 -11 -6l-34 31l43 72h57l-28 -48
q21 2 35 -2q17 -3 30 -13q14 -11 21 -26q8 -18 8 -38q0 -42 -29 -63q-28 -21 -72 -21z" />
    <glyph glyph-name="Egrave" unicode="&#xc8;" horiz-adv-x="500" 
d="M136 894h124l47 -130h-81zM68 715h381v-92h-266v-208h215v-88h-215v-235h281v-92h-396v715z" />
    <glyph glyph-name="Eacute" unicode="&#xc9;" horiz-adv-x="500" 
d="M262 894h124l-91 -130h-81zM68 715h381v-92h-266v-208h215v-88h-215v-235h281v-92h-396v715z" />
    <glyph glyph-name="Ecircumflex" unicode="&#xca;" horiz-adv-x="500" 
d="M213 894h95l96 -130h-78l-67 55l-68 -55h-75zM68 715h381v-92h-266v-208h215v-88h-215v-235h281v-92h-396v715z" />
    <glyph glyph-name="Edieresis" unicode="&#xcb;" horiz-adv-x="500" 
d="M68 715h381v-92h-266v-208h215v-88h-215v-235h281v-92h-396v715zM165 775q-24 0 -41 17q-18 16 -18 42t18 42q17 17 41 17q25 0 44 -17q17 -17 17 -42t-17 -42q-19 -17 -44 -17zM354 775q-25 0 -42 17q-18 16 -18 42t18 42q17 17 42 17q26 0 43 -17t17 -42t-17 -42
t-43 -17z" />
    <glyph glyph-name="Igrave" unicode="&#xcc;" horiz-adv-x="261" 
d="M72 715h117v-715h-117v715zM6 894h124l47 -130h-81z" />
    <glyph glyph-name="Iacute" unicode="&#xcd;" horiz-adv-x="261" 
d="M72 715h117v-715h-117v715zM132 894h124l-91 -130h-81z" />
    <glyph glyph-name="Icircumflex" unicode="&#xce;" horiz-adv-x="261" 
d="M72 715h117v-715h-117v715zM83 894h95l96 -130h-78l-67 55l-68 -55h-75z" />
    <glyph glyph-name="Idieresis" unicode="&#xcf;" horiz-adv-x="261" 
d="M72 715h117v-715h-117v715zM35 775q-23 0 -42 17q-17 17 -17 42t17 42q19 17 42 17q25 0 44 -17q17 -17 17 -42t-17 -42q-19 -17 -44 -17zM224 775q-25 0 -42 17q-18 16 -18 42t18 42q17 17 42 17q26 0 43 -17t17 -42t-17 -42t-43 -17z" />
    <glyph glyph-name="Eth" unicode="&#xd0;" horiz-adv-x="631" 
d="M85 318h-59v86h59v311h195q78 0 134 -19q58 -20 95 -57t57 -92q18 -54 18 -122v-132q0 -67 -18 -121q-20 -56 -56 -92q-38 -39 -95 -59q-57 -21 -134 -21h-196v318zM275 93q100 0 145 51q44 50 44 149v131q0 98 -43 148q-43 51 -147 51h-73v-219h142v-86h-142v-225h74z
" />
    <glyph glyph-name="Ntilde" unicode="&#xd1;" horiz-adv-x="624" 
d="M375 766q-17 0 -30 6q-15 4 -27 12q-4 2 -12 6.5t-12 6.5q-12 5 -21 5q-14 0 -21 -10q-9 -10 -12 -27h-68q4 57 32 89q25 31 64 31q14 0 31 -5q10 -4 28 -12q12 -8 24 -12q11 -6 21 -6q12 0 21 10q8 11 11 27h68q-4 -58 -32 -90q-27 -31 -65 -31zM68 715h138l245 -514
v514h105v-715h-121l-262 553v-553h-105v715z" />
    <glyph glyph-name="Ograve" unicode="&#xd2;" horiz-adv-x="672" 
d="M211 894h124l47 -130h-81zM337 -10q-68 0 -119 22q-55 21 -92 60q-39 41 -58 94q-21 54 -21 120v141q0 67 21 122t60 94q37 38 91 60q53 21 118 21q64 0 118 -21q53 -21 91 -59q37 -38 58 -93q21 -54 21 -121v-141q0 -65 -20 -122q-21 -56 -58 -94q-36 -39 -91 -61
q-51 -22 -119 -22zM337 84q82 0 125 55t43 149v140q0 43 -11 82q-10 36 -32 64q-23 28 -53 42q-31 15 -72 15q-83 0 -126 -54q-44 -56 -44 -149v-141q0 -96 46 -149q47 -54 124 -54z" />
    <glyph glyph-name="Oacute" unicode="&#xd3;" horiz-adv-x="672" 
d="M336 894h124l-91 -130h-81zM337 -10q-68 0 -119 22q-55 21 -92 60q-39 41 -58 94q-21 54 -21 120v141q0 67 21 122t60 94q37 38 91 60q53 21 118 21q64 0 118 -21q53 -21 91 -59q37 -38 58 -93q21 -54 21 -121v-141q0 -65 -20 -122q-21 -56 -58 -94q-36 -39 -91 -61
q-51 -22 -119 -22zM337 84q82 0 125 55t43 149v140q0 43 -11 82q-10 36 -32 64q-23 28 -53 42q-31 15 -72 15q-83 0 -126 -54q-44 -56 -44 -149v-141q0 -96 46 -149q47 -54 124 -54z" />
    <glyph glyph-name="Ocircumflex" unicode="&#xd4;" horiz-adv-x="672" 
d="M289 894h95l96 -130h-78l-67 55l-68 -55h-75zM337 -10q-68 0 -119 22q-55 21 -92 60q-39 41 -58 94q-21 54 -21 120v141q0 67 21 122t60 94q37 38 91 60q53 21 118 21q64 0 118 -21q53 -21 91 -59q37 -38 58 -93q21 -54 21 -121v-141q0 -65 -20 -122q-21 -56 -58 -94
q-36 -39 -91 -61q-51 -22 -119 -22zM337 84q82 0 125 55t43 149v140q0 43 -11 82q-10 36 -32 64q-23 28 -53 42q-31 15 -72 15q-83 0 -126 -54q-44 -56 -44 -149v-141q0 -96 46 -149q47 -54 124 -54z" />
    <glyph glyph-name="Otilde" unicode="&#xd5;" horiz-adv-x="672" 
d="M389 766q-17 0 -30 6q-15 4 -27 12q-4 2 -12 6.5t-12 6.5q-12 5 -21 5q-14 0 -21 -10q-9 -10 -12 -27h-68q4 57 32 89q25 31 64 31q14 0 31 -5q10 -4 28 -12q12 -8 24 -12q11 -6 21 -6q12 0 21 10q8 11 11 27h68q-4 -58 -32 -90q-27 -31 -65 -31zM337 -10q-68 0 -119 22
q-55 21 -92 60q-39 41 -58 94q-21 54 -21 120v141q0 67 21 122t60 94q37 38 91 60q53 21 118 21q64 0 118 -21q53 -21 91 -59q37 -38 58 -93q21 -54 21 -121v-141q0 -65 -20 -122q-21 -56 -58 -94q-36 -39 -91 -61q-51 -22 -119 -22zM337 84q82 0 125 55t43 149v140
q0 43 -11 82q-10 36 -32 64q-23 28 -53 42q-31 15 -72 15q-83 0 -126 -54q-44 -56 -44 -149v-141q0 -96 46 -149q47 -54 124 -54z" />
    <glyph glyph-name="Odieresis" unicode="&#xd6;" horiz-adv-x="672" 
d="M240 775q-24 0 -41 17q-18 16 -18 42t18 42q17 17 41 17q25 0 44 -17q17 -17 17 -42t-17 -42q-19 -17 -44 -17zM429 775q-25 0 -42 17q-18 16 -18 42t18 42q17 17 42 17q26 0 43 -17t17 -42t-17 -42t-43 -17zM337 -10q-68 0 -119 22q-55 21 -92 60q-39 41 -58 94
q-21 54 -21 120v141q0 67 21 122t60 94q37 38 91 60q53 21 118 21q64 0 118 -21q53 -21 91 -59q37 -38 58 -93q21 -54 21 -121v-141q0 -65 -20 -122q-21 -56 -58 -94q-36 -39 -91 -61q-51 -22 -119 -22zM337 84q82 0 125 55t43 149v140q0 43 -11 82q-10 36 -32 64
q-23 28 -53 42q-31 15 -72 15q-83 0 -126 -54q-44 -56 -44 -149v-141q0 -96 46 -149q47 -54 124 -54z" />
    <glyph glyph-name="multiply" unicode="&#xd7;" horiz-adv-x="437" 
d="M30 197l131 136l-132 136l60 58l129 -134l129 133l60 -58l-131 -135l132 -136l-60 -58l-130 135l-128 -134z" />
    <glyph glyph-name="Oslash" unicode="&#xd8;" horiz-adv-x="672" 
d="M27 8l72 94q-57 76 -57 188v135q0 68 22 122q20 54 60 95q38 38 93 61q54 21 119 21q58 0 105 -16q48 -17 85 -45l56 74l45 -38l-59 -78q31 -38 47 -86t16 -108v-134q0 -67 -21 -123t-60 -96q-37 -39 -93 -62q-53 -22 -120 -22q-61 0 -110 18q-50 18 -88 50l-66 -87z
M161 283q0 -48 13 -83l289 381q-23 25 -54 38q-30 13 -73 13q-82 0 -129 -56q-46 -55 -46 -151v-142zM338 85q80 0 127 56q46 55 46 151v143q0 52 -15 91l-292 -382q25 -30 58 -44q34 -15 76 -15z" />
    <glyph glyph-name="Ugrave" unicode="&#xd9;" horiz-adv-x="615" 
d="M177 894h124l47 -130h-81zM551 715v-477q0 -122 -63 -185t-184 -63q-115 0 -177 61q-64 60 -64 181v483h118v-477q0 -82 30 -117q28 -36 95 -36q62 0 95 35q32 35 32 125v470h118z" />
    <glyph glyph-name="Uacute" unicode="&#xda;" horiz-adv-x="615" 
d="M303 894h124l-91 -130h-81zM551 715v-477q0 -122 -63 -185t-184 -63q-115 0 -177 61q-64 60 -64 181v483h118v-477q0 -82 30 -117q28 -36 95 -36q62 0 95 35q32 35 32 125v470h118z" />
    <glyph glyph-name="Ucircumflex" unicode="&#xdb;" horiz-adv-x="615" 
d="M254 894h95l96 -130h-78l-67 55l-68 -55h-75zM551 715v-477q0 -122 -63 -185t-184 -63q-115 0 -177 61q-64 60 -64 181v483h118v-477q0 -82 30 -117q28 -36 95 -36q62 0 95 35q32 35 32 125v470h118z" />
    <glyph glyph-name="Udieresis" unicode="&#xdc;" horiz-adv-x="615" 
d="M551 715v-477q0 -122 -63 -185t-184 -63q-115 0 -177 61q-64 60 -64 181v483h118v-477q0 -82 30 -117q28 -36 95 -36q62 0 95 35q32 35 32 125v470h118zM206 775q-24 0 -41 17q-18 16 -18 42t18 42q17 17 41 17q25 0 44 -17q17 -17 17 -42t-17 -42q-19 -17 -44 -17z
M395 775q-25 0 -42 17q-18 16 -18 42t18 42q17 17 42 17q26 0 43 -17t17 -42t-17 -42t-43 -17z" />
    <glyph glyph-name="Yacute" unicode="&#xdd;" horiz-adv-x="534" 
d="M213 309l-198 406h127l134 -298l131 298h112l-188 -406v-309h-118v309zM271 894h124l-91 -130h-81z" />
    <glyph glyph-name="Thorn" unicode="&#xde;" horiz-adv-x="528" 
d="M68 715h117v-134h80q108 0 172 -47q62 -47 62 -151v-21q0 -52 -16 -88q-17 -38 -47 -62q-31 -25 -74 -37q-44 -12 -95 -12h-82v-163h-117v715zM266 249q118 0 118 114v20q0 61 -30 85q-31 24 -88 24h-81v-243h81z" />
    <glyph glyph-name="germandbls" unicode="&#xdf;" horiz-adv-x="521" 
d="M298 -6q-24 0 -43 3q-22 3 -30 7v84q13 -4 25 -5q13 -3 31 -3q16 0 36 5q18 5 31 18q14 14 21 37q8 24 8 60v56q0 74 -37 108q-37 33 -103 31v83q29 0 51 8q19 7 33 23q12 12 19 34q5 22 5 42v2q0 51 -23 76q-23 23 -66 23q-40 0 -64 -27t-24 -77v-582h-108v576
q0 47 16 82q17 37 43 60t64 37q36 12 77 12q87 0 138 -45q51 -46 51 -134v-1q0 -50 -26 -90q-27 -40 -78 -55q62 -16 103 -63q39 -47 39 -128v-52q0 -55 -14 -95q-13 -39 -39 -63q-26 -25 -60 -36q-36 -11 -76 -11z" />
    <glyph glyph-name="agrave" unicode="&#xe0;" horiz-adv-x="482" 
d="M186 -9q-32 0 -61 9t-48 28q-22 21 -32 47q-12 27 -12 65v11q0 42 17 73q16 30 46 49q29 18 70 26q43 8 88 8h64v47q0 47 -17 72q-18 23 -63 23q-77 0 -83 -76h-104q1 42 18 72q15 30 41 50q25 19 59 28q35 9 74 9t74 -9q34 -11 57 -31q25 -22 38 -54q13 -33 13 -81v-357
h-106v57q-20 -29 -50 -47q-29 -19 -83 -19zM214 70q46 0 75 23t29 71v72h-60q-56 0 -88 -18q-31 -19 -31 -64v-9q0 -37 18 -56q16 -19 57 -19zM109 746h122l53 -150h-79z" />
    <glyph glyph-name="aacute" unicode="&#xe1;" horiz-adv-x="482" 
d="M186 -9q-32 0 -61 9t-48 28q-22 21 -32 47q-12 27 -12 65v11q0 42 17 73q16 30 46 49q29 18 70 26q43 8 88 8h64v47q0 47 -17 72q-18 23 -63 23q-77 0 -83 -76h-104q1 42 18 72q15 30 41 50q25 19 59 28q35 9 74 9t74 -9q34 -11 57 -31q25 -22 38 -54q13 -33 13 -81v-357
h-106v57q-20 -29 -50 -47q-29 -19 -83 -19zM214 70q46 0 75 23t29 71v72h-60q-56 0 -88 -18q-31 -19 -31 -64v-9q0 -37 18 -56q16 -19 57 -19zM245 746h122l-95 -150h-79z" />
    <glyph glyph-name="acircumflex" unicode="&#xe2;" horiz-adv-x="482" 
d="M186 -9q-32 0 -61 9t-48 28q-22 21 -32 47q-12 27 -12 65v11q0 42 17 73q16 30 46 49q29 18 70 26q43 8 88 8h64v47q0 47 -17 72q-18 23 -63 23q-77 0 -83 -76h-104q1 42 18 72q15 30 41 50q25 19 59 28q35 9 74 9t74 -9q34 -11 57 -31q25 -22 38 -54q13 -33 13 -81v-357
h-106v57q-20 -29 -50 -47q-29 -19 -83 -19zM214 70q46 0 75 23t29 71v72h-60q-56 0 -88 -18q-31 -19 -31 -64v-9q0 -37 18 -56q16 -19 57 -19zM191 745h90l96 -148h-77l-66 68l-66 -68h-76z" />
    <glyph glyph-name="atilde" unicode="&#xe3;" horiz-adv-x="482" 
d="M186 -9q-32 0 -61 9t-48 28q-22 21 -32 47q-12 27 -12 65v11q0 42 17 73q16 30 46 49q29 18 70 26q43 8 88 8h64v47q0 47 -17 72q-18 23 -63 23q-77 0 -83 -76h-104q1 42 18 72q15 30 41 50q25 19 59 28q35 9 74 9t74 -9q34 -11 57 -31q25 -22 38 -54q13 -33 13 -81v-357
h-106v57q-20 -29 -50 -47q-29 -19 -83 -19zM214 70q46 0 75 23t29 71v72h-60q-56 0 -88 -18q-31 -19 -31 -64v-9q0 -37 18 -56q16 -19 57 -19zM290 602q-18 0 -31 6q-18 8 -26 13q-8 4 -22 12q-11 6 -21 6q-12 0 -20 -11q-9 -10 -12 -28h-66q5 61 30 92q26 32 63 32
q17 0 30 -6l27 -12q5 -3 13.5 -7.5t9.5 -5.5q11 -6 21 -6q13 0 21 11q7 10 12 28h66q-4 -59 -31 -92q-27 -32 -64 -32z" />
    <glyph glyph-name="adieresis" unicode="&#xe4;" horiz-adv-x="482" 
d="M186 -9q-32 0 -61 9t-48 28q-22 21 -32 47q-12 27 -12 65v11q0 42 17 73q16 30 46 49q29 18 70 26q43 8 88 8h64v47q0 47 -17 72q-18 23 -63 23q-77 0 -83 -76h-104q1 42 18 72q15 30 41 50q25 19 59 28q35 9 74 9t74 -9q34 -11 57 -31q25 -22 38 -54q13 -33 13 -81v-357
h-106v57q-20 -29 -50 -47q-29 -19 -83 -19zM214 70q46 0 75 23t29 71v72h-60q-56 0 -88 -18q-31 -19 -31 -64v-9q0 -37 18 -56q16 -19 57 -19zM149 606q-27 0 -43 18q-18 16 -18 42q0 25 18 43q17 17 43 17q25 0 44 -17q17 -19 17 -43q0 -25 -17 -42q-18 -18 -44 -18z
M327 606q-25 0 -43 18q-18 16 -18 42q0 25 18 43q19 17 43 17q25 0 44 -17q18 -18 18 -43q0 -26 -18 -42q-18 -18 -44 -18z" />
    <glyph glyph-name="aring" unicode="&#xe5;" horiz-adv-x="482" 
d="M186 -9q-32 0 -61 9t-48 28q-22 21 -32 47q-12 27 -12 65v11q0 42 17 73q16 30 46 49q29 18 70 26q43 8 88 8h64v47q0 47 -17 72q-18 23 -63 23q-77 0 -83 -76h-104q1 42 18 72q15 30 41 50q25 19 59 28q35 9 74 9t74 -9q34 -11 57 -31q25 -22 38 -54q13 -33 13 -81v-357
h-106v57q-20 -29 -50 -47q-29 -19 -83 -19zM214 70q46 0 75 23t29 71v72h-60q-56 0 -88 -18q-31 -19 -31 -64v-9q0 -37 18 -56q16 -19 57 -19zM238 588q-19 0 -40 8q-18 7 -32 21q-16 16 -22 31q-8 19 -8 38q0 20 8 39q7 17 22 32q14 14 32 21q21 8 40 8t40 -8q20 -8 33 -21
t21 -32t8 -39q0 -19 -8 -38q-7 -17 -21 -31q-13 -13 -33 -21q-21 -8 -40 -8zM238 637q19 0 33 14q12 13 12 35t-12 36q-14 14 -33 14q-20 0 -32 -14q-13 -13 -13 -36q0 -22 13 -35q12 -14 32 -14z" />
    <glyph glyph-name="ae" unicode="&#xe6;" horiz-adv-x="762" 
d="M197 -9q-37 0 -66 10q-31 9 -51 28q-22 19 -34 47q-13 27 -13 65v11q0 43 16 74q16 30 46 50q27 18 70 28q41 9 88 9h61v43q0 48 -17 71q-18 22 -61 22q-74 0 -81 -76h-104q3 41 18 71q16 31 40 50q24 18 59 29q33 9 71 9q51 0 85 -15t54 -50q53 65 145 65q41 0 79 -12
q37 -13 65 -40q26 -26 43 -69q16 -41 16 -101v-71h-308v-24q0 -142 106 -142q46 0 70 21q24 19 30 59h102q-7 -80 -61 -121q-55 -41 -142 -41q-114 0 -165 86q-25 -43 -63 -64q-37 -22 -98 -22zM520 452q-46 0 -74 -33q-28 -32 -28 -106h203v19q0 64 -26 93q-25 27 -75 27z
M214 70q45 0 73 23q27 23 27 71v76h-57q-57 0 -87 -18q-31 -19 -31 -67v-10q0 -75 75 -75z" />
    <glyph glyph-name="ccedilla" unicode="&#xe7;" horiz-adv-x="490" 
d="M257 -9q-46 0 -88 14q-41 13 -69 42q-30 28 -46 70q-17 43 -17 97v92q0 52 17 97q17 42 47 71q28 28 69 43q40 15 85 15q39 0 74 -9t63 -30q27 -21 45 -55q17 -36 20 -85h-103q-5 54 -32 74q-28 20 -66 20q-50 0 -80 -35q-31 -34 -31 -104v-94q0 -73 31 -105
q30 -34 83 -34q20 0 38 6q19 7 32 19q14 13 23 33q7 19 9 49h98q-3 -94 -57 -142q-55 -49 -145 -49zM249 -211q-46 0 -74 22q-27 22 -32 62h63q1 -12 12 -23q9 -9 26 -9q16 0 26 9q9 10 9 24q0 16 -9 23q-10 9 -25 9q-10 0 -16 -3q-5 -2 -11 -6l-34 31l43 72h57l-28 -48
q21 2 35 -2q17 -3 30 -13q14 -11 21 -26q8 -18 8 -38q0 -42 -29 -63t-72 -21z" />
    <glyph glyph-name="egrave" unicode="&#xe8;" horiz-adv-x="497" 
d="M257 -9q-49 0 -90 15q-40 15 -69 44q-28 28 -45 71q-16 39 -16 95v90q0 54 16 95q17 43 45 71q29 29 68 45q40 15 87 15q43 0 81 -12q38 -14 66 -40q28 -27 45 -69q16 -41 16 -101v-72h-317v-23q0 -73 30 -108q28 -34 85 -34q88 0 100 80h102q-7 -80 -62 -121t-142 -41z
M254 452q-46 0 -78 -33q-32 -34 -32 -105h213v11q0 70 -28 98q-29 29 -75 29zM122 746h122l53 -150h-79z" />
    <glyph glyph-name="eacute" unicode="&#xe9;" horiz-adv-x="497" 
d="M259 746h122l-95 -150h-79zM257 -9q-49 0 -90 15q-40 15 -69 44q-28 28 -45 71q-16 39 -16 95v90q0 54 16 95q17 43 45 71q29 29 68 45q40 15 87 15q43 0 81 -12q38 -14 66 -40q28 -27 45 -69q16 -41 16 -101v-72h-317v-23q0 -73 30 -108q28 -34 85 -34q88 0 100 80h102
q-7 -80 -62 -121t-142 -41zM254 452q-46 0 -78 -33q-32 -34 -32 -105h213v11q0 70 -28 98q-29 29 -75 29z" />
    <glyph glyph-name="ecircumflex" unicode="&#xea;" horiz-adv-x="497" 
d="M207 745h90l96 -148h-77l-66 68l-66 -68h-76zM257 -9q-49 0 -90 15q-40 15 -69 44q-28 28 -45 71q-16 39 -16 95v90q0 54 16 95q17 43 45 71q29 29 68 45q40 15 87 15q43 0 81 -12q38 -14 66 -40q28 -27 45 -69q16 -41 16 -101v-72h-317v-23q0 -73 30 -108q28 -34 85 -34
q88 0 100 80h102q-7 -80 -62 -121t-142 -41zM254 452q-46 0 -78 -33q-32 -34 -32 -105h213v11q0 70 -28 98q-29 29 -75 29z" />
    <glyph glyph-name="edieresis" unicode="&#xeb;" horiz-adv-x="497" 
d="M162 606q-26 0 -43 18q-18 16 -18 42q0 25 18 43q17 17 43 17q25 0 44 -17q17 -19 17 -43q0 -25 -17 -42q-18 -18 -44 -18zM340 606q-25 0 -43 18q-18 16 -18 42q0 25 18 43q19 17 43 17q25 0 44 -17q18 -18 18 -43q0 -26 -18 -42q-18 -18 -44 -18zM257 -9q-49 0 -90 15
q-40 15 -69 44q-28 28 -45 71q-16 39 -16 95v90q0 54 16 95q17 43 45 71q29 29 68 45q40 15 87 15q43 0 81 -12q38 -14 66 -40q28 -27 45 -69q16 -41 16 -101v-72h-317v-23q0 -73 30 -108q28 -34 85 -34q88 0 100 80h102q-7 -80 -62 -121t-142 -41zM254 452q-46 0 -78 -33
q-32 -34 -32 -105h213v11q0 70 -28 98q-29 29 -75 29z" />
    <glyph glyph-name="igrave" unicode="&#xec;" horiz-adv-x="231" 
d="M62 523h107v-523h-107v523zM-13 746h122l53 -150h-79z" />
    <glyph glyph-name="iacute" unicode="&#xed;" horiz-adv-x="231" 
d="M124 746h122l-95 -150h-79zM62 523h107v-523h-107v523z" />
    <glyph glyph-name="icircumflex" unicode="&#xee;" horiz-adv-x="231" 
d="M72 745h90l96 -148h-77l-66 68l-66 -68h-76zM62 523h107v-523h-107v523z" />
    <glyph glyph-name="idieresis" unicode="&#xef;" horiz-adv-x="231" 
d="M32 606q-25 0 -43 18q-17 17 -17 42q0 24 17 43q19 17 43 17q26 0 43 -17q17 -19 17 -43q0 -25 -17 -42q-17 -18 -43 -18zM198 606q-26 0 -42 18q-18 16 -18 42q0 25 18 43q17 17 42 17q24 0 43 -17q18 -18 18 -43q0 -26 -18 -42q-18 -18 -43 -18zM62 523h107v-523h-107
v523z" />
    <glyph glyph-name="eth" unicode="&#xf0;" horiz-adv-x="521" 
d="M259 -9q-51 0 -90 16q-43 17 -70 46q-28 28 -45 71t-17 94v89q0 54 16 95q18 43 43 70q26 29 61 44q34 15 73 15q38 0 67 -15q28 -16 47 -39q-17 39 -44 79q-20 29 -58 71l-109 -53l-26 48l94 46q-56 52 -115 91h132q19 -10 35 -21q11 -9 35 -27l83 40l25 -49l-64 -31
q30 -30 58 -67q27 -38 48 -81q19 -40 34 -94q12 -49 12 -107v-99q0 -55 -16 -97q-16 -41 -46 -73q-29 -29 -71 -46q-41 -16 -92 -16zM261 75q55 0 84 38t29 103v91q0 67 -29 105q-29 36 -84 36t-85 -36q-30 -38 -30 -104v-92q0 -66 30 -103q29 -38 85 -38z" />
    <glyph glyph-name="ntilde" unicode="&#xf1;" horiz-adv-x="517" 
d="M60 523h107v-73q16 33 53 58q34 24 89 24q68 0 110 -42q42 -44 42 -136v-354h-108v347q0 49 -20 74q-20 23 -64 23q-43 0 -72 -26q-30 -27 -30 -79v-339h-107v523zM310 602q-18 0 -31 6q-18 8 -26 13q-8 4 -22 12q-11 6 -21 6q-12 0 -20 -11q-9 -10 -12 -28h-66
q5 61 30 92q26 32 63 32q17 0 30 -6l27 -12q5 -3 13.5 -7.5t9.5 -5.5q11 -6 21 -6q13 0 21 11q7 10 12 28h66q-4 -59 -31 -92q-27 -32 -64 -32z" />
    <glyph glyph-name="ograve" unicode="&#xf2;" horiz-adv-x="519" 
d="M259 -9q-50 0 -89 16q-41 15 -70 44q-29 27 -46 71q-17 42 -17 93v91q0 52 17 95q17 44 46 71q30 28 71 45q40 15 89 15q48 0 89 -15q43 -18 71 -44q30 -30 46 -71t16 -94v-91q0 -54 -16 -95q-17 -42 -47 -71q-31 -29 -71 -44q-39 -16 -89 -16zM260 75q55 0 85 37
q29 38 29 103v92q0 67 -30 105q-30 36 -84 36t-84 -36q-31 -37 -31 -104v-93q0 -65 30 -103q28 -37 85 -37zM130 746h122l53 -150h-79z" />
    <glyph glyph-name="oacute" unicode="&#xf3;" horiz-adv-x="519" 
d="M266 746h122l-95 -150h-79zM259 -9q-50 0 -89 16q-41 15 -70 44q-29 27 -46 71q-17 42 -17 93v91q0 52 17 95q17 44 46 71q30 28 71 45q40 15 89 15q48 0 89 -15q43 -18 71 -44q30 -30 46 -71t16 -94v-91q0 -54 -16 -95q-17 -42 -47 -71q-31 -29 -71 -44q-39 -16 -89 -16
zM260 75q55 0 85 37q29 38 29 103v92q0 67 -30 105q-30 36 -84 36t-84 -36q-31 -37 -31 -104v-93q0 -65 30 -103q28 -37 85 -37z" />
    <glyph glyph-name="ocircumflex" unicode="&#xf4;" horiz-adv-x="519" 
d="M215 745h90l96 -148h-77l-66 68l-66 -68h-76zM259 -9q-50 0 -89 16q-41 15 -70 44q-29 27 -46 71q-17 42 -17 93v91q0 52 17 95q17 44 46 71q30 28 71 45q40 15 89 15q48 0 89 -15q43 -18 71 -44q30 -30 46 -71t16 -94v-91q0 -54 -16 -95q-17 -42 -47 -71
q-31 -29 -71 -44q-39 -16 -89 -16zM260 75q55 0 85 37q29 38 29 103v92q0 67 -30 105q-30 36 -84 36t-84 -36q-31 -37 -31 -104v-93q0 -65 30 -103q28 -37 85 -37z" />
    <glyph glyph-name="otilde" unicode="&#xf5;" horiz-adv-x="519" 
d="M259 -9q-50 0 -89 16q-41 15 -70 44q-29 27 -46 71q-17 42 -17 93v91q0 52 17 95q17 44 46 71q30 28 71 45q40 15 89 15q48 0 89 -15q43 -18 71 -44q30 -30 46 -71t16 -94v-91q0 -54 -16 -95q-17 -42 -47 -71q-31 -29 -71 -44q-39 -16 -89 -16zM260 75q55 0 85 37
q29 38 29 103v92q0 67 -30 105q-30 36 -84 36t-84 -36q-31 -37 -31 -104v-93q0 -65 30 -103q28 -37 85 -37zM311 602q-17 0 -31 6q-18 8 -26 13q-8 4 -22 12q-10 6 -21 6q-12 0 -20 -11q-9 -10 -12 -28h-66q5 61 30 92q26 32 63 32q16 0 30 -6l27 -12q5 -3 13.5 -7.5
t9.5 -5.5q10 -6 21 -6q13 0 21 11q7 10 12 28h66q-4 -59 -31 -92q-27 -32 -64 -32z" />
    <glyph glyph-name="odieresis" unicode="&#xf6;" horiz-adv-x="519" 
d="M170 606q-26 0 -43 18q-18 16 -18 42q0 25 18 43q17 17 43 17q25 0 44 -17q17 -19 17 -43q0 -25 -17 -42q-18 -18 -44 -18zM348 606q-25 0 -43 18q-18 16 -18 42q0 25 18 43q19 17 43 17q25 0 44 -17q18 -18 18 -43q0 -26 -18 -42q-18 -18 -44 -18zM259 -9q-50 0 -89 16
q-41 15 -70 44q-29 27 -46 71q-17 42 -17 93v91q0 52 17 95q17 44 46 71q30 28 71 45q40 15 89 15q48 0 89 -15q43 -18 71 -44q30 -30 46 -71t16 -94v-91q0 -54 -16 -95q-17 -42 -47 -71q-31 -29 -71 -44q-39 -16 -89 -16zM260 75q55 0 85 37q29 38 29 103v92q0 67 -30 105
q-30 36 -84 36t-84 -36q-31 -37 -31 -104v-93q0 -65 30 -103q28 -37 85 -37z" />
    <glyph glyph-name="divide" unicode="&#xf7;" horiz-adv-x="472" 
d="M236 446q-30 0 -49 19q-20 20 -20 48q0 29 20 49q19 19 49 19q29 0 48 -19q20 -20 20 -49q0 -28 -20 -48q-19 -19 -48 -19zM32 382h407v-82h-407v82zM236 102q-29 0 -49 20t-20 47q0 29 20 49q19 19 49 19q29 0 48 -19q20 -20 20 -49q0 -27 -20 -47t-48 -20z" />
    <glyph glyph-name="oslash" unicode="&#xf8;" horiz-adv-x="519" 
d="M21 1l57 74q-22 30 -32 64q-12 36 -12 79v85q0 51 17 96q16 41 47 72q30 29 72 45q39 16 90 16q83 0 141 -43l48 62l44 -32l-53 -69q21 -29 33 -64q12 -36 12 -81v-85q0 -52 -17 -95q-16 -43 -47 -72q-29 -29 -71 -46q-41 -16 -91 -16q-84 0 -141 45l-53 -68zM142 215
q0 -29 6 -51l196 251q-31 34 -84 34q-55 0 -86 -37q-32 -38 -32 -105v-92zM260 75q55 0 87 38q31 37 31 104v92q0 33 -7 54l-196 -254q31 -34 85 -34z" />
    <glyph glyph-name="ugrave" unicode="&#xf9;" horiz-adv-x="515" 
d="M455 0h-107v73q-17 -36 -51 -58q-35 -24 -89 -24q-34 0 -61 10q-29 11 -48 31q-22 22 -32 54q-11 35 -11 78v359h108v-349q0 -50 20 -73t62 -23t72 27q30 25 30 77v341h107v-523zM127 746h122l53 -150h-79z" />
    <glyph glyph-name="uacute" unicode="&#xfa;" horiz-adv-x="515" 
d="M264 746h122l-95 -150h-79zM455 0h-107v73q-17 -36 -51 -58q-35 -24 -89 -24q-34 0 -61 10q-29 11 -48 31q-22 22 -32 54q-11 35 -11 78v359h108v-349q0 -50 20 -73t62 -23t72 27q30 25 30 77v341h107v-523z" />
    <glyph glyph-name="ucircumflex" unicode="&#xfb;" horiz-adv-x="515" 
d="M213 745h90l96 -148h-77l-66 68l-66 -68h-76zM455 0h-107v73q-17 -36 -51 -58q-35 -24 -89 -24q-34 0 -61 10q-29 11 -48 31q-22 22 -32 54q-11 35 -11 78v359h108v-349q0 -50 20 -73t62 -23t72 27q30 25 30 77v341h107v-523z" />
    <glyph glyph-name="udieresis" unicode="&#xfc;" horiz-adv-x="515" 
d="M167 606q-27 0 -43 18q-18 16 -18 42q0 25 18 43q17 17 43 17q25 0 44 -17q17 -19 17 -43q0 -25 -17 -42q-18 -18 -44 -18zM345 606q-25 0 -43 18q-18 16 -18 42q0 25 18 43q19 17 43 17q25 0 44 -17q18 -18 18 -43q0 -26 -18 -42q-18 -18 -44 -18zM455 0h-107v73
q-17 -36 -51 -58q-35 -24 -89 -24q-34 0 -61 10q-29 11 -48 31q-22 22 -32 54q-11 35 -11 78v359h108v-349q0 -50 20 -73t62 -23t72 27q30 25 30 77v341h107v-523z" />
    <glyph glyph-name="yacute" unicode="&#xfd;" horiz-adv-x="477" 
d="M247 182l108 341h106l-244 -700h-106l80 227l-175 473h115zM251 746h122l-95 -150h-79z" />
    <glyph glyph-name="thorn" unicode="&#xfe;" horiz-adv-x="538" 
d="M60 759h108v-311q18 34 57 60q37 24 89 24q42 0 76 -15q35 -15 60 -43t39 -70q14 -44 14 -96v-89q0 -52 -14 -96q-14 -43 -39 -71q-25 -29 -61 -45q-35 -15 -78 -15q-55 0 -89 23q-38 23 -54 56v-248h-108v936zM282 77q54 0 83 36q28 34 28 104v89q0 73 -31 107t-79 34
q-52 0 -84 -35q-33 -34 -33 -107v-87q0 -72 31 -106q32 -35 85 -35z" />
    <glyph glyph-name="ydieresis" unicode="&#xff;" horiz-adv-x="477" 
d="M247 182l108 341h106l-244 -700h-106l80 227l-175 473h115zM154 606q-27 0 -43 18q-18 16 -18 42q0 25 18 43q17 17 43 17q25 0 44 -17q17 -19 17 -43q0 -25 -17 -42q-18 -18 -44 -18zM332 606q-25 0 -43 18q-18 16 -18 42q0 25 18 43q19 17 43 17q25 0 44 -17
q18 -18 18 -43q0 -26 -18 -42q-18 -18 -44 -18z" />
    <glyph glyph-name="Amacron" unicode="&#x100;" horiz-adv-x="584" 
d="M398 175h-222l-44 -175h-108l190 715h159l188 -715h-119zM198 262h178l-89 357zM161 853h260v-76h-260v76z" />
    <glyph glyph-name="amacron" unicode="&#x101;" horiz-adv-x="482" 
d="M186 -9q-32 0 -61 9t-48 28q-22 21 -32 47q-12 27 -12 65v11q0 42 17 73q16 30 46 49q29 18 70 26q43 8 88 8h64v47q0 47 -17 72q-18 23 -63 23q-77 0 -83 -76h-104q1 42 18 72q15 30 41 50q25 19 59 28q35 9 74 9t74 -9q34 -11 57 -31q25 -22 38 -54q13 -33 13 -81v-357
h-106v57q-20 -29 -50 -47q-29 -19 -83 -19zM214 70q46 0 75 23t29 71v72h-60q-56 0 -88 -18q-31 -19 -31 -64v-9q0 -37 18 -56q16 -19 57 -19zM112 697h252v-73h-252v73z" />
    <glyph glyph-name="Abreve" unicode="&#x102;" horiz-adv-x="584" 
d="M398 175h-222l-44 -175h-108l190 715h159l188 -715h-119zM198 262h178l-89 357zM290 759q-54 0 -91 35q-37 34 -40 96h76q3 -26 16 -39q14 -14 39 -14t41 14q14 14 17 39h75q-3 -62 -40 -96q-38 -35 -93 -35z" />
    <glyph glyph-name="abreve" unicode="&#x103;" horiz-adv-x="482" 
d="M186 -9q-32 0 -61 9t-48 28q-22 21 -32 47q-12 27 -12 65v11q0 42 17 73q16 30 46 49q29 18 70 26q43 8 88 8h64v47q0 47 -17 72q-18 23 -63 23q-77 0 -83 -76h-104q1 42 18 72q15 30 41 50q25 19 59 28q35 9 74 9t74 -9q34 -11 57 -31q25 -22 38 -54q13 -33 13 -81v-357
h-106v57q-20 -29 -50 -47q-29 -19 -83 -19zM214 70q46 0 75 23t29 71v72h-60q-56 0 -88 -18q-31 -19 -31 -64v-9q0 -37 18 -56q16 -19 57 -19zM237 600q-52 0 -89 35q-37 34 -39 100h73q5 -28 17 -41q13 -15 38 -15t40 15q13 15 18 41h73q-3 -66 -40 -100q-38 -35 -91 -35z
" />
    <glyph glyph-name="Aogonek" unicode="&#x104;" horiz-adv-x="584" 
d="M403 -103q0 34 23 60q24 28 51 43h-35l-44 175h-222l-44 -175h-108l190 715h159l188 -715h-10q-26 -22 -39 -40q-13 -19 -13 -40q0 -32 33 -32q20 0 38 8v-64q-13 -5 -28 -9q-16 -3 -37 -3q-44 0 -73 20t-29 57zM198 262h179l-90 357z" />
    <glyph glyph-name="aogonek" unicode="&#x105;" horiz-adv-x="482" 
d="M269 -103q0 35 22 60q24 28 51 43h-23v57q-20 -29 -50 -47q-29 -19 -83 -19q-32 0 -61 9t-48 28q-22 21 -32 47q-12 27 -12 65v11q0 42 17 73q16 30 46 49q29 18 70 26q43 8 88 8h64v47q0 47 -17 72q-18 23 -63 23q-77 0 -83 -76h-104q1 42 18 72q15 30 41 50
q25 19 59 28q35 9 74 9t74 -9q34 -11 57 -31q25 -22 38 -54q13 -33 13 -81v-357h-9q-26 -22 -39 -40q-13 -19 -13 -40q0 -32 33 -32q13 0 20 1q8 1 18 7v-64q-11 -4 -27 -9q-16 -3 -38 -3q-44 0 -73 20q-28 19 -28 57zM214 70q46 0 75 23t29 71v72h-60q-56 0 -88 -18
q-31 -19 -31 -64v-9q0 -37 18 -56q16 -19 57 -19z" />
    <glyph glyph-name="Cacute" unicode="&#x106;" horiz-adv-x="615" 
d="M327 -10q-67 0 -119 21q-53 20 -89 59t-54 95q-19 54 -19 124v137q0 68 21 124t58 94q38 39 88 60q51 21 112 21q53 0 96 -13q45 -14 78 -40q33 -29 54 -70q20 -42 25 -101h-117q-7 68 -40 100q-34 32 -96 32q-75 0 -117 -54t-42 -152v-138q0 -99 41 -152t119 -53
q61 0 101 34q39 34 45 108h112q-4 -59 -25 -105q-22 -46 -55 -74q-37 -30 -79 -43q-47 -14 -98 -14zM326 894h124l-91 -130h-81z" />
    <glyph glyph-name="cacute" unicode="&#x107;" horiz-adv-x="490" 
d="M261 746h122l-95 -150h-79zM257 -9q-46 0 -88 14q-41 13 -69 42q-30 28 -46 70q-17 43 -17 97v92q0 52 17 97q17 42 47 71q28 28 69 43q40 15 85 15q39 0 74 -9t63 -30q27 -21 45 -55q17 -36 20 -85h-103q-5 54 -32 74q-28 20 -66 20q-50 0 -80 -35q-31 -34 -31 -104v-94
q0 -73 31 -105q30 -34 83 -34q20 0 38 6q19 7 32 19q14 13 23 33q7 19 9 49h98q-3 -94 -57 -142q-55 -49 -145 -49z" />
    <glyph glyph-name="Ccircumflex" unicode="&#x108;" horiz-adv-x="615" 
d="M278 894h95l96 -130h-78l-67 55l-68 -55h-75zM327 -10q-67 0 -119 21q-53 20 -89 59t-54 95q-19 54 -19 124v137q0 68 21 124t58 94q38 39 88 60q51 21 112 21q53 0 96 -13q45 -14 78 -40q33 -29 54 -70q20 -42 25 -101h-117q-7 68 -40 100q-34 32 -96 32q-75 0 -117 -54
t-42 -152v-138q0 -99 41 -152t119 -53q61 0 101 34q39 34 45 108h112q-4 -59 -25 -105q-22 -46 -55 -74q-37 -30 -79 -43q-47 -14 -98 -14z" />
    <glyph glyph-name="ccircumflex" unicode="&#x109;" horiz-adv-x="490" 
d="M209 745h90l96 -148h-77l-66 68l-66 -68h-76zM257 -9q-46 0 -88 14q-41 13 -69 42q-30 28 -46 70q-17 43 -17 97v92q0 52 17 97q17 42 47 71q28 28 69 43q40 15 85 15q39 0 74 -9t63 -30q27 -21 45 -55q17 -36 20 -85h-103q-5 54 -32 74q-28 20 -66 20q-50 0 -80 -35
q-31 -34 -31 -104v-94q0 -73 31 -105q30 -34 83 -34q20 0 38 6q19 7 32 19q14 13 23 33q7 19 9 49h98q-3 -94 -57 -142q-55 -49 -145 -49z" />
    <glyph glyph-name="Cdotaccent" unicode="&#x10a;" horiz-adv-x="615" 
d="M327 -10q-67 0 -119 21q-53 20 -89 59t-54 95q-19 54 -19 124v137q0 68 21 124t58 94q38 39 88 60q51 21 112 21q53 0 96 -13q45 -14 78 -40q33 -29 54 -70q20 -42 25 -101h-117q-7 68 -40 100q-34 32 -96 32q-75 0 -117 -54t-42 -152v-138q0 -99 41 -152t119 -53
q61 0 101 34q39 34 45 108h112q-4 -59 -25 -105q-22 -46 -55 -74q-37 -30 -79 -43q-47 -14 -98 -14zM323 773q-25 0 -45 18q-19 18 -19 44t19 45q20 18 45 18t45 -18q18 -20 18 -45q0 -26 -18 -44q-20 -18 -45 -18z" />
    <glyph glyph-name="cdotaccent" unicode="&#x10b;" horiz-adv-x="490" 
d="M257 -9q-46 0 -88 14q-41 13 -69 42q-30 28 -46 70q-17 43 -17 97v92q0 52 17 97q17 42 47 71q28 28 69 43q40 15 85 15q39 0 74 -9t63 -30q27 -21 45 -55q17 -36 20 -85h-103q-5 54 -32 74q-28 20 -66 20q-50 0 -80 -35q-31 -34 -31 -104v-94q0 -73 31 -105
q30 -34 83 -34q20 0 38 6q19 7 32 19q14 13 23 33q7 19 9 49h98q-3 -94 -57 -142q-55 -49 -145 -49zM254 604q-26 0 -45 19q-19 18 -19 44t19 45q19 18 45 18t45 -18q19 -19 19 -45t-19 -44q-19 -19 -45 -19z" />
    <glyph glyph-name="Ccaron" unicode="&#x10c;" horiz-adv-x="615" 
d="M180 894h78l68 -56l67 56h76l-98 -130h-94zM327 -10q-67 0 -119 21q-53 20 -89 59t-54 95q-19 54 -19 124v137q0 68 21 124t58 94q38 39 88 60q51 21 112 21q53 0 96 -13q45 -14 78 -40q33 -29 54 -70q20 -42 25 -101h-117q-7 68 -40 100q-34 32 -96 32q-75 0 -117 -54
t-42 -152v-138q0 -99 41 -152t119 -53q61 0 101 34q39 34 45 108h112q-4 -59 -25 -105q-22 -46 -55 -74q-37 -30 -79 -43q-47 -14 -98 -14z" />
    <glyph glyph-name="ccaron" unicode="&#x10d;" horiz-adv-x="490" 
d="M109 745h78l66 -69l66 69h75l-99 -148h-89zM257 -9q-46 0 -88 14q-41 13 -69 42q-30 28 -46 70q-17 43 -17 97v92q0 52 17 97q17 42 47 71q28 28 69 43q40 15 85 15q39 0 74 -9t63 -30q27 -21 45 -55q17 -36 20 -85h-103q-5 54 -32 74q-28 20 -66 20q-50 0 -80 -35
q-31 -34 -31 -104v-94q0 -73 31 -105q30 -34 83 -34q20 0 38 6q19 7 32 19q14 13 23 33q7 19 9 49h98q-3 -94 -57 -142q-55 -49 -145 -49z" />
    <glyph glyph-name="Dcaron" unicode="&#x10e;" horiz-adv-x="613" 
d="M130 894h78l68 -56l67 56h76l-98 -130h-94zM263 715q153 0 228 -76q75 -77 75 -213v-135q0 -67 -18 -120q-20 -56 -56 -92q-39 -39 -95 -58q-57 -21 -134 -21h-195v715h195zM184 624v-532h75q99 0 143 51q44 50 44 149v133q0 95 -42 148q-44 51 -146 51h-74z" />
    <glyph glyph-name="dcaron" unicode="&#x10f;" horiz-adv-x="538" 
d="M522 759h99l-44 -164h-65zM478 0h-108v76q-18 -34 -56 -60q-37 -25 -89 -25q-39 0 -75 14q-35 14 -59 42q-25 27 -39 68q-14 42 -14 94v99q0 51 14 95q13 41 40 71q25 28 61 43q35 15 78 15q54 0 88 -22q32 -22 51 -58v306h108v-758zM372 306q0 72 -30 107t-84 35
t-82 -34q-29 -35 -29 -104v-100q0 -70 29 -102t77 -32q53 0 86 35q33 34 33 106v89z" />
    <glyph glyph-name="Dcroat" unicode="&#x110;" horiz-adv-x="631" 
d="M85 318h-59v86h59v311h195q78 0 134 -19q58 -20 95 -57t57 -92q18 -54 18 -122v-132q0 -67 -18 -121q-20 -56 -56 -92q-38 -39 -95 -59q-57 -21 -134 -21h-196v318zM275 93q100 0 145 51q44 50 44 149v131q0 98 -43 148q-43 51 -147 51h-73v-219h142v-86h-142v-225h74z
" />
    <glyph glyph-name="dcroat" unicode="&#x111;" horiz-adv-x="538" 
d="M478 0h-108v76q-18 -34 -56 -60q-37 -25 -89 -25q-39 0 -75 14q-35 14 -59 42q-25 27 -39 68q-14 42 -14 94v99q0 51 14 95q13 41 40 71q25 28 61 43q35 15 78 15q54 0 88 -22q32 -22 51 -58v150h-145v68h145v88h108v-88h59v-68h-59v-602zM372 306q0 72 -30 107t-84 35
t-82 -34q-29 -35 -29 -104v-100q0 -70 29 -102t77 -32q53 0 86 35q33 34 33 106v89z" />
    <glyph glyph-name="Emacron" unicode="&#x112;" horiz-adv-x="500" 
d="M68 715h381v-92h-266v-208h215v-88h-215v-235h281v-92h-396v715zM130 853h260v-76h-260v76z" />
    <glyph glyph-name="emacron" unicode="&#x113;" horiz-adv-x="497" 
d="M257 -9q-49 0 -90 15q-40 15 -69 44q-28 28 -45 71q-16 39 -16 95v90q0 54 16 95q17 43 45 71q29 29 68 45q40 15 87 15q43 0 81 -12q38 -14 66 -40q28 -27 45 -69q16 -41 16 -101v-72h-317v-23q0 -73 30 -108q28 -34 85 -34q88 0 100 80h102q-7 -80 -62 -121t-142 -41z
M254 452q-46 0 -78 -33q-32 -34 -32 -105h213v11q0 70 -28 98q-29 29 -75 29zM125 697h252v-73h-252v73z" />
    <glyph glyph-name="Ebreve" unicode="&#x114;" horiz-adv-x="500" 
d="M68 715h381v-92h-266v-208h215v-88h-215v-235h281v-92h-396v715zM263 759q-54 0 -91 35q-37 34 -40 96h76q3 -26 16 -39q14 -14 39 -14t41 14q14 14 17 39h75q-3 -62 -40 -96q-38 -35 -93 -35z" />
    <glyph glyph-name="ebreve" unicode="&#x115;" horiz-adv-x="497" 
d="M257 -9q-49 0 -90 15q-40 15 -69 44q-28 28 -45 71q-16 39 -16 95v90q0 54 16 95q17 43 45 71q29 29 68 45q40 15 87 15q43 0 81 -12q38 -14 66 -40q28 -27 45 -69q16 -41 16 -101v-72h-317v-23q0 -73 30 -108q28 -34 85 -34q88 0 100 80h102q-7 -80 -62 -121t-142 -41z
M254 452q-46 0 -78 -33q-32 -34 -32 -105h213v11q0 70 -28 98q-29 29 -75 29zM246 600q-52 0 -89 35q-37 34 -39 100h73q5 -28 17 -41q13 -15 38 -15t40 15q13 15 18 41h73q-3 -66 -40 -100q-38 -35 -91 -35z" />
    <glyph glyph-name="Edotaccent" unicode="&#x116;" horiz-adv-x="500" 
d="M261 773q-25 0 -45 18q-19 18 -19 44t19 45q20 18 45 18t45 -18q18 -20 18 -45q0 -26 -18 -44q-20 -18 -45 -18zM68 715h381v-92h-266v-208h215v-88h-215v-235h281v-92h-396v715z" />
    <glyph glyph-name="edotaccent" unicode="&#x117;" horiz-adv-x="497" 
d="M257 -9q-49 0 -90 15q-40 15 -69 44q-28 28 -45 71q-16 39 -16 95v90q0 54 16 95q17 43 45 71q29 29 68 45q40 15 87 15q43 0 81 -12q38 -14 66 -40q28 -27 45 -69q16 -41 16 -101v-72h-317v-23q0 -73 30 -108q28 -34 85 -34q88 0 100 80h102q-7 -80 -62 -121t-142 -41z
M254 452q-46 0 -78 -33q-32 -34 -32 -105h213v11q0 70 -28 98q-29 29 -75 29zM251 604q-26 0 -45 19q-19 18 -19 44t19 45q20 18 45 18t45 -18q19 -19 19 -45t-19 -44q-19 -19 -45 -19z" />
    <glyph glyph-name="Eogonek" unicode="&#x118;" horiz-adv-x="500" 
d="M278 -103q0 34 23 60q24 28 51 43h-284v715h381v-92h-266v-208h215v-88h-215v-235h281v-92h-38q-26 -22 -39 -40q-13 -19 -13 -40q0 -32 33 -32q20 0 38 8v-64q-13 -5 -28 -9q-17 -3 -37 -3q-44 0 -73 20t-29 57z" />
    <glyph glyph-name="eogonek" unicode="&#x119;" horiz-adv-x="497" 
d="M388 -168q-10 -4 -27 -9q-17 -3 -37 -3q-44 0 -73 20t-29 57q0 31 18 55t43 40q-5 -1 -13 -1h-13q-49 0 -90 15q-40 15 -69 44q-28 28 -45 71q-16 39 -16 95v90q0 54 16 95q17 43 45 71q29 29 68 45q40 15 87 15q43 0 81 -12q38 -14 66 -40q28 -27 45 -69q16 -41 16 -101
v-72h-317v-23q0 -73 30 -108q28 -34 85 -34q88 0 100 80h102q-4 -35 -15 -61q-12 -25 -32 -47q-13 -15 -28 -27q-18 -15 -32 -30q-13 -12 -26 -32q-11 -17 -11 -36q0 -18 10 -25q8 -7 25 -7q20 0 36 8v-64zM254 452q-46 0 -78 -33q-32 -34 -32 -105h213v11q0 70 -28 98
q-29 29 -75 29z" />
    <glyph glyph-name="Ecaron" unicode="&#x11a;" horiz-adv-x="500" 
d="M118 894h78l68 -56l67 56h76l-98 -130h-94zM68 715h381v-92h-266v-208h215v-88h-215v-235h281v-92h-396v715z" />
    <glyph glyph-name="ecaron" unicode="&#x11b;" horiz-adv-x="497" 
d="M108 745h78l66 -69l66 69h75l-99 -148h-89zM257 -9q-49 0 -90 15q-40 15 -69 44q-28 28 -45 71q-16 39 -16 95v90q0 54 16 95q17 43 45 71q29 29 68 45q40 15 87 15q43 0 81 -12q38 -14 66 -40q28 -27 45 -69q16 -41 16 -101v-72h-317v-23q0 -73 30 -108q28 -34 85 -34
q88 0 100 80h102q-7 -80 -62 -121t-142 -41zM254 452q-46 0 -78 -33q-32 -34 -32 -105h213v11q0 70 -28 98q-29 29 -75 29z" />
    <glyph glyph-name="Gcircumflex" unicode="&#x11c;" horiz-adv-x="643" 
d="M282 894h95l96 -130h-78l-67 55l-68 -55h-75zM345 369h254v-112q0 -132 -70 -199q-71 -68 -196 -68q-71 0 -124 21q-54 21 -90 60t-54 94q-19 54 -19 122v140q0 67 21 123q19 53 58 94q37 39 90 60t117 21q47 0 94 -11q42 -12 78 -38q32 -24 56 -67q22 -43 26 -102h-115
q-8 69 -44 98q-37 28 -94 28q-82 0 -124 -54q-43 -55 -43 -151v-142q0 -92 41 -148t127 -56q79 0 115 45q35 43 37 121v35h-141v86z" />
    <glyph glyph-name="gcircumflex" unicode="&#x11d;" horiz-adv-x="535" 
d="M211 745h90l96 -148h-77l-66 68l-66 -68h-76zM253 -187q-51 0 -90 11q-38 12 -64 32q-28 23 -40 49q-14 30 -17 63h107q5 -34 30 -54q25 -19 74 -19q55 0 86 29q29 31 29 92v80q-19 -36 -55 -59q-37 -25 -89 -25q-40 0 -75 15q-32 13 -59 41q-24 25 -38 66q-14 40 -14 89
v94q0 47 14 89q13 36 40 67q24 27 61 44q34 15 77 15q55 0 87 -22t51 -58v71h107v-508q0 -103 -60 -153q-59 -49 -162 -49zM253 95q54 0 85 34t31 100v84q0 66 -29 101q-28 34 -83 34q-54 0 -82 -34t-28 -97v-95q0 -63 29 -95t77 -32z" />
    <glyph glyph-name="Gbreve" unicode="&#x11e;" horiz-adv-x="643" 
d="M328 759q-54 0 -91 35q-37 34 -40 96h76q3 -26 16 -39q14 -14 39 -14t41 14q14 14 17 39h75q-3 -62 -40 -96q-38 -35 -93 -35zM345 369h254v-112q0 -132 -70 -199q-71 -68 -196 -68q-71 0 -124 21q-54 21 -90 60t-54 94q-19 54 -19 122v140q0 67 21 123q19 53 58 94
q37 39 90 60t117 21q47 0 94 -11q42 -12 78 -38q32 -24 56 -67q22 -43 26 -102h-115q-8 69 -44 98q-37 28 -94 28q-82 0 -124 -54q-43 -55 -43 -151v-142q0 -92 41 -148t127 -56q79 0 115 45q35 43 37 121v35h-141v86z" />
    <glyph glyph-name="gbreve" unicode="&#x11f;" horiz-adv-x="535" 
d="M253 -187q-51 0 -90 11q-38 12 -64 32q-28 23 -40 49q-14 30 -17 63h107q5 -34 30 -54q25 -19 74 -19q55 0 86 29q29 31 29 92v80q-19 -36 -55 -59q-37 -25 -89 -25q-40 0 -75 15q-32 13 -59 41q-24 25 -38 66q-14 40 -14 89v94q0 47 14 89q13 36 40 67q24 27 61 44
q34 15 77 15q55 0 87 -22t51 -58v71h107v-508q0 -103 -60 -153q-59 -49 -162 -49zM253 95q54 0 85 34t31 100v84q0 66 -29 101q-28 34 -83 34q-54 0 -82 -34t-28 -97v-95q0 -63 29 -95t77 -32zM254 600q-52 0 -89 35q-37 34 -39 100h73q5 -28 17 -41q14 -15 38 -15
q25 0 40 15q13 15 18 41h73q-3 -66 -40 -100q-38 -35 -91 -35z" />
    <glyph glyph-name="Gdotaccent" unicode="&#x120;" horiz-adv-x="643" 
d="M329 773q-25 0 -45 18q-19 18 -19 44t19 45q20 18 45 18t45 -18q18 -20 18 -45q0 -26 -18 -44q-20 -18 -45 -18zM345 369h254v-112q0 -132 -70 -199q-71 -68 -196 -68q-71 0 -124 21q-54 21 -90 60t-54 94q-19 54 -19 122v140q0 67 21 123q19 53 58 94q37 39 90 60
t117 21q47 0 94 -11q42 -12 78 -38q32 -24 56 -67q22 -43 26 -102h-115q-8 69 -44 98q-37 28 -94 28q-82 0 -124 -54q-43 -55 -43 -151v-142q0 -92 41 -148t127 -56q79 0 115 45q35 43 37 121v35h-141v86z" />
    <glyph glyph-name="gdotaccent" unicode="&#x121;" horiz-adv-x="535" 
d="M253 -187q-51 0 -90 11q-38 12 -64 32q-28 23 -40 49q-14 30 -17 63h107q5 -34 30 -54q25 -19 74 -19q55 0 86 29q29 31 29 92v80q-19 -36 -55 -59q-37 -25 -89 -25q-40 0 -75 15q-32 13 -59 41q-24 25 -38 66q-14 40 -14 89v94q0 47 14 89q13 36 40 67q24 27 61 44
q34 15 77 15q55 0 87 -22t51 -58v71h107v-508q0 -103 -60 -153q-59 -49 -162 -49zM253 95q54 0 85 34t31 100v84q0 66 -29 101q-28 34 -83 34q-54 0 -82 -34t-28 -97v-95q0 -63 29 -95t77 -32zM255 604q-26 0 -45 19q-19 18 -19 44t19 45q20 18 45 18t45 -18q19 -19 19 -45
t-19 -44q-19 -19 -45 -19z" />
    <glyph glyph-name="uni0122" unicode="&#x122;" horiz-adv-x="643" 
d="M242 -188l44 152l101 -16l-80 -158zM345 369h254v-112q0 -132 -70 -199q-71 -68 -196 -68q-71 0 -124 21q-54 21 -90 60t-54 94q-19 54 -19 122v140q0 67 21 123q19 53 58 94q37 39 90 60t117 21q47 0 94 -11q42 -12 78 -38q32 -24 56 -67q22 -43 26 -102h-115
q-8 69 -44 98q-37 28 -94 28q-82 0 -124 -54q-43 -55 -43 -151v-142q0 -92 41 -148t127 -56q79 0 115 45q35 43 37 121v35h-141v86z" />
    <glyph glyph-name="uni0123" unicode="&#x123;" horiz-adv-x="535" 
d="M206 609l80 157l63 -22l-43 -151zM253 -187q-51 0 -90 11q-38 12 -64 32q-28 23 -40 49q-14 30 -17 63h107q5 -34 30 -54q25 -19 74 -19q55 0 86 29q29 31 29 92v80q-19 -36 -55 -59q-37 -25 -89 -25q-40 0 -75 15q-32 13 -59 41q-24 25 -38 66q-14 40 -14 89v94
q0 47 14 89q13 36 40 67q24 27 61 44q34 15 77 15q55 0 87 -22t51 -58v71h107v-508q0 -103 -60 -153q-59 -49 -162 -49zM253 95q54 0 85 34t31 100v84q0 66 -29 101q-28 34 -83 34q-54 0 -82 -34t-28 -97v-95q0 -63 29 -95t77 -32z" />
    <glyph glyph-name="Hcircumflex" unicode="&#x124;" horiz-adv-x="626" 
d="M68 715h115v-308h259v308h116v-715h-116v312h-259v-312h-115v715zM266 894h95l96 -130h-78l-67 55l-68 -55h-75z" />
    <glyph glyph-name="hcircumflex" unicode="&#x125;" horiz-adv-x="517" 
d="M60 758h107v-308q16 33 53 58q34 24 89 24q68 0 110 -42q42 -44 42 -136v-354h-108v347q0 49 -20 74q-20 23 -64 23q-43 0 -72 -26q-30 -27 -30 -79v-339h-107v758zM221 935h95l96 -130h-78l-67 55l-68 -55h-75z" />
    <glyph glyph-name="Hbar" unicode="&#x126;" horiz-adv-x="626" 
d="M11 579h57v136h115v-136h259v136h116v-136h61v-73h-61v-506h-116v312h-259v-312h-115v506h-57v73zM442 407v99h-259v-99h259z" />
    <glyph glyph-name="hbar" unicode="&#x127;" horiz-adv-x="517" 
d="M1 670h59v88h107v-88h146v-68h-146v-152q16 33 53 58q34 24 89 24q68 0 110 -42q42 -44 42 -136v-354h-108v347q0 49 -20 74q-20 23 -64 23q-43 0 -72 -26q-30 -27 -30 -79v-339h-107v602h-59v68z" />
    <glyph glyph-name="Itilde" unicode="&#x128;" horiz-adv-x="261" 
d="M72 715h117v-715h-117v715zM185 766q-17 0 -30 6q-15 4 -27 12q-4 2 -12 6.5t-12 6.5q-12 5 -21 5q-14 0 -21 -10q-9 -10 -12 -27h-68q4 57 32 89q25 31 64 31q14 0 31 -5q10 -4 28 -12q12 -8 24 -12q11 -6 21 -6q12 0 21 10q8 11 11 27h68q-4 -58 -32 -90
q-27 -31 -65 -31z" />
    <glyph glyph-name="itilde" unicode="&#x129;" horiz-adv-x="231" 
d="M62 523h107v-523h-107v523zM168 602q-18 0 -31 6q-18 8 -26 13q-8 4 -22 12q-11 6 -21 6q-12 0 -20 -11q-9 -10 -12 -28h-66q5 61 30 92q26 32 63 32q17 0 30 -6l27 -12q5 -3 13.5 -7.5t9.5 -5.5q11 -6 21 -6q13 0 21 11q7 10 12 28h66q-4 -59 -31 -92q-27 -32 -64 -32z
" />
    <glyph glyph-name="Imacron" unicode="&#x12a;" horiz-adv-x="261" 
d="M72 715h117v-715h-117v715zM0 853h260v-76h-260v76z" />
    <glyph glyph-name="imacron" unicode="&#x12b;" horiz-adv-x="231" 
d="M19 697h193v-73h-193v73zM62 523h107v-523h-107v523z" />
    <glyph glyph-name="Ibreve" unicode="&#x12c;" horiz-adv-x="261" 
d="M72 715h117v-715h-117v715zM131 759q-54 0 -91 35q-37 34 -40 96h76q3 -26 16 -39q14 -14 39 -14t41 14q14 14 17 39h75q-3 -62 -40 -96q-38 -35 -93 -35z" />
    <glyph glyph-name="ibreve" unicode="&#x12d;" horiz-adv-x="231" 
d="M62 523h107v-523h-107v523zM115 600q-52 0 -89 35q-37 34 -39 100h73q5 -28 17 -41q13 -15 38 -15t40 15q13 15 18 41h73q-3 -66 -40 -100q-38 -35 -91 -35z" />
    <glyph glyph-name="Iogonek" unicode="&#x12e;" horiz-adv-x="261" 
d="M32 -103q0 34 23 60q24 28 51 43h-34v715h117v-715h-9q-26 -22 -39 -40q-14 -20 -14 -40q0 -18 9 -25q8 -7 24 -7q22 0 38 8v-64q-10 -4 -27 -9q-17 -3 -37 -3q-44 0 -73 20t-29 57z" />
    <glyph glyph-name="iogonek" unicode="&#x12f;" horiz-adv-x="231" 
d="M115 603q-28 0 -46 19q-19 18 -19 44q0 27 19 46q18 18 46 18q27 0 46 -18q19 -19 19 -46q0 -26 -18 -44q-19 -19 -47 -19zM15 -103q0 34 23 60q24 28 51 43h-27v523h107v-523h-6q-26 -22 -39 -40q-14 -20 -14 -40q0 -18 9 -25q8 -7 24 -7q22 0 38 8v-64q-11 -4 -27 -9
q-16 -3 -38 -3q-44 0 -73 20q-28 19 -28 57z" />
    <glyph glyph-name="Idotaccent" unicode="&#x130;" horiz-adv-x="261" 
d="M72 715h117v-715h-117v715zM131 773q-25 0 -45 18q-19 18 -19 44t19 45q20 18 45 18t45 -18q18 -20 18 -45q0 -26 -18 -44q-20 -18 -45 -18z" />
    <glyph glyph-name="dotlessi" unicode="&#x131;" horiz-adv-x="231" 
d="M62 523h107v-523h-107v523z" />
    <glyph glyph-name="IJ" unicode="&#x132;" horiz-adv-x="610" 
d="M73 715h117v-715h-117v715zM356 -7q-33 0 -58 5q-22 4 -36 12v92q11 -4 33 -10q18 -5 44 -5q42 0 67 25q24 24 24 82v521h118v-525q0 -50 -14 -89q-16 -39 -40 -62q-26 -24 -61 -35q-36 -11 -77 -11z" />
    <glyph glyph-name="ij" unicode="&#x133;" horiz-adv-x="465" 
d="M115 603q-28 0 -46 19q-19 18 -19 44q0 27 19 46q18 18 46 18q27 0 46 -18q19 -19 19 -46q0 -26 -18 -44q-19 -19 -47 -19zM62 523h107v-523h-107v523zM348 603q-28 0 -46 19q-19 18 -19 44q0 27 19 46q18 18 46 18q26 0 46 -18q19 -19 19 -46q0 -26 -18 -44
q-19 -19 -47 -19zM225 -99q37 5 54 21q16 17 16 50v551h107v-548q0 -37 -9 -66q-9 -30 -30 -49q-23 -21 -55 -31q-35 -11 -83 -12v84z" />
    <glyph glyph-name="Jcircumflex" unicode="&#x134;" horiz-adv-x="373" 
d="M205 894h95l96 -130h-78l-67 55l-68 -55h-75zM121 -7q-34 0 -57 5q-22 4 -37 12v91q11 -4 33 -10q15 -4 43 -4q43 0 68 24q24 24 24 82v522h116v-526q0 -50 -14 -89q-13 -37 -39 -61q-26 -25 -60 -35q-36 -11 -77 -11z" />
    <glyph glyph-name="jcircumflex" unicode="&#x135;" horiz-adv-x="231" 
d="M-8 -101q36 4 54 22q16 16 16 50v552h107v-550q0 -75 -39 -115q-42 -42 -138 -43v84zM72 745h90l96 -148h-77l-66 68l-66 -68h-76z" />
    <glyph glyph-name="uni0136" unicode="&#x136;" horiz-adv-x="560" 
d="M204 -188l44 152l101 -16l-80 -158zM68 715h116v-325l229 325h123l-244 -337l255 -378h-132l-231 343v-343h-116v715z" />
    <glyph glyph-name="uni0137" unicode="&#x137;" horiz-adv-x="469" 
d="M155 -188l44 152l101 -16l-80 -158zM60 758h107v-467l165 232h114l-176 -241l188 -282h-121l-170 258v-258h-107v758z" />
    <glyph glyph-name="Lacute" unicode="&#x139;" horiz-adv-x="471" 
d="M129 894h124l-91 -130h-81zM68 715h116v-622h258v-93h-374v715z" />
    <glyph glyph-name="lacute" unicode="&#x13a;" horiz-adv-x="234" 
d="M120 935h124l-91 -130h-81zM63 758h108v-758h-108v758z" />
    <glyph glyph-name="uni013B" unicode="&#x13b;" horiz-adv-x="471" 
d="M166 -188l44 152l101 -16l-80 -158zM68 715h116v-622h258v-93h-374v715z" />
    <glyph glyph-name="uni013C" unicode="&#x13c;" horiz-adv-x="234" 
d="M30 -188l44 152l101 -16l-80 -158zM63 758h108v-758h-108v758z" />
    <glyph glyph-name="Lcaron" unicode="&#x13d;" horiz-adv-x="471" 
d="M258 716h100l-45 -166h-65zM68 715h116v-622h258v-93h-374v715z" />
    <glyph glyph-name="lcaron" unicode="&#x13e;" horiz-adv-x="234" 
d="M216 759h99l-44 -164h-65zM63 758h108v-758h-108v758z" />
    <glyph glyph-name="Ldot" unicode="&#x13f;" horiz-adv-x="480" 
d="M372 310q-28 0 -50 20q-21 20 -21 50q0 29 21 50q22 20 50 20q29 0 51 -20q20 -22 20 -50q0 -30 -20 -50q-22 -20 -51 -20zM68 715h116v-622h258v-93h-374v715z" />
    <glyph glyph-name="ldot" unicode="&#x140;" horiz-adv-x="337" 
d="M284 300q-29 0 -50 21q-21 19 -21 49q0 29 21 50q22 20 50 20q29 0 51 -20q20 -22 20 -50q0 -29 -20 -49q-21 -21 -51 -21zM63 758h108v-758h-108v758z" />
    <glyph glyph-name="Lslash" unicode="&#x141;" horiz-adv-x="489" 
d="M28 323l56 22v370h116v-323l161 64v-79l-161 -65v-219h258v-93h-374v265l-56 -22v80z" />
    <glyph glyph-name="lslash" unicode="&#x142;" horiz-adv-x="251" 
d="M13 390l61 34v334h108v-274l66 37v-81l-66 -37v-403h-108v343l-61 -34v81z" />
    <glyph glyph-name="Nacute" unicode="&#x143;" horiz-adv-x="624" 
d="M322 894h124l-91 -130h-81zM68 715h138l245 -514v514h105v-715h-121l-262 553v-553h-105v715z" />
    <glyph glyph-name="nacute" unicode="&#x144;" horiz-adv-x="517" 
d="M265 746h122l-95 -150h-79zM60 523h107v-73q16 33 53 58q34 24 89 24q68 0 110 -42q42 -44 42 -136v-354h-108v347q0 49 -20 74q-20 23 -64 23q-43 0 -72 -26q-30 -27 -30 -79v-339h-107v523z" />
    <glyph glyph-name="uni0145" unicode="&#x145;" horiz-adv-x="624" 
d="M217 -188l44 152l101 -16l-80 -158zM68 715h138l245 -514v514h105v-715h-121l-262 553v-553h-105v715z" />
    <glyph glyph-name="uni0146" unicode="&#x146;" horiz-adv-x="517" 
d="M170 -188l44 152l101 -16l-80 -158zM60 523h107v-73q16 33 53 58q34 24 89 24q68 0 110 -42q42 -44 42 -136v-354h-108v347q0 49 -20 74q-20 23 -64 23q-43 0 -72 -26q-30 -27 -30 -79v-339h-107v523z" />
    <glyph glyph-name="Ncaron" unicode="&#x147;" horiz-adv-x="624" 
d="M177 894h78l68 -56l67 56h76l-98 -130h-94zM68 715h138l245 -514v514h105v-715h-121l-262 553v-553h-105v715z" />
    <glyph glyph-name="ncaron" unicode="&#x148;" horiz-adv-x="517" 
d="M115 745h78l66 -69l66 69h75l-99 -148h-89zM60 523h107v-73q16 33 53 58q34 24 89 24q68 0 110 -42q42 -44 42 -136v-354h-108v347q0 49 -20 74q-20 23 -64 23q-43 0 -72 -26q-30 -27 -30 -79v-339h-107v523z" />
    <glyph glyph-name="napostrophe" unicode="&#x149;" horiz-adv-x="550" 
d="M-39 514l72 212l100 -37l-107 -201zM92 523h107v-73q16 33 53 58q34 24 89 24q68 0 110 -42q42 -44 42 -136v-354h-108v347q0 49 -20 74q-20 23 -64 23q-43 0 -72 -26q-30 -27 -30 -79v-339h-107v523z" />
    <glyph glyph-name="Eng" unicode="&#x14a;" horiz-adv-x="627" 
d="M375 -174q-37 0 -56 4t-35 13v88q10 -4 32 -10q15 -4 42 -4q39 0 61 19q23 20 27 61l-272 556v-553h-106v715h140l245 -499v499h106v-704q0 -50 -13 -83q-14 -35 -38 -58t-58 -33q-36 -11 -75 -11z" />
    <glyph glyph-name="eng" unicode="&#x14b;" horiz-adv-x="518" 
d="M288 -101q36 4 52 22q14 17 14 51v374q0 52 -19 74q-20 23 -65 23q-43 0 -72 -26q-30 -27 -30 -79v-338h-108v523h108v-74q17 35 53 59q35 24 90 24q35 0 62 -10q27 -11 47 -32q22 -25 31 -56q11 -36 11 -80v-380q0 -38 -9 -66q-9 -29 -29 -49q-22 -20 -54 -32
q-33 -11 -82 -12v84z" />
    <glyph glyph-name="Omacron" unicode="&#x14c;" horiz-adv-x="672" 
d="M206 853h260v-76h-260v76zM337 -10q-68 0 -119 22q-55 21 -92 60q-39 41 -58 94q-21 54 -21 120v141q0 67 21 122t60 94q37 38 91 60q53 21 118 21q64 0 118 -21q53 -21 91 -59q37 -38 58 -93q21 -54 21 -121v-141q0 -65 -20 -122q-21 -56 -58 -94q-36 -39 -91 -61
q-51 -22 -119 -22zM337 84q82 0 125 55t43 149v140q0 43 -11 82q-10 36 -32 64q-23 28 -53 42q-31 15 -72 15q-83 0 -126 -54q-44 -56 -44 -149v-141q0 -96 46 -149q47 -54 124 -54z" />
    <glyph glyph-name="omacron" unicode="&#x14d;" horiz-adv-x="519" 
d="M133 697h252v-73h-252v73zM259 -9q-50 0 -89 16q-41 15 -70 44q-29 27 -46 71q-17 42 -17 93v91q0 52 17 95q17 44 46 71q30 28 71 45q40 15 89 15q48 0 89 -15q43 -18 71 -44q30 -30 46 -71t16 -94v-91q0 -54 -16 -95q-17 -42 -47 -71q-31 -29 -71 -44q-39 -16 -89 -16z
M260 75q55 0 85 37q29 38 29 103v92q0 67 -30 105q-30 36 -84 36t-84 -36q-31 -37 -31 -104v-93q0 -65 30 -103q28 -37 85 -37z" />
    <glyph glyph-name="Obreve" unicode="&#x14e;" horiz-adv-x="672" 
d="M335 759q-54 0 -91 35q-37 34 -40 96h76q3 -26 16 -39q14 -14 39 -14t41 14q14 14 17 39h75q-3 -62 -40 -96q-38 -35 -93 -35zM337 -10q-68 0 -119 22q-55 21 -92 60q-39 41 -58 94q-21 54 -21 120v141q0 67 21 122t60 94q37 38 91 60q53 21 118 21q64 0 118 -21
q53 -21 91 -59q37 -38 58 -93q21 -54 21 -121v-141q0 -65 -20 -122q-21 -56 -58 -94q-36 -39 -91 -61q-51 -22 -119 -22zM337 84q82 0 125 55t43 149v140q0 43 -11 82q-10 36 -32 64q-23 28 -53 42q-31 15 -72 15q-83 0 -126 -54q-44 -56 -44 -149v-141q0 -96 46 -149
q47 -54 124 -54z" />
    <glyph glyph-name="obreve" unicode="&#x14f;" horiz-adv-x="519" 
d="M259 -9q-50 0 -89 16q-41 15 -70 44q-29 27 -46 71q-17 42 -17 93v91q0 52 17 95q17 44 46 71q30 28 71 45q40 15 89 15q48 0 89 -15q43 -18 71 -44q30 -30 46 -71t16 -94v-91q0 -54 -16 -95q-17 -42 -47 -71q-31 -29 -71 -44q-39 -16 -89 -16zM260 75q55 0 85 37
q29 38 29 103v92q0 67 -30 105q-30 36 -84 36t-84 -36q-31 -37 -31 -104v-93q0 -65 30 -103q28 -37 85 -37zM258 600q-52 0 -89 35q-37 34 -39 100h73q5 -28 17 -41q14 -15 38 -15q25 0 40 15q13 15 18 41h73q-3 -66 -40 -100q-38 -35 -91 -35z" />
    <glyph glyph-name="Ohungarumlaut" unicode="&#x150;" horiz-adv-x="672" 
d="M248 894h107l-65 -130h-74zM401 894h108l-65 -130h-76zM337 -10q-68 0 -119 22q-55 21 -92 60q-39 41 -58 94q-21 54 -21 120v141q0 67 21 122t60 94q37 38 91 60q53 21 118 21q64 0 118 -21q53 -21 91 -59q37 -38 58 -93q21 -54 21 -121v-141q0 -65 -20 -122
q-21 -56 -58 -94q-36 -39 -91 -61q-51 -22 -119 -22zM337 84q82 0 125 55t43 149v140q0 43 -11 82q-10 36 -32 64q-23 28 -53 42q-31 15 -72 15q-83 0 -126 -54q-44 -56 -44 -149v-141q0 -96 46 -149q47 -54 124 -54z" />
    <glyph glyph-name="ohungarumlaut" unicode="&#x151;" horiz-adv-x="519" 
d="M178 746h104l-67 -150h-71zM325 746h105l-67 -150h-71zM259 -9q-50 0 -89 16q-41 15 -70 44q-29 27 -46 71q-17 42 -17 93v91q0 52 17 95q17 44 46 71q30 28 71 45q40 15 89 15q48 0 89 -15q43 -18 71 -44q30 -30 46 -71t16 -94v-91q0 -54 -16 -95q-17 -42 -47 -71
q-31 -29 -71 -44q-39 -16 -89 -16zM260 75q55 0 85 37q29 38 29 103v92q0 67 -30 105q-30 36 -84 36t-84 -36q-31 -37 -31 -104v-93q0 -65 30 -103q28 -37 85 -37z" />
    <glyph glyph-name="OE" unicode="&#x152;" horiz-adv-x="815" 
d="M351 0q-155 0 -231 79q-78 78 -78 219v115q0 69 20 126t58 95q39 39 97 60q59 21 135 21h415v-92h-248v-208h198v-88h-198v-235h263v-92h-431zM403 91v532h-49q-100 0 -145 -53q-46 -53 -46 -157v-115q0 -99 45 -153q44 -54 147 -54h48z" />
    <glyph glyph-name="oe" unicode="&#x153;" horiz-adv-x="839" 
d="M260 -9q-50 0 -89 16q-43 17 -70 46q-30 29 -47 71q-17 43 -17 94v85q0 51 17 96q16 41 47 72q30 28 71 45q39 16 89 16q58 0 102 -23q45 -23 70 -65q26 42 68 65q43 23 95 23q44 0 81 -12q37 -13 65 -40t45 -69q16 -41 16 -101v-72h-317v-23q0 -73 29 -108
q28 -34 85 -34q89 0 100 80h102q-7 -80 -61 -121q-53 -41 -141 -41q-58 0 -100 23q-44 23 -69 65q-25 -42 -69 -65q-42 -23 -102 -23zM595 452q-47 0 -78 -33q-31 -32 -31 -105h211v11q0 69 -27 98q-29 29 -75 29zM263 75q54 0 86 38q30 37 30 104v88q0 69 -31 106t-85 37
q-55 0 -86 -37t-31 -105v-88q0 -68 30 -105q30 -38 87 -38z" />
    <glyph glyph-name="Racute" unicode="&#x154;" horiz-adv-x="561" 
d="M274 894h124l-91 -130h-81zM68 715h205q108 0 170 -46q63 -47 63 -147v-22q0 -41 -10 -70q-11 -31 -28 -51q-18 -23 -42 -36q-29 -15 -54 -22l165 -321h-125l-154 305h-75v-305h-115v715zM273 388q60 0 90 27q29 26 29 84v21q0 58 -30 81q-32 23 -89 23h-90v-236h90z" />
    <glyph glyph-name="racute" unicode="&#x155;" horiz-adv-x="340" 
d="M195 746h122l-95 -150h-79zM60 523h107v-86q23 47 56 68q36 24 91 25v-103q-38 -2 -62 -7q-25 -6 -46 -20q-18 -14 -29 -38q-10 -23 -10 -59v-303h-107v523z" />
    <glyph glyph-name="uni0156" unicode="&#x156;" horiz-adv-x="561" 
d="M195 -188l44 152l101 -16l-80 -158zM68 715h205q108 0 170 -46q63 -47 63 -147v-22q0 -41 -10 -70q-11 -31 -28 -51q-18 -23 -42 -36q-29 -15 -54 -22l165 -321h-125l-154 305h-75v-305h-115v715zM273 388q60 0 90 27q29 26 29 84v21q0 58 -30 81q-32 23 -89 23h-90v-236
h90z" />
    <glyph glyph-name="uni0157" unicode="&#x157;" horiz-adv-x="340" 
d="M28 -188l44 152l101 -16l-80 -158zM60 523h107v-86q23 47 56 68q36 24 91 25v-103q-38 -2 -62 -7q-25 -6 -46 -20q-18 -14 -29 -38q-10 -23 -10 -59v-303h-107v523z" />
    <glyph glyph-name="Rcaron" unicode="&#x158;" horiz-adv-x="561" 
d="M128 894h78l68 -56l67 56h76l-98 -130h-94zM68 715h205q108 0 170 -46q63 -47 63 -147v-22q0 -41 -10 -70q-11 -31 -28 -51q-18 -23 -42 -36q-29 -15 -54 -22l165 -321h-125l-154 305h-75v-305h-115v715zM273 388q60 0 90 27q29 26 29 84v21q0 58 -30 81q-32 23 -89 23
h-90v-236h90z" />
    <glyph glyph-name="rcaron" unicode="&#x159;" horiz-adv-x="340" 
d="M44 745h78l66 -69l66 69h75l-99 -148h-89zM60 523h107v-86q23 47 56 68q36 24 91 25v-103q-38 -2 -62 -7q-25 -6 -46 -20q-18 -14 -29 -38q-10 -23 -10 -59v-303h-107v523z" />
    <glyph glyph-name="Sacute" unicode="&#x15a;" horiz-adv-x="544" 
d="M277 -10q-119 0 -177 58q-59 59 -63 161h112q1 -31 9 -55t22 -40q14 -18 38 -25q24 -9 59 -9q48 0 79 28q30 28 30 80q0 30 -7 48q-8 22 -23 35q-18 16 -41 27q-31 13 -63 23q-47 14 -86 33q-37 18 -62 43q-24 25 -38 59q-13 32 -13 79q0 43 15 77q15 35 43 60t66 38
q40 14 87 14q98 0 157 -47q57 -48 63 -147h-108q-4 56 -34 81q-28 24 -78 24t-75 -24q-26 -26 -26 -68q0 -23 6 -40q5 -17 20 -31q15 -15 39 -25q24 -12 63 -24q48 -15 88 -33q40 -19 65 -43q27 -25 42 -62q14 -37 14 -87t-16 -86q-16 -39 -45 -66q-31 -28 -71 -41
q-41 -15 -91 -15zM262 894h124l-91 -130h-81z" />
    <glyph glyph-name="sacute" unicode="&#x15b;" horiz-adv-x="436" 
d="M220 746h122l-95 -150h-79zM221 -9q-90 0 -139 43q-51 43 -52 123h103q1 -40 22 -64q19 -22 65 -22q41 0 61 17q18 17 18 52t-25 51q-22 14 -77 32q-46 15 -71 28q-29 13 -49 33t-27 44q-9 25 -9 59q0 35 14 63q13 25 38 46q23 18 54 27t64 9q35 0 69 -8q30 -7 55 -26
q23 -18 38 -47q14 -30 17 -71h-101q-7 73 -78 73q-33 0 -52 -16t-19 -44q0 -15 5 -27q5 -11 17 -20q9 -8 30 -16q25 -10 46 -17q29 -8 68 -23q30 -14 52 -31q22 -19 34 -45q11 -28 11 -66q0 -76 -46 -116q-47 -41 -136 -41z" />
    <glyph glyph-name="Scircumflex" unicode="&#x15c;" horiz-adv-x="544" 
d="M215 894h95l96 -130h-78l-67 55l-68 -55h-75zM277 -10q-119 0 -177 58q-59 59 -63 161h112q1 -31 9 -55t22 -40q14 -18 38 -25q24 -9 59 -9q48 0 79 28q30 28 30 80q0 30 -7 48q-8 22 -23 35q-18 16 -41 27q-31 13 -63 23q-47 14 -86 33q-37 18 -62 43q-24 25 -38 59
q-13 32 -13 79q0 43 15 77q15 35 43 60t66 38q40 14 87 14q98 0 157 -47q57 -48 63 -147h-108q-4 56 -34 81q-28 24 -78 24t-75 -24q-26 -26 -26 -68q0 -23 6 -40q5 -17 20 -31q15 -15 39 -25q24 -12 63 -24q48 -15 88 -33q40 -19 65 -43q27 -25 42 -62q14 -37 14 -87
t-16 -86q-16 -39 -45 -66q-31 -28 -71 -41q-41 -15 -91 -15z" />
    <glyph glyph-name="scircumflex" unicode="&#x15d;" horiz-adv-x="436" 
d="M168 745h90l96 -148h-77l-66 68l-66 -68h-76zM221 -9q-90 0 -139 43q-51 43 -52 123h103q1 -40 22 -64q19 -22 65 -22q41 0 61 17q18 17 18 52t-25 51q-22 14 -77 32q-46 15 -71 28q-29 13 -49 33t-27 44q-9 25 -9 59q0 35 14 63q13 25 38 46q23 18 54 27t64 9
q35 0 69 -8q30 -7 55 -26q23 -18 38 -47q14 -30 17 -71h-101q-7 73 -78 73q-33 0 -52 -16t-19 -44q0 -15 5 -27q5 -11 17 -20q9 -8 30 -16q25 -10 46 -17q29 -8 68 -23q30 -14 52 -31q22 -19 34 -45q11 -28 11 -66q0 -76 -46 -116q-47 -41 -136 -41z" />
    <glyph glyph-name="uni015E" unicode="&#x15e;" horiz-adv-x="544" 
d="M277 -10q-119 0 -177 58q-59 59 -63 161h112q1 -31 9 -55t22 -40q14 -18 38 -25q24 -9 59 -9q48 0 79 28q30 28 30 80q0 30 -7 48q-8 22 -23 35q-18 16 -41 27q-31 13 -63 23q-47 14 -86 33q-37 18 -62 43q-24 25 -38 59q-13 32 -13 79q0 43 15 77q15 35 43 60t66 38
q40 14 87 14q98 0 157 -47q57 -48 63 -147h-108q-4 56 -34 81q-28 24 -78 24t-75 -24q-26 -26 -26 -68q0 -23 6 -40q5 -17 20 -31q15 -15 39 -25q24 -12 63 -24q48 -15 88 -33q40 -19 65 -43q27 -25 42 -62q14 -37 14 -87t-16 -86q-16 -39 -45 -66q-31 -28 -71 -41
q-41 -15 -91 -15zM262 -211q-46 0 -74 22q-27 22 -32 62h63q1 -12 12 -23q9 -9 26 -9q15 0 26 9q9 10 9 24q0 16 -9 23q-11 9 -25 9q-10 0 -16 -3q-5 -2 -11 -6l-34 31l43 72h57l-28 -48q21 2 35 -2q17 -3 30 -13q14 -11 21 -26q8 -18 8 -38q0 -42 -29 -63q-28 -21 -72 -21z
" />
    <glyph glyph-name="uni015F" unicode="&#x15f;" horiz-adv-x="436" 
d="M221 -9q-90 0 -139 43q-51 43 -52 123h103q1 -40 22 -64q19 -22 65 -22q41 0 61 17q18 17 18 52t-25 51q-22 14 -77 32q-46 15 -71 28q-29 13 -49 33t-27 44q-9 25 -9 59q0 35 14 63q13 25 38 46q23 18 54 27t64 9q35 0 69 -8q30 -7 55 -26q23 -18 38 -47q14 -30 17 -71
h-101q-7 73 -78 73q-33 0 -52 -16t-19 -44q0 -15 5 -27q5 -11 17 -20q9 -8 30 -16q25 -10 46 -17q29 -8 68 -23q30 -14 52 -31q22 -19 34 -45q11 -28 11 -66q0 -76 -46 -116q-47 -41 -136 -41zM213 -211q-46 0 -74 22q-27 22 -32 62h63q1 -12 12 -23q9 -9 26 -9q16 0 26 9
q9 10 9 24q0 16 -9 23q-10 9 -25 9q-10 0 -16 -3q-5 -2 -11 -6l-34 31l43 72h57l-28 -48q21 2 35 -2q17 -3 30 -13q14 -11 21 -26q8 -18 8 -38q0 -42 -29 -63t-72 -21z" />
    <glyph glyph-name="Scaron" unicode="&#x160;" horiz-adv-x="544" 
d="M117 894h78l68 -56l67 56h76l-98 -130h-94zM277 -10q-119 0 -177 58q-59 59 -63 161h112q1 -31 9 -55t22 -40q14 -18 38 -25q24 -9 59 -9q48 0 79 28q30 28 30 80q0 30 -7 48q-8 22 -23 35q-18 16 -41 27q-31 13 -63 23q-47 14 -86 33q-37 18 -62 43q-24 25 -38 59
q-13 32 -13 79q0 43 15 77q15 35 43 60t66 38q40 14 87 14q98 0 157 -47q57 -48 63 -147h-108q-4 56 -34 81q-28 24 -78 24t-75 -24q-26 -26 -26 -68q0 -23 6 -40q5 -17 20 -31q15 -15 39 -25q24 -12 63 -24q48 -15 88 -33q40 -19 65 -43q27 -25 42 -62q14 -37 14 -87
t-16 -86q-16 -39 -45 -66q-31 -28 -71 -41q-41 -15 -91 -15z" />
    <glyph glyph-name="scaron" unicode="&#x161;" horiz-adv-x="436" 
d="M68 745h78l66 -69l66 69h75l-99 -148h-89zM221 -9q-90 0 -139 43q-51 43 -52 123h103q1 -40 22 -64q19 -22 65 -22q41 0 61 17q18 17 18 52t-25 51q-22 14 -77 32q-46 15 -71 28q-29 13 -49 33t-27 44q-9 25 -9 59q0 35 14 63q13 25 38 46q23 18 54 27t64 9q35 0 69 -8
q30 -7 55 -26q23 -18 38 -47q14 -30 17 -71h-101q-7 73 -78 73q-33 0 -52 -16t-19 -44q0 -15 5 -27q5 -11 17 -20q9 -8 30 -16q25 -10 46 -17q29 -8 68 -23q30 -14 52 -31q22 -19 34 -45q11 -28 11 -66q0 -76 -46 -116q-47 -41 -136 -41z" />
    <glyph glyph-name="Tcommaaccent" unicode="&#x162;" horiz-adv-x="498" 
d="M160 -188l44 152l101 -16l-80 -158zM190 623h-166v92h450v-92h-167l-1 -623h-116v623z" />
    <glyph glyph-name="tcommaaccent" unicode="&#x163;" horiz-adv-x="322" 
d="M91 -188l44 152l101 -16l-80 -158zM188 634v-111h100v-83h-100v-297q0 -62 55 -62q29 0 48 8v-85q-9 -4 -26 -7t-40 -3q-75 0 -109 37q-36 36 -36 103v306h-61v83h61v111h108z" />
    <glyph glyph-name="Tcaron" unicode="&#x164;" horiz-adv-x="498" 
d="M102 894h78l68 -56l67 56h76l-98 -130h-94zM190 623h-166v92h450v-92h-167l-1 -623h-116v623z" />
    <glyph glyph-name="tcaron" unicode="&#x165;" horiz-adv-x="322" 
d="M248 759h99l-44 -164h-65zM188 634v-111h100v-83h-100v-297q0 -62 55 -62q29 0 48 8v-85q-9 -4 -26 -7t-40 -3q-75 0 -109 37q-36 36 -36 103v306h-61v83h61v111h108z" />
    <glyph glyph-name="Tbar" unicode="&#x166;" horiz-adv-x="498" 
d="M72 421h118v202h-166v92h450v-92h-167l-1 -202h121v-82h-121v-339h-116v339h-118v82z" />
    <glyph glyph-name="tbar" unicode="&#x167;" horiz-adv-x="322" 
d="M19 346h61v94h-61v83h61v111h108v-111h100v-83h-100v-94h102v-64h-102v-139q0 -62 55 -62q29 0 48 8v-85q-9 -4 -26 -7t-40 -3q-75 0 -109 37q-36 36 -36 103v148h-61v64z" />
    <glyph glyph-name="Utilde" unicode="&#x168;" horiz-adv-x="615" 
d="M551 715v-477q0 -122 -63 -185t-184 -63q-115 0 -177 61q-64 60 -64 181v483h118v-477q0 -82 30 -117q28 -36 95 -36q62 0 95 35q32 35 32 125v470h118zM354 766q-16 0 -30 6q-15 4 -27 12q-4 2 -12 6.5t-12 6.5q-12 5 -21 5q-14 0 -21 -10q-9 -10 -12 -27h-68
q4 57 32 89q25 31 64 31q14 0 31 -5q10 -4 28 -12q12 -8 24 -12q10 -6 21 -6q12 0 21 10q8 11 11 27h68q-4 -58 -32 -90q-27 -31 -65 -31z" />
    <glyph glyph-name="utilde" unicode="&#x169;" horiz-adv-x="515" 
d="M455 0h-107v73q-17 -36 -51 -58q-35 -24 -89 -24q-34 0 -61 10q-29 11 -48 31q-22 22 -32 54q-11 35 -11 78v359h108v-349q0 -50 20 -73t62 -23t72 27q30 25 30 77v341h107v-523zM309 602q-17 0 -31 6q-18 8 -26 13q-8 4 -22 12q-10 6 -21 6q-12 0 -20 -11
q-9 -10 -12 -28h-66q5 61 30 92q26 32 63 32q16 0 30 -6l27 -12q5 -3 13.5 -7.5t9.5 -5.5q10 -6 21 -6q13 0 21 11q7 10 12 28h66q-4 -59 -31 -92q-27 -32 -64 -32z" />
    <glyph glyph-name="Umacron" unicode="&#x16a;" horiz-adv-x="615" 
d="M551 715v-477q0 -122 -63 -185t-184 -63q-115 0 -177 61q-64 60 -64 181v483h118v-477q0 -82 30 -117q28 -36 95 -36q62 0 95 35q32 35 32 125v470h118zM171 853h260v-76h-260v76z" />
    <glyph glyph-name="umacron" unicode="&#x16b;" horiz-adv-x="515" 
d="M455 0h-107v73q-17 -36 -51 -58q-35 -24 -89 -24q-34 0 -61 10q-29 11 -48 31q-22 22 -32 54q-11 35 -11 78v359h108v-349q0 -50 20 -73t62 -23t72 27q30 25 30 77v341h107v-523zM131 697h252v-73h-252v73z" />
    <glyph glyph-name="Ubreve" unicode="&#x16c;" horiz-adv-x="615" 
d="M551 715v-477q0 -122 -63 -185t-184 -63q-115 0 -177 61q-64 60 -64 181v483h118v-477q0 -82 30 -117q28 -36 95 -36q62 0 95 35q32 35 32 125v470h118zM300 759q-54 0 -91 35q-37 34 -40 96h76q3 -26 16 -39q14 -14 39 -14t41 14q14 14 17 39h75q-3 -62 -40 -96
q-38 -35 -93 -35z" />
    <glyph glyph-name="ubreve" unicode="&#x16d;" horiz-adv-x="515" 
d="M455 0h-107v73q-17 -36 -51 -58q-35 -24 -89 -24q-34 0 -61 10q-29 11 -48 31q-22 22 -32 54q-11 35 -11 78v359h108v-349q0 -50 20 -73t62 -23t72 27q30 25 30 77v341h107v-523zM256 600q-52 0 -89 35q-37 34 -39 100h73q5 -28 17 -41q13 -15 38 -15t40 15q13 15 18 41
h73q-3 -66 -40 -100q-38 -35 -91 -35z" />
    <glyph glyph-name="Uring" unicode="&#x16e;" horiz-adv-x="615" 
d="M551 715v-477q0 -122 -63 -185t-184 -63q-115 0 -177 61q-64 60 -64 181v483h118v-477q0 -82 30 -117q28 -36 95 -36q62 0 95 35q32 35 32 125v470h118zM301 735q-19 0 -40 8q-18 7 -32 21q-16 16 -22 31q-8 19 -8 39q0 19 8 38q7 17 22 32q14 14 32 21q21 8 40 8t40 -8
q19 -7 33 -21q13 -13 21 -32t8 -38q0 -20 -8 -39q-7 -17 -21 -31t-33 -21q-21 -8 -40 -8zM301 784q19 0 33 14q12 14 12 36q0 21 -12 36q-14 14 -33 14q-20 0 -32 -14q-13 -14 -13 -36q0 -23 13 -36q12 -14 32 -14z" />
    <glyph glyph-name="uring" unicode="&#x16f;" horiz-adv-x="515" 
d="M254 570q-19 0 -40 8q-18 7 -32 21q-16 16 -22 31q-8 19 -8 38q0 20 8 39q7 17 22 32q14 14 32 21q21 8 40 8t40 -8q20 -8 33 -21t21 -32t8 -39q0 -19 -8 -38q-7 -17 -21 -31q-13 -13 -33 -21q-21 -8 -40 -8zM254 619q19 0 33 14q12 13 12 35t-12 36q-14 14 -33 14
q-20 0 -32 -14q-13 -13 -13 -36q0 -22 13 -35q12 -14 32 -14zM455 0h-107v73q-17 -36 -51 -58q-35 -24 -89 -24q-34 0 -61 10q-29 11 -48 31q-22 22 -32 54q-11 35 -11 78v359h108v-349q0 -50 20 -73t62 -23t72 27q30 25 30 77v341h107v-523z" />
    <glyph glyph-name="Uhungarumlaut" unicode="&#x170;" horiz-adv-x="615" 
d="M215 894h107l-65 -130h-74zM368 894h108l-65 -130h-76zM551 715v-477q0 -122 -63 -185t-184 -63q-115 0 -177 61q-64 60 -64 181v483h118v-477q0 -82 30 -117q28 -36 95 -36q62 0 95 35q32 35 32 125v470h118z" />
    <glyph glyph-name="uhungarumlaut" unicode="&#x171;" horiz-adv-x="515" 
d="M455 0h-107v73q-17 -36 -51 -58q-35 -24 -89 -24q-34 0 -61 10q-29 11 -48 31q-22 22 -32 54q-11 35 -11 78v359h108v-349q0 -50 20 -73t62 -23t72 27q30 25 30 77v341h107v-523zM175 746h104l-67 -150h-71zM322 746h105l-67 -150h-71z" />
    <glyph glyph-name="Uogonek" unicode="&#x172;" horiz-adv-x="615" 
d="M353 -180q-44 0 -73 20t-29 57q0 30 17 53q15 22 41 40h-7q-113 0 -175 61q-64 61 -64 181v483h118v-477q0 -82 30 -117q28 -36 95 -36q62 0 95 35q32 35 32 125v470h118v-477q0 -149 -100 -213q-22 -14 -34 -21q-20 -11 -34 -22t-26 -27q-11 -16 -11 -34q0 -17 9 -25
q10 -8 24 -8q22 0 38 8v-64q-11 -4 -27 -9q-16 -3 -37 -3z" />
    <glyph glyph-name="uogonek" unicode="&#x173;" horiz-adv-x="515" 
d="M299 -103q0 35 22 60q24 28 51 43h-24v73q-17 -36 -51 -58q-35 -24 -89 -24q-34 0 -61 10q-29 11 -48 31q-22 22 -32 54q-11 35 -11 78v359h108v-349q0 -50 20 -73t62 -23t72 27q30 25 30 77v341h107v-523h-9q-26 -22 -39 -40q-13 -19 -13 -40q0 -32 33 -32q13 0 20 1
q8 1 18 7v-64q-11 -4 -27 -9q-17 -3 -38 -3q-44 0 -73 20q-28 19 -28 57z" />
    <glyph glyph-name="Wcircumflex" unicode="&#x174;" horiz-adv-x="808" 
d="M357 894h95l96 -130h-78l-67 55l-68 -55h-75zM23 715h118l101 -527l120 527h90l123 -529l102 529h108l-148 -715h-111l-119 508l-123 -508h-113z" />
    <glyph glyph-name="wcircumflex" unicode="&#x175;" horiz-adv-x="702" 
d="M307 745h90l96 -148h-77l-66 68l-66 -68h-76zM18 523h112l86 -384l99 384h84l93 -384l88 384h104l-137 -523h-112l-82 351l-92 -351h-111z" />
    <glyph glyph-name="Ycircumflex" unicode="&#x176;" horiz-adv-x="534" 
d="M213 309l-198 406h127l134 -298l131 298h112l-188 -406v-309h-118v309zM223 894h95l96 -130h-78l-67 55l-68 -55h-75z" />
    <glyph glyph-name="ycircumflex" unicode="&#x177;" horiz-adv-x="477" 
d="M247 182l108 341h106l-244 -700h-106l80 227l-175 473h115zM195 745h90l96 -148h-77l-66 68l-66 -68h-76z" />
    <glyph glyph-name="Ydieresis" unicode="&#x178;" horiz-adv-x="534" 
d="M213 309l-198 406h127l134 -298l131 298h112l-188 -406v-309h-118v309zM175 775q-24 0 -41 17q-18 16 -18 42t18 42q17 17 41 17q25 0 44 -17q17 -17 17 -42t-17 -42q-19 -17 -44 -17zM364 775q-25 0 -42 17q-18 16 -18 42t18 42q17 17 42 17q26 0 43 -17t17 -42t-17 -42
t-43 -17z" />
    <glyph glyph-name="Zacute" unicode="&#x179;" horiz-adv-x="509" 
d="M257 894h124l-91 -130h-81zM19 15l308 609h-276v91h431v-15l-305 -607h296v-93h-454v15z" />
    <glyph glyph-name="zacute" unicode="&#x17a;" horiz-adv-x="421" 
d="M225 746h122l-95 -150h-79zM16 13l238 424h-213v86h362v-15l-235 -421h227v-87h-379v13z" />
    <glyph glyph-name="Zdotaccent" unicode="&#x17b;" horiz-adv-x="509" 
d="M19 15l308 609h-276v91h431v-15l-305 -607h296v-93h-454v15zM256 773q-26 0 -45 18t-19 44t19 45q19 18 45 18t45 -18q18 -20 18 -45q0 -26 -18 -44q-19 -18 -45 -18z" />
    <glyph glyph-name="zdotaccent" unicode="&#x17c;" horiz-adv-x="421" 
d="M16 13l238 424h-213v86h362v-15l-235 -421h227v-87h-379v13zM218 604q-26 0 -45 19q-19 18 -19 44t19 45q19 18 45 18t45 -18q19 -19 19 -45t-19 -44q-19 -19 -45 -19z" />
    <glyph glyph-name="Zcaron" unicode="&#x17d;" horiz-adv-x="509" 
d="M111 894h78l68 -56l67 56h76l-98 -130h-94zM19 15l308 609h-276v91h431v-15l-305 -607h296v-93h-454v15z" />
    <glyph glyph-name="zcaron" unicode="&#x17e;" horiz-adv-x="421" 
d="M75 745h78l66 -69l66 69h75l-99 -148h-89zM16 13l238 424h-213v86h362v-15l-235 -421h227v-87h-379v13z" />
    <glyph glyph-name="uni0192" unicode="&#x192;" horiz-adv-x="368" 
d="M97 337h-72v83h83l19 144q10 81 55 119q44 38 117 38q10 0 32 -2q13 -1 26 -5v-88q-7 4 -21 6q-18 2 -27 2q-35 0 -52 -21q-18 -23 -22 -57l-18 -136h109v-83h-120l-67 -504h-108z" />
    <glyph glyph-name="Aringacute" unicode="&#x1fa;" horiz-adv-x="584" 
d="M398 175h-222l-44 -175h-108l190 715h159l188 -715h-119zM198 262h178l-89 357zM301 1090h124l-91 -130h-81zM295 742q-19 0 -40 8q-18 7 -32 21q-16 16 -22 31q-8 19 -8 39q0 19 8 38q7 17 22 32q14 14 32 21q21 8 40 8t40 -8q19 -8 33 -21q13 -13 21 -32t8 -38
q0 -20 -8 -39q-7 -17 -21 -31q-14 -13 -33 -21q-21 -8 -40 -8zM295 791q19 0 33 14q12 13 12 36q0 21 -12 36q-14 14 -33 14q-20 0 -32 -14q-13 -14 -13 -36q0 -23 13 -36q12 -14 32 -14z" />
    <glyph glyph-name="aringacute" unicode="&#x1fb;" horiz-adv-x="482" 
d="M186 -9q-32 0 -61 9t-48 28q-22 21 -32 47q-12 27 -12 65v11q0 42 17 73q16 30 46 49q29 18 70 26q43 8 88 8h64v47q0 47 -17 72q-18 23 -63 23q-77 0 -83 -76h-104q1 42 18 72q15 30 41 50q25 19 59 28q35 9 74 9t74 -9q34 -11 57 -31q25 -22 38 -54q13 -33 13 -81v-357
h-106v57q-20 -29 -50 -47q-29 -19 -83 -19zM214 70q46 0 75 23t29 71v72h-60q-56 0 -88 -18q-31 -19 -31 -64v-9q0 -37 18 -56q16 -19 57 -19zM239 577q-19 0 -40 8q-18 7 -32 21q-16 16 -22 31q-8 19 -8 38q0 20 8 39q7 17 22 32q14 14 32 21q21 8 40 8t40 -8q19 -7 33 -21
q13 -13 21 -32t8 -39q0 -19 -8 -38q-7 -17 -21 -31t-33 -21q-21 -8 -40 -8zM239 626q19 0 33 14q12 14 12 35q0 23 -12 36q-14 14 -33 14q-20 0 -32 -14q-13 -13 -13 -36q0 -22 13 -35q12 -14 32 -14zM247 936h124l-91 -130h-81z" />
    <glyph glyph-name="AEacute" unicode="&#x1fc;" horiz-adv-x="810" 
d="M506 894h124l-91 -130h-81zM294 715h469v-92h-257v-208h205v-88h-205v-235h270v-92h-387v179h-191l-67 -179h-112zM230 264h159v359h-25z" />
    <glyph glyph-name="aeacute" unicode="&#x1fd;" horiz-adv-x="762" 
d="M391 746h122l-95 -150h-79zM197 -9q-37 0 -66 10q-31 9 -51 28q-22 19 -34 47q-13 27 -13 65v11q0 43 16 74q16 30 46 50q27 18 70 28q41 9 88 9h61v43q0 48 -17 71q-18 22 -61 22q-74 0 -81 -76h-104q3 41 18 71q16 31 40 50q24 18 59 29q33 9 71 9q51 0 85 -15t54 -50
q53 65 145 65q41 0 79 -12q37 -13 65 -40q26 -26 43 -69q16 -41 16 -101v-71h-308v-24q0 -142 106 -142q46 0 70 21q24 19 30 59h102q-7 -80 -61 -121q-55 -41 -142 -41q-114 0 -165 86q-25 -43 -63 -64q-37 -22 -98 -22zM520 452q-46 0 -74 -33q-28 -32 -28 -106h203v19
q0 64 -26 93q-25 27 -75 27zM214 70q45 0 73 23q27 23 27 71v76h-57q-57 0 -87 -18q-31 -19 -31 -67v-10q0 -75 75 -75z" />
    <glyph glyph-name="Oslashacute" unicode="&#x1fe;" horiz-adv-x="672" 
d="M27 8l72 94q-57 76 -57 188v135q0 68 22 122q20 54 60 95q38 38 93 61q54 21 119 21q58 0 105 -16q48 -17 85 -45l56 74l45 -38l-59 -78q31 -38 47 -86t16 -108v-134q0 -67 -21 -123t-60 -96q-37 -39 -93 -62q-53 -22 -120 -22q-61 0 -110 18q-50 18 -88 50l-66 -87z
M161 283q0 -48 13 -83l289 381q-23 25 -54 38q-30 13 -73 13q-82 0 -129 -56q-46 -55 -46 -151v-142zM338 85q80 0 127 56q46 55 46 151v143q0 52 -15 91l-292 -382q25 -30 58 -44q34 -15 76 -15zM336 894h124l-91 -130h-81z" />
    <glyph glyph-name="oslashacute" unicode="&#x1ff;" horiz-adv-x="519" 
d="M21 1l57 74q-22 30 -32 64q-12 36 -12 79v85q0 51 17 96q16 41 47 72q30 29 72 45q39 16 90 16q83 0 141 -43l48 62l44 -32l-53 -69q21 -29 33 -64q12 -36 12 -81v-85q0 -52 -17 -95q-16 -43 -47 -72q-29 -29 -71 -46q-41 -16 -91 -16q-84 0 -141 45l-53 -68zM142 215
q0 -29 6 -51l196 251q-31 34 -84 34q-55 0 -86 -37q-32 -38 -32 -105v-92zM260 75q55 0 87 38q31 37 31 104v92q0 33 -7 54l-196 -254q31 -34 85 -34zM266 746h122l-95 -150h-79z" />
    <glyph glyph-name="uni0218" unicode="&#x218;" horiz-adv-x="544" 
d="M173 -188l44 152l101 -16l-80 -158zM277 -10q-119 0 -177 58q-59 59 -63 161h112q1 -31 9 -55t22 -40q14 -18 38 -25q24 -9 59 -9q48 0 79 28q30 28 30 80q0 30 -7 48q-8 22 -23 35q-18 16 -41 27q-31 13 -63 23q-47 14 -86 33q-37 18 -62 43q-24 25 -38 59
q-13 32 -13 79q0 43 15 77q15 35 43 60t66 38q40 14 87 14q98 0 157 -47q57 -48 63 -147h-108q-4 56 -34 81q-28 24 -78 24t-75 -24q-26 -26 -26 -68q0 -23 6 -40q5 -17 20 -31q15 -15 39 -25q24 -12 63 -24q48 -15 88 -33q40 -19 65 -43q27 -25 42 -62q14 -37 14 -87
t-16 -86q-16 -39 -45 -66q-31 -28 -71 -41q-41 -15 -91 -15z" />
    <glyph glyph-name="uni0219" unicode="&#x219;" horiz-adv-x="436" 
d="M125 -188l44 152l101 -16l-80 -158zM221 -9q-90 0 -139 43q-51 43 -52 123h103q1 -40 22 -64q19 -22 65 -22q41 0 61 17q18 17 18 52t-25 51q-22 14 -77 32q-46 15 -71 28q-29 13 -49 33t-27 44q-9 25 -9 59q0 35 14 63q13 25 38 46q23 18 54 27t64 9q35 0 69 -8
q30 -7 55 -26q23 -18 38 -47q14 -30 17 -71h-101q-7 73 -78 73q-33 0 -52 -16t-19 -44q0 -15 5 -27q5 -11 17 -20q9 -8 30 -16q25 -10 46 -17q29 -8 68 -23q30 -14 52 -31q22 -19 34 -45q11 -28 11 -66q0 -76 -46 -116q-47 -41 -136 -41z" />
    <glyph glyph-name="uni021A" unicode="&#x21a;" horiz-adv-x="498" 
d="M160 -188l44 152l101 -16l-80 -158zM190 623h-166v92h450v-92h-167l-1 -623h-116v623z" />
    <glyph glyph-name="uni021B" unicode="&#x21b;" horiz-adv-x="322" 
d="M91 -188l44 152l101 -16l-80 -158zM188 634v-111h100v-83h-100v-297q0 -62 55 -62q29 0 48 8v-85q-9 -4 -26 -7t-40 -3q-75 0 -109 37q-36 36 -36 103v306h-61v83h61v111h108z" />
    <glyph glyph-name="uni0237" unicode="&#x237;" horiz-adv-x="231" 
d="M-8 -101q36 4 54 22q16 16 16 50v552h107v-550q0 -75 -39 -115q-42 -42 -138 -43v84z" />
    <glyph glyph-name="circumflex" unicode="&#x2c6;" horiz-adv-x="400" 
d="M156 745h90l96 -148h-77l-66 68l-66 -68h-76z" />
    <glyph glyph-name="caron" unicode="&#x2c7;" horiz-adv-x="400" 
d="M57 745h78l66 -69l66 69h75l-99 -148h-89z" />
    <glyph glyph-name="breve" unicode="&#x2d8;" horiz-adv-x="400" 
d="M199 600q-52 0 -89 35q-37 34 -39 100h73q5 -28 17 -41q14 -15 38 -15q25 0 40 15q13 15 18 41h73q-3 -66 -40 -100q-38 -35 -91 -35z" />
    <glyph glyph-name="dotaccent" unicode="&#x2d9;" horiz-adv-x="400" 
d="M200 604q-26 0 -45 19q-19 18 -19 44t19 45q19 18 45 18t45 -18q19 -19 19 -45t-19 -44q-19 -19 -45 -19z" />
    <glyph glyph-name="ring" unicode="&#x2da;" horiz-adv-x="400" 
d="M200 588q-19 0 -40 8q-18 7 -32 21q-16 16 -22 31q-8 19 -8 38q0 20 8 39q7 17 22 32q14 14 32 21q21 8 40 8t40 -8q20 -8 33 -21t21 -32t8 -39q0 -19 -8 -38q-7 -17 -21 -31q-13 -13 -33 -21q-21 -8 -40 -8zM200 637q19 0 33 14q12 13 12 35t-12 36q-14 14 -33 14
q-20 0 -32 -14q-13 -13 -13 -36q0 -22 13 -35q12 -14 32 -14z" />
    <glyph glyph-name="ogonek" unicode="&#x2db;" horiz-adv-x="400" 
d="M224 -180q-44 0 -73 20t-29 57q0 34 23 60q24 28 51 43h74q-26 -22 -39 -40q-13 -19 -13 -40q0 -32 33 -32q20 0 38 8v-64q-13 -5 -28 -9q-17 -3 -37 -3z" />
    <glyph glyph-name="tilde" unicode="&#x2dc;" horiz-adv-x="400" 
d="M252 602q-18 0 -31 6q-18 8 -26 13q-8 4 -22 12q-11 6 -21 6q-12 0 -20 -11q-9 -10 -12 -28h-66q5 61 30 92q26 32 63 32q17 0 30 -6l27 -12q5 -3 13.5 -7.5t9.5 -5.5q11 -6 21 -6q13 0 21 11q7 10 12 28h66q-4 -59 -31 -92q-27 -32 -64 -32z" />
    <glyph glyph-name="hungarumlaut" unicode="&#x2dd;" horiz-adv-x="400" 
d="M124 746h104l-67 -150h-71zM271 746h105l-67 -150h-71z" />
    <glyph glyph-name="Wgrave" unicode="&#x1e80;" horiz-adv-x="808" 
d="M282 894h124l47 -130h-81zM23 715h118l101 -527l120 527h90l123 -529l102 529h108l-148 -715h-111l-119 508l-123 -508h-113z" />
    <glyph glyph-name="wgrave" unicode="&#x1e81;" horiz-adv-x="702" 
d="M18 523h112l86 -384l99 384h84l93 -384l88 384h104l-137 -523h-112l-82 351l-92 -351h-111zM228 746h122l53 -150h-79z" />
    <glyph glyph-name="Wacute" unicode="&#x1e82;" horiz-adv-x="808" 
d="M414 894h124l-91 -130h-81zM23 715h118l101 -527l120 527h90l123 -529l102 529h108l-148 -715h-111l-119 508l-123 -508h-113z" />
    <glyph glyph-name="wacute" unicode="&#x1e83;" horiz-adv-x="702" 
d="M366 746h122l-95 -150h-79zM18 523h112l86 -384l99 384h84l93 -384l88 384h104l-137 -523h-112l-82 351l-92 -351h-111z" />
    <glyph glyph-name="Wdieresis" unicode="&#x1e84;" horiz-adv-x="808" 
d="M311 775q-24 0 -41 17q-18 16 -18 42t18 42q17 17 41 17q25 0 44 -17q17 -17 17 -42t-17 -42q-19 -17 -44 -17zM500 775q-25 0 -42 17q-18 16 -18 42t18 42q17 17 42 17q26 0 43 -17t17 -42t-17 -42t-43 -17zM23 715h118l101 -527l120 527h90l123 -529l102 529h108
l-148 -715h-111l-119 508l-123 -508h-113z" />
    <glyph glyph-name="wdieresis" unicode="&#x1e85;" horiz-adv-x="702" 
d="M266 606q-26 0 -43 18q-18 16 -18 42q0 25 18 43q17 17 43 17q25 0 44 -17q17 -19 17 -43q0 -25 -17 -42q-18 -18 -44 -18zM444 606q-25 0 -43 18q-18 16 -18 42q0 25 18 43q19 17 43 17q25 0 44 -17q18 -18 18 -43q0 -26 -18 -42q-18 -18 -44 -18zM18 523h112l86 -384
l99 384h84l93 -384l88 384h104l-137 -523h-112l-82 351l-92 -351h-111z" />
    <glyph glyph-name="Ygrave" unicode="&#x1ef2;" horiz-adv-x="534" 
d="M213 309l-198 406h127l134 -298l131 298h112l-188 -406v-309h-118v309zM151 894h124l47 -130h-81z" />
    <glyph glyph-name="ygrave" unicode="&#x1ef3;" horiz-adv-x="477" 
d="M247 182l108 341h106l-244 -700h-106l80 227l-175 473h115zM112 746h122l53 -150h-79z" />
    <glyph glyph-name="uni2009" unicode="&#x2009;" horiz-adv-x="86" 
 />
    <glyph glyph-name="endash" unicode="&#x2013;" horiz-adv-x="521" 
d="M41 319h440v-77h-440v77z" />
    <glyph glyph-name="emdash" unicode="&#x2014;" horiz-adv-x="893" 
d="M41 319h812v-77h-812v77z" />
    <glyph glyph-name="quoteleft" unicode="&#x2018;" horiz-adv-x="242" 
d="M205 700l-72 -212l-101 36l108 201z" />
    <glyph glyph-name="quoteright" unicode="&#x2019;" horiz-adv-x="242" 
d="M38 514l72 212l100 -37l-107 -201z" />
    <glyph glyph-name="quotesinglbase" unicode="&#x201a;" horiz-adv-x="237" 
d="M36 -72l71 214l99 -35l-106 -205z" />
    <glyph glyph-name="quotedblleft" unicode="&#x201c;" horiz-adv-x="414" 
d="M205 700l-72 -212l-101 36l108 201zM377 700l-72 -212l-101 36l108 201z" />
    <glyph glyph-name="quotedblright" unicode="&#x201d;" horiz-adv-x="415" 
d="M38 514l72 212l100 -37l-107 -201zM211 514l72 212l100 -37l-108 -201z" />
    <glyph glyph-name="quotedblbase" unicode="&#x201e;" horiz-adv-x="410" 
d="M36 -72l71 214l99 -35l-106 -205zM210 -72l69 214l100 -35l-106 -205z" />
    <glyph glyph-name="dagger" unicode="&#x2020;" horiz-adv-x="345" 
d="M127 520h-97v80h97v115h91v-115h96v-80h-96v-271h-91v271z" />
    <glyph glyph-name="daggerdbl" unicode="&#x2021;" horiz-adv-x="345" 
d="M127 360h-97v77h97v90h-97v77h97v111h91v-111h96v-77h-96v-90h96v-77h-96v-111h-91v111z" />
    <glyph glyph-name="bullet" unicode="&#x2022;" horiz-adv-x="315" 
d="M158 197q-24 0 -45 9q-22 9 -36 25q-17 15 -24 36q-9 19 -9 44q0 23 9 44q7 20 24 37q15 15 36 24t45 9t45 -9t36 -24q15 -17 24 -37q8 -22 8 -44q0 -23 -8 -44q-9 -21 -24 -36q-14 -16 -36 -25q-21 -9 -45 -9z" />
    <glyph glyph-name="ellipsis" unicode="&#x2026;" horiz-adv-x="729" 
d="M125 -6q-28 0 -50 20q-21 20 -21 49t21 50q22 20 50 20t50 -20q20 -22 20 -50q0 -29 -20 -49q-22 -20 -50 -20zM365 -6q-30 0 -50 20t-20 49q0 28 20 50q20 20 50 20q28 0 50 -20q20 -22 20 -50q0 -29 -20 -49q-22 -20 -50 -20zM605 -6q-28 0 -50 20q-21 20 -21 49t21 50
q22 20 50 20t50 -20q20 -22 20 -50q0 -29 -20 -49q-22 -20 -50 -20z" />
    <glyph glyph-name="perthousand" unicode="&#x2030;" horiz-adv-x="1034" 
d="M185 411q-32 0 -61 12q-27 10 -49 32q-20 19 -33 49q-12 28 -12 62q0 36 13 63q12 28 33 49t49 33q30 11 60 11t60 -11q27 -11 49 -32q20 -21 34 -49q12 -28 12 -62t-12 -63t-33 -50q-22 -22 -49 -32q-29 -12 -61 -12zM522 715h77l-430 -715h-77zM185 485q31 0 49 22
q18 23 18 60t-18 60q-18 21 -49 21t-49 -21t-18 -60q0 -40 18 -61t49 -21zM503 -8q-31 0 -60 12q-28 10 -50 31q-20 19 -33 49q-12 28 -12 62q0 36 13 63q12 28 34 49t49 32q30 11 59 11q31 0 61 -11q27 -11 49 -32q20 -19 34 -48q12 -28 12 -62t-12 -63q-15 -31 -34 -49
q-22 -22 -49 -32q-28 -12 -61 -12zM849 -8q-31 0 -60 12q-28 10 -50 31q-20 19 -33 49q-12 28 -12 62q0 36 13 63q12 28 34 49t49 32q30 11 59 11q31 0 61 -11q27 -11 49 -32q21 -20 33 -48t12 -62t-12 -63q-13 -30 -33 -49q-22 -22 -49 -32q-28 -12 -61 -12zM503 65
q32 0 50 22q18 21 18 59q0 39 -18 61t-50 22q-30 0 -48 -21q-18 -23 -18 -62t18 -60t48 -21zM849 65q32 0 50 22q18 21 18 59q0 39 -18 61t-50 22q-30 0 -48 -21q-18 -23 -18 -62t18 -60t48 -21z" />
    <glyph glyph-name="uni2032" unicode="&#x2032;" horiz-adv-x="197" 
d="M56 715h107l-52 -235h-75z" />
    <glyph glyph-name="uni2033" unicode="&#x2033;" horiz-adv-x="358" 
d="M56 715h107l-52 -235h-75zM217 715h107l-52 -235h-75z" />
    <glyph glyph-name="guilsinglleft" unicode="&#x2039;" horiz-adv-x="281" 
d="M43 261l110 176h89l-107 -176l107 -176h-89z" />
    <glyph glyph-name="guilsinglright" unicode="&#x203a;" horiz-adv-x="281" 
d="M147 261l-108 176h89l110 -176l-110 -176h-89z" />
    <glyph glyph-name="fraction" unicode="&#x2044;" horiz-adv-x="131" 
d="M271 715h71l-482 -715h-72z" />
    <glyph glyph-name="zero.sup" unicode="&#x2070;" horiz-adv-x="344" 
d="M171 396q-68 0 -106 41q-39 41 -39 116v65q0 77 41 118q40 40 104 40q67 0 107 -39q40 -40 40 -117v-65q0 -75 -39 -117t-108 -42zM172 464q32 0 47 22q15 21 15 69v65q0 91 -63 91q-59 0 -59 -92v-65q0 -47 15 -68q15 -22 45 -22z" />
    <glyph glyph-name="four.sup" unicode="&#x2074;" horiz-adv-x="322" 
d="M178 478h-165v28l143 265h103v-233h44v-60h-44v-76h-81v76zM180 538v168l-85 -168h85z" />
    <glyph glyph-name="five.sup" unicode="&#x2075;" horiz-adv-x="302" 
d="M146 397q-62 0 -94 30q-31 30 -33 80h77q3 -22 14 -35q10 -12 35 -12q23 0 35 15q11 16 11 42v15q0 57 -54 57q-39 0 -59 -26h-44l4 208h219v-63h-156l-1 -92q11 11 28 21q16 9 46 9q45 0 74 -29q28 -28 28 -85v-16q0 -56 -34 -87q-35 -32 -96 -32z" />
    <glyph glyph-name="six.sup" unicode="&#x2076;" horiz-adv-x="321" 
d="M166 397q-76 0 -107 43q-33 42 -33 111v60q0 82 40 123q39 42 105 42q53 0 84 -25q32 -26 36 -76h-78q-5 38 -43 38q-56 0 -58 -96v-19q10 18 30 30q19 11 49 11q44 0 76 -26q31 -27 31 -81v-19q0 -54 -34 -85t-98 -31zM165 456q23 0 37 15q13 13 13 40v19q0 27 -13 41
q-14 14 -37 14t-37 -14q-15 -13 -15 -38v-20q0 -26 14 -42q13 -15 38 -15z" />
    <glyph glyph-name="seven.sup" unicode="&#x2077;" horiz-adv-x="275" 
d="M161 702h-145v69h248v-11l-118 -358h-84z" />
    <glyph glyph-name="eight.sup" unicode="&#x2078;" horiz-adv-x="315" 
d="M156 397q-58 0 -95 26q-37 25 -37 78v12q0 31 17 54q16 22 45 31q-23 11 -37 29q-14 17 -14 45v7q0 47 36 72q34 25 86 25q54 0 88 -25t34 -71v-7q0 -27 -14 -46q-14 -17 -38 -28q63 -23 63 -85v-11q0 -52 -36 -79q-38 -27 -98 -27zM157 623q19 0 32 11q11 11 11 33v8
q0 21 -12 32q-11 10 -31 10t-31 -10q-12 -11 -12 -33v-8q0 -23 13 -33q11 -10 30 -10zM157 457q24 0 37 13t13 38v13q0 25 -13 38t-37 13q-22 0 -35 -13q-14 -14 -14 -39v-13q0 -23 14 -37q13 -13 35 -13z" />
    <glyph glyph-name="nine.sup" unicode="&#x2079;" horiz-adv-x="321" 
d="M154 396q-58 0 -89 27q-32 25 -37 78h78q3 -20 14 -31t33 -11q30 0 44 23q12 21 14 68v23q-11 -18 -29 -28q-20 -12 -49 -12q-45 0 -77 27t-32 82v15q0 56 35 88t96 32q71 0 106 -41q34 -41 34 -113v-67q0 -78 -35 -119t-106 -41zM155 588q24 0 38 14t14 39v17
q0 59 -52 59q-23 0 -35 -16q-13 -16 -13 -42v-15q0 -56 48 -56z" />
    <glyph glyph-name="plus.sup" unicode="&#x207a;" horiz-adv-x="321" 
d="M127 557h-93v65h93v100h66v-100h93v-65h-93v-98h-66v98z" />
    <glyph glyph-name="minus.sup" unicode="&#x207b;" horiz-adv-x="321" 
d="M34 622h252v-65h-252v65z" />
    <glyph glyph-name="zero.sub" unicode="&#x2080;" horiz-adv-x="344" 
d="M171 -111q-68 0 -106 41q-39 40 -39 116v65q0 76 41 117t104 41q67 0 107 -39q40 -40 40 -117v-65q0 -75 -39 -117t-108 -42zM172 -44q62 0 62 91v65q0 91 -63 91q-59 0 -59 -92v-64q0 -91 60 -91z" />
    <glyph glyph-name="one.sub" unicode="&#x2081;" horiz-adv-x="233" 
d="M96 179l-74 -50v73l85 62h75v-370h-86v285z" />
    <glyph glyph-name="two.sub" unicode="&#x2082;" horiz-adv-x="290" 
d="M7 -93l113 133q27 33 45 62q15 27 15 55v3q0 44 -40 44q-20 0 -32 -13t-15 -46h-78q1 61 36 93q34 31 92 31q61 0 90 -28q30 -29 30 -78v-3q0 -40 -19 -71t-49 -67l-57 -64h128v-64h-259v13z" />
    <glyph glyph-name="three.sub" unicode="&#x2083;" horiz-adv-x="309" 
d="M151 -111q-66 0 -98 30q-33 31 -34 86h76q2 -26 14 -40t38 -14q49 0 49 49v8q0 50 -53 50h-23v55h23q51 0 51 47v3q0 20 -10 33q-10 12 -32 12q-21 0 -33 -12q-13 -14 -15 -39h-77q1 52 35 82q32 30 92 30q57 0 89 -26q31 -25 31 -72v-5q0 -59 -59 -76q31 -7 49 -28
t18 -56v-8q0 -52 -34 -80q-35 -29 -97 -29z" />
    <glyph glyph-name="four.sub" unicode="&#x2084;" horiz-adv-x="322" 
d="M178 -29h-165v27l143 266h103v-233h44v-60h-44v-77h-81v77zM180 31v168l-85 -168h85z" />
    <glyph glyph-name="five.sub" unicode="&#x2085;" horiz-adv-x="302" 
d="M146 -111q-62 0 -94 30t-33 81h77q3 -22 14 -35q11 -12 35 -12q23 0 35 15q11 16 11 42v15q0 57 -54 57q-22 0 -35 -7q-15 -7 -24 -18h-44l4 207h219v-63h-156l-1 -93q10 12 28 22q16 9 46 9q45 0 74 -29q28 -29 28 -86v-15q0 -58 -34 -89t-96 -31z" />
    <glyph glyph-name="six.sub" unicode="&#x2086;" horiz-adv-x="321" 
d="M166 -111q-76 0 -107 43q-33 44 -33 112v61q0 81 40 122q39 42 105 42q53 0 84 -25q32 -26 36 -77h-78q-4 40 -43 40q-57 0 -58 -97v-20q10 19 30 31q19 11 49 11q44 0 76 -26q31 -27 31 -81v-19q0 -55 -34 -86t-98 -31zM165 -51q23 0 37 14q13 14 13 40v20q0 27 -13 41
q-14 14 -37 14t-37 -14q-15 -14 -15 -38v-21q0 -26 14 -42q14 -14 38 -14z" />
    <glyph glyph-name="seven.sub" unicode="&#x2087;" horiz-adv-x="275" 
d="M161 196h-145v68h248v-12l-118 -358h-84z" />
    <glyph glyph-name="eight.sub" unicode="&#x2088;" horiz-adv-x="315" 
d="M156 -111q-58 0 -95 26q-37 25 -37 78v13q0 31 17 54q16 20 45 31q-25 11 -37 28q-14 19 -14 46v6q0 47 36 73q34 25 86 25q53 0 88 -24q34 -25 34 -73v-7q0 -26 -14 -45q-14 -17 -38 -28q63 -23 63 -86v-11q0 -52 -36 -79q-38 -27 -98 -27zM157 115q19 0 32 11
q11 11 11 34v8q0 22 -12 32q-13 11 -31 11t-31 -11q-12 -10 -12 -34v-7q0 -23 13 -33q13 -11 30 -11zM157 -51q24 0 37 13t13 39v13q0 25 -13 38t-37 13q-22 0 -35 -13q-14 -14 -14 -39v-13q0 -24 14 -38q13 -13 35 -13z" />
    <glyph glyph-name="nine.sub" unicode="&#x2089;" horiz-adv-x="321" 
d="M154 -111q-57 0 -89 26q-32 25 -37 79h78q3 -21 14 -32q10 -10 33 -10q31 0 44 22q12 21 14 68v24q-11 -18 -29 -29q-20 -11 -49 -11q-45 0 -77 27t-32 83v14q0 56 35 88q34 31 96 31q71 0 106 -41q34 -40 34 -112v-68q0 -77 -35 -118t-106 -41zM155 81q24 0 38 14t14 39
v17q0 58 -52 58q-23 0 -35 -15q-13 -16 -13 -42v-15q0 -56 48 -56z" />
    <glyph glyph-name="plus.sub" unicode="&#x208a;" horiz-adv-x="321" 
d="M127 43h-93v65h93v99h66v-99h93v-65h-93v-98h-66v98z" />
    <glyph glyph-name="minus.sub" unicode="&#x208b;" horiz-adv-x="321" 
d="M34 108h252v-65h-252v65z" />
    <glyph glyph-name="Euro" unicode="&#x20ac;" horiz-adv-x="585" 
d="M22 329h57v59h-57v60h57q0 59 17 112q16 50 48 88q33 37 76 56q46 20 102 20q98 0 156 -52t66 -162v-1h-110v2q-6 62 -35 93q-29 30 -77 30q-65 0 -97 -50q-31 -49 -31 -135v-1h182l-11 -60h-171v-59h162l-11 -61h-151v-4q0 -86 31 -132q31 -48 97 -48q53 0 83 31
q29 32 36 103v2h109v-2q-9 -116 -69 -171q-60 -57 -161 -57q-56 0 -102 20q-45 20 -75 57q-30 34 -47 87q-17 51 -17 111v3h-57v61z" />
    <glyph glyph-name="trademark" unicode="&#x2122;" horiz-adv-x="611" 
d="M285 715h83l62 -183l61 183h84v-303h-64v214l-74 -214h-20l-75 214v-214h-57v303zM103 663h-75v52h216v-52h-76v-251h-65v251z" />
    <glyph glyph-name="onethird" unicode="&#x2153;" horiz-adv-x="704" 
d="M543 -5q-67 0 -98 31q-33 30 -34 85h76q2 -26 14 -40q12 -15 38 -15q49 0 49 50v8q0 49 -53 49h-23v54h23q51 0 51 47v5q0 43 -42 43q-21 0 -33 -12q-14 -12 -15 -37h-77q1 51 35 81q32 30 92 30q56 0 88 -26t32 -72v-4q0 -58 -59 -78q31 -6 49 -27t18 -55v-8
q0 -52 -34 -80q-35 -29 -97 -29zM99 630l-74 -50v73l85 62h75v-369h-86v284zM531 715h71l-482 -715h-72z" />
    <glyph glyph-name="twothirds" unicode="&#x2154;" horiz-adv-x="753" 
d="M591 -5q-67 0 -98 31q-33 30 -34 85h76q2 -26 14 -40q12 -15 38 -15q49 0 49 50v8q0 49 -53 49h-23v54h23q51 0 51 47v5q0 43 -42 43q-21 0 -33 -12q-14 -12 -15 -37h-77q1 51 35 81q32 30 92 30q56 0 88 -26t32 -72v-4q0 -58 -59 -78q31 -6 49 -27t18 -55v-8
q0 -52 -34 -80q-35 -29 -97 -29zM10 358l113 133q27 33 45 62q15 27 15 55v4q0 44 -40 44q-20 0 -32 -14q-12 -13 -15 -47h-78q2 61 36 93q35 32 92 32q61 0 90 -28q30 -28 30 -77v-4q0 -40 -19 -71q-17 -29 -49 -66l-57 -65h128v-63h-259v12zM588 715h71l-482 -715h-72z
" />
    <glyph glyph-name="oneeighth" unicode="&#x215b;" horiz-adv-x="710" 
d="M548 -5q-58 0 -95 26q-37 25 -37 78v13q0 31 17 53t45 32q-24 10 -37 28q-14 19 -14 44v8q0 47 36 72q34 25 86 25q53 0 88 -24q34 -25 34 -72v-8q0 -26 -14 -45q-15 -18 -38 -27q63 -22 63 -86v-12q0 -52 -36 -78q-38 -27 -98 -27zM549 220q20 0 32 12q11 11 11 32v10
q0 20 -12 31q-13 11 -31 11t-31 -11q-12 -11 -12 -33v-9q0 -22 13 -32q13 -11 30 -11zM549 55q24 0 37 13t13 37v14q0 25 -13 38t-37 13q-22 0 -35 -13q-14 -14 -14 -39v-13q0 -23 14 -37q13 -13 35 -13zM99 630l-74 -50v73l85 62h75v-369h-86v284zM530 715h71l-482 -715
h-72z" />
    <glyph glyph-name="threeeighths" unicode="&#x215c;" horiz-adv-x="737" 
d="M574 -5q-58 0 -95 26q-37 25 -37 78v13q0 31 17 53t45 32q-24 10 -37 28q-14 19 -14 44v8q0 47 36 72q34 25 86 25q53 0 88 -24q34 -25 34 -72v-8q0 -26 -14 -45q-15 -18 -38 -27q63 -22 63 -86v-12q0 -52 -36 -78q-38 -27 -98 -27zM575 220q20 0 32 12q11 11 11 32v10
q0 20 -12 31q-13 11 -31 11t-31 -11q-12 -11 -12 -33v-9q0 -22 13 -32q13 -11 30 -11zM575 55q24 0 37 13t13 37v14q0 25 -13 38t-37 13q-22 0 -35 -13q-14 -14 -14 -39v-13q0 -23 14 -37q13 -13 35 -13zM573 715h71l-482 -715h-72zM154 341q-67 0 -98 31q-33 30 -34 85h76
q2 -26 14 -40q12 -15 38 -15q49 0 49 50v7q0 50 -53 50h-23v54h23q51 0 51 47v4q0 22 -10 33q-11 12 -32 12t-33 -12q-14 -14 -15 -38h-77q1 51 35 81q32 30 92 30q57 0 89 -26q31 -27 31 -72v-5q0 -57 -59 -77q31 -6 49 -27t18 -56v-8q0 -51 -34 -79q-35 -29 -97 -29z" />
    <glyph glyph-name="fiveeighths" unicode="&#x215d;" horiz-adv-x="734" 
d="M572 -5q-58 0 -95 26q-37 25 -37 78v13q0 31 17 53t45 32q-24 10 -37 28q-14 19 -14 44v8q0 47 36 72q34 25 86 25q53 0 88 -24q34 -25 34 -72v-8q0 -26 -14 -45q-15 -18 -38 -27q63 -22 63 -86v-12q0 -52 -36 -78q-38 -27 -98 -27zM573 220q20 0 32 12q11 11 11 32v10
q0 20 -12 31q-13 11 -31 11t-31 -11q-12 -11 -12 -33v-9q0 -22 13 -32q13 -11 30 -11zM573 55q24 0 37 13t13 37v14q0 25 -13 38t-37 13q-22 0 -35 -13q-14 -14 -14 -39v-13q0 -23 14 -37q13 -13 35 -13zM149 341q-63 0 -94 30t-33 80h77q3 -22 14 -35q10 -12 35 -12
q46 0 46 57v15q0 57 -54 57q-22 0 -35 -7q-14 -7 -24 -19h-44l4 208h219v-63h-156l-1 -92q12 12 28 20q16 9 46 9q46 0 74 -28t28 -85v-16q0 -57 -34 -88t-96 -31zM566 715h71l-482 -715h-72z" />
    <glyph glyph-name="seveneighths" unicode="&#x215e;" horiz-adv-x="699" 
d="M537 -5q-58 0 -95 26q-37 25 -37 78v13q0 31 17 53t45 32q-24 10 -37 28q-14 19 -14 44v8q0 47 36 72q34 25 86 25q54 0 88 -24q34 -25 34 -72v-8q0 -26 -14 -45q-15 -18 -38 -27q63 -22 63 -86v-12q0 -52 -36 -78q-37 -27 -98 -27zM538 220q20 0 32 12q11 11 11 32v10
q0 20 -12 31q-13 11 -31 11t-31 -11q-12 -11 -12 -33v-9q0 -22 13 -32q13 -11 30 -11zM538 55q24 0 37 13t13 37v14q0 25 -13 38t-37 13q-22 0 -35 -13q-14 -14 -14 -39v-13q0 -23 14 -37q13 -13 35 -13zM164 646h-145v69h248v-11l-118 -358h-84zM518 715h71l-482 -715h-72z
" />
    <glyph glyph-name="minus" unicode="&#x2212;" horiz-adv-x="472" 
d="M33 299v85h406v-85h-406z" />
    <glyph glyph-name="approxequal" unicode="&#x2248;" horiz-adv-x="468" 
d="M35 339q5 66 36 96t73 30q26 0 50 -6q32 -8 47 -12q3 -1 42 -13q20 -6 38 -6q13 0 26 11q12 12 13 31h71q-5 -67 -35 -96q-31 -31 -72 -31q-27 0 -51 6q-23 4 -47 12q-9 3 -24.5 7.5t-18.5 5.5q-22 5 -37 5q-16 0 -26 -10q-12 -11 -15 -30h-70zM35 164q4 65 36 97
q32 30 73 30q26 0 50 -6q32 -8 47 -12q3 -1 42 -13q20 -6 38 -6q13 0 26 11q12 12 13 30h71q-5 -67 -35 -96q-31 -31 -72 -31q-27 0 -51 6q-27 6 -47 13q-9 3 -24.5 7.5t-18.5 5.5q-19 6 -37 6q-16 0 -26 -10q-12 -10 -15 -32h-70z" />
    <glyph glyph-name="notequal" unicode="&#x2260;" horiz-adv-x="456" 
d="M140 195h-105v83h137l33 87h-170v84h202l36 94h82l-36 -94h102v-84h-134l-33 -87h167v-83h-199l-36 -94h-82z" />
    <glyph glyph-name="lessequal" unicode="&#x2264;" horiz-adv-x="450" 
d="M41 332v23l356 190v-98l-202 -103l202 -103v-99zM41 104h356v-81h-356v81z" />
    <glyph glyph-name="greaterequal" unicode="&#x2265;" horiz-adv-x="450" 
d="M52 241l202 103l-202 103v98l356 -190v-23l-356 -190v99zM52 104h356v-81h-356v81z" />
    <glyph glyph-name="uni24C5" unicode="&#x24c5;" horiz-adv-x="757" 
d="M378 26q-69 0 -132 26q-62 26 -107 72q-46 45 -72 107q-27 62 -27 134q0 73 27 134q25 61 72 108q45 45 107 72q63 26 134 26t134 -26q61 -25 106 -72q47 -48 71 -107q25 -60 25 -134q0 -71 -26 -134q-25 -62 -71 -108q-47 -47 -107 -72q-63 -26 -134 -26zM378 69
q60 0 111 22q51 20 92 60q40 40 62 94q23 57 23 121q0 67 -22 121q-22 53 -62 93q-38 38 -91 61q-53 21 -111 21q-60 0 -113 -21q-54 -23 -92 -61q-39 -38 -61 -94q-23 -57 -23 -121q0 -66 23 -121q22 -55 63 -94q39 -39 91 -60t110 -21zM265 555h125q134 0 134 -115v-8
q0 -60 -34 -85q-34 -27 -97 -27h-43v-140h-85v375zM388 380q54 0 54 52v8q0 27 -13 39q-14 12 -40 12h-39v-111h38z" />
    <glyph glyph-name="zero.den" unicode="&#xe402;" horiz-adv-x="344" 
d="M171 -6q-68 0 -106 41q-39 41 -39 116v66q0 75 41 116t104 41q67 0 107 -39t40 -116v-66q0 -75 -39 -117t-108 -42zM172 61q62 0 62 91v66q0 91 -63 91q-59 0 -59 -92v-66q0 -47 15 -68q15 -22 45 -22z" />
    <glyph glyph-name="one.den" unicode="&#xe403;" horiz-adv-x="233" 
d="M96 284l-74 -50v73l85 62h75v-369h-86v284z" />
    <glyph glyph-name="two.den" unicode="&#xe404;" horiz-adv-x="290" 
d="M7 12l113 133q27 33 45 62q15 27 15 55v4q0 44 -40 44q-20 0 -32 -14q-12 -13 -15 -47h-78q1 61 36 93t92 32q61 0 90 -28q30 -28 30 -77v-3q0 -41 -19 -72q-17 -29 -49 -66l-57 -65h128v-63h-259v12z" />
    <glyph glyph-name="three.den" unicode="&#xe405;" horiz-adv-x="309" 
d="M151 -5q-67 0 -98 31q-33 30 -34 85h76q2 -26 14 -40q12 -15 38 -15q49 0 49 50v8q0 49 -53 49h-23v54h23q51 0 51 47v5q0 43 -42 43q-21 0 -33 -12q-14 -12 -15 -37h-77q1 51 35 81q32 30 92 30q56 0 88 -26t32 -72v-4q0 -58 -59 -78q31 -6 49 -27t18 -55v-8
q0 -52 -34 -80q-35 -29 -97 -29z" />
    <glyph glyph-name="four.den" unicode="&#xe406;" horiz-adv-x="322" 
d="M178 76h-165v27l143 266h103v-233h44v-60h-44v-76h-81v76zM180 136v169l-85 -169h85z" />
    <glyph glyph-name="five.den" unicode="&#xe407;" horiz-adv-x="302" 
d="M146 -5q-62 0 -94 30q-31 30 -33 80h77q3 -22 14 -35q11 -12 35 -12q46 0 46 58v14q0 57 -54 57q-22 0 -35 -7q-15 -8 -24 -18h-44l4 207h219v-63h-156l-1 -92q11 12 28 21q16 9 46 9q45 0 74 -29q28 -28 28 -85v-16q0 -57 -34 -88t-96 -31z" />
    <glyph glyph-name="six.den" unicode="&#xe408;" horiz-adv-x="321" 
d="M166 -5q-76 0 -107 43q-33 42 -33 111v60q0 80 40 123q39 42 105 42q53 0 84 -25q32 -26 36 -76h-78q-4 39 -43 39q-57 0 -58 -97v-20q10 19 30 31q19 11 49 11q44 0 76 -26q31 -27 31 -81v-19q0 -54 -34 -85t-98 -31zM165 54q23 0 37 15q13 13 13 39v20q0 27 -13 41
q-14 14 -37 14t-37 -14q-15 -13 -15 -38v-21q0 -25 14 -41q13 -15 38 -15z" />
    <glyph glyph-name="seven.den" unicode="&#xe409;" horiz-adv-x="275" 
d="M161 300h-145v69h248v-11l-118 -358h-84z" />
    <glyph glyph-name="eight.den" unicode="&#xe40a;" horiz-adv-x="315" 
d="M156 -5q-58 0 -95 26q-37 25 -37 78v13q0 31 17 53t45 32q-24 10 -37 28q-14 19 -14 44v8q0 47 36 72q34 25 86 25q53 0 88 -24q34 -25 34 -72v-8q0 -26 -14 -45q-15 -18 -38 -27q63 -22 63 -86v-12q0 -52 -36 -78q-38 -27 -98 -27zM157 220q20 0 32 12q11 11 11 32v10
q0 20 -12 31q-13 11 -31 11t-31 -11q-12 -11 -12 -33v-9q0 -22 13 -32q13 -11 30 -11zM157 55q24 0 37 13t13 37v14q0 25 -13 38t-37 13q-22 0 -35 -13q-14 -14 -14 -39v-13q0 -23 14 -37q13 -13 35 -13z" />
    <glyph glyph-name="nine.den" unicode="&#xe40b;" horiz-adv-x="321" 
d="M154 -6q-57 0 -89 26q-32 25 -37 79h78q3 -20 14 -31t33 -11q31 0 44 22q12 21 14 69v23q-11 -18 -29 -28q-20 -11 -49 -11q-45 0 -77 27q-32 26 -32 81v15q0 55 35 88q35 32 96 32q71 0 106 -41q34 -40 34 -112v-69q0 -77 -35 -118t-106 -41zM155 186q24 0 38 14t14 39
v17q0 28 -13 44q-14 15 -39 15q-23 0 -35 -16q-13 -16 -13 -43v-14q0 -56 48 -56z" />
    <glyph glyph-name="zero.num" unicode="&#xe416;" horiz-adv-x="344" 
d="M171 340q-68 0 -106 41q-39 41 -39 116v65q0 76 41 117t104 41q67 0 107 -39q40 -40 40 -117v-65q0 -75 -39 -117t-108 -42zM172 407q62 0 62 91v66q0 91 -63 91q-59 0 -59 -92v-66q0 -47 15 -68q15 -22 45 -22z" />
    <glyph glyph-name="one.num" unicode="&#xe417;" horiz-adv-x="233" 
d="M96 630l-74 -50v73l85 62h75v-369h-86v284z" />
    <glyph glyph-name="two.num" unicode="&#xe418;" horiz-adv-x="290" 
d="M7 358l113 133q27 33 45 62q15 27 15 55v4q0 44 -40 44q-20 0 -32 -14q-12 -13 -15 -47h-78q1 61 36 93t92 32q61 0 90 -28q30 -28 30 -77v-4q0 -40 -19 -71q-17 -29 -49 -66l-57 -65h128v-63h-259v12z" />
    <glyph glyph-name="three.num" unicode="&#xe419;" horiz-adv-x="308" 
d="M151 341q-67 0 -98 31q-33 30 -34 85h76q2 -26 14 -40q12 -15 38 -15q49 0 49 50v7q0 50 -53 50h-23v54h23q51 0 51 47v4q0 22 -10 33q-11 12 -32 12t-33 -12q-14 -14 -15 -38h-77q1 51 35 81q32 30 92 30q57 0 89 -26q31 -27 31 -72v-5q0 -57 -59 -77q31 -6 49 -27
t18 -56v-8q0 -51 -34 -79q-35 -29 -97 -29z" />
    <glyph glyph-name="four.num" unicode="&#xe41a;" horiz-adv-x="321" 
d="M178 422h-165v28l143 265h103v-233h44v-60h-44v-76h-81v76zM180 482v168l-85 -168h85z" />
    <glyph glyph-name="five.num" unicode="&#xe41b;" horiz-adv-x="302" 
d="M146 341q-62 0 -94 30q-31 30 -33 80h77q3 -22 14 -35q10 -12 35 -12q46 0 46 57v15q0 57 -54 57q-22 0 -35 -7q-14 -7 -24 -19h-44l4 208h219v-63h-156l-1 -92q12 12 28 20q16 9 46 9q46 0 74 -28t28 -85v-16q0 -57 -34 -88t-96 -31z" />
    <glyph glyph-name="six.num" unicode="&#xe41c;" horiz-adv-x="321" 
d="M166 341q-76 0 -107 43q-33 42 -33 111v60q0 80 40 123q39 42 105 42q53 0 84 -25q32 -26 36 -76h-78q-4 39 -43 39q-57 0 -58 -97v-20q10 18 30 30q18 12 49 12q44 0 76 -26q31 -27 31 -82v-18q0 -54 -34 -85t-98 -31zM165 400q23 0 37 15q13 13 13 40v18q0 27 -13 41
q-14 15 -37 15t-37 -14q-15 -13 -15 -39v-20q0 -25 14 -41q13 -15 38 -15z" />
    <glyph glyph-name="seven.num" unicode="&#xe41d;" horiz-adv-x="274" 
d="M161 646h-145v69h248v-11l-118 -358h-84z" />
    <glyph glyph-name="eight.num" unicode="&#xe41e;" horiz-adv-x="314" 
d="M156 341q-58 0 -95 26q-37 25 -37 78v12q0 31 17 54q16 20 45 31q-25 11 -37 28q-14 19 -14 45v8q0 47 36 72q34 25 86 25q53 0 88 -24q34 -25 34 -72v-7q0 -27 -14 -46q-14 -18 -38 -28q63 -23 63 -85v-12q0 -52 -36 -78q-38 -27 -98 -27zM157 566q19 0 32 11
q11 11 11 33v9q0 21 -12 32q-11 10 -31 10t-31 -10q-12 -11 -12 -33v-9q0 -22 13 -32q13 -11 30 -11zM157 401q24 0 37 13t13 37v13q0 26 -13 39t-37 13q-22 0 -35 -13q-14 -14 -14 -39v-13q0 -23 14 -37q13 -13 35 -13z" />
    <glyph glyph-name="nine.num" unicode="&#xe41f;" horiz-adv-x="321" 
d="M154 340q-57 0 -89 26q-32 25 -37 79h78q3 -20 14 -31t33 -11q31 0 44 22q12 21 14 69v23q-11 -18 -29 -28q-20 -12 -49 -12q-45 0 -77 27t-32 82v15q0 55 35 88q35 32 96 32q71 0 106 -41q34 -41 34 -113v-68q0 -77 -35 -118t-106 -41zM155 532q24 0 38 14t14 39v17
q0 28 -13 44q-14 15 -39 15q-23 0 -35 -16q-13 -16 -13 -43v-14q0 -56 48 -56z" />
    <glyph glyph-name="f_i" unicode="&#xfb01;" horiz-adv-x="537" 
d="M420 603q-28 0 -46 19q-19 18 -19 44q0 27 19 46q18 18 46 18q26 0 46 -18q19 -19 19 -46q0 -26 -18 -44q-19 -19 -47 -19zM367 523h107v-523h-107v523zM81 440h-62v83h62v83q0 76 40 116q39 40 113 40q36 0 54 -6v-84q-2 0 -7.5 1.5t-8.5 2.5q-6 1 -23 1q-33 0 -46 -19
q-14 -20 -14 -51v-84h99v-83h-99v-440h-108v440z" />
    <glyph glyph-name="f_l" unicode="&#xfb02;" horiz-adv-x="539" 
d="M81 440h-62v83h62v83q0 76 40 116q39 40 113 40q36 0 54 -6v-84q-2 0 -7.5 1.5t-8.5 2.5q-6 1 -23 1q-33 0 -46 -19q-14 -20 -14 -51v-84h99v-83h-99v-440h-108v440zM368 758h108v-758h-108v758z" />
    <glyph glyph-name="Euro.old" horiz-adv-x="567" 
d="M21 319h56v57h-56v58h56v1q0 60 16 108q17 50 46 84q31 36 74 55q45 20 99 20q93 0 151 -50q56 -49 64 -155v-1h-107v1q-6 61 -33 89q-28 28 -76 28q-63 0 -93 -48t-30 -131v-1h177l-10 -58h-167v-57h156l-10 -59h-146v-4q0 -85 31 -129q30 -46 95 -46q50 0 79 30
q28 29 34 100v1h105v-1q-7 -111 -65 -166q-56 -55 -154 -55q-59 0 -100 20q-44 20 -74 54q-29 33 -46 85q-16 48 -16 108v3h-56v59z" />
    <glyph glyph-name="Euro.oldtab" 
d="M21 319h50v57h-50v59h50v15q0 118 57 186q57 66 157 66q89 0 141 -48q51 -47 56 -153v-1h-101v1q-4 59 -27 88q-24 27 -68 27q-58 0 -83 -42q-26 -43 -26 -123v-16h166l-10 -59h-156v-57h145l-10 -59h-135v-19q0 -80 26 -121q25 -40 85 -40q46 0 71 28q24 27 29 97v1h100
v-1q-4 -111 -58 -163q-52 -52 -144 -52q-101 0 -158 66q-57 64 -57 186v18h-50v59z" />
    <glyph glyph-name="Euro.tab" 
d="M11 330h47v58h-47v61h47v20q0 60 16 107q15 46 44 80q29 33 70 51q42 17 92 17q91 0 144 -49q54 -50 58 -159h-105v1q-5 63 -28 91q-24 27 -69 27q-58 0 -84 -42q-27 -43 -27 -124v-20h169l-10 -61h-159v-58h149l-11 -61h-138v-24q0 -81 26 -122t86 -41q48 0 74 29
q27 30 31 99v2h103v-2q-4 -114 -61 -167q-56 -53 -149 -53q-103 0 -162 68t-59 187v24h-47v61z" />
    <glyph glyph-name="Gcommaaccent.alt1" horiz-adv-x="643" 
d="M277 -172q50 8 51 41q-26 -2 -41 12q-15 13 -15 36q0 20 16 33q14 13 38 13q27 0 43 -16t16 -46v-10q0 -51 -28 -76q-29 -25 -80 -26v39zM345 369h254v-112q0 -132 -70 -199q-71 -68 -196 -68q-71 0 -124 21q-54 21 -90 60t-54 94q-19 54 -19 122v140q0 67 21 123
q19 53 58 94q37 39 90 60t117 21q47 0 94 -11q42 -12 78 -38q32 -24 56 -67q22 -43 26 -102h-115q-8 69 -44 98q-37 28 -94 28q-82 0 -124 -54q-43 -55 -43 -151v-142q0 -92 41 -148t127 -56q79 0 115 45q35 43 37 121v35h-141v86z" />
    <glyph glyph-name="Kcommaaccent.alt1" horiz-adv-x="560" 
d="M68 715h116v-325l229 325h123l-244 -337l255 -378h-132l-231 343v-343h-116v715zM240 -172q50 8 51 41q-26 -2 -41 12q-15 13 -15 36q0 20 16 33q14 13 38 13q27 0 43 -16t16 -46v-10q0 -51 -28 -76q-29 -25 -80 -26v39z" />
    <glyph glyph-name="Lcommaaccent.alt1" horiz-adv-x="471" 
d="M68 715h116v-622h258v-93h-374v715zM207 -172q50 8 51 41q-26 -2 -41 12q-15 13 -15 36q0 20 16 33q14 13 38 13q27 0 43 -16t16 -46v-10q0 -51 -28 -76q-29 -25 -80 -26v39z" />
    <glyph glyph-name="Ncommaaccent.alt1" horiz-adv-x="624" 
d="M253 -172q50 8 51 41q-26 -2 -41 12q-15 13 -15 36q0 20 16 33q14 13 38 13q27 0 43 -16t16 -46v-10q0 -51 -28 -76q-29 -25 -80 -26v39zM68 715h138l245 -514v514h105v-715h-121l-262 553v-553h-105v715z" />
    <glyph glyph-name="Rcommaaccent.alt1" horiz-adv-x="561" 
d="M68 715h205q108 0 170 -46q63 -47 63 -147v-22q0 -41 -10 -70q-11 -31 -28 -51q-18 -23 -42 -36q-29 -15 -54 -22l165 -321h-125l-154 305h-75v-305h-115v715zM273 388q60 0 90 27q29 26 29 84v21q0 58 -30 81q-32 23 -89 23h-90v-236h90zM232 -172q50 8 51 41
q-26 -2 -41 12q-15 13 -15 36q0 20 16 33q14 13 38 13q27 0 43 -16t16 -46v-10q0 -51 -28 -76q-29 -25 -80 -26v39z" />
    <glyph glyph-name="Scommaaccent.alt1" horiz-adv-x="544" 
d="M277 -10q-119 0 -177 58q-59 59 -63 161h112q1 -31 9 -55t22 -40q14 -18 38 -25q24 -9 59 -9q48 0 79 28q30 28 30 80q0 30 -7 48q-8 22 -23 35q-18 16 -41 27q-31 13 -63 23q-47 14 -86 33q-37 18 -62 43q-24 25 -38 59q-13 32 -13 79q0 43 15 77q15 35 43 60t66 38
q40 14 87 14q98 0 157 -47q57 -48 63 -147h-108q-4 56 -34 81q-28 24 -78 24t-75 -24q-26 -26 -26 -68q0 -23 6 -40q5 -17 20 -31q15 -15 39 -25q24 -12 63 -24q48 -15 88 -33q40 -19 65 -43q27 -25 42 -62q14 -37 14 -87t-16 -86q-16 -39 -45 -66q-31 -28 -71 -41
q-41 -15 -91 -15zM217 -172q50 8 51 41q-26 -2 -41 12q-15 13 -15 36q0 20 16 33q14 13 38 13q27 0 43 -16t16 -46v-10q0 -51 -28 -76q-29 -25 -80 -26v39z" />
    <glyph glyph-name="Tcommaaccent.alt1" horiz-adv-x="498" 
d="M190 623h-166v92h450v-92h-167l-1 -623h-116v623zM196 -172q50 8 51 41q-26 -2 -41 12q-15 13 -15 36q0 20 16 33q14 13 38 13q27 0 43 -16t16 -46v-10q0 -51 -28 -76q-29 -25 -80 -26v39z" />
    <glyph glyph-name="a.alt" horiz-adv-x="530" 
d="M470 0h-107v76q-18 -35 -55 -60t-86 -25q-38 0 -72 14q-34 13 -58 42q-25 27 -39 68q-15 40 -15 94v99q0 53 15 95q13 41 40 71q25 28 60 43t75 15q53 0 85 -22q34 -23 50 -57v69h107v-522zM365 306q0 72 -29 107q-30 35 -81 35t-79 -34q-29 -35 -29 -104v-100
q0 -70 29 -102t75 -32q50 0 82 35t32 107v88z" />
    <glyph glyph-name="aacute.alt" horiz-adv-x="530" 
d="M268 746h122l-95 -150h-79zM470 0h-107v76q-18 -35 -55 -60t-86 -25q-38 0 -72 14q-34 13 -58 42q-25 27 -39 68q-15 40 -15 94v99q0 53 15 95q13 41 40 71q25 28 60 43t75 15q53 0 85 -22q34 -23 50 -57v69h107v-522zM365 306q0 72 -29 107q-30 35 -81 35t-79 -34
q-29 -35 -29 -104v-100q0 -70 29 -102t75 -32q50 0 82 35t32 107v88z" />
    <glyph glyph-name="abreve.alt" horiz-adv-x="530" 
d="M470 0h-107v76q-18 -35 -55 -60t-86 -25q-38 0 -72 14q-34 13 -58 42q-25 27 -39 68q-15 40 -15 94v99q0 53 15 95q13 41 40 71q25 28 60 43t75 15q53 0 85 -22q34 -23 50 -57v69h107v-522zM365 306q0 72 -29 107q-30 35 -81 35t-79 -34q-29 -35 -29 -104v-100
q0 -70 29 -102t75 -32q50 0 82 35t32 107v88zM261 600q-52 0 -89 35q-37 34 -39 100h73q5 -28 17 -41q14 -15 38 -15q25 0 40 15q13 15 18 41h73q-3 -66 -40 -100q-38 -35 -91 -35z" />
    <glyph glyph-name="acircumflex.alt" horiz-adv-x="530" 
d="M218 745h90l96 -148h-77l-66 68l-66 -68h-76zM470 0h-107v76q-18 -35 -55 -60t-86 -25q-38 0 -72 14q-34 13 -58 42q-25 27 -39 68q-15 40 -15 94v99q0 53 15 95q13 41 40 71q25 28 60 43t75 15q53 0 85 -22q34 -23 50 -57v69h107v-522zM365 306q0 72 -29 107
q-30 35 -81 35t-79 -34q-29 -35 -29 -104v-100q0 -70 29 -102t75 -32q50 0 82 35t32 107v88z" />
    <glyph glyph-name="acute.uc" horiz-adv-x="400" 
d="M199 894h124l-91 -130h-81z" />
    <glyph glyph-name="adieresis.alt" horiz-adv-x="530" 
d="M174 606q-26 0 -43 18q-18 16 -18 42q0 25 18 43q17 17 43 17q25 0 44 -17q17 -19 17 -43q0 -25 -17 -42q-18 -18 -44 -18zM352 606q-25 0 -43 18q-18 16 -18 42q0 25 18 43q19 17 43 17q25 0 44 -17q18 -18 18 -43q0 -26 -18 -42q-18 -18 -44 -18zM470 0h-107v76
q-18 -35 -55 -60t-86 -25q-38 0 -72 14q-34 13 -58 42q-25 27 -39 68q-15 40 -15 94v99q0 53 15 95q13 41 40 71q25 28 60 43t75 15q53 0 85 -22q34 -23 50 -57v69h107v-522zM365 306q0 72 -29 107q-30 35 -81 35t-79 -34q-29 -35 -29 -104v-100q0 -70 29 -102t75 -32
q50 0 82 35t32 107v88z" />
    <glyph glyph-name="agrave.alt" horiz-adv-x="530" 
d="M470 0h-107v76q-18 -35 -55 -60t-86 -25q-38 0 -72 14q-34 13 -58 42q-25 27 -39 68q-15 40 -15 94v99q0 53 15 95q13 41 40 71q25 28 60 43t75 15q53 0 85 -22q34 -23 50 -57v69h107v-522zM365 306q0 72 -29 107q-30 35 -81 35t-79 -34q-29 -35 -29 -104v-100
q0 -70 29 -102t75 -32q50 0 82 35t32 107v88zM133 746h122l53 -150h-79z" />
    <glyph glyph-name="amacron.alt" horiz-adv-x="530" 
d="M470 0h-107v76q-18 -35 -55 -60t-86 -25q-38 0 -72 14q-34 13 -58 42q-25 27 -39 68q-15 40 -15 94v99q0 53 15 95q13 41 40 71q25 28 60 43t75 15q53 0 85 -22q34 -23 50 -57v69h107v-522zM365 306q0 72 -29 107q-30 35 -81 35t-79 -34q-29 -35 -29 -104v-100
q0 -70 29 -102t75 -32q50 0 82 35t32 107v88zM136 697h252v-73h-252v73z" />
    <glyph glyph-name="aogonek.alt" horiz-adv-x="530" 
d="M314 -103q0 35 22 60q24 28 51 43h-24v76q-18 -35 -55 -60t-86 -25q-38 0 -72 14q-34 13 -58 42q-25 27 -39 68q-15 40 -15 94v99q0 53 15 95q13 41 40 71q25 28 60 43t75 15q53 0 85 -22q34 -23 50 -57v69h107v-522h-9q-26 -22 -39 -40q-13 -19 -13 -40q0 -18 9 -25
q8 -7 24 -7q13 0 20 1q8 1 18 7v-64q-10 -4 -27 -9q-16 -3 -38 -3q-44 0 -73 20q-28 19 -28 57zM365 306q0 72 -29 107q-30 35 -81 35t-79 -34q-29 -35 -29 -104v-100q0 -70 29 -102t75 -32q50 0 82 35t32 107v88z" />
    <glyph glyph-name="approxequal.tab" 
d="M62 339q4 66 36 96q30 30 72 30q26 0 51 -6q16 -4 46 -12q3 -1 42 -13q20 -6 37 -6q13 0 26 11t14 31h70q-5 -67 -35 -96q-31 -31 -72 -31q-27 0 -51 6q-23 4 -47 12q-15 5 -41 13q-22 5 -37 5q-17 0 -27 -10q-11 -11 -14 -30h-70zM62 164q4 65 36 97q30 30 72 30
q26 0 51 -6q16 -4 46 -12q3 -1 42 -13q20 -6 37 -6q13 0 26 11t14 30h70q-5 -67 -35 -96q-31 -31 -72 -31q-27 0 -51 6q-27 6 -47 13q-15 5 -41 13q-19 6 -37 6q-17 0 -27 -10q-11 -11 -14 -32h-70z" />
    <glyph glyph-name="aring.alt" horiz-adv-x="530" 
d="M258 588q-19 0 -40 8q-18 7 -32 21q-16 16 -22 31q-8 19 -8 38q0 20 8 39q7 17 22 32q14 14 32 21q21 8 40 8t40 -8q20 -8 33 -21t21 -32t8 -39q0 -19 -8 -38q-7 -17 -21 -31q-13 -13 -33 -21q-21 -8 -40 -8zM258 637q19 0 33 14q12 13 12 35t-12 36q-14 14 -33 14
q-20 0 -32 -14q-13 -13 -13 -36q0 -22 13 -35q12 -14 32 -14zM470 0h-107v76q-18 -35 -55 -60t-86 -25q-38 0 -72 14q-34 13 -58 42q-25 27 -39 68q-15 40 -15 94v99q0 53 15 95q13 41 40 71q25 28 60 43t75 15q53 0 85 -22q34 -23 50 -57v69h107v-522zM365 306
q0 72 -29 107q-30 35 -81 35t-79 -34q-29 -35 -29 -104v-100q0 -70 29 -102t75 -32q50 0 82 35t32 107v88z" />
    <glyph glyph-name="aringacute.alt" horiz-adv-x="530" 
d="M258 577q-19 0 -40 8q-18 7 -32 21q-16 16 -22 31q-8 19 -8 38q0 20 8 39q7 17 22 32q14 14 32 21q21 8 40 8t40 -8q20 -7 33 -21q13 -13 21 -32t8 -39q0 -19 -8 -38q-7 -17 -21 -31q-13 -14 -33 -21q-21 -8 -40 -8zM258 626q19 0 33 14q12 14 12 35q0 23 -12 36
q-14 14 -33 14q-20 0 -32 -14q-13 -13 -13 -36q0 -22 13 -35q12 -14 32 -14zM470 0h-107v76q-18 -35 -55 -60t-86 -25q-38 0 -72 14q-34 13 -58 42q-25 27 -39 68q-15 40 -15 94v99q0 53 15 95q13 41 40 71q25 28 60 43t75 15q53 0 85 -22q34 -23 50 -57v69h107v-522z
M365 306q0 72 -29 107q-30 35 -81 35t-79 -34q-29 -35 -29 -104v-100q0 -70 29 -102t75 -32q50 0 82 35t32 107v88zM267 936h124l-91 -130h-81z" />
    <glyph glyph-name="at.uc" horiz-adv-x="806" 
d="M406 -60q-88 0 -154 28t-114 79t-71 116q-24 66 -24 142v62q0 84 29 156q28 70 78 121t118 80q66 28 145 28t144 -24q63 -25 110 -69q44 -42 71 -104q25 -60 25 -132v-63q0 -58 -14 -102q-15 -42 -38 -68q-24 -27 -54 -39t-62 -12q-55 0 -81 21q-25 19 -33 55
q-17 -35 -48 -57q-32 -23 -75 -23q-63 0 -102 43q-39 42 -36 120l4 52q1 43 15 79q13 38 34 62q21 25 50 39q30 14 62 14q42 0 68 -17q23 -16 34 -40l5 48h98l-29 -266q-8 -71 42 -71q37 0 62 39q26 38 26 122v63q0 60 -18 109q-19 49 -54 84q-35 33 -88 53q-51 19 -118 19
q-68 0 -121 -22q-54 -22 -94 -65q-39 -42 -60 -101t-21 -132v-61q0 -63 18 -118q18 -56 54 -96q37 -42 90 -64q54 -24 127 -24q76 0 125 21q48 21 83 56h77q-17 -31 -45 -57t-66 -45q-34 -18 -81 -29q-41 -10 -93 -10zM384 211q35 0 61 32t27 88l4 49q2 44 -17 65t-55 21
q-34 0 -57 -30t-24 -85l-3 -51q-2 -44 15 -66q17 -23 49 -23z" />
    <glyph glyph-name="atilde.alt" horiz-adv-x="530" 
d="M470 0h-107v76q-18 -35 -55 -60t-86 -25q-38 0 -72 14q-34 13 -58 42q-25 27 -39 68q-15 40 -15 94v99q0 53 15 95q13 41 40 71q25 28 60 43t75 15q53 0 85 -22q34 -23 50 -57v69h107v-522zM365 306q0 72 -29 107q-30 35 -81 35t-79 -34q-29 -35 -29 -104v-100
q0 -70 29 -102t75 -32q50 0 82 35t32 107v88zM312 602q-18 0 -31 6q-18 8 -26 13q-8 4 -22 12q-11 6 -21 6q-12 0 -20 -11q-9 -10 -12 -28h-66q5 61 30 92q26 32 63 32q17 0 30 -6l27 -12q5 -3 13.5 -7.5t9.5 -5.5q11 -6 21 -6q13 0 21 11q7 10 12 28h66q-4 -59 -31 -92
q-27 -32 -64 -32z" />
    <glyph glyph-name="backslash.uc" horiz-adv-x="373" 
d="M14 774h92l255 -852h-92z" />
    <glyph glyph-name="bar.uc" horiz-adv-x="226" 
d="M73 774h81v-852h-81v852z" />
    <glyph glyph-name="braceleft.tab" horiz-adv-x="260" 
d="M240 -142q-100 0 -147 47t-27 151l21 120q8 44 -8 68q-17 26 -66 36v73q49 9 66 35q16 24 8 69l-21 116q-20 107 26 152q45 45 148 47v-77q-48 -1 -68 -26q-19 -24 -8 -91l21 -124q9 -58 -16 -89t-73 -48q48 -18 73 -49t16 -89l-21 -126q-4 -33 -3 -56t12 -36
q8 -12 26 -20q15 -5 41 -7v-76z" />
    <glyph glyph-name="braceleft.uc" horiz-adv-x="346" 
d="M312 -88q-58 0 -97 10q-41 10 -67 33t-35 59q-9 35 -1 86l17 108q7 42 -14 71q-23 29 -84 30v78q61 0 84 29q21 29 14 72l-17 104q-16 100 36 144q52 43 164 43v-79q-30 -2 -49 -6q-21 -6 -33 -18t-15 -32q-4 -21 0 -52l16 -113q7 -54 -19 -87q-28 -32 -76 -44
q50 -14 76 -44q27 -31 19 -88l-16 -116q-7 -62 15 -84q24 -24 82 -25v-79z" />
    <glyph glyph-name="braceright.tab" horiz-adv-x="260" 
d="M21 -66q26 2 41 7q16 7 26 20q9 13 12 36q1 23 -3 56l-21 126q-9 58 16 89t72 49q-24 9 -42 21q-19 10 -30 28q-12 16 -16 38q-5 21 0 50l21 124q10 66 -9 91q-20 25 -67 26v77q102 -2 147 -47q46 -46 27 -152l-22 -116q-7 -43 9 -69q17 -26 65 -35v-73q-48 -10 -65 -36
t-9 -68l22 -120q20 -104 -27 -151t-147 -47v76z" />
    <glyph glyph-name="braceright.uc" horiz-adv-x="346" 
d="M34 -9q58 1 83 25q24 22 15 84l-16 116q-8 57 19 88q26 30 77 44q-50 12 -77 44q-27 31 -19 87l16 113q4 30 1 52q-5 21 -16 32q-12 12 -32 18q-21 4 -51 6v79q113 0 165 -43q53 -44 36 -144l-16 -104q-4 -21 -1 -40q3 -18 15 -32q10 -13 32 -21q21 -8 52 -8v-78
q-31 0 -52 -8q-22 -8 -32 -21q-12 -13 -15 -32q-3 -21 1 -40l16 -108q17 -101 -36 -145q-52 -43 -165 -43v79z" />
    <glyph glyph-name="bracketleft.tab" horiz-adv-x="260" 
d="M50 769h188v-77h-86v-757h86v-78h-188v912z" />
    <glyph glyph-name="bracketleft.uc" horiz-adv-x="324" 
d="M67 779h222v-81h-115v-703h115v-81h-222v865z" />
    <glyph glyph-name="bracketright.tab" horiz-adv-x="260" 
d="M23 -65h85v757h-85v77h187v-912h-187v78z" />
    <glyph glyph-name="bracketright.uc" horiz-adv-x="324" 
d="M35 -5h115v703h-115v81h222v-865h-222v81z" />
    <glyph glyph-name="breve.uc" horiz-adv-x="400" 
d="M199 759q-54 0 -91 35q-37 34 -40 96h76q3 -26 16 -39q14 -14 39 -14t41 14q14 14 17 39h75q-3 -62 -40 -96q-38 -35 -93 -35z" />
    <glyph glyph-name="caron.alt" horiz-adv-x="400" 
d="M182 759h99l-44 -164h-65z" />
    <glyph glyph-name="caron.uc" horiz-adv-x="400" 
d="M55 894h78l68 -56l67 56h76l-98 -130h-94z" />
    <glyph glyph-name="cent.tab" 
d="M244 -8q-43 5 -77 21q-37 17 -61 44q-28 31 -40 68q-14 40 -14 90v89q0 50 15 91q13 39 40 69q25 28 61 45q37 18 76 22v90h54v-90q31 -3 65 -14q30 -10 55 -32q24 -23 39 -54q15 -33 18 -78h-100q-4 45 -25 67q-22 22 -52 26v-371q34 6 57 31q24 26 27 75h95
q-5 -86 -52 -133q-48 -48 -127 -56v-115h-54v115zM157 215q0 -63 23 -97q22 -34 64 -42v369q-40 -7 -63 -42q-24 -35 -24 -97v-91z" />
    <glyph glyph-name="circumflex.uc" horiz-adv-x="400" 
d="M153 894h95l96 -130h-78l-67 55l-68 -55h-75z" />
    <glyph glyph-name="colon.tab" horiz-adv-x="260" 
d="M130 290q-29 0 -50 21q-21 19 -21 49t21 51q22 20 50 20t50 -20q21 -21 21 -51t-21 -49q-21 -21 -50 -21zM130 -6q-29 0 -50 21q-21 20 -21 49t21 50q22 20 50 20t50 -20q21 -21 21 -50q0 -30 -21 -49q-21 -21 -50 -21z" />
    <glyph glyph-name="comma.alt1" horiz-adv-x="253" 
d="M59 -45q63 7 63 51q-33 2 -50 17q-18 17 -18 47q0 29 21 47q20 17 49 17q31 0 52 -21q21 -23 21 -60v-17q0 -67 -38 -99q-40 -33 -100 -34v52z" />
    <glyph glyph-name="comma.tab" horiz-adv-x="260" 
d="M26 -85l77 218l103 -39l-114 -206z" />
    <glyph glyph-name="commaaccent.alt1" horiz-adv-x="390" 
d="M149 -172q50 8 51 41q-26 -2 -41 12q-15 13 -15 36q0 20 16 33q14 13 38 13q27 0 43 -16t16 -46v-10q0 -51 -28 -76q-29 -25 -80 -26v39z" />
    <glyph glyph-name="commaaccent.alt1alt" horiz-adv-x="395" 
d="M202 597q-26 0 -42 16q-17 17 -17 45v11q0 50 28 75t80 28v-41q-50 -6 -51 -40q25 1 41 -12q15 -13 15 -36q0 -19 -15 -33q-16 -13 -39 -13z" />
    <glyph glyph-name="dieresis.uc" horiz-adv-x="400" 
d="M105 775q-24 0 -41 17q-18 16 -18 42t18 42q17 17 41 17q25 0 44 -17q17 -17 17 -42t-17 -42q-19 -17 -44 -17zM294 775q-25 0 -42 17q-18 16 -18 42t18 42q17 17 42 17q26 0 43 -17t17 -42t-17 -42t-43 -17z" />
    <glyph glyph-name="divide.tab" 
d="M259 446q-29 0 -48 19q-20 20 -20 48q0 29 20 49q19 19 48 19q30 0 49 -19q20 -20 20 -49q0 -28 -20 -48q-19 -19 -49 -19zM57 382h407v-82h-407v82zM259 102q-28 0 -48 20t-20 47q0 29 20 49q19 19 48 19q30 0 49 -19q20 -20 20 -49q0 -27 -20 -47t-49 -20z" />
    <glyph glyph-name="dollar.old" horiz-adv-x="530" 
d="M238 -10q-55 5 -89 21q-38 17 -63 43q-26 27 -39 63q-13 33 -16 77v1h104v-2q5 -49 25 -80q22 -33 78 -40v243q-49 16 -82 33q-36 17 -59 41q-24 24 -36 56t-12 73v1q0 37 14 70q15 34 38 56q28 24 60 37q36 14 77 17v82h56v-83q83 -7 131 -52q47 -45 53 -128v-2h-99v2
q-4 45 -26 68q-21 22 -59 30v-214q38 -12 83 -32q35 -15 62 -41q26 -26 39 -59t13 -82v-2q0 -84 -53 -137q-52 -52 -144 -60v-110h-56v110zM148 527q0 -40 20 -63q18 -23 70 -43v198q-41 -4 -66 -29q-24 -26 -24 -63zM387 180q0 48 -21 73t-72 45v-225q43 6 68 34t25 72v1z
" />
    <glyph glyph-name="dollar.oldtab" 
d="M234 -10q-53 5 -88 20q-37 16 -61 43q-24 25 -38 63q-13 34 -15 78v1h100v-2q1 -23 8 -44q4 -18 17 -36q10 -15 30 -26q17 -9 47 -14v243q-42 12 -80 32q-35 17 -58 41q-24 24 -36 56q-12 31 -12 74v1q0 37 14 70q15 34 38 56q26 25 58 37q36 14 76 17v82h55v-83
q80 -7 128 -52q48 -46 52 -128v-2h-96v2q-6 44 -26 67q-21 23 -58 30v-213q41 -14 81 -32q35 -16 61 -42q24 -25 37 -59q13 -33 13 -82v-2q0 -84 -51 -136t-141 -60v-110h-55v110zM145 527q0 -38 20 -63q19 -23 69 -43v197q-42 -5 -65 -29q-24 -24 -24 -62zM380 180
q0 48 -21 73q-21 26 -70 45v-225q42 8 67 35q24 27 24 71v1z" />
    <glyph glyph-name="dollar.tab" 
d="M233 -123v114q-103 7 -153 65q-51 57 -54 150v3h104v-3q3 -55 25 -87q23 -35 78 -42v249q-47 15 -81 33q-36 18 -60 42q-25 23 -37 57q-13 30 -13 77v1q0 39 14 73q13 32 39 58q25 24 60 39q36 14 78 17v84h57v-85q82 -8 132 -54q50 -47 53 -135v-2h-101v2q-3 45 -24 71
q-23 25 -60 32v-222q41 -14 81 -32q37 -17 62 -42q26 -26 39 -59q14 -36 14 -83v-1q0 -43 -14 -80q-13 -37 -39 -64q-24 -26 -62 -43q-35 -16 -81 -19v-114h-57zM143 544q0 -40 19 -65q20 -26 71 -45v204q-43 -4 -66 -30q-24 -26 -24 -63v-1zM383 188q0 47 -22 72
q-24 28 -71 46v-229q43 8 68 36t25 75z" />
    <glyph glyph-name="dotaccent.uc" horiz-adv-x="400" 
d="M200 773q-26 0 -45 18t-19 44t19 45q19 18 45 18t45 -18q18 -20 18 -45q0 -26 -18 -44q-19 -18 -45 -18z" />
    <glyph glyph-name="eight.old" horiz-adv-x="523" 
d="M261 -10q-44 0 -85 12q-39 12 -71 36q-31 24 -49 61q-18 36 -18 85v32q0 65 34 105q33 40 85 58q-45 17 -71 53q-27 34 -27 90v15q0 43 17 79q18 35 44 56q26 22 64 34q39 11 78 11q40 0 79 -11q36 -12 64 -34q26 -21 43 -56q16 -32 16 -77v-15q0 -58 -27 -92
q-30 -36 -72 -52q55 -20 87 -58q32 -41 32 -103v-33q0 -47 -17 -86q-18 -37 -48 -61q-31 -25 -71 -37t-87 -12zM263 416q42 0 68 26q25 25 25 76v18q0 46 -26 72q-25 25 -68 25q-42 0 -68 -25q-27 -26 -27 -74v-17q0 -50 28 -75q28 -26 68 -26zM262 78q48 0 79 28t31 85v35
q0 54 -30 83q-32 29 -79 29q-48 0 -79 -28q-32 -29 -32 -85v-35q0 -56 31 -84t79 -28z" />
    <glyph glyph-name="eight.oldtab" 
d="M260 -10q-44 0 -83 12q-40 12 -68 36q-30 26 -46 61q-18 36 -18 85v32q0 64 32 105q31 40 82 58q-43 16 -69 53q-25 34 -25 90v15q0 46 16 79q15 34 42 56q26 22 63 34q36 11 75 11q38 0 76 -11q36 -13 62 -34q25 -22 42 -56q15 -33 15 -77v-15q0 -58 -25 -92
q-26 -35 -70 -52q53 -20 84 -58q31 -40 31 -103v-33q0 -47 -17 -86q-16 -35 -46 -61q-29 -25 -69 -37q-39 -12 -84 -12zM262 416q41 0 65 26t24 76v18q0 47 -25 72t-65 25t-65 -25q-26 -26 -26 -74v-17q0 -49 27 -75q26 -26 65 -26zM260 78q49 0 77 28q29 29 29 85v35
q0 54 -29 83t-75 29q-47 0 -76 -28q-31 -28 -31 -86v-35q0 -56 30 -83q29 -28 75 -28z" />
    <glyph glyph-name="eight.tab" 
d="M260 -10q-44 0 -85 12q-40 12 -71 37q-30 23 -49 62q-18 37 -18 87v29q0 66 32 107t83 60q-44 18 -70 54q-25 35 -25 91v13q0 43 17 79t44 57q30 24 65 35q38 11 77 11q40 0 79 -11q34 -11 64 -35q26 -22 43 -57q16 -33 16 -78v-13q0 -56 -26 -91q-25 -35 -69 -55
q53 -19 85 -60q31 -40 31 -105v-28q0 -51 -18 -88t-48 -63q-31 -25 -71 -37q-39 -13 -86 -13zM262 421q42 0 67 27q25 25 25 76v15q0 48 -25 73t-68 25t-68 -24q-27 -25 -27 -76v-15q0 -50 27 -75q28 -26 69 -26zM260 80q49 0 80 29q30 29 30 88v29q0 57 -30 87
q-32 29 -79 29t-79 -29q-33 -29 -33 -88v-29q0 -58 32 -87t79 -29z" />
    <glyph glyph-name="emdash.uc" horiz-adv-x="864" 
d="M38 368h788v-77h-788v77z" />
    <glyph glyph-name="endash.uc" horiz-adv-x="495" 
d="M38 368h420v-77h-420v77z" />
    <glyph glyph-name="equal.tab" 
d="M68 449h383v-84h-383v84zM68 278h383v-83h-383v83z" />
    <glyph glyph-name="exclamdown.uc" horiz-adv-x="264" 
d="M192 0h-119l17 512h85zM132 721q29 0 51 -20q21 -19 21 -49t-21 -49q-22 -20 -51 -20t-49 20q-21 19 -21 49t21 49q20 20 49 20z" />
    <glyph glyph-name="f.short" horiz-adv-x="302" 
d="M81 440h-62v83h62v83q0 76 40 116q39 40 113 40q36 0 54 -6v-84q-2 0 -7.5 1.5t-8.5 2.5q-6 1 -23 1q-33 0 -46 -19q-14 -20 -14 -51v-84h99v-83h-99v-440h-108v440z" />
    <glyph glyph-name="f_f.short" horiz-adv-x="565" 
d="M81 440h-62v83h62v76q0 76 40 116q39 41 113 41q16 0 34 -2q16 -4 24 -7v-83q-16 6 -42 6q-34 0 -47 -18q-14 -20 -14 -51v-78h155v83q0 76 40 116q39 40 113 40q36 0 54 -6v-84q-2 0 -7.5 1.5t-8.5 2.5q-6 1 -23 1q-33 0 -46 -19q-15 -20 -15 -51v-84h100v-83h-100v-440
h-107v440h-155v-440h-108v440z" />
    <glyph glyph-name="five.old" horiz-adv-x="502" 
d="M245 -103q-104 0 -156 52q-53 53 -57 137v1h104v-1q5 -47 29 -73q23 -27 79 -27q50 0 79 33q27 31 27 91v44q0 60 -30 94q-32 33 -83 33q-45 0 -74 -15q-28 -14 -52 -38h-49l5 386h365v-93h-278l-1 -202q16 17 50 32q30 13 76 13q41 0 74 -13q30 -12 58 -40
q25 -28 38 -66t13 -89v-46q0 -51 -16 -89q-16 -40 -44 -68q-28 -27 -69 -42q-42 -14 -88 -14z" />
    <glyph glyph-name="five.oldtab" 
d="M254 -103q-102 0 -153 51q-52 52 -56 138h102q6 -48 29 -74t77 -26q51 0 78 32q26 32 26 92v44q0 60 -29 94q-30 33 -81 33q-43 0 -73 -14q-28 -15 -51 -39h-48l4 386h359v-92h-272l-2 -203q17 19 48 32q30 13 76 13q39 0 73 -14q31 -13 57 -40q23 -24 37 -65
q13 -38 13 -88v-45q0 -50 -15 -90q-16 -40 -44 -68t-67 -43q-42 -14 -88 -14z" />
    <glyph glyph-name="five.tab" 
d="M252 -10q-105 0 -158 53t-56 140v1h106v-2q2 -23 9 -41q6 -17 18 -31q12 -13 32 -21q18 -7 48 -7q53 0 80 35q26 35 26 103v27q0 67 -30 102q-31 33 -83 33q-48 0 -76 -15q-30 -18 -51 -41h-50l4 389h369v-94h-280l-1 -203q21 21 49 35q30 15 76 15q84 0 136 -55t52 -164
v-30q0 -111 -60 -170q-61 -59 -160 -59z" />
    <glyph glyph-name="florin.tab" 
d="M171 337h-89v83h100l19 144q10 81 55 119q44 38 119 38q37 0 64 -9v-87q-6 3 -22 6q-15 3 -32 3q-37 0 -53 -21q-18 -23 -22 -57l-18 -136h122v-83h-133l-68 -504h-108z" />
    <glyph glyph-name="four.old" horiz-adv-x="549" 
d="M326 60h-305v35l271 519h144v-472h86v-82h-86v-154h-110v154zM327 142v373l-189 -373h189z" />
    <glyph glyph-name="four.oldtab" 
d="M307 60h-286v34l251 520h143v-472h78v-82h-78v-154h-108v154zM309 142v371l-178 -371h178z" />
    <glyph glyph-name="four.tab" 
d="M311 154h-287v37l254 524h143v-474h71v-87h-71v-154h-110v154zM312 241v369l-173 -369h173z" />
    <glyph glyph-name="gcommaaccent.alt1" horiz-adv-x="535" 
d="M255 597q-26 0 -42 16q-17 17 -17 45v11q0 50 28 75t80 28v-41q-50 -6 -51 -40q25 1 41 -12q15 -13 15 -36q0 -19 -15 -33q-16 -13 -39 -13zM253 -187q-51 0 -90 11q-38 12 -64 32q-28 23 -40 49q-14 30 -17 63h107q5 -34 30 -54q25 -19 74 -19q55 0 86 29q29 31 29 92
v80q-19 -36 -55 -59q-37 -25 -89 -25q-40 0 -75 15q-32 13 -59 41q-24 25 -38 66q-14 40 -14 89v94q0 47 14 89q13 36 40 67q24 27 61 44q34 15 77 15q55 0 87 -22t51 -58v71h107v-508q0 -103 -60 -153q-59 -49 -162 -49zM253 95q54 0 85 34t31 100v84q0 66 -29 101
q-28 34 -83 34q-54 0 -82 -34t-28 -97v-95q0 -63 29 -95t77 -32z" />
    <glyph glyph-name="germandbls.alt" horiz-adv-x="555" 
d="M370 -8q-74 0 -114 38t-42 108h98q2 -33 15 -49q13 -18 42 -18q26 0 41 16q14 16 14 48q0 19 -6 34q-5 13 -17 28q-7 8 -26 25q-13 9 -34 27q-13 11 -37 31q-15 13 -31 32q-15 18 -22 37q-9 19 -9 46q0 33 18 60q16 24 39 52q23 26 39 49q18 24 18 52q0 36 -22 55
q-22 18 -63 18q-48 0 -75 -29q-28 -28 -28 -88v-564h-108v561q0 50 16 86q18 41 44 64q31 27 67 40q40 14 85 14q43 0 76 -10q37 -11 60 -29q26 -20 39 -46q14 -30 14 -64q0 -41 -18 -71q-21 -32 -40 -54q-8 -9 -21.5 -24t-18.5 -20q-19 -19 -19 -41q0 -10 5 -18
q5 -10 14 -19q11 -11 26 -22q33 -27 38 -31q8 -7 23 -20t17 -14q17 -16 32 -37q15 -24 22 -45q8 -27 8 -57q0 -75 -43 -112q-44 -39 -116 -39z" />
    <glyph glyph-name="grave.uc" horiz-adv-x="400" 
d="M78 894h124l47 -130h-81z" />
    <glyph glyph-name="greater.tab" 
d="M85 209l212 112l-212 115v98l360 -201v-24l-360 -200v100z" />
    <glyph glyph-name="greaterequal.tab" 
d="M87 241l202 103l-202 103v98l357 -190v-23l-357 -190v99zM87 104h356v-81h-356v81z" />
    <glyph glyph-name="guillemotleft.uc" horiz-adv-x="439" 
d="M43 306l110 181h87l-107 -181l107 -180h-87zM202 306l111 181h87l-107 -181l107 -180h-87z" />
    <glyph glyph-name="guillemotright.uc" horiz-adv-x="439" 
d="M147 306l-108 181h87l111 -181l-111 -180h-87zM305 306l-106 181h87l111 -181l-111 -180h-87z" />
    <glyph glyph-name="guilsinglleft.uc" horiz-adv-x="281" 
d="M43 306l110 181h89l-107 -181l107 -180h-89z" />
    <glyph glyph-name="guilsinglright.uc" horiz-adv-x="281" 
d="M147 306l-108 181h89l110 -181l-110 -180h-89z" />
    <glyph glyph-name="hungarumlaut.uc" horiz-adv-x="400" 
d="M118 894h107l-65 -130h-74zM271 894h108l-65 -130h-76z" />
    <glyph glyph-name="hyphen.uc" horiz-adv-x="331" 
d="M49 379h233v-92h-233v92z" />
    <glyph glyph-name="idotaccent" horiz-adv-x="231" 
d="M115 603q-28 0 -46 19q-19 18 -19 44q0 27 19 46q18 18 46 18q27 0 46 -18q19 -19 19 -46q0 -26 -18 -44q-19 -19 -47 -19zM62 523h107v-523h-107v523z" />
    <glyph glyph-name="kcommaaccent.alt1" horiz-adv-x="469" 
d="M60 758h107v-467l165 232h114l-176 -241l188 -282h-121l-170 258v-258h-107v758zM193 -172q50 8 51 41q-26 -2 -41 12q-15 13 -15 36q0 20 16 33q14 13 38 13q27 0 43 -16t16 -46v-10q0 -51 -28 -76q-29 -25 -80 -26v39z" />
    <glyph glyph-name="lcommaaccent.alt1" horiz-adv-x="234" 
d="M63 758h108v-758h-108v758zM65 -172q50 8 51 41q-26 -2 -41 12q-15 13 -15 36q0 20 16 33q14 13 38 13q27 0 43 -16t16 -46v-10q0 -51 -28 -76q-29 -25 -80 -26v39z" />
    <glyph glyph-name="less.tab" 
d="M75 309v24l360 201v-100l-212 -113l212 -114v-98z" />
    <glyph glyph-name="lessequal.tab" 
d="M76 332v23l356 190v-98l-202 -103l202 -103v-99zM76 104h356v-81h-356v81z" />
    <glyph glyph-name="macron.uc" horiz-adv-x="400" 
d="M70 853h260v-76h-260v76z" />
    <glyph glyph-name="minus.tab" 
d="M59 384h403v-85h-403v85z" />
    <glyph glyph-name="multiply.tab" 
d="M71 197l131 136l-131 136l58 58l130 -134l130 133l59 -58l-131 -135l132 -136l-60 -58l-130 135l-129 -134z" />
    <glyph glyph-name="ncommaaccent.alt1" horiz-adv-x="517" 
d="M209 -172q50 8 51 41q-26 -2 -41 12q-15 13 -15 36q0 20 16 33q14 13 38 13q27 0 43 -16t16 -46v-10q0 -51 -28 -76q-29 -25 -80 -26v39zM60 523h107v-73q16 33 53 58q34 24 89 24q68 0 110 -42q42 -44 42 -136v-354h-108v347q0 49 -20 74q-20 23 -64 23q-43 0 -72 -26
q-30 -27 -30 -79v-339h-107v523z" />
    <glyph glyph-name="nine.old" horiz-adv-x="534" 
d="M251 -103q-93 0 -145 45q-54 47 -61 136v1h106v-2q7 -44 32 -68q22 -25 72 -25q65 0 94 51q27 49 29 162v49q-20 -34 -57 -57q-37 -22 -88 -22q-41 0 -77 14q-34 13 -61 40q-28 28 -40 62q-15 37 -15 83v49q0 98 59 154q58 55 161 55q61 0 106 -20q43 -19 72 -56
q26 -35 40 -86q13 -49 13 -111v-149q0 -151 -61 -228q-62 -77 -179 -77zM261 248q49 0 83 32q32 32 32 92v31q0 69 -32 103q-32 32 -83 32t-80 -32q-29 -34 -29 -89v-47q0 -57 29 -89q28 -33 80 -33z" />
    <glyph glyph-name="nine.oldtab" 
d="M245 -103q-91 0 -142 45q-51 44 -59 136v1h103v-2q7 -45 30 -69t71 -24q63 0 90 51q26 51 27 160v49q-19 -33 -55 -55q-34 -22 -85 -22q-38 0 -74 14q-34 13 -58 39q-26 26 -39 62q-14 37 -14 83v49q0 48 15 87q15 38 43 66q29 28 68 42q39 15 87 15q58 0 100 -18
q42 -20 68 -52t40 -79q13 -45 13 -101v-180q0 -148 -58 -222q-58 -75 -171 -75zM254 248q49 0 80 31t31 90v34q0 70 -31 102q-32 33 -80 33t-77 -32q-30 -32 -30 -88v-48q0 -57 29 -89q28 -33 78 -33z" />
    <glyph glyph-name="nine.tab" 
d="M248 -10q-90 0 -146 45q-57 46 -64 137h106q6 -45 32 -68q25 -24 73 -24q58 0 91 46q32 46 32 150v63q-20 -36 -58 -59q-37 -22 -91 -22q-39 0 -75 14q-34 14 -60 39q-27 27 -40 63q-15 37 -15 85v49q0 102 60 159q59 57 162 57q111 0 170 -65q58 -65 58 -184v-202
q0 -142 -62 -213q-63 -70 -173 -70zM256 636q-54 0 -82 -34q-30 -34 -30 -91v-47q0 -59 28 -90q27 -31 81 -31q51 0 86 30q33 30 33 90v37q0 71 -31 103q-32 33 -85 33z" />
    <glyph glyph-name="notequal.tab" 
d="M172 195h-105v83h137l33 87h-170v84h202l36 94h81l-36 -94h103v-84h-135l-33 -87h168v-83h-200l-36 -94h-81z" />
    <glyph glyph-name="one.old" horiz-adv-x="347" 
d="M154 501l-125 -90v102l136 102h100v-615h-111v501z" />
    <glyph glyph-name="one.oldtab" 
d="M255 499l-168 -126v103l180 139h100v-615h-112v499z" />
    <glyph glyph-name="one.sup" horiz-adv-x="233" 
d="M96 687l-74 -51v73l85 62h75v-369h-86v285z" />
    <glyph glyph-name="one.tab" 
d="M252 595l-169 -136v106l176 150h111v-715h-118v595z" />
    <glyph glyph-name="parenleft.tab" horiz-adv-x="260" 
d="M160 -143q-21 33 -46 86q-24 50 -40 103q-17 53 -28 123q-11 69 -11 143t11 145q11 69 28 123q16 53 40 103q25 53 46 86h92q-25 -45 -43 -88q-21 -47 -36 -104q-16 -54 -25 -123q-10 -63 -10 -142q0 -80 10 -141q10 -70 25 -122q15 -57 36 -104q16 -39 43 -88h-92z" />
    <glyph glyph-name="parenleft.uc" horiz-adv-x="303" 
d="M195 -97q-29 38 -55 83q-28 48 -48 101q-20 52 -34 118q-13 62 -13 137t13 137q14 67 34 120t48 101q26 45 55 83h94q-23 -34 -52 -86q-25 -46 -43 -103q-19 -55 -30 -119q-12 -63 -12 -133t12 -132q10 -62 30 -118q20 -60 43 -103q29 -52 52 -86h-94z" />
    <glyph glyph-name="parenright.tab" horiz-adv-x="260" 
d="M8 -143q21 38 43 88q19 43 37 104q14 50 25 122q9 65 9 141t-9 142q-11 71 -25 123q-18 61 -37 104q-26 57 -43 88h92q25 -41 47 -86q20 -41 40 -103q19 -65 28 -123q11 -71 11 -145t-11 -143q-9 -60 -28 -123q-20 -62 -40 -103q-22 -45 -47 -86h-92z" />
    <glyph glyph-name="parenright.uc" horiz-adv-x="303" 
d="M15 -97q24 36 51 86q21 41 43 103q18 56 30 118q11 66 11 132q0 67 -11 133q-12 64 -30 119q-20 57 -43 103q-27 50 -51 86h93q29 -38 55 -83q28 -48 48 -101t34 -120q12 -65 12 -137t-12 -136q-14 -65 -34 -119q-20 -53 -48 -101q-26 -45 -55 -83h-93z" />
    <glyph glyph-name="percent.tab" horiz-adv-x="700" 
d="M181 394q-30 0 -58 11q-26 10 -47 31q-22 21 -32 47q-12 29 -12 63v23q0 35 12 63t32 48q21 21 48 31q28 11 58 11q32 0 59 -10t48 -31q20 -20 32 -48q12 -29 12 -62v-24q0 -33 -11 -63q-12 -28 -32 -48q-23 -21 -49 -31q-30 -11 -60 -11zM525 715h77l-427 -715h-76z
M182 465q64 0 64 81v25q0 39 -16 59q-16 21 -48 21q-29 0 -46 -20q-17 -22 -17 -61v-24q0 -41 17 -61t46 -20zM518 -8q-34 0 -59 11q-29 11 -48 30q-22 20 -32 48q-12 27 -12 62v23q0 34 12 63t33 48q21 21 48 31q26 10 58 10t59 -10q29 -10 48 -30q20 -20 32 -47
q12 -28 12 -62v-25q0 -34 -12 -63q-12 -28 -32 -48q-19 -19 -48 -30q-26 -11 -59 -11zM518 62q30 0 47 21q17 22 17 60v24q0 38 -17 60q-17 21 -47 21q-29 0 -46 -20q-18 -21 -18 -61v-24q0 -41 18 -61q17 -20 46 -20z" />
    <glyph glyph-name="period.tab" horiz-adv-x="260" 
d="M130 -6q-29 0 -50 21q-21 20 -21 49t21 50q22 20 50 20t50 -20q21 -21 21 -50q0 -30 -21 -49q-21 -21 -50 -21z" />
    <glyph glyph-name="perthousand.tab" horiz-adv-x="900" 
d="M158 401q-55 0 -93 38t-38 110v23q0 35 11 65q10 28 28 47q16 18 42 29q24 9 51 9q56 0 93 -37t37 -110v-25q0 -73 -37 -110q-38 -39 -94 -39zM480 715h77l-427 -715h-77zM159 470q47 0 47 79v24q0 81 -47 81q-48 0 -48 -81v-24q0 -79 48 -79zM448 -8q-55 0 -93 38
t-38 109v24q0 34 11 64q10 28 28 47q15 18 41 29q24 9 51 9t51 -9q25 -11 42 -28q19 -21 29 -46q10 -27 10 -64v-24q0 -37 -10 -64q-10 -28 -28 -47q-17 -19 -42 -28q-23 -10 -52 -10zM742 -8q-55 0 -93 38t-38 109v24q0 34 11 64q10 28 28 47q15 18 41 29q24 9 51 9
q56 0 93 -37q38 -38 38 -110v-24q0 -74 -37 -111q-38 -38 -94 -38zM448 60q49 0 49 81v23q0 80 -49 80q-48 0 -48 -80v-24q0 -80 48 -80zM742 60q48 0 48 81v23q0 80 -48 80t-48 -80v-24q0 -80 48 -80z" />
    <glyph glyph-name="plus.tab" 
d="M215 300h-156v83h156v172h91v-172h156v-83h-156v-172h-91v172z" />
    <glyph glyph-name="plusminus.tab" 
d="M215 325h-158v84h158v156h91v-156h157v-84h-157v-157h-91v157zM57 104h407v-82h-407v82z" />
    <glyph glyph-name="questiondown.uc" horiz-adv-x="451" 
d="M301 465q0 -29 -6 -52q-8 -27 -19 -44q-11 -19 -27 -40q-5 -6 -16.5 -19.5t-17.5 -21.5q-19 -24 -25 -30q-12 -13 -20 -28q-10 -17 -14 -31q-5 -18 -5 -36q0 -83 78 -83q41 0 65 26q23 25 28 78h103q-3 -93 -56 -143q-55 -50 -144 -50q-93 0 -140 45q-46 45 -46 123
q0 29 6 51q6 21 17 42q8 14 26 38q2 3 31 37q10 12 32 36q17 18 26 33q11 16 18 36q7 17 7 39v41h99v-47zM250 721q28 0 51 -20q21 -19 21 -49t-21 -49q-23 -21 -51 -21q-30 0 -49 21q-21 19 -21 49t21 49q20 20 49 20z" />
    <glyph glyph-name="quotedblbase.alt1" horiz-adv-x="384" 
d="M216 -29q58 7 58 49q-30 0 -46 16q-18 16 -18 44t19 44t46 16q31 0 50 -21q20 -22 20 -56v-14q0 -62 -34 -93t-95 -34v49zM43 -29q58 8 59 49q-31 0 -47 16q-18 16 -18 44q0 27 20 44q19 16 45 16q32 0 51 -21q20 -22 20 -56v-14q0 -61 -35 -93q-34 -31 -95 -34v49z" />
    <glyph glyph-name="quotedblleft.alt1" horiz-adv-x="384" 
d="M167 670q-58 -7 -58 -49q29 0 47 -15q17 -17 17 -45t-19 -44t-46 -16q-30 0 -50 21q-20 22 -20 57v13q0 62 35 94t94 33v-49zM340 670q-58 -7 -58 -49q29 0 47 -15q17 -17 17 -45t-19 -44t-46 -16q-31 0 -50 21q-20 22 -20 57v13q0 62 35 94t94 33v-49z" />
    <glyph glyph-name="quotedblright.alt1" horiz-adv-x="384" 
d="M43 552q57 9 59 50q-31 0 -47 16q-18 16 -18 44q0 27 20 44q19 16 45 16q32 0 51 -21q20 -22 20 -56v-14q0 -61 -35 -93q-36 -33 -95 -34v48zM216 552q58 9 58 50q-30 0 -46 16q-18 16 -18 44t19 44t46 16q31 0 50 -21q20 -22 20 -56v-14q0 -62 -34 -93q-36 -33 -95 -34
v48z" />
    <glyph glyph-name="quoteleft.alt1" horiz-adv-x="210" 
d="M167 670q-58 -7 -58 -49q29 0 47 -15q17 -17 17 -45t-19 -44t-46 -16q-30 0 -50 21q-20 22 -20 57v13q0 62 35 94t94 33v-49z" />
    <glyph glyph-name="quoteright.alt1" horiz-adv-x="210" 
d="M43 552q57 9 59 50q-31 0 -47 16q-18 16 -18 44q0 27 20 44q19 16 45 16q32 0 51 -21q20 -22 20 -56v-14q0 -61 -35 -93q-36 -33 -95 -34v48z" />
    <glyph glyph-name="quotesinglbase.alt1" horiz-adv-x="212" 
d="M43 -29q58 8 59 49q-31 0 -47 16q-18 16 -18 44q0 27 20 44q19 16 45 16q32 0 51 -21q20 -22 20 -56v-14q0 -61 -35 -93q-34 -31 -95 -34v49z" />
    <glyph glyph-name="rcommaaccent.alt1" horiz-adv-x="340" 
d="M60 523h107v-86q23 47 56 68q36 24 91 25v-103q-38 -2 -62 -7q-25 -6 -46 -20q-18 -14 -29 -38q-10 -23 -10 -59v-303h-107v523zM64 -172q50 8 51 41q-26 -2 -41 12q-15 13 -15 36q0 20 16 33q14 13 38 13q27 0 43 -16t16 -46v-10q0 -51 -28 -76q-29 -25 -80 -26v39z" />
    <glyph glyph-name="registered.alt" horiz-adv-x="757" 
d="M378 26q-69 0 -132 26q-62 26 -107 72q-46 45 -72 107q-27 62 -27 134q0 73 27 134q25 61 72 108q45 45 107 72q63 26 134 26t134 -26q61 -25 106 -72q47 -48 71 -107q25 -60 25 -134q0 -71 -26 -134q-25 -62 -71 -108q-47 -47 -107 -72q-63 -26 -134 -26zM378 69
q60 0 111 22q51 20 92 60q40 40 62 94q23 57 23 121q0 67 -22 121q-22 53 -62 93q-38 38 -91 61q-53 21 -111 21q-60 0 -113 -21q-54 -23 -92 -61q-39 -38 -61 -94q-23 -57 -23 -121q0 -66 23 -121q22 -55 63 -94q39 -39 91 -60t110 -21zM251 556h129q66 0 100 -27t34 -83
v-8q0 -40 -18 -63q-17 -21 -47 -32l84 -162h-88l-76 148h-34v-148h-84v375zM377 385q54 0 54 50v8q0 26 -13 38q-14 11 -41 11h-42v-107h42z" />
    <glyph glyph-name="ring.uc" horiz-adv-x="400" 
d="M200 751q-19 0 -40 8q-18 7 -32 21q-16 16 -22 31q-8 19 -8 39q0 19 8 38q7 17 22 32q14 14 32 21q21 8 40 8t40 -8q20 -7 33 -21q13 -13 21 -32t8 -38q0 -20 -8 -39q-7 -17 -21 -31q-13 -14 -33 -21q-21 -8 -40 -8zM200 800q19 0 33 14q12 14 12 36q0 21 -12 36
q-14 14 -33 14q-20 0 -32 -14q-13 -14 -13 -36q0 -23 13 -36q12 -14 32 -14z" />
    <glyph glyph-name="scommaaccent.alt1" horiz-adv-x="436" 
d="M221 -9q-90 0 -139 43q-51 43 -52 123h103q1 -40 22 -64q19 -22 65 -22q41 0 61 17q18 17 18 52t-25 51q-22 14 -77 32q-46 15 -71 28q-29 13 -49 33t-27 44q-9 25 -9 59q0 35 14 63q13 25 38 46q23 18 54 27t64 9q35 0 69 -8q30 -7 55 -26q23 -18 38 -47q14 -30 17 -71
h-101q-7 73 -78 73q-33 0 -52 -16t-19 -44q0 -15 5 -27q5 -11 17 -20q9 -8 30 -16q25 -10 46 -17q29 -8 68 -23q30 -14 52 -31q22 -19 34 -45q11 -28 11 -66q0 -76 -46 -116q-47 -41 -136 -41zM166 -172q50 8 51 41q-26 -2 -41 12q-15 13 -15 36q0 20 16 33q14 13 38 13
q27 0 43 -16t16 -46v-10q0 -51 -28 -76q-29 -25 -80 -26v39z" />
    <glyph glyph-name="semicolon.alt1" horiz-adv-x="258" 
d="M129 290q-29 0 -50 21q-21 19 -21 49t21 51q22 20 50 20q29 0 51 -20q20 -22 20 -51t-20 -49q-21 -21 -51 -21zM63 -45q63 7 63 51q-31 0 -50 17q-18 17 -18 47q0 29 21 47q20 17 48 17q32 0 53 -21q20 -23 20 -60v-17q0 -67 -38 -99q-40 -33 -99 -34v52z" />
    <glyph glyph-name="semicolon.tab" horiz-adv-x="260" 
d="M136 290q-30 0 -49 21q-21 19 -21 49t21 51q20 20 49 20t51 -20q21 -21 21 -51t-21 -49q-21 -21 -51 -21zM12 -85l76 218l104 -39l-114 -206z" />
    <glyph glyph-name="seven.old" horiz-adv-x="465" 
d="M309 523h-284v91h422v-13l-233 -695h-115z" />
    <glyph glyph-name="seven.oldtab" 
d="M333 523h-281v91h422v-13l-239 -695h-115z" />
    <glyph glyph-name="seven.tab" 
d="M334 620h-283v95h427v-14l-232 -701h-118z" />
    <glyph glyph-name="six.old" horiz-adv-x="534" 
d="M274 -10q-61 0 -106 20q-43 19 -71 55q-27 32 -41 83q-13 46 -13 104v160q0 75 18 132q18 56 50 96q33 39 77 58t98 19q84 0 136 -41q50 -40 61 -132v-2h-107v2q-8 45 -28 65q-21 21 -64 21q-58 0 -93 -51q-33 -51 -35 -161v-50q19 34 58 57q37 22 88 22q41 0 77 -14
t61 -39t40 -63q14 -39 14 -84v-48q0 -97 -59 -153t-161 -56zM274 77q49 0 79 32q29 32 29 88v47q0 58 -28 90q-28 33 -81 33q-50 0 -82 -32q-33 -31 -33 -89v-34q0 -68 32 -102q32 -33 84 -33z" />
    <glyph glyph-name="six.oldtab" 
d="M269 -10q-59 0 -100 19q-43 20 -69 53q-26 32 -40 80q-13 45 -13 102v175q0 72 17 129t48 94q29 36 73 56q42 19 96 19q39 0 74 -9q33 -11 58 -31t40 -54q14 -32 19 -79h-104q-6 44 -26 66q-21 21 -63 21q-59 0 -90 -52q-33 -53 -33 -161v-50q19 33 55 57q34 22 86 22
q42 0 75 -13t59 -39q25 -26 38 -63q13 -36 13 -83v-49q0 -98 -57 -154q-59 -56 -156 -56zM269 77q47 0 76 32t29 87v48q0 58 -28 90q-28 33 -77 33t-80 -31q-33 -32 -33 -90v-37q0 -67 32 -99q32 -33 81 -33z" />
    <glyph glyph-name="six.tab" 
d="M269 -10q-62 0 -104 19q-45 20 -72 53q-28 33 -42 80q-14 48 -14 103v178q0 75 18 131q16 55 49 94q31 37 76 57q42 19 97 19q84 0 138 -42q54 -44 61 -133h-107q-8 42 -28 64q-23 21 -65 21q-58 0 -92 -49q-35 -50 -35 -155v-55q19 37 58 60q37 22 91 22q42 0 75 -13
t60 -40q25 -25 40 -63q14 -39 14 -86v-51q0 -103 -58 -158q-59 -56 -160 -56zM267 80q51 0 80 33q29 32 29 89v50q0 59 -28 90t-82 31q-52 0 -84 -31q-33 -32 -33 -91v-35q0 -71 33 -103q32 -33 85 -33z" />
    <glyph glyph-name="slash.uc" horiz-adv-x="373" 
d="M266 774h92l-255 -852h-92z" />
    <glyph glyph-name="space.tab" horiz-adv-x="260" 
 />
    <glyph glyph-name="space_uni0326" horiz-adv-x="400" 
d="M125 -188l44 152l101 -16l-80 -158z" />
    <glyph glyph-name="space_uni0326.alt" horiz-adv-x="400" 
d="M142 609l80 157l63 -22l-43 -151z" />
    <glyph glyph-name="sterling.old" horiz-adv-x="515" 
d="M35 376h53q-5 22 -11 66q-5 37 -5 68v1q0 45 15 81q15 34 42 60q26 23 64 37q36 13 81 13q93 0 143 -47q49 -46 54 -137h-107q-6 49 -26 72t-62 23t-66 -27q-25 -26 -25 -76v-2q0 -38 4 -66l9 -66h165v-74h-154q4 -25 6 -53q2 -38 2 -58q0 -21 -3 -38q-5 -21 -10 -34
q46 -14 67 -22q30 -13 55 -13q27 0 44 14t18 47h97q-1 -31 -11 -61q-10 -28 -27 -48q-19 -22 -43 -32q-26 -12 -60 -12q-31 0 -55 7q-43 15 -49 18q-30 12 -43 17q-18 7 -37 7q-24 0 -34 -12q-12 -15 -13 -29h-89q3 38 23 73q20 36 60 49q5 16 8 31q2 22 2 38q0 32 -4 56
q-6 36 -9 55h-69v74z" />
    <glyph glyph-name="sterling.oldtab" 
d="M43 375h52q-8 40 -11 66q-5 38 -5 69v1q0 46 15 82q15 34 41 60q24 23 62 37q36 12 78 12q92 0 139 -46q48 -46 52 -137v-2h-102v2q-6 50 -25 72t-62 22q-41 0 -65 -26q-24 -25 -24 -77v-2q0 -38 4 -66q6 -44 9 -67h160v-73h-150q4 -25 6 -53q2 -38 2 -58q0 -43 -13 -72
q37 -10 66 -22q30 -13 54 -13q27 0 44 14t18 47h93q-3 -67 -37 -110t-100 -43q-29 0 -53 7q-39 14 -48 18l-20 8t-22 9q-18 7 -37 7q-22 0 -33 -12q-11 -14 -12 -29h-87q3 37 23 74q20 35 58 48q11 30 11 69q0 32 -4 56q-6 36 -9 55h-68v73z" />
    <glyph glyph-name="sterling.tab" 
d="M36 383h55q-10 45 -13 71q-5 38 -5 74v1q0 45 15 83q15 35 42 61q26 24 64 38q36 13 81 13q95 0 144 -48q50 -48 53 -140v-3h-105v2q-4 50 -25 74q-21 22 -65 22q-41 0 -67 -26q-25 -26 -25 -79v-2q0 -33 5 -71q1 -12 4 -35t5 -35h165v-74h-154q4 -25 6 -51q2 -34 2 -55
q0 -44 -14 -80q45 -13 68 -23q30 -13 55 -13q29 0 46 14q18 14 19 48h96q-2 -35 -12 -63q-11 -29 -27 -50q-18 -21 -44 -32q-25 -12 -59 -12q-28 0 -55 8q-25 7 -49 17q-30 12 -43 17q-21 8 -38 8q-23 0 -33 -12q-12 -15 -13 -30h-90q3 38 23 77q19 35 61 49q6 19 8 34
q3 18 3 43q0 27 -3 54q-7 38 -10 52h-71v74z" />
    <glyph glyph-name="t.alt" horiz-adv-x="309" 
d="M194 634v-111h94v-83h-94v-440h-107v440h-68v83h68v111h107z" />
    <glyph glyph-name="tbar.alt" horiz-adv-x="309" 
d="M19 346h68v94h-68v83h68v111h107v-111h94v-83h-94v-94h95v-70h-95v-276h-107v276h-68v70z" />
    <glyph glyph-name="tcaron.alt" horiz-adv-x="309" 
d="M194 634v-111h94v-83h-94v-440h-107v440h-68v83h68v111h107zM249 759h99l-44 -164h-65z" />
    <glyph glyph-name="tcommaaccent.alt" horiz-adv-x="309" 
d="M55 -188l44 152l101 -16l-80 -158zM194 634v-111h94v-83h-94v-440h-107v440h-68v83h68v111h107z" />
    <glyph glyph-name="tcommaaccent.alt1" horiz-adv-x="322" 
d="M188 634v-111h100v-83h-100v-297q0 -62 55 -62q29 0 48 8v-85q-9 -4 -26 -7t-40 -3q-75 0 -109 37q-36 36 -36 103v306h-61v83h61v111h108zM132 -172q50 8 51 41q-26 -2 -41 12q-15 13 -15 36q0 20 16 33q14 13 38 13q27 0 43 -16t16 -46v-10q0 -51 -28 -76
q-29 -25 -80 -26v39z" />
    <glyph glyph-name="tcommaaccent.altalt1" horiz-adv-x="309" 
d="M194 634v-111h94v-83h-94v-440h-107v440h-68v83h68v111h107zM92 -172q50 8 51 41q-26 -2 -41 12q-15 13 -15 36q0 20 16 33q14 13 38 13q27 0 43 -16t16 -46v-10q0 -51 -28 -76q-29 -25 -80 -26v39z" />
    <glyph glyph-name="three.old" horiz-adv-x="515" 
d="M251 -103q-106 0 -161 55q-56 56 -60 153v1h104v-2q4 -55 31 -88q25 -31 85 -31q59 0 85 29q27 28 27 81v26q0 62 -28 89q-29 26 -89 26h-42v82h39q56 0 82 26t26 77v20q0 45 -23 71q-22 25 -69 25q-48 0 -76 -28q-28 -29 -33 -81v-1h-102v1q2 45 17 80q16 38 43 62
q26 25 66 40q39 14 86 14q93 0 146 -48q51 -48 51 -128v-21q0 -59 -27 -93q-30 -36 -77 -53q57 -13 91 -52q32 -40 32 -111v-26q0 -90 -60 -143q-59 -52 -164 -52z" />
    <glyph glyph-name="three.oldtab" 
d="M252 -103q-105 0 -160 55t-57 152h104q3 -56 29 -88q25 -31 84 -31q57 0 84 28q26 29 26 82v26q0 62 -27 89q-28 26 -87 26h-41v82h38q55 0 81 27q25 25 25 77v19q0 46 -22 71t-69 25q-46 0 -75 -27q-27 -26 -32 -81h-102q2 46 17 80q16 38 43 62q27 25 66 39t85 14
q92 0 144 -47q51 -48 51 -129v-21q0 -59 -28 -93q-30 -36 -76 -52q58 -13 90 -53q31 -38 31 -111v-25q0 -91 -59 -144q-59 -52 -163 -52z" />
    <glyph glyph-name="three.sup" horiz-adv-x="309" 
d="M151 397q-67 0 -98 31q-33 30 -34 85h76q2 -26 14 -40q12 -15 38 -15t38 14q11 14 11 36v8q0 49 -53 49h-23v55h23q51 0 51 46v4q0 44 -42 44q-20 0 -33 -11q-13 -12 -15 -38h-77q1 52 35 82q32 29 92 29q57 0 89 -26q31 -25 31 -72v-5q0 -59 -59 -76q31 -7 49 -27
q18 -21 18 -56v-9q0 -51 -34 -79q-35 -29 -97 -29z" />
    <glyph glyph-name="three.tab" 
d="M254 -10q-107 0 -165 56t-59 152v2h106v-2q1 -53 29 -85q26 -32 86 -32q58 0 84 29t26 84v16q0 64 -27 92q-27 29 -90 29h-39v84h37q58 0 83 27q26 28 26 80v11q0 49 -23 75t-70 26q-49 0 -76 -28q-28 -28 -30 -78v-2h-103v1q2 45 16 80q14 36 41 62q28 26 66 41
q40 14 87 14q96 0 148 -49q53 -50 53 -136v-11q0 -60 -29 -97q-29 -36 -81 -53q57 -13 92 -54q34 -41 34 -114v-18q0 -96 -58 -148q-58 -54 -164 -54z" />
    <glyph glyph-name="tilde.uc" horiz-adv-x="400" 
d="M253 766q-17 0 -30 6q-15 4 -27 12q-4 2 -12 6.5t-12 6.5q-12 5 -21 5q-14 0 -21 -10q-9 -10 -12 -27h-68q4 57 32 89q25 31 64 31q14 0 31 -5q10 -4 28 -12q12 -8 24 -12q11 -6 21 -6q12 0 21 10q8 11 11 27h68q-4 -58 -32 -90q-27 -31 -65 -31z" />
    <glyph glyph-name="two.old" horiz-adv-x="484" 
d="M16 19l189 207q52 58 88 111q33 49 33 104v6q0 43 -23 66t-65 23q-44 0 -70 -26q-26 -28 -32 -89v-2h-103v1q4 92 58 149q52 55 150 55q93 0 146 -47q52 -46 52 -127v-12q0 -61 -40 -119q-39 -58 -102 -127l-95 -104h241v-88h-427v19z" />
    <glyph glyph-name="two.oldtab" 
d="M35 19l190 207q25 30 48 57q17 20 38 53q14 24 24 52q8 27 8 52v7q0 44 -22 66q-23 23 -65 23q-43 0 -69 -26q-24 -26 -32 -89h-102q4 92 58 149q53 54 148 54q93 0 146 -47q51 -47 51 -127v-12q0 -60 -39 -118q-38 -57 -100 -125l-98 -107h241v-88h-425v19z" />
    <glyph glyph-name="two.sup" horiz-adv-x="290" 
d="M7 415l113 133q30 37 45 62q15 27 15 54v4q0 44 -40 44q-20 0 -32 -14q-12 -13 -15 -46h-78q1 62 36 93q34 31 92 31q61 0 90 -28q30 -28 30 -77v-4q0 -40 -19 -71q-17 -27 -49 -66l-57 -64h128v-64h-259v13z" />
    <glyph glyph-name="two.tab" 
d="M28 21l219 275q46 59 74 116q25 51 25 108v9q0 51 -23 79q-23 26 -66 26q-45 0 -72 -29q-27 -28 -30 -97v-3h-108v1q2 101 56 160q52 58 156 58q98 0 151 -50q52 -51 52 -142v-10q0 -71 -33 -134q-35 -66 -94 -138l-133 -158h262v-92h-436v21z" />
    <glyph glyph-name="yen.old" horiz-adv-x="504" 
d="M63 223h137v57h-137v60h124l-167 354h120l121 -279l116 279h107l-159 -354h126v-60h-138v-57h138v-58h-138v-165h-113v165h-137v58z" />
    <glyph glyph-name="yen.oldtab" 
d="M74 227h135v57h-135v59h125l-161 351h116l115 -274l111 274h103l-153 -351h126v-59h-136v-57h136v-59h-136v-168h-111v168h-135v59z" />
    <glyph glyph-name="yen.tab" 
d="M69 230h137v59h-137v61h128l-166 365h120l118 -281l113 281h107l-159 -365h131v-61h-140v-59h140v-60h-140v-170h-115v170h-137v60z" />
    <glyph glyph-name="zero.old" horiz-adv-x="556" 
d="M278 -10q-53 0 -97 18q-43 16 -75 50q-33 33 -49 80q-17 48 -17 107v123q0 60 17 109q16 46 49 80q32 34 75 50q45 17 97 17t97 -17q40 -15 74 -49q31 -33 48 -80q17 -48 17 -108v-122q0 -60 -17 -109q-16 -47 -47 -81q-33 -34 -74 -50q-44 -18 -98 -18zM278 80
q62 0 93 43q30 42 30 125v121q0 81 -31 124t-92 43q-60 0 -92 -42q-32 -44 -32 -125v-122q0 -82 32 -125q32 -42 92 -42z" />
    <glyph glyph-name="zero.oldtab" 
d="M260 -10q-52 0 -90 17q-42 17 -69 47q-29 31 -44 74q-16 42 -16 97v164q0 57 16 99t45 74q28 29 69 46q39 16 89 16q51 0 90 -16q41 -17 69 -46q27 -29 44 -73q15 -43 15 -98v-163q0 -112 -58 -174q-58 -64 -160 -64zM261 82q55 0 81 38q25 37 25 107v164q0 66 -26 106
q-27 38 -81 38q-55 0 -80 -37q-27 -38 -27 -108v-164q0 -70 27 -107t81 -37z" />
    <glyph glyph-name="zero.tab" 
d="M261 -10q-52 0 -91 16q-43 17 -71 48q-29 32 -45 79t-16 113v220q0 66 16 114q17 49 45 80t71 48q39 16 91 16q101 0 161 -62q60 -63 60 -191v-223q0 -128 -59 -193t-162 -65zM262 83q57 0 83 38q24 37 24 127v223q0 82 -26 123q-26 39 -82 39t-83 -39q-27 -40 -27 -128
v-219q0 -89 28 -126q27 -38 83 -38z" />
    </font>
</defs>
</svg>
