<?xml version="1.0" standalone="no"?>
<!DOCTYPE svg PUBLIC "-//W3C//DTD SVG 1.1//EN" "http://www.w3.org/Graphics/SVG/1.1/DTD/svg11.dtd" >
<svg xmlns="http://www.w3.org/2000/svg" xmlns:xlink="http://www.w3.org/1999/xlink" version="1.1">
<metadata>
Created by FontForge 20170731 at Mon Nov  4 22:57:27 2019
 By Aleksey,,,
Copyright (C)2017 Commercial Type.
</metadata>
<defs>
<font id="GraphikCompactWeb-Bold" horiz-adv-x="520" >
  <font-face 
    font-family="Graphik Compact Web Bold"
    font-weight="700"
    font-stretch="normal"
    units-per-em="1000"
    panose-1="1 0 2 1 1 0 0 1 0 1"
    ascent="800"
    descent="-200"
    x-height="523"
    cap-height="715"
    bbox="-220 -216 1056 1104"
    underline-thickness="66"
    underline-position="-290"
    unicode-range="U+000D-FB02"
  />
<missing-glyph horiz-adv-x="514" 
 />
    <glyph glyph-name="f_f" unicode="ff" horiz-adv-x="612" 
d="M72 418h-58v105h58v58q0 85 47 127q47 41 123 41q18 0 40 -2q18 -4 26 -7v-110q-17 5 -36 5q-27 0 -39 -14q-12 -15 -12 -41v-57h130v65q0 85 47 126t128 41q19 0 41 -2q15 -3 28 -6v-111q-15 4 -17 4q-14 2 -24 2q-28 0 -42 -15q-13 -14 -13 -41v-63h94v-105h-94v-418
h-148v418h-130v-418h-149v418z" />
    <glyph glyph-name=".notdef" horiz-adv-x="514" 
 />
    <glyph glyph-name=".null" horiz-adv-x="0" 
 />
    <glyph glyph-name=".null" horiz-adv-x="0" 
 />
    <glyph glyph-name="nonmarkingreturn" unicode="&#xd;" horiz-adv-x="168" 
 />
    <glyph glyph-name="space" unicode=" " horiz-adv-x="168" 
 />
    <glyph glyph-name="exclam" unicode="!" horiz-adv-x="285" 
d="M59 715h168l-23 -497h-122zM143 -8q-19 0 -35 6q-18 8 -29 19q-11 9 -19 26q-7 14 -7 33q0 35 26 61q25 25 64 25t64 -25t25 -61q0 -19 -7 -33q-8 -17 -19 -26q-11 -12 -28 -19q-16 -6 -35 -6z" />
    <glyph glyph-name="quotedbl" unicode="&#x22;" horiz-adv-x="399" 
d="M37 715h142l-19 -249h-104zM220 715h142l-19 -249h-104z" />
    <glyph glyph-name="numbersign" unicode="#" horiz-adv-x="515" 
d="M98 270h-66v118h83l12 85h-73v116h90l18 126h104l-18 -126h63l18 126h103l-18 -126h68v-116h-84l-13 -85h75v-118h-91l-21 -145h-104l21 145h-63l-21 -145h-104zM282 388l12 85h-63l-12 -85h63z" />
    <glyph glyph-name="dollar" unicode="$" horiz-adv-x="563" 
d="M251 -123v113q-110 9 -166 68q-56 58 -61 156h149q1 -44 19 -73q17 -27 59 -35v193q-55 17 -96 36q-39 19 -66 46q-26 26 -38 61q-13 33 -13 82q0 42 15 78q16 37 43 61q27 26 67 42q38 16 88 19v83h65v-84q92 -7 148 -57q55 -49 60 -146h-145q-3 37 -18 58
q-15 22 -45 29v-175q49 -15 91 -32q37 -17 68 -44q27 -24 43 -62q15 -36 15 -87q0 -92 -55 -150q-57 -60 -162 -67v-113h-65zM182 536q0 -32 16 -51q17 -20 53 -33v157q-33 -5 -51 -24t-18 -49zM386 189q0 36 -16 55q-18 21 -54 34v-172q34 6 52 28q18 21 18 55z" />
    <glyph glyph-name="percent" unicode="%" horiz-adv-x="726" 
d="M195 393q-40 0 -70 13q-31 12 -53 34q-24 24 -35 53q-12 30 -12 66q0 37 13 66q14 29 36 51t54 34t67 12q36 0 67 -12q32 -12 54 -33t36 -50q13 -29 13 -66q0 -35 -12 -67q-13 -31 -35 -53q-23 -23 -54 -35q-30 -13 -69 -13zM548 715h88l-456 -715h-88zM195 484
q27 0 42 20t15 55t-15 54t-42 19q-26 0 -41 -19q-16 -19 -16 -55t16 -55q15 -19 41 -19zM531 -10q-40 0 -70 13q-31 12 -53 34q-24 22 -35 52q-12 30 -12 66q0 37 13 66q14 29 36 51q21 21 55 34q31 12 67 12q34 0 67 -11q31 -12 53 -33t36 -50q13 -29 13 -66t-12 -67
q-13 -31 -35 -53q-23 -23 -54 -35q-30 -13 -69 -13zM532 81q27 0 42 19q15 20 15 54t-15 54t-42 20t-42 -19q-16 -19 -16 -55q0 -37 16 -54q15 -19 42 -19z" />
    <glyph glyph-name="ampersand" unicode="&#x26;" horiz-adv-x="650" 
d="M414 56q-32 -30 -70 -48q-39 -18 -99 -18q-100 0 -157 51q-58 51 -58 149v28q0 69 35 116q34 45 100 76q-26 35 -36 68q-11 35 -11 68q0 46 16 79q15 32 42 55q27 22 63 33q38 11 77 11q40 0 73 -10q35 -10 60 -30q24 -19 40 -50q14 -33 14 -72q0 -112 -134 -177l89 -128
l45 114h129l-97 -226l101 -145h-183zM263 549q0 -31 10 -52q13 -27 29 -46q35 19 52 44q15 23 15 59q0 31 -13 47q-13 15 -37 15t-40 -16t-16 -51zM183 204q0 -46 22 -71q21 -26 66 -26q23 0 43 11q21 11 36 29l-123 177q-22 -17 -32 -39q-12 -23 -12 -58v-23z" />
    <glyph glyph-name="quotesingle" unicode="'" horiz-adv-x="221" 
d="M37 715h148l-20 -249h-109z" />
    <glyph glyph-name="parenleft" unicode="(" horiz-adv-x="318" 
d="M189 -144q-26 33 -55 81q-27 43 -49 102q-20 50 -35 125q-14 70 -14 149q0 78 14 150q15 74 35 125q22 59 49 101q29 48 55 81h118q-25 -41 -47 -86q-23 -49 -41 -104q-19 -60 -29 -123q-11 -71 -11 -144q0 -75 11 -144q10 -65 29 -123q18 -55 41 -104q22 -45 47 -86
h-118z" />
    <glyph glyph-name="parenright" unicode=")" horiz-adv-x="318" 
d="M10 -143q22 36 48 86q23 49 41 104q19 58 29 123q11 69 11 144q0 73 -11 144q-10 63 -29 123q-18 55 -41 103q-26 50 -48 86h118q23 -28 56 -80q25 -44 49 -102q22 -55 36 -124q13 -66 13 -150t-13 -149q-14 -70 -36 -125q-23 -59 -49 -102q-32 -51 -56 -81h-118z" />
    <glyph glyph-name="asterisk" unicode="*" horiz-adv-x="398" 
d="M54 471l81 85l-107 14l30 105l100 -47l-19 113h121l-20 -113l100 47l30 -105l-107 -14l80 -85l-92 -65l-53 105l-51 -105z" />
    <glyph glyph-name="plus" unicode="+" horiz-adv-x="496" 
d="M186 285h-153v111h153v170h123v-170h154v-111h-154v-170h-123v170z" />
    <glyph glyph-name="comma" unicode="," horiz-adv-x="263" 
d="M15 -77l72 236l139 -48l-122 -221z" />
    <glyph glyph-name="hyphen" unicode="-" horiz-adv-x="333" 
d="M44 341h245v-115h-245v115z" />
    <glyph glyph-name="period" unicode="." horiz-adv-x="259" 
d="M129 -8q-38 0 -63 25q-25 24 -25 60q0 37 25 62t63 25t63 -25t25 -62q0 -36 -25 -60q-25 -25 -63 -25z" />
    <glyph glyph-name="slash" unicode="/" horiz-adv-x="390" 
d="M264 771h121l-283 -914h-121z" />
    <glyph glyph-name="zero" unicode="0" horiz-adv-x="617" 
d="M307 -11q-64 0 -112 19q-52 19 -85 55q-35 38 -54 91t-19 125v156q0 71 21 125q19 52 56 91q34 36 86 56q50 18 108 18q60 0 109 -18q50 -18 86 -54t57 -90q20 -55 20 -126v-153q0 -73 -19 -127t-54 -92q-36 -37 -86 -57q-50 -19 -114 -19zM310 120q54 0 79 39
q24 39 24 123v154q0 160 -104 160q-53 0 -79 -38q-26 -40 -26 -122v-155q0 -85 26 -123t80 -38z" />
    <glyph glyph-name="one" unicode="1" horiz-adv-x="380" 
d="M144 548l-118 -79v143l139 103h145v-715h-166v548z" />
    <glyph glyph-name="two" unicode="2" horiz-adv-x="531" 
d="M12 24l214 264q26 32 45 60q15 20 32 53q12 23 20 50q7 24 7 51v12q0 83 -69 83q-35 0 -55 -24q-22 -26 -26 -88h-153q3 117 66 179q61 61 174 61q114 0 172 -55q57 -56 57 -150v-13q0 -32 -8 -66q-7 -29 -23 -63q-18 -35 -39 -64q-17 -25 -53 -70l-99 -117h224v-127
h-486v24z" />
    <glyph glyph-name="three" unicode="3" horiz-adv-x="557" 
d="M522 195q0 -94 -62 -150t-184 -56q-125 0 -185 57t-63 168h151q3 -48 24 -74q20 -26 66 -26q83 0 83 86v21q0 49 -21 71t-72 22h-42v110h41q48 0 69 22q21 21 21 65v13q0 76 -73 76q-76 0 -83 -91h-148q3 99 63 158q58 58 171 58q108 0 168 -48q60 -50 60 -140v-14
q0 -59 -30 -95q-30 -38 -84 -51q61 -12 95 -51q35 -41 35 -109v-22z" />
    <glyph glyph-name="four" unicode="4" horiz-adv-x="582" 
d="M318 149h-299v59l255 507h205v-448h81v-118h-81v-149h-161v149zM321 267v313l-147 -313h147z" />
    <glyph glyph-name="five" unicode="5" horiz-adv-x="543" 
d="M265 -11q-62 0 -104 16q-47 15 -74 43q-30 30 -44 68t-16 88h154q4 -41 21 -64t61 -23q39 0 59 27q18 27 18 77v28q0 106 -91 106q-38 0 -64 -14t-45 -35h-89l12 409h411v-128h-288l-4 -177q19 24 52 43q32 19 87 19q43 0 76 -13q32 -13 59 -41q26 -28 39 -69
q13 -40 13 -97v-35q0 -105 -63 -167q-64 -61 -180 -61z" />
    <glyph glyph-name="six" unicode="6" horiz-adv-x="573" 
d="M300 -11q-67 0 -118 20t-82 57q-32 37 -47 89q-16 51 -16 117v151q0 72 20 130q19 55 55 94t84 58q49 20 105 20q103 0 164 -47q59 -47 68 -147h-156q-5 32 -21 50q-17 17 -51 17q-49 0 -74 -40q-27 -42 -28 -121v-55q19 33 55 57q34 21 92 21q40 0 76 -12q37 -15 62 -38
q26 -26 41 -64t15 -88v-49q0 -105 -64 -162q-64 -58 -180 -58zM298 111q38 0 61 26q22 25 22 71v47q0 45 -21 70q-22 25 -63 25t-63 -25q-24 -25 -24 -73v-37q0 -53 24 -78q23 -26 64 -26z" />
    <glyph glyph-name="seven" unicode="7" horiz-adv-x="496" 
d="M281 578h-258v137h462v-18l-216 -697h-168z" />
    <glyph glyph-name="eight" unicode="8" horiz-adv-x="565" 
d="M282 -11q-54 0 -101 12t-79 37q-33 24 -51 62q-19 37 -19 87v32q0 61 30 102q29 42 86 61q-45 18 -69 53t-24 87v16q0 46 18 81q19 36 49 59q31 23 72 35q42 12 90 12t90 -12q40 -11 73 -35q30 -24 48 -59q17 -36 17 -80v-16q0 -54 -25 -88q-24 -33 -69 -53
q115 -39 115 -160v-31q0 -51 -18 -88q-20 -38 -52 -63q-34 -26 -79 -38q-45 -13 -102 -13zM284 429q34 0 55 21q20 20 20 60v20q0 38 -21 59q-22 20 -54 20t-54 -20q-22 -19 -22 -59v-20q0 -41 22 -60q22 -21 54 -21zM283 108q37 0 62 23q23 23 23 67v39q0 45 -23 68
q-23 22 -62 22q-38 0 -61 -22q-25 -22 -25 -69v-38q0 -44 24 -67q25 -23 62 -23z" />
    <glyph glyph-name="nine" unicode="9" horiz-adv-x="574" 
d="M276 -11q-109 0 -170 49q-63 49 -70 148h156q5 -37 23 -52q18 -18 56 -18q50 0 74 37q25 37 26 117v61q-20 -35 -53 -56t-90 -21q-43 0 -78 13q-38 12 -63 37q-27 26 -42 63q-16 36 -16 88v48q0 51 17 93q17 41 50 70q30 27 78 44q46 15 103 15q130 0 195 -74t65 -209
v-161q0 -145 -69 -218q-69 -74 -192 -74zM277 604q-41 0 -64 -27q-22 -26 -22 -71v-46q0 -44 21 -70q21 -25 63 -25q40 0 64 25q23 26 23 71v39q0 50 -23 78q-23 26 -62 26z" />
    <glyph glyph-name="colon" unicode=":" horiz-adv-x="265" 
d="M132 282q-38 0 -63 25q-25 24 -25 60q0 37 25 62t63 25q39 0 64 -25t25 -62q0 -36 -25 -60q-25 -25 -64 -25zM132 -8q-38 0 -63 25q-25 24 -25 60q0 37 25 62t63 25q39 0 64 -25t25 -62q0 -36 -25 -60q-25 -25 -64 -25z" />
    <glyph glyph-name="semicolon" unicode=";" horiz-adv-x="271" 
d="M145 282q-38 0 -62 25q-25 24 -25 60q0 37 25 62q24 25 62 25q39 0 64 -25q26 -26 26 -62t-26 -60q-25 -25 -64 -25zM8 -77l71 236l139 -48l-122 -221z" />
    <glyph glyph-name="less" unicode="&#x3c;" horiz-adv-x="457" 
d="M36 307v30l375 215v-137l-178 -93l178 -97v-133z" />
    <glyph glyph-name="equal" unicode="=" horiz-adv-x="487" 
d="M34 358v107h419v-107h-419zM34 180v106h419v-106h-419z" />
    <glyph glyph-name="greater" unicode="&#x3e;" horiz-adv-x="457" 
d="M45 229l178 92l-178 97v134l375 -215v-29l-375 -216v137z" />
    <glyph glyph-name="question" unicode="?" horiz-adv-x="484" 
d="M148 251q0 30 7 51q9 26 19 43q10 19 27 39q10 13 32 39q30 35 44 54q17 25 17 60q0 33 -14 49q-15 15 -44 15q-64 0 -71 -85h-146q3 104 63 156q61 53 163 53q101 0 155 -45q54 -46 54 -134q0 -53 -19 -87q-17 -31 -52 -73q-24 -26 -34 -36q-12 -12 -30 -34
q-13 -16 -21 -35q-8 -17 -10 -38v-25h-140v33zM218 -8q-39 0 -64 25q-26 24 -26 60t26 62q26 24 64 24q39 0 64 -24q26 -26 26 -62t-26 -60q-25 -25 -64 -25z" />
    <glyph glyph-name="at" unicode="@" horiz-adv-x="806" 
d="M404 -152q-89 0 -157 28q-71 29 -118 77t-73 118q-25 66 -25 148v72q0 89 30 162q29 71 83 125q54 53 122 80q69 28 150 28q80 0 146 -24q67 -24 114 -67q48 -45 73 -105q26 -63 26 -136v-73q0 -61 -15 -105q-15 -43 -40 -71q-24 -27 -58 -40q-32 -13 -67 -13
q-58 0 -88 21q-30 20 -41 57q-16 -33 -46 -57q-29 -22 -75 -22q-65 0 -103 45q-38 44 -36 123l3 50q2 51 14 85q14 39 35 64q24 28 52 40q30 14 64 14q43 0 65 -16q23 -17 33 -40l6 48h125l-29 -276q-7 -67 41 -67q37 0 62 37t25 124v73q0 63 -19 111q-19 49 -56 84
q-36 33 -90 53q-53 18 -120 18q-68 0 -125 -23q-58 -23 -98 -66q-41 -44 -63 -104q-23 -63 -23 -139v-70q0 -68 19 -122q18 -56 55 -96q37 -41 93 -64q57 -23 131 -23q84 0 137 25t84 61h82q-40 -67 -119 -110q-80 -42 -186 -42zM386 152q31 0 50 28t20 76l3 46q1 33 -12 52
q-15 19 -44 19q-30 0 -47 -26q-18 -27 -19 -73l-4 -50q-2 -34 11 -52q14 -20 42 -20z" />
    <glyph glyph-name="A" unicode="A" horiz-adv-x="616" 
d="M396 147h-195l-33 -147h-154l182 715h225l181 -715h-173zM228 264h141l-71 312z" />
    <glyph glyph-name="B" unicode="B" horiz-adv-x="583" 
d="M58 715h252q110 0 165 -45q56 -45 56 -132v-19q0 -59 -30 -95q-32 -36 -86 -51q63 -13 101 -51q37 -38 37 -113v-15q0 -100 -60 -146q-60 -48 -176 -48h-259v715zM285 424q49 0 69 19q20 20 20 64v17q0 44 -22 60t-68 16h-63v-176h64zM293 115q95 0 95 93v18q0 50 -23 71
q-23 20 -77 20h-67v-202h72z" />
    <glyph glyph-name="C" unicode="C" horiz-adv-x="631" 
d="M335 -11q-145 0 -222 80t-77 220v136q0 72 22 126q23 56 62 94q39 39 93 60q55 20 117 20q58 0 106 -13q46 -13 84 -43q36 -30 58 -76q20 -45 25 -110h-170q-4 58 -30 85q-26 26 -73 26q-56 0 -88 -42q-32 -43 -32 -124v-140q0 -166 123 -166q47 0 77 27q31 27 35 90h164
q-3 -65 -24 -111q-23 -47 -58 -78t-85 -46t-107 -15z" />
    <glyph glyph-name="D" unicode="D" horiz-adv-x="634" 
d="M284 715q157 0 236 -73q78 -73 78 -218v-128q0 -142 -78 -219q-80 -77 -236 -77h-226v715h226zM225 586v-457h54q78 0 112 40t34 127v125q0 87 -33 126q-34 39 -115 39h-52z" />
    <glyph glyph-name="E" unicode="E" horiz-adv-x="515" 
d="M58 715h413v-130h-247v-156h197v-121h-197v-178h261v-130h-427v715z" />
    <glyph glyph-name="F" unicode="F" horiz-adv-x="491" 
d="M58 715h408v-130h-241v-184h194v-125h-194v-276h-167v715z" />
    <glyph glyph-name="G" unicode="G" horiz-adv-x="656" 
d="M349 383h274v-122q0 -129 -72 -200q-72 -72 -213 -72q-74 0 -129 21q-58 21 -95 60q-38 38 -58 94q-20 57 -20 124v138q0 69 23 126q23 56 62 94q42 39 95 59q57 20 121 20q55 0 103 -12q49 -14 85 -41q37 -28 60 -74q21 -43 26 -109h-165q-4 57 -32 81q-29 24 -76 24
q-63 0 -96 -43q-34 -43 -34 -124v-142q0 -77 31 -121q30 -46 103 -46q63 0 90 34q28 34 29 90v28h-112v113z" />
    <glyph glyph-name="H" unicode="H" horiz-adv-x="651" 
d="M58 715h166v-286h202v286h166v-715h-166v296h-202v-296h-166v715z" />
    <glyph glyph-name="I" unicode="I" horiz-adv-x="292" 
d="M62 715h168v-715h-168v715z" />
    <glyph glyph-name="J" unicode="J" horiz-adv-x="397" 
d="M131 -8q-41 0 -65 6q-23 6 -41 14v127q16 -5 31 -8q15 -4 40 -4q38 0 61 20q22 19 22 71v497h167v-501q0 -112 -55 -167t-160 -55z" />
    <glyph glyph-name="K" unicode="K" horiz-adv-x="606" 
d="M58 715h167v-297l189 297h172l-218 -331l229 -384h-187l-185 319v-319h-167v715z" />
    <glyph glyph-name="L" unicode="L" horiz-adv-x="486" 
d="M58 715h167v-584h233v-131h-400v715z" />
    <glyph glyph-name="M" unicode="M" horiz-adv-x="781" 
d="M58 715h213l120 -400l119 400h213v-715h-165v477l-151 -477h-52l-150 477v-477h-147v715z" />
    <glyph glyph-name="N" unicode="N" horiz-adv-x="649" 
d="M58 715h189l195 -433v433h148v-715h-163l-220 482v-482h-149v715z" />
    <glyph glyph-name="O" unicode="O" horiz-adv-x="681" 
d="M339 -11q-69 0 -125 21t-95 60q-40 39 -61 94q-21 56 -21 123v139q0 68 23 125q22 53 64 94q40 39 96 60q57 20 121 20q69 0 123 -19q52 -18 95 -58q41 -38 63 -93q22 -54 22 -126v-138q0 -70 -21 -125q-23 -58 -62 -95q-40 -40 -96 -61q-55 -21 -126 -21zM341 122
q63 0 97 43t34 124v138q0 79 -34 122q-35 44 -97 44q-63 0 -97 -42q-35 -44 -35 -124v-139q0 -80 35 -123q34 -43 97 -43z" />
    <glyph glyph-name="P" unicode="P" horiz-adv-x="558" 
d="M58 715h228q126 0 188 -53q60 -52 60 -159v-30q0 -105 -62 -155q-63 -51 -181 -51h-67v-267h-166v715zM280 383q93 0 93 91v27q0 49 -23 69q-22 19 -70 19h-56v-206h56z" />
    <glyph glyph-name="Q" unicode="Q" horiz-adv-x="681" 
d="M339 -11q-69 0 -125 21t-95 60q-40 39 -61 94q-21 56 -21 123v139q0 68 23 125q22 53 64 94q40 39 96 60q57 20 121 20q69 0 123 -19q52 -18 95 -58q41 -38 63 -93q22 -54 22 -126v-138q0 -76 -26 -137q-25 -59 -74 -99l66 -72l-98 -93l-98 106q-32 -7 -75 -7zM209 285
q0 -65 22 -105q23 -40 63 -54l-10 10l103 88l54 -59q31 43 31 120v142q0 79 -34 122q-35 44 -97 44q-63 0 -97 -42q-35 -44 -35 -124v-142z" />
    <glyph glyph-name="R" unicode="R" horiz-adv-x="591" 
d="M58 715h234q124 0 189 -50q63 -51 63 -155v-26q0 -35 -8 -65q-9 -28 -24 -49t-35 -35q-21 -15 -46 -24l144 -311h-175l-126 281h-50v-281h-166v715zM286 392q48 0 72 21q24 20 24 68v24q0 45 -24 64q-23 19 -72 19h-62v-196h62z" />
    <glyph glyph-name="S" unicode="S" horiz-adv-x="561" 
d="M284 -11q-124 0 -189 56t-68 170h160q1 -51 23 -77q21 -26 74 -26q38 0 61 21q21 19 21 59q0 22 -6 37q-8 15 -21 27q-14 11 -35 20q-39 13 -53 17q-54 17 -93 36q-40 19 -66 45t-38 62q-13 35 -13 85q0 48 16 84q17 38 47 64q30 27 74 42q45 14 97 14q109 0 171 -50
q63 -52 67 -158h-156q-3 47 -24 66q-22 19 -59 19q-36 0 -55 -18q-19 -19 -19 -51q0 -16 5 -31q5 -14 17 -25q13 -11 33 -20q18 -8 52 -18q42 -11 90 -31q40 -16 70 -43q28 -25 45 -64q16 -36 16 -93q0 -101 -64 -159q-64 -60 -180 -60z" />
    <glyph glyph-name="T" unicode="T" horiz-adv-x="523" 
d="M177 585h-157v130h483v-130h-158l-1 -585h-167v585z" />
    <glyph glyph-name="U" unicode="U" horiz-adv-x="640" 
d="M585 715v-469q0 -131 -70 -194q-71 -63 -197 -63q-127 0 -194 64q-69 63 -69 191v471h167v-465q0 -68 22 -97q21 -31 75 -31q53 0 76 30q22 29 22 101v462h168z" />
    <glyph glyph-name="V" unicode="V" horiz-adv-x="603" 
d="M435 715h154l-187 -715h-200l-189 715h175l123 -536z" />
    <glyph glyph-name="W" unicode="W" horiz-adv-x="839" 
d="M15 715h168l80 -469l95 469h129l101 -472l82 472h154l-143 -715h-159l-98 446l-99 -446h-168z" />
    <glyph glyph-name="X" unicode="X" horiz-adv-x="625" 
d="M200 368l-169 347h186l101 -232l99 232h168l-160 -342l181 -373h-187l-116 262l-115 -262h-169z" />
    <glyph glyph-name="Y" unicode="Y" horiz-adv-x="569" 
d="M205 305l-197 410h181l107 -259l107 259h158l-188 -410v-305h-168v305z" />
    <glyph glyph-name="Z" unicode="Z" horiz-adv-x="522" 
d="M12 19l270 570h-236v126h458v-19l-269 -568h256v-128h-479v19z" />
    <glyph glyph-name="bracketleft" unicode="[" horiz-adv-x="347" 
d="M58 770h257v-109h-110v-695h110v-110h-257v914z" />
    <glyph glyph-name="backslash" unicode="\" horiz-adv-x="390" 
d="M408 -143h-121l-284 914h122z" />
    <glyph glyph-name="bracketright" unicode="]" horiz-adv-x="347" 
d="M32 -144v110h110v695h-110v109h257v-914h-257z" />
    <glyph glyph-name="asciicircum" unicode="^" horiz-adv-x="467" 
d="M166 715h136l142 -302h-132l-80 174l-79 -174h-130z" />
    <glyph glyph-name="underscore" unicode="_" horiz-adv-x="377" 
d="M-1 -74h379v-78h-379v78z" />
    <glyph glyph-name="grave" unicode="`" horiz-adv-x="400" 
d="M56 741h157l49 -158h-110z" />
    <glyph glyph-name="a" unicode="a" horiz-adv-x="499" 
d="M178 -10q-32 0 -59 9q-29 9 -48 28q-21 18 -33 47t-12 67v12q0 88 61 124q62 35 168 35h52v37q0 37 -12 58q-12 20 -49 20q-32 0 -46 -17q-16 -19 -17 -47h-141q4 88 61 130q58 41 150 41q97 0 149 -42q53 -44 53 -137v-355h-145v56q-5 -9 -19 -25q-12 -12 -27 -21
q-17 -9 -37 -15q-23 -5 -49 -5zM230 92q35 0 56 18t21 55v55h-46q-46 0 -66 -13q-22 -13 -22 -46v-11q0 -58 57 -58z" />
    <glyph glyph-name="b" unicode="b" horiz-adv-x="547" 
d="M196 750v-298q19 34 54 58q34 24 87 24q37 0 71 -14q32 -13 58 -42q25 -30 38 -70q14 -44 14 -98v-95q0 -54 -14 -98q-13 -42 -39 -71t-58 -42q-36 -14 -74 -14q-51 0 -85 22q-36 24 -52 58v-70h-149v750h149zM193 218q0 -58 23 -87t66 -29q85 0 85 112v96q0 59 -22 85
q-23 27 -63 27q-42 0 -65 -29q-24 -29 -24 -86v-89z" />
    <glyph glyph-name="c" unicode="c" horiz-adv-x="500" 
d="M259 -10q-48 0 -92 14q-43 13 -73 42q-32 29 -48 71q-18 42 -18 99v86q0 58 18 101t49 73q33 30 74 44q44 14 90 14q44 0 80 -10q40 -11 68 -32q29 -23 47 -60q18 -38 21 -91h-140q-3 43 -21 61q-20 17 -52 17q-40 0 -62 -27q-22 -28 -22 -85v-92q0 -115 87 -115
q31 0 54 21q22 19 24 68h134q-2 -98 -58 -148q-57 -51 -160 -51z" />
    <glyph glyph-name="d" unicode="d" horiz-adv-x="547" 
d="M500 0h-149v74q-17 -35 -53 -59q-35 -25 -88 -25q-40 0 -71 14q-34 14 -57 41q-25 30 -38 70q-14 42 -14 98v94q0 54 14 99q14 43 39 71q24 28 58 43q36 14 74 14q52 0 85 -21q33 -23 51 -57v294h149v-750zM353 307q0 116 -87 116q-86 0 -86 -114v-96q0 -57 22 -82
q22 -27 61 -27q42 0 66 29t24 85v89z" />
    <glyph glyph-name="e" unicode="e" horiz-adv-x="512" 
d="M264 -10q-52 0 -96 15q-42 13 -75 43q-31 28 -48 72q-17 43 -17 98v84q0 54 18 98q16 41 49 73q31 30 74 46q42 15 92 15q49 0 88 -13q42 -14 71 -40q31 -29 48 -71q17 -45 17 -104v-80h-309v-11q0 -65 24 -92t67 -27q37 0 57 18q17 16 22 49h140q-7 -85 -64 -129
q-58 -44 -158 -44zM262 432q-34 0 -58 -24q-25 -25 -28 -88h166v7q0 57 -21 81t-59 24z" />
    <glyph glyph-name="f" unicode="f" horiz-adv-x="335" 
d="M72 418h-58v105h58v65q0 85 47 126t129 41q18 0 40 -2q18 -3 29 -6v-111q-1 0 -7.5 1.5t-10.5 2.5q-14 2 -23 2q-28 0 -42 -15q-13 -14 -13 -41v-63h94v-105h-94v-418h-149v418z" />
    <glyph glyph-name="g" unicode="g" horiz-adv-x="547" 
d="M258 -188q-110 0 -166 44q-54 44 -62 122h147q5 -28 23 -43q17 -16 59 -16q48 0 70 25t22 72v81q-16 -34 -53 -57q-36 -24 -87 -24q-38 0 -72 14t-57 40q-25 26 -38 66q-14 40 -14 91v92q0 49 14 91q13 39 39 68q24 27 58 42q36 14 74 14q52 0 85 -21q33 -23 51 -57v67
h149v-504q0 -105 -63 -156q-65 -51 -179 -51zM264 123q42 0 66 28q23 28 23 78v88q0 51 -22 79q-22 27 -65 27q-41 0 -64 -26q-22 -26 -22 -78v-95q0 -50 22 -75q23 -26 62 -26z" />
    <glyph glyph-name="h" unicode="h" horiz-adv-x="531" 
d="M47 750h149v-301q18 35 54 61q36 24 91 24q65 0 106 -42q40 -41 40 -130v-362h-149v337q0 78 -65 78q-34 0 -55 -21q-22 -21 -22 -65v-329h-149v750z" />
    <glyph glyph-name="i" unicode="i" horiz-adv-x="249" 
d="M124 578q-35 0 -60 23q-24 23 -24 57t24 57q23 22 60 22q35 0 60 -22q24 -23 24 -57t-24 -57q-25 -23 -60 -23zM50 523h149v-523h-149v523z" />
    <glyph glyph-name="j" unicode="j" horiz-adv-x="248" 
d="M124 578q-35 0 -60 23q-24 23 -24 57t24 57q23 22 60 22q35 0 60 -22q24 -23 24 -57t-24 -57q-25 -23 -60 -23zM-15 -70q34 3 50 17q15 15 15 46v530h148v-533q0 -42 -10 -72t-36 -53q-25 -22 -65 -34q-41 -12 -102 -12v111z" />
    <glyph glyph-name="k" unicode="k" horiz-adv-x="496" 
d="M47 750h149v-443l131 216h153l-152 -238l162 -285h-164l-130 237v-237h-149v750z" />
    <glyph glyph-name="l" unicode="l" horiz-adv-x="250" 
d="M50 750h149v-750h-149v750z" />
    <glyph glyph-name="m" unicode="m" horiz-adv-x="794" 
d="M47 523h149v-72q16 34 52 59q34 24 86 24q91 0 123 -80q27 41 66 61q38 19 83 19q64 0 104 -42q40 -41 40 -129v-363h-149v341q0 74 -58 74q-31 0 -51 -20q-20 -22 -20 -62v-333h-147v341q0 38 -15 56q-16 18 -44 18q-30 0 -50 -20q-20 -22 -20 -62v-333h-149v523z" />
    <glyph glyph-name="n" unicode="n" horiz-adv-x="531" 
d="M47 523h149v-74q18 35 54 61q36 24 91 24q65 0 106 -42q40 -41 40 -130v-362h-149v337q0 78 -65 78q-34 0 -55 -21q-22 -21 -22 -65v-329h-149v523z" />
    <glyph glyph-name="o" unicode="o" horiz-adv-x="531" 
d="M265 -10q-51 0 -94 15t-75 44t-50 72q-18 42 -18 96v86q0 54 18 98q17 42 50 73q31 28 76 45q44 15 94 15q52 0 95 -15t75 -44q31 -29 49 -72q18 -44 18 -97v-86q0 -54 -18 -98q-18 -43 -50 -72t-75 -44q-42 -16 -95 -16zM266 101q42 0 65 30q22 28 22 85v92
q0 114 -87 114q-43 0 -65 -28q-23 -29 -23 -85v-92q0 -58 22 -86q22 -30 66 -30z" />
    <glyph glyph-name="p" unicode="p" horiz-adv-x="547" 
d="M196 523v-71q19 34 54 58q34 24 87 24q37 0 71 -14q32 -13 58 -42q25 -30 38 -70q14 -44 14 -98v-95q0 -54 -14 -98q-13 -42 -39 -71t-58 -42q-36 -14 -74 -14q-51 0 -85 22q-36 22 -52 56v-243h-149v698h149zM193 218q0 -58 23 -87t66 -29q85 0 85 112v96q0 59 -22 85
q-23 27 -63 27q-42 0 -65 -29q-24 -29 -24 -86v-89z" />
    <glyph glyph-name="q" unicode="q" horiz-adv-x="547" 
d="M500 -175h-149v247q-16 -32 -53 -57q-35 -25 -88 -25q-40 0 -71 14q-34 14 -57 41q-25 30 -38 70q-14 42 -14 98v94q0 54 14 99q14 43 39 71q24 28 58 43q36 14 74 14q52 0 85 -21q33 -23 51 -57v67h149v-698zM353 307q0 58 -22 87q-23 29 -65 29q-86 0 -86 -114v-95
q0 -58 22 -83q22 -27 61 -27q42 0 66 29t24 85v89z" />
    <glyph glyph-name="r" unicode="r" horiz-adv-x="364" 
d="M47 523h149v-91q21 52 57 74q35 23 89 23v-144q-69 1 -108 -22q-38 -24 -38 -81v-282h-149v523z" />
    <glyph glyph-name="s" unicode="s" horiz-adv-x="455" 
d="M229 -10q-99 0 -151 43q-55 44 -56 128h139q2 -35 17 -52q15 -18 50 -18q58 0 58 51q0 14 -6 24q-5 8 -18 16q-10 6 -30 13q-18 6 -42 12q-39 11 -72 26q-28 12 -50 34q-20 21 -29 46q-10 26 -10 64q0 39 15 69q16 30 41 49q23 17 61 29q33 10 75 10q41 0 78 -8
q37 -10 61 -28q24 -19 40 -50q15 -32 18 -75h-137q-6 61 -60 61q-27 0 -40 -12q-14 -14 -14 -34q0 -26 20 -37q18 -10 67 -24q42 -11 75 -24q36 -15 56 -32q21 -18 34 -47q12 -27 12 -66q0 -85 -53 -126q-52 -42 -149 -42z" />
    <glyph glyph-name="t" unicode="t" horiz-adv-x="339" 
d="M220 630v-107h92v-105h-92v-254q0 -53 49 -53q30 0 44 7v-114q-4 -2 -31 -8q-21 -3 -47 -3q-83 0 -124 38t-41 119v268h-56v105h56v107h150z" />
    <glyph glyph-name="u" unicode="u" horiz-adv-x="530" 
d="M483 0h-149v72q-19 -37 -52 -59q-34 -24 -89 -24q-34 0 -60 10q-30 13 -48 32q-21 22 -31 53q-11 33 -11 75v364h150v-342q0 -39 15 -58t48 -19q34 0 57 21q21 21 21 64v334h149v-523z" />
    <glyph glyph-name="v" unicode="v" horiz-adv-x="502" 
d="M9 523h158l93 -358l91 358h142l-158 -523h-167z" />
    <glyph glyph-name="w" unicode="w" horiz-adv-x="727" 
d="M10 523h155l66 -329l82 329h115l76 -329l72 329h140l-137 -523h-146l-70 302l-74 -302h-148z" />
    <glyph glyph-name="x" unicode="x" horiz-adv-x="507" 
d="M156 267l-136 256h167l73 -156l71 156h151l-137 -246l150 -277h-167l-82 173l-85 -173h-150z" />
    <glyph glyph-name="y" unicode="y" horiz-adv-x="502" 
d="M263 223l88 300h142l-237 -698h-144l74 220l-177 478h160z" />
    <glyph glyph-name="z" unicode="z" horiz-adv-x="434" 
d="M11 15l205 393h-182v115h387v-17l-209 -391h198v-115h-399v15z" />
    <glyph glyph-name="braceleft" unicode="{" horiz-adv-x="362" 
d="M26 369q56 2 78 26q21 25 14 62l-17 105q-19 111 40 161q59 48 189 48v-108q-53 -1 -74 -22q-20 -21 -12 -74l17 -118q8 -56 -19 -87q-29 -32 -79 -44q50 -13 79 -45q27 -32 19 -88l-17 -120q-7 -54 12 -76q20 -21 74 -23v-109q-130 0 -189 50q-58 49 -40 159l17 109
q7 37 -14 63q-22 23 -78 25v106z" />
    <glyph glyph-name="bar" unicode="|" horiz-adv-x="233" 
d="M63 771h108v-914h-108v914z" />
    <glyph glyph-name="braceright" unicode="}" horiz-adv-x="362" 
d="M335 263q-56 -2 -77 -25q-22 -26 -15 -63l18 -109q18 -110 -40 -159q-59 -50 -189 -50v109q54 2 74 23q19 22 12 76l-17 120q-8 56 19 88t79 45q-50 12 -78 44q-28 31 -20 87l17 118q8 53 -12 74q-21 21 -74 22v108q130 0 189 -48q59 -50 40 -161l-18 -105q-8 -38 15 -62
q20 -24 77 -26v-106z" />
    <glyph glyph-name="asciitilde" unicode="~" horiz-adv-x="447" 
d="M28 221q1 42 13 77q10 31 28 52q17 20 38 29t44 9t42 -6q23 -7 36 -13q6 -3 16 -7t14 -6q13 -6 25 -6q34 0 38 40h97q-1 -40 -13 -75q-10 -31 -28 -52q-16 -20 -38 -31q-20 -10 -43 -10t-43 6q-16 5 -36 14q-11 5 -29 13q-13 6 -26 6q-34 0 -38 -40h-97z" />
    <glyph glyph-name="uni00A0" unicode="&#xa0;" horiz-adv-x="168" 
 />
    <glyph glyph-name="exclamdown" unicode="&#xa1;" horiz-adv-x="285" 
d="M228 -117h-168l23 497h122zM144 606q20 0 36 -6q15 -7 28 -18q11 -11 19 -27q7 -14 7 -33q0 -35 -26 -61q-25 -25 -64 -25q-38 0 -63 25q-26 26 -26 61q0 19 7 33q8 16 19 27q13 11 28 18q16 6 35 6z" />
    <glyph glyph-name="cent" unicode="&#xa2;" horiz-adv-x="515" 
d="M241 -10q-51 5 -86 21q-38 16 -67 45q-28 28 -43 69q-16 39 -16 94v80q0 54 16 95q17 41 45 71q31 31 67 46q40 18 84 22v88h57v-88q40 -3 74 -15t60 -35t42 -57q15 -34 18 -83h-136q-3 35 -18 54q-16 19 -40 23v-322q28 6 46 27q18 20 20 61h131q-3 -87 -54 -138
q-50 -50 -143 -58v-113h-57v113zM175 219q0 -53 17 -82t49 -37v320q-31 -8 -48 -36q-18 -28 -18 -80v-85z" />
    <glyph glyph-name="sterling" unicode="&#xa3;" horiz-adv-x="564" 
d="M32 395h50q-5 19 -11 59q-5 33 -5 62v3q0 49 18 88q17 39 48 64q34 28 74 40q44 14 93 14q114 0 170 -56q55 -55 60 -154h-155q-4 41 -21 61q-16 19 -49 19q-32 0 -52 -20q-19 -20 -19 -62v-5q0 -26 3 -55q2 -30 6 -58h158v-97h-147l3 -36q1 -12 1 -37q0 -23 -3 -41
q-5 -21 -10 -35q11 -3 53 -16q26 -8 43 -8q26 0 39 12q15 13 16 40h146q-1 -36 -13 -74q-10 -33 -32 -58q-21 -26 -52 -39q-33 -14 -72 -14q-34 0 -59 7q-33 9 -50 16q-6 2 -21 7.5t-22 8.5q-18 7 -36 7q-19 0 -30 -11q-10 -11 -12 -27h-125q3 50 24 90q19 39 61 59
q5 16 8 32q2 24 2 42q0 32 -8 75h-72v97z" />
    <glyph glyph-name="yen" unicode="&#xa5;" horiz-adv-x="555" 
d="M58 245h139v48h-139v68h120l-165 354h180l96 -249l94 249h158l-157 -354h121v-68h-139v-48h139v-68h-139v-177h-169v177h-139v68z" />
    <glyph glyph-name="brokenbar" unicode="&#xa6;" horiz-adv-x="235" 
d="M63 771h107v-401h-107v401zM63 299h107v-442h-107v442z" />
    <glyph glyph-name="section" unicode="&#xa7;" horiz-adv-x="526" 
d="M261 -122q-98 0 -148 43q-51 43 -54 125h139q1 -30 16 -48q14 -15 44 -15q54 0 54 52v1q0 26 -24 42q-22 15 -83 37q-36 13 -76 32q-38 18 -59 38q-23 22 -37 51q-13 27 -13 66v1q0 48 29 83q29 34 77 47q-25 22 -39 52t-14 71v1q0 39 15 70q12 28 40 52q24 21 62 34
q38 11 79 11q91 0 140 -43q48 -43 51 -124h-138q-1 29 -14 45q-12 15 -41 15q-27 0 -40 -13q-14 -14 -14 -36q0 -27 22 -43q20 -15 79 -35q47 -16 78 -31q36 -17 60 -37q26 -22 39 -51q13 -27 13 -69v-2q0 -44 -27 -79q-29 -35 -77 -51q28 -22 42 -51q12 -28 12 -70v-2
q0 -77 -51 -124q-51 -45 -142 -45zM309 223q28 7 40 21t12 34v1q0 27 -24 44q-26 17 -73 36q-3 1 -24 10q-5 2 -13.5 6t-9.5 4q-54 -12 -54 -55q0 -26 24 -43q25 -19 75 -38z" />
    <glyph glyph-name="dieresis" unicode="&#xa8;" horiz-adv-x="400" 
d="M104 582q-32 0 -54 22q-22 21 -22 52q0 32 22 54q22 21 54 21t54 -21q22 -22 22 -54q0 -31 -22 -52q-22 -22 -54 -22zM296 582q-32 0 -54 22q-22 21 -22 52q0 32 22 54q22 21 54 21t55 -21q22 -22 22 -54q0 -31 -22 -52q-22 -22 -55 -22z" />
    <glyph glyph-name="copyright" unicode="&#xa9;" horiz-adv-x="759" 
d="M379 19q-71 0 -135 26q-61 24 -110 73q-48 48 -74 109q-27 63 -27 137q0 73 27 136t74 110q46 46 110 73q63 27 137 27q73 0 137 -26q65 -28 110 -73q46 -46 72 -110t26 -136q0 -74 -27 -137t-73 -109q-48 -48 -110 -73q-64 -27 -137 -27zM379 66q62 0 113 22
q52 22 92 61q40 40 62 94q23 57 23 122q0 68 -22 122t-62 94q-38 38 -91 61q-52 21 -113 21q-63 0 -115 -21q-54 -23 -92 -61q-39 -40 -61 -95q-23 -57 -23 -122q0 -67 23 -122q22 -55 63 -94q39 -39 92 -60q51 -22 111 -22zM384 166q-91 0 -135 47q-45 47 -45 128v47
q0 42 13 74q14 35 37 56q21 21 56 34q31 12 71 12q69 0 113 -32q43 -33 48 -107h-108q-6 54 -53 54q-64 0 -64 -87v-53q0 -87 65 -87q27 0 41 13q15 14 18 43h104q-3 -72 -46 -106q-43 -36 -115 -36z" />
    <glyph glyph-name="ordfeminine" unicode="&#xaa;" horiz-adv-x="420" 
d="M149 289q-27 0 -48 7q-25 8 -40 22q-17 15 -27 39q-10 21 -10 56v5q0 70 49 101q48 30 137 30h43v24q0 27 -9 40q-9 14 -35 14q-24 0 -34 -13q-12 -15 -13 -32v-2h-126v1q4 68 51 106q46 37 128 37q83 0 127 -36t44 -111v-279h-131v46q-11 -21 -35 -38q-26 -17 -71 -17z
M197 381q25 0 41 13q15 14 15 40v38h-36q-31 0 -46 -9q-15 -11 -15 -34v-7q0 -41 41 -41z" />
    <glyph glyph-name="guillemotleft" unicode="&#xab;" horiz-adv-x="435" 
d="M31 261l108 180h103l-104 -180l104 -180h-103zM194 261l108 180h103l-104 -180l104 -180h-103z" />
    <glyph glyph-name="registered" unicode="&#xae;" horiz-adv-x="470" 
d="M235 315q-45 0 -81 16q-38 15 -66 43q-26 25 -44 65q-16 36 -16 82q0 45 16 81q17 39 44 66q28 26 66 43q36 16 82 16t82 -16q38 -17 66 -43q26 -28 43 -66q16 -36 16 -81t-16 -81q-17 -39 -44 -66q-28 -28 -66 -43q-36 -16 -82 -16zM235 352q37 0 67 13q32 13 53 34
q22 22 35 53q12 32 12 69t-12 69q-14 33 -35 54q-22 22 -52 34q-31 12 -67 12q-37 0 -67 -12q-32 -14 -53 -35q-24 -24 -35 -53q-13 -30 -13 -69t13 -69q13 -32 36 -54q22 -22 53 -34q30 -12 65 -12zM159 629h79q80 0 80 -65v-4q0 -20 -8 -33q-8 -12 -24 -20l43 -89h-62
l-35 77h-13v-77h-60v211zM235 535q24 0 24 23v4q0 12 -5 17q-5 4 -19 4h-16v-48h16z" />
    <glyph glyph-name="macron" unicode="&#xaf;" horiz-adv-x="400" 
d="M63 698h273v-91h-273v91z" />
    <glyph glyph-name="degree" unicode="&#xb0;" horiz-adv-x="399" 
d="M200 417q-33 0 -62 12t-50 33t-33 49q-13 26 -13 58q0 34 13 61q12 28 33 49t50 33q28 12 62 12t62 -12t49 -33t34 -49q12 -28 12 -61q0 -31 -12 -58q-13 -29 -34 -49q-21 -21 -49 -33t-62 -12zM200 482q35 0 57 25t22 62q0 39 -22 64t-57 25q-36 0 -58 -25
q-23 -26 -23 -64q0 -36 23 -62q22 -25 58 -25z" />
    <glyph glyph-name="plusminus" unicode="&#xb1;" horiz-adv-x="496" 
d="M186 328h-153v111h153v150h123v-150h154v-111h-154v-150h-123v150zM33 121h432v-104h-432v104z" />
    <glyph glyph-name="twosuperior" unicode="&#xb2;" horiz-adv-x="318" 
d="M5 351l114 132q30 35 48 62q16 25 16 52v5q0 35 -31 35q-16 0 -25 -12q-11 -12 -12 -39v-2h-104v1q1 67 41 102q37 34 106 34q70 0 104 -31q33 -32 33 -82v-3q0 -41 -20 -73q-21 -33 -52 -67l-39 -46h113v-83h-292v15z" />
    <glyph glyph-name="threesuperior" unicode="&#xb3;" horiz-adv-x="334" 
d="M166 329q-78 0 -112 34q-36 34 -37 90v2h101v-2q2 -20 12 -32q9 -12 29 -12q38 0 38 39v7q0 21 -10 31t-36 10h-24v67h24q46 0 46 38v5q0 35 -33 35q-34 0 -39 -41v-2h-101v2q3 53 39 88q34 33 104 33q63 0 101 -26q36 -27 36 -77v-5q0 -63 -64 -79q32 -5 52 -26
q19 -22 19 -55v-9q0 -52 -36 -83q-38 -32 -109 -32z" />
    <glyph glyph-name="acute" unicode="&#xb4;" horiz-adv-x="400" 
d="M185 741h156l-95 -158h-109z" />
    <glyph glyph-name="paragraph" unicode="&#xb6;" horiz-adv-x="505" 
d="M233 356h-6q-89 0 -145 44t-56 133q0 47 15 81t42 57t64 33q38 11 80 11h218v-803h-75v740h-63v-740h-74v444z" />
    <glyph glyph-name="periodcentered" unicode="&#xb7;" horiz-adv-x="263" 
d="M131 239q-39 0 -64 25q-26 26 -26 62q0 20 7 35q8 17 19 28t29 19q15 7 35 7q21 0 36 -7q17 -8 28 -19t19 -28q7 -15 7 -35q0 -36 -26 -62q-25 -25 -64 -25z" />
    <glyph glyph-name="cedilla" unicode="&#xb8;" horiz-adv-x="400" 
d="M206 -216q-50 0 -81 23q-31 22 -36 65h77q2 -10 10 -19q8 -8 23 -8q14 0 24 8q8 8 8 21q0 14 -8 22q-9 9 -24 9q-11 0 -18 -4q-8 -3 -12 -7l-36 35l45 71h65l-28 -44q23 2 38 -2q18 -3 32 -14t23 -27q8 -18 8 -39q0 -44 -30 -67q-32 -23 -80 -23z" />
    <glyph glyph-name="onesuperior" unicode="&#xb9;" horiz-adv-x="256" 
d="M94 602l-74 -46v95l90 64h98v-379h-114v266z" />
    <glyph glyph-name="ordmasculine" unicode="&#xba;" horiz-adv-x="455" 
d="M227 289q-44 0 -79 13q-37 12 -64 36t-42 60q-15 34 -15 81v51q0 46 15 82q15 35 42 61q26 24 64 38q35 13 80 13q44 0 80 -13q37 -14 63 -37q27 -26 42 -60q15 -36 15 -81v-51q0 -46 -15 -82t-42 -60q-26 -24 -64 -38q-36 -13 -80 -13zM228 389q64 0 64 88v59
q0 87 -64 87q-65 0 -65 -87v-58q0 -89 65 -89z" />
    <glyph glyph-name="guillemotright" unicode="&#xbb;" horiz-adv-x="435" 
d="M135 261l-106 180h104l108 -180l-108 -180h-104zM297 261l-105 180h104l108 -180l-108 -180h-104z" />
    <glyph glyph-name="onequarter" unicode="&#xbc;" horiz-adv-x="724" 
d="M97 602l-74 -47v96l89 64h100v-383h-115v270zM566 715h84l-513 -715h-85zM548 76h-170v39l143 268h137v-230h44v-77h-44v-76h-110v76zM551 153v150l-74 -150h74z" />
    <glyph glyph-name="onehalf" unicode="&#xbd;" horiz-adv-x="743" 
d="M561 715h84l-513 -715h-85zM97 602l-74 -47v96l89 64h100v-383h-115v270zM426 14l114 135q32 36 48 63q17 26 17 52v4q0 36 -31 36q-17 0 -26 -12q-10 -14 -12 -42h-104q2 69 41 104q38 35 106 35q70 0 104 -31q33 -32 33 -83v-4q0 -41 -20 -73q-23 -36 -52 -68l-41 -47
h115v-83h-292v14z" />
    <glyph glyph-name="threequarters" unicode="&#xbe;" horiz-adv-x="760" 
d="M169 326q-77 0 -112 33q-36 34 -37 93h101q3 -46 41 -46t38 39v9q0 20 -10 30q-10 9 -36 9h-24v68h24q46 0 46 39v4q0 37 -33 37q-17 0 -27 -10t-12 -34h-101q3 56 39 91q35 33 104 33q64 0 101 -26q36 -27 36 -77v-6q0 -63 -64 -79q33 -6 52 -27q19 -22 19 -57v-8
q0 -53 -36 -84q-37 -31 -109 -31zM615 715h84l-513 -715h-85zM583 76h-170v39l143 268h137v-230h44v-77h-44v-76h-110v76zM586 153v150l-74 -150h74z" />
    <glyph glyph-name="questiondown" unicode="&#xbf;" horiz-adv-x="484" 
d="M338 348q0 -30 -7 -51q-8 -25 -18 -43q-12 -20 -27 -39l-33 -39q-31 -36 -43 -54q-18 -24 -18 -60q0 -34 15 -49q13 -15 43 -15q64 0 71 85h146q-3 -103 -63 -156q-61 -53 -163 -53t-155 46q-54 45 -54 133q0 51 20 88q20 35 51 72q12 13 35 36q6 6 29 34q12 14 22 35
q7 18 9 38v25h140v-33zM268 607q38 0 64 -24q26 -26 26 -61q0 -37 -26 -61q-25 -25 -64 -25t-64 25q-26 24 -26 61q0 35 26 61q26 24 64 24z" />
    <glyph glyph-name="Agrave" unicode="&#xc0;" horiz-adv-x="616" 
d="M396 147h-195l-33 -147h-154l182 715h225l181 -715h-173zM228 264h141l-71 312zM168 896h160l44 -138h-114z" />
    <glyph glyph-name="Aacute" unicode="&#xc1;" horiz-adv-x="616" 
d="M396 147h-195l-33 -147h-154l182 715h225l181 -715h-173zM228 264h141l-71 312zM289 896h160l-92 -138h-114z" />
    <glyph glyph-name="Acircumflex" unicode="&#xc2;" horiz-adv-x="616" 
d="M396 147h-195l-33 -147h-154l182 715h225l181 -715h-173zM228 264h141l-71 312zM244 896h128l98 -138h-107l-57 49l-58 -49h-104z" />
    <glyph glyph-name="Atilde" unicode="&#xc3;" horiz-adv-x="616" 
d="M396 147h-195l-33 -147h-154l182 715h225l181 -715h-173zM228 264h141l-71 312zM365 758q-16 0 -33 5q-11 3 -29 11q-4 2 -12 5.5t-12 5.5q-13 5 -22 5q-12 0 -19 -9q-8 -10 -11 -23h-86q5 70 36 105q30 34 71 34q16 0 34 -5q6 -2 16 -5.5t13 -4.5q23 -10 25 -11
q12 -5 22 -5q23 0 29 32h86q-4 -71 -36 -106q-31 -34 -72 -34z" />
    <glyph glyph-name="Adieresis" unicode="&#xc4;" horiz-adv-x="616" 
d="M396 147h-195l-33 -147h-154l182 715h225l181 -715h-173zM228 264h141l-71 312zM207 760q-31 0 -53 21t-22 52t22 52t53 21t54 -21q22 -21 22 -52t-22 -52q-23 -21 -54 -21zM406 760q-31 0 -52 21q-22 21 -22 52t22 52q21 21 52 21q32 0 54 -21t22 -52t-22 -52t-54 -21z
" />
    <glyph glyph-name="Aring" unicode="&#xc5;" horiz-adv-x="616" 
d="M396 147h-195l-33 -147h-154l182 715h225l181 -715h-173zM228 264h141l-71 312zM307 744q-22 0 -43 8q-20 8 -34 23q-16 14 -23 33q-9 19 -9 41q0 21 9 41q7 19 23 33q14 14 34 23q21 8 43 8t43 -8q19 -9 35 -23q14 -14 23 -33q8 -21 8 -41t-8 -41q-9 -19 -23 -33
q-15 -15 -35 -23q-21 -8 -43 -8zM307 802q19 0 31 14t12 33q0 21 -12 34t-31 13q-21 0 -31 -13q-12 -13 -12 -34q0 -19 12 -33q11 -14 31 -14z" />
    <glyph glyph-name="AE" unicode="&#xc6;" horiz-adv-x="833" 
d="M266 715h525v-130h-238v-156h188v-121h-188v-178h251v-130h-417v155h-166l-52 -155h-157zM260 269h127v316h-21z" />
    <glyph glyph-name="Ccedilla" unicode="&#xc7;" horiz-adv-x="631" 
d="M335 -11q-145 0 -222 80t-77 220v136q0 72 22 126q23 56 62 94q39 39 93 60q55 20 117 20q58 0 106 -13q46 -13 84 -43q36 -30 58 -76q20 -45 25 -110h-170q-4 58 -30 85q-26 26 -73 26q-56 0 -88 -42q-32 -43 -32 -124v-140q0 -166 123 -166q47 0 77 27q31 27 35 90h164
q-3 -65 -24 -111q-23 -47 -58 -78t-85 -46t-107 -15zM321 -216q-50 0 -81 23q-31 22 -36 65h77q1 -10 10 -19q8 -8 23 -8q14 0 24 8q8 8 8 21q0 14 -8 22q-9 9 -24 9q-11 0 -18 -4q-8 -3 -12 -7l-36 35l45 71h65l-28 -44q23 2 38 -2q18 -3 32 -14t23 -27q8 -18 8 -39
q0 -44 -30 -67q-32 -23 -80 -23z" />
    <glyph glyph-name="Egrave" unicode="&#xc8;" horiz-adv-x="515" 
d="M128 896h160l44 -138h-114zM58 715h413v-130h-247v-156h197v-121h-197v-178h261v-130h-427v715z" />
    <glyph glyph-name="Eacute" unicode="&#xc9;" horiz-adv-x="515" 
d="M250 896h160l-92 -138h-114zM58 715h413v-130h-247v-156h197v-121h-197v-178h261v-130h-427v715z" />
    <glyph glyph-name="Ecircumflex" unicode="&#xca;" horiz-adv-x="515" 
d="M205 896h128l98 -138h-107l-57 49l-58 -49h-104zM58 715h413v-130h-247v-156h197v-121h-197v-178h261v-130h-427v715z" />
    <glyph glyph-name="Edieresis" unicode="&#xcb;" horiz-adv-x="515" 
d="M58 715h413v-130h-247v-156h197v-121h-197v-178h261v-130h-427v715zM168 760q-31 0 -53 21t-22 52t22 52q23 21 53 21q32 0 54 -21t22 -52t-22 -52t-54 -21zM367 760q-31 0 -52 21q-22 21 -22 52t22 52q21 21 52 21t54 -21q22 -21 22 -52t-22 -52q-23 -21 -54 -21z" />
    <glyph glyph-name="Igrave" unicode="&#xcc;" horiz-adv-x="292" 
d="M62 715h168v-715h-168v715zM6 896h160l44 -138h-114z" />
    <glyph glyph-name="Iacute" unicode="&#xcd;" horiz-adv-x="292" 
d="M62 715h168v-715h-168v715zM128 896h160l-92 -138h-114z" />
    <glyph glyph-name="Icircumflex" unicode="&#xce;" horiz-adv-x="292" 
d="M62 715h168v-715h-168v715zM83 896h128l98 -138h-107l-57 49l-58 -49h-104z" />
    <glyph glyph-name="Idieresis" unicode="&#xcf;" horiz-adv-x="292" 
d="M62 715h168v-715h-168v715zM46 760q-30 0 -53 21q-22 21 -22 52t22 52q23 21 53 21q32 0 54 -21t22 -52t-22 -52t-54 -21zM245 760q-31 0 -52 21q-22 21 -22 52t22 52q21 21 52 21t54 -21q22 -21 22 -52t-22 -52q-23 -21 -54 -21z" />
    <glyph glyph-name="Eth" unicode="&#xd0;" horiz-adv-x="653" 
d="M75 303h-51v119h51v293h224q159 0 239 -74q79 -75 79 -221v-120q0 -147 -79 -223q-80 -77 -238 -77h-225v303zM294 131q79 0 114 41t35 127v118q0 90 -34 128q-35 39 -116 39h-51v-162h107v-119h-107v-172h52z" />
    <glyph glyph-name="Ntilde" unicode="&#xd1;" horiz-adv-x="649" 
d="M396 758q-16 0 -33 5q-11 3 -29 11q-4 2 -12 5.5t-12 5.5q-13 5 -22 5q-12 0 -19 -9q-8 -10 -11 -23h-86q4 70 36 105q30 34 71 34q16 0 34 -5q6 -2 16 -5.5t13 -4.5q23 -10 25 -11q12 -5 22 -5q23 0 29 32h86q-4 -71 -36 -106q-31 -34 -72 -34zM58 715h189l195 -433v433
h148v-715h-163l-220 482v-482h-149v715z" />
    <glyph glyph-name="Ograve" unicode="&#xd2;" horiz-adv-x="681" 
d="M200 896h160l44 -138h-114zM339 -11q-69 0 -125 21t-95 60q-40 39 -61 94q-21 56 -21 123v139q0 68 23 125q22 53 64 94q40 39 96 60q57 20 121 20q69 0 123 -19q52 -18 95 -58q41 -38 63 -93q22 -54 22 -126v-138q0 -70 -21 -125q-23 -58 -62 -95q-40 -40 -96 -61
q-55 -21 -126 -21zM341 122q63 0 97 43t34 124v138q0 79 -34 122q-35 44 -97 44q-63 0 -97 -42q-35 -44 -35 -124v-139q0 -80 35 -123q34 -43 97 -43z" />
    <glyph glyph-name="Oacute" unicode="&#xd3;" horiz-adv-x="681" 
d="M321 896h160l-92 -138h-114zM339 -11q-69 0 -125 21t-95 60q-40 39 -61 94q-21 56 -21 123v139q0 68 23 125q22 53 64 94q40 39 96 60q57 20 121 20q69 0 123 -19q52 -18 95 -58q41 -38 63 -93q22 -54 22 -126v-138q0 -70 -21 -125q-23 -58 -62 -95q-40 -40 -96 -61
q-55 -21 -126 -21zM341 122q63 0 97 43t34 124v138q0 79 -34 122q-35 44 -97 44q-63 0 -97 -42q-35 -44 -35 -124v-139q0 -80 35 -123q34 -43 97 -43z" />
    <glyph glyph-name="Ocircumflex" unicode="&#xd4;" horiz-adv-x="681" 
d="M277 896h128l98 -138h-107l-57 49l-58 -49h-104zM339 -11q-69 0 -125 21t-95 60q-40 39 -61 94q-21 56 -21 123v139q0 68 23 125q22 53 64 94q40 39 96 60q57 20 121 20q69 0 123 -19q52 -18 95 -58q41 -38 63 -93q22 -54 22 -126v-138q0 -70 -21 -125q-23 -58 -62 -95
q-40 -40 -96 -61q-55 -21 -126 -21zM341 122q63 0 97 43t34 124v138q0 79 -34 122q-35 44 -97 44q-63 0 -97 -42q-35 -44 -35 -124v-139q0 -80 35 -123q34 -43 97 -43z" />
    <glyph glyph-name="Otilde" unicode="&#xd5;" horiz-adv-x="681" 
d="M398 758q-16 0 -33 5q-11 3 -29 11q-4 2 -12 5.5t-12 5.5q-13 5 -22 5q-12 0 -19 -9q-8 -10 -11 -23h-86q4 70 36 105q30 34 71 34q16 0 34 -5q6 -2 16 -5.5t13 -4.5q23 -10 25 -11q12 -5 22 -5q23 0 29 32h86q-4 -71 -36 -106q-31 -34 -72 -34zM339 -11q-69 0 -125 21
t-95 60q-40 39 -61 94q-21 56 -21 123v139q0 68 23 125q22 53 64 94q40 39 96 60q57 20 121 20q69 0 123 -19q52 -18 95 -58q41 -38 63 -93q22 -54 22 -126v-138q0 -70 -21 -125q-23 -58 -62 -95q-40 -40 -96 -61q-55 -21 -126 -21zM341 122q63 0 97 43t34 124v138
q0 79 -34 122q-35 44 -97 44q-63 0 -97 -42q-35 -44 -35 -124v-139q0 -80 35 -123q34 -43 97 -43z" />
    <glyph glyph-name="Odieresis" unicode="&#xd6;" horiz-adv-x="681" 
d="M239 760q-31 0 -53 21t-22 52t22 52q23 21 53 21q31 0 54 -21q22 -21 22 -52t-22 -52q-23 -21 -54 -21zM438 760q-31 0 -52 21q-22 21 -22 52t22 52q21 21 52 21q32 0 54 -21t22 -52t-22 -52t-54 -21zM339 -11q-69 0 -125 21t-95 60q-40 39 -61 94q-21 56 -21 123v139
q0 68 23 125q22 53 64 94q40 39 96 60q57 20 121 20q69 0 123 -19q52 -18 95 -58q41 -38 63 -93q22 -54 22 -126v-138q0 -70 -21 -125q-23 -58 -62 -95q-40 -40 -96 -61q-55 -21 -126 -21zM341 122q63 0 97 43t34 124v138q0 79 -34 122q-35 44 -97 44q-63 0 -97 -42
q-35 -44 -35 -124v-139q0 -80 35 -123q34 -43 97 -43z" />
    <glyph glyph-name="multiply" unicode="&#xd7;" horiz-adv-x="481" 
d="M32 199l131 135l-133 136l81 79l129 -134l129 132l80 -78l-131 -135l133 -136l-81 -78l-130 134l-128 -132z" />
    <glyph glyph-name="Oslash" unicode="&#xd8;" horiz-adv-x="680" 
d="M27 10l66 85q-29 37 -45 87q-16 48 -16 109v132q0 69 24 125q22 54 64 96q40 39 98 60q55 21 122 21q118 0 198 -59l54 70l48 -39l-57 -73q33 -39 49 -87q17 -51 17 -111v-131q0 -72 -22 -126q-22 -56 -63 -97q-39 -39 -98 -61q-56 -22 -127 -22q-63 0 -112 16
q-52 17 -90 46l-62 -80zM202 288q0 -31 4 -48l239 307q-36 47 -105 47q-65 0 -101 -44q-37 -44 -37 -126v-136zM342 121q63 0 100 46q36 45 36 126v137q0 24 -5 52l-240 -308q36 -53 109 -53z" />
    <glyph glyph-name="Ugrave" unicode="&#xd9;" horiz-adv-x="640" 
d="M176 896h160l44 -138h-114zM585 715v-469q0 -131 -70 -194q-71 -63 -197 -63q-127 0 -194 64q-69 63 -69 191v471h167v-465q0 -68 22 -97q21 -31 75 -31q53 0 76 30q22 29 22 101v462h168z" />
    <glyph glyph-name="Uacute" unicode="&#xda;" horiz-adv-x="640" 
d="M299 896h160l-92 -138h-114zM585 715v-469q0 -131 -70 -194q-71 -63 -197 -63q-127 0 -194 64q-69 63 -69 191v471h167v-465q0 -68 22 -97q21 -31 75 -31q53 0 76 30q22 29 22 101v462h168z" />
    <glyph glyph-name="Ucircumflex" unicode="&#xdb;" horiz-adv-x="640" 
d="M253 896h128l98 -138h-107l-57 49l-58 -49h-104zM585 715v-469q0 -131 -70 -194q-71 -63 -197 -63q-127 0 -194 64q-69 63 -69 191v471h167v-465q0 -68 22 -97q21 -31 75 -31q53 0 76 30q22 29 22 101v462h168z" />
    <glyph glyph-name="Udieresis" unicode="&#xdc;" horiz-adv-x="640" 
d="M585 715v-469q0 -131 -70 -194q-71 -63 -197 -63q-127 0 -194 64q-69 63 -69 191v471h167v-465q0 -68 22 -97q21 -31 75 -31q53 0 76 30q22 29 22 101v462h168zM216 760q-30 0 -53 21q-22 21 -22 52t22 52q23 21 53 21q32 0 54 -21t22 -52t-22 -52t-54 -21zM415 760
q-31 0 -52 21q-22 21 -22 52t22 52q21 21 52 21t54 -21q22 -21 22 -52t-22 -52q-23 -21 -54 -21z" />
    <glyph glyph-name="Yacute" unicode="&#xdd;" horiz-adv-x="569" 
d="M205 305l-197 410h181l107 -259l107 259h158l-188 -410v-305h-168v305zM272 896h160l-92 -138h-114z" />
    <glyph glyph-name="Thorn" unicode="&#xde;" horiz-adv-x="562" 
d="M59 715h168v-127h61q128 0 190 -50q60 -51 60 -157v-24q0 -106 -63 -155q-63 -51 -181 -51h-67v-151h-168v715zM283 268q47 0 70 22q23 21 23 68v21q0 47 -24 67q-23 19 -69 19h-56v-197h56z" />
    <glyph glyph-name="germandbls" unicode="&#xdf;" horiz-adv-x="547" 
d="M320 -7q-23 0 -44 3q-20 3 -31 6v112q1 0 8 -1.5t11 -2.5q14 -2 22 -2q15 0 32 5q16 5 27 16q10 12 18 32q6 19 6 51v59q0 67 -32 93q-30 25 -86 23v107q47 -2 67 23t20 62v4q0 78 -70 78q-32 0 -51 -22t-19 -64v-575h-151v566q0 52 18 90q17 35 50 62q32 24 73 36
q42 11 88 11q96 0 151 -45t55 -133v-4q0 -52 -28 -86q-29 -36 -77 -50q31 -7 58 -21q27 -16 46 -38t30 -55q11 -35 11 -75v-52q0 -53 -14 -95q-15 -40 -41 -66q-27 -27 -64 -39q-36 -13 -83 -13z" />
    <glyph glyph-name="agrave" unicode="&#xe0;" horiz-adv-x="499" 
d="M178 -10q-32 0 -59 9q-29 9 -48 28q-21 18 -33 47t-12 67v12q0 88 61 124q62 35 168 35h52v37q0 37 -12 58q-12 20 -49 20q-32 0 -46 -17q-16 -19 -17 -47h-141q4 88 61 130q58 41 150 41q97 0 149 -42q53 -44 53 -137v-355h-145v56q-5 -9 -19 -25q-12 -12 -27 -21
q-17 -9 -37 -15q-23 -5 -49 -5zM230 92q35 0 56 18t21 55v55h-46q-46 0 -66 -13q-22 -13 -22 -46v-11q0 -58 57 -58zM103 741h157l49 -158h-110z" />
    <glyph glyph-name="aacute" unicode="&#xe1;" horiz-adv-x="499" 
d="M178 -10q-32 0 -59 9q-29 9 -48 28q-21 18 -33 47t-12 67v12q0 88 61 124q62 35 168 35h52v37q0 37 -12 58q-12 20 -49 20q-32 0 -46 -17q-16 -19 -17 -47h-141q4 88 61 130q58 41 150 41q97 0 149 -42q53 -44 53 -137v-355h-145v56q-5 -9 -19 -25q-12 -12 -27 -21
q-17 -9 -37 -15q-23 -5 -49 -5zM230 92q35 0 56 18t21 55v55h-46q-46 0 -66 -13q-22 -13 -22 -46v-11q0 -58 57 -58zM238 741h156l-95 -158h-109z" />
    <glyph glyph-name="acircumflex" unicode="&#xe2;" horiz-adv-x="499" 
d="M178 -10q-32 0 -59 9q-29 9 -48 28q-21 18 -33 47t-12 67v12q0 88 61 124q62 35 168 35h52v37q0 37 -12 58q-12 20 -49 20q-32 0 -46 -17q-16 -19 -17 -47h-141q4 88 61 130q58 41 150 41q97 0 149 -42q53 -44 53 -137v-355h-145v56q-5 -9 -19 -25q-12 -12 -27 -21
q-17 -9 -37 -15q-23 -5 -49 -5zM230 92q35 0 56 18t21 55v55h-46q-46 0 -66 -13q-22 -13 -22 -46v-11q0 -58 57 -58zM191 740h115l101 -156h-104l-57 59l-58 -59h-102z" />
    <glyph glyph-name="atilde" unicode="&#xe3;" horiz-adv-x="499" 
d="M178 -10q-32 0 -59 9q-29 9 -48 28q-21 18 -33 47t-12 67v12q0 88 61 124q62 35 168 35h52v37q0 37 -12 58q-12 20 -49 20q-32 0 -46 -17q-16 -19 -17 -47h-141q4 88 61 130q58 41 150 41q97 0 149 -42q53 -44 53 -137v-355h-145v56q-5 -9 -19 -25q-12 -12 -27 -21
q-17 -9 -37 -15q-23 -5 -49 -5zM230 92q35 0 56 18t21 55v55h-46q-46 0 -66 -13q-22 -13 -22 -46v-11q0 -58 57 -58zM304 588q-16 0 -33 5q-12 4 -27 11l-22 11q-12 5 -21 5q-11 0 -19 -9q-9 -10 -10 -24h-83q5 74 32 107q27 35 69 35q16 0 33 -5q9 -3 27 -11q4 -2 12 -5.5
t12 -5.5q12 -5 22 -5q12 0 19 9q7 8 10 24h83q-4 -71 -34 -107q-30 -35 -70 -35z" />
    <glyph glyph-name="adieresis" unicode="&#xe4;" horiz-adv-x="499" 
d="M178 -10q-32 0 -59 9q-29 9 -48 28q-21 18 -33 47t-12 67v12q0 88 61 124q62 35 168 35h52v37q0 37 -12 58q-12 20 -49 20q-32 0 -46 -17q-16 -19 -17 -47h-141q4 88 61 130q58 41 150 41q97 0 149 -42q53 -44 53 -137v-355h-145v56q-5 -9 -19 -25q-12 -12 -27 -21
q-17 -9 -37 -15q-23 -5 -49 -5zM230 92q35 0 56 18t21 55v55h-46q-46 0 -66 -13q-22 -13 -22 -46v-11q0 -58 57 -58zM152 582q-32 0 -54 22q-22 21 -22 52q0 32 22 54q22 21 54 21t54 -21q22 -22 22 -54q0 -31 -22 -52q-22 -22 -54 -22zM344 582q-32 0 -54 22q-22 21 -22 52
q0 32 22 54q22 21 54 21q33 0 55 -21q22 -22 22 -54q0 -31 -22 -52q-22 -22 -55 -22z" />
    <glyph glyph-name="aring" unicode="&#xe5;" horiz-adv-x="499" 
d="M178 -10q-32 0 -59 9q-29 9 -48 28q-21 18 -33 47t-12 67v12q0 88 61 124q62 35 168 35h52v37q0 37 -12 58q-12 20 -49 20q-32 0 -46 -17q-16 -19 -17 -47h-141q4 88 61 130q58 41 150 41q97 0 149 -42q53 -44 53 -137v-355h-145v56q-5 -9 -19 -25q-12 -12 -27 -21
q-17 -9 -37 -15q-23 -5 -49 -5zM230 92q35 0 56 18t21 55v55h-46q-46 0 -66 -13q-22 -13 -22 -46v-11q0 -58 57 -58zM248 578q-21 0 -42 8q-20 8 -34 23q-16 14 -23 33q-9 20 -9 40q0 22 9 41q7 18 23 34q14 14 34 23q21 8 42 8q22 0 43 -8q17 -8 34 -23q15 -17 23 -34
q8 -21 8 -41q0 -19 -8 -40q-9 -19 -23 -33q-16 -16 -34 -23q-21 -8 -43 -8zM248 636q19 0 31 13t12 33q0 22 -12 35t-31 13t-31 -13t-12 -35q0 -20 12 -33t31 -13z" />
    <glyph glyph-name="ae" unicode="&#xe6;" horiz-adv-x="780" 
d="M198 -10q-76 0 -124 39q-48 37 -48 114v13q0 88 61 125q59 37 167 37h53v32q0 39 -13 58t-48 19q-33 0 -46 -16q-14 -17 -17 -48h-140q4 84 60 128q55 43 147 43q101 0 140 -54q54 54 143 54q47 0 86 -13q41 -14 70 -41q31 -30 47 -71q17 -45 17 -103v-79h-304v-11
q0 -63 22 -91q21 -29 64 -29q38 0 56 18q18 17 23 49h140q-7 -85 -64 -129q-56 -44 -157 -44q-119 0 -171 79q-27 -39 -63 -58q-37 -21 -101 -21zM531 432q-35 0 -57 -25q-24 -27 -25 -89h160v16q0 53 -19 75q-20 23 -59 23zM230 92q36 0 56 19q21 18 21 54v62h-46
q-45 0 -67 -12q-22 -13 -22 -50v-15q0 -58 58 -58z" />
    <glyph glyph-name="ccedilla" unicode="&#xe7;" horiz-adv-x="500" 
d="M259 -10q-48 0 -92 14q-43 13 -73 42q-32 29 -48 71q-18 42 -18 99v86q0 58 18 101t49 73q33 30 74 44q44 14 90 14q44 0 80 -10q40 -11 68 -32q29 -23 47 -60q18 -38 21 -91h-140q-3 43 -21 61q-20 17 -52 17q-40 0 -62 -27q-22 -28 -22 -85v-92q0 -115 87 -115
q31 0 54 21q22 19 24 68h134q-2 -98 -58 -148q-57 -51 -160 -51zM250 -216q-50 0 -81 23q-31 22 -36 65h77q2 -10 10 -19q8 -8 23 -8q14 0 24 8q8 8 8 21q0 14 -8 22q-9 9 -24 9q-11 0 -18 -4q-8 -3 -12 -7l-36 35l45 71h65l-28 -44q23 2 38 -2q18 -3 32 -14t23 -27
q8 -18 8 -39q0 -44 -30 -67q-32 -23 -80 -23z" />
    <glyph glyph-name="egrave" unicode="&#xe8;" horiz-adv-x="512" 
d="M264 -10q-52 0 -96 15q-42 13 -75 43q-31 28 -48 72q-17 43 -17 98v84q0 54 18 98q16 41 49 73q31 30 74 46q42 15 92 15q49 0 88 -13q42 -14 71 -40q31 -29 48 -71q17 -45 17 -104v-80h-309v-11q0 -65 24 -92t67 -27q37 0 57 18q17 16 22 49h140q-7 -85 -64 -129
q-58 -44 -158 -44zM262 432q-34 0 -58 -24q-25 -25 -28 -88h166v7q0 57 -21 81t-59 24zM113 741h157l49 -158h-110z" />
    <glyph glyph-name="eacute" unicode="&#xe9;" horiz-adv-x="512" 
d="M248 741h156l-95 -158h-109zM264 -10q-52 0 -96 15q-42 13 -75 43q-31 28 -48 72q-17 43 -17 98v84q0 54 18 98q16 41 49 73q31 30 74 46q42 15 92 15q49 0 88 -13q42 -14 71 -40q31 -29 48 -71q17 -45 17 -104v-80h-309v-11q0 -65 24 -92t67 -27q37 0 57 18q17 16 22 49
h140q-7 -85 -64 -129q-58 -44 -158 -44zM262 432q-34 0 -58 -24q-25 -25 -28 -88h166v7q0 57 -21 81t-59 24z" />
    <glyph glyph-name="ecircumflex" unicode="&#xea;" horiz-adv-x="512" 
d="M202 740h115l101 -156h-104l-57 59l-58 -59h-102zM264 -10q-52 0 -96 15q-42 13 -75 43q-31 28 -48 72q-17 43 -17 98v84q0 54 18 98q16 41 49 73q31 30 74 46q42 15 92 15q49 0 88 -13q42 -14 71 -40q31 -29 48 -71q17 -45 17 -104v-80h-309v-11q0 -65 24 -92t67 -27
q37 0 57 18q17 16 22 49h140q-7 -85 -64 -129q-58 -44 -158 -44zM262 432q-34 0 -58 -24q-25 -25 -28 -88h166v7q0 57 -21 81t-59 24z" />
    <glyph glyph-name="edieresis" unicode="&#xeb;" horiz-adv-x="512" 
d="M162 582q-32 0 -54 22q-22 21 -22 52q0 32 22 54q22 21 54 21t54 -21q22 -22 22 -54q0 -31 -22 -52q-22 -22 -54 -22zM354 582q-32 0 -54 22q-22 21 -22 52q0 32 22 54q22 21 54 21t55 -21q22 -22 22 -54q0 -31 -22 -52q-22 -22 -55 -22zM264 -10q-52 0 -96 15
q-42 13 -75 43q-31 28 -48 72q-17 43 -17 98v84q0 54 18 98q16 41 49 73q31 30 74 46q42 15 92 15q49 0 88 -13q42 -14 71 -40q31 -29 48 -71q17 -45 17 -104v-80h-309v-11q0 -65 24 -92t67 -27q37 0 57 18q17 16 22 49h140q-7 -85 -64 -129q-58 -44 -158 -44zM262 432
q-34 0 -58 -24q-25 -25 -28 -88h166v7q0 57 -21 81t-59 24z" />
    <glyph glyph-name="igrave" unicode="&#xec;" horiz-adv-x="249" 
d="M50 523h149v-523h-149v523zM-19 741h157l49 -158h-110z" />
    <glyph glyph-name="iacute" unicode="&#xed;" horiz-adv-x="249" 
d="M115 741h156l-95 -158h-109zM50 523h149v-523h-149v523z" />
    <glyph glyph-name="icircumflex" unicode="&#xee;" horiz-adv-x="249" 
d="M70 740h115l101 -156h-104l-57 59l-58 -59h-102zM50 523h149v-523h-149v523z" />
    <glyph glyph-name="idieresis" unicode="&#xef;" horiz-adv-x="249" 
d="M32 582q-31 0 -53 22q-21 21 -21 52q0 30 21 53q22 21 53 21q32 0 54 -21q21 -23 21 -53q0 -31 -21 -52q-22 -22 -54 -22zM216 582q-32 0 -53 22q-21 21 -21 52q0 30 21 53q21 21 53 21t54 -21q21 -23 21 -53q0 -31 -21 -52q-22 -22 -54 -22zM50 523h149v-523h-149v523z
" />
    <glyph glyph-name="eth" unicode="&#xf0;" horiz-adv-x="536" 
d="M265 -11q-54 0 -96 16q-44 17 -75 46q-33 31 -49 74q-18 43 -18 100v81q0 54 17 97q17 42 43 70q26 27 62 43q36 14 70 14q39 0 62 -13q24 -15 42 -35q-17 34 -39 69q-24 33 -52 64l-120 -48l-24 53l99 40q-31 27 -58 49q-40 30 -59 43h178q5 -3 31 -19q10 -7 32 -23
l90 36l24 -54l-65 -26q27 -27 56 -64q26 -34 48 -77q21 -47 32 -92q12 -49 12 -106v-94q0 -56 -17 -102q-18 -46 -49 -77t-77 -48q-43 -17 -100 -17zM268 102q44 0 66 30q21 30 21 86v88q0 57 -21 87q-22 30 -66 30q-43 0 -66 -29t-23 -86v-88q0 -58 22 -87q22 -31 67 -31z
" />
    <glyph glyph-name="ntilde" unicode="&#xf1;" horiz-adv-x="531" 
d="M47 523h149v-74q18 35 54 61q36 24 91 24q65 0 106 -42q40 -41 40 -130v-362h-149v337q0 78 -65 78q-34 0 -55 -21q-22 -21 -22 -65v-329h-149v523zM323 588q-16 0 -33 5q-12 4 -27 11l-22 11q-12 5 -21 5q-12 0 -19 -9q-9 -10 -10 -24h-83q5 74 32 107q27 35 69 35
q16 0 33 -5q9 -3 27 -11q4 -2 12 -5.5t12 -5.5q12 -5 22 -5q11 0 19 9q7 8 10 24h83q-4 -71 -34 -107q-30 -35 -70 -35z" />
    <glyph glyph-name="ograve" unicode="&#xf2;" horiz-adv-x="531" 
d="M265 -10q-51 0 -94 15t-75 44t-50 72q-18 42 -18 96v86q0 54 18 98q17 42 50 73q31 28 76 45q44 15 94 15q52 0 95 -15t75 -44q31 -29 49 -72q18 -44 18 -97v-86q0 -54 -18 -98q-18 -43 -50 -72t-75 -44q-42 -16 -95 -16zM266 101q42 0 65 30q22 28 22 85v92
q0 114 -87 114q-43 0 -65 -28q-23 -29 -23 -85v-92q0 -58 22 -86q22 -30 66 -30zM119 741h157l49 -158h-110z" />
    <glyph glyph-name="oacute" unicode="&#xf3;" horiz-adv-x="531" 
d="M254 741h156l-95 -158h-109zM265 -10q-51 0 -94 15t-75 44t-50 72q-18 42 -18 96v86q0 54 18 98q17 42 50 73q31 28 76 45q44 15 94 15q52 0 95 -15t75 -44q31 -29 49 -72q18 -44 18 -97v-86q0 -54 -18 -98q-18 -43 -50 -72t-75 -44q-42 -16 -95 -16zM266 101q42 0 65 30
q22 28 22 85v92q0 114 -87 114q-43 0 -65 -28q-23 -29 -23 -85v-92q0 -58 22 -86q22 -30 66 -30z" />
    <glyph glyph-name="ocircumflex" unicode="&#xf4;" horiz-adv-x="531" 
d="M208 740h115l101 -156h-104l-57 59l-58 -59h-102zM265 -10q-51 0 -94 15t-75 44t-50 72q-18 42 -18 96v86q0 54 18 98q17 42 50 73q31 28 76 45q44 15 94 15q52 0 95 -15t75 -44q31 -29 49 -72q18 -44 18 -97v-86q0 -54 -18 -98q-18 -43 -50 -72t-75 -44q-42 -16 -95 -16
zM266 101q42 0 65 30q22 28 22 85v92q0 114 -87 114q-43 0 -65 -28q-23 -29 -23 -85v-92q0 -58 22 -86q22 -30 66 -30z" />
    <glyph glyph-name="otilde" unicode="&#xf5;" horiz-adv-x="531" 
d="M265 -10q-51 0 -94 15t-75 44t-50 72q-18 42 -18 96v86q0 54 18 98q17 42 50 73q31 28 76 45q44 15 94 15q52 0 95 -15t75 -44q31 -29 49 -72q18 -44 18 -97v-86q0 -54 -18 -98q-18 -43 -50 -72t-75 -44q-42 -16 -95 -16zM266 101q42 0 65 30q22 28 22 85v92
q0 114 -87 114q-43 0 -65 -28q-23 -29 -23 -85v-92q0 -58 22 -86q22 -30 66 -30zM320 588q-16 0 -33 5q-13 4 -27 11l-22 11q-12 5 -21 5q-11 0 -19 -9q-9 -10 -10 -24h-83q5 74 32 107q27 35 69 35q16 0 33 -5q9 -3 27 -11q4 -2 12 -5.5t12 -5.5q12 -5 22 -5q12 0 19 9
q7 8 10 24h83q-4 -71 -34 -107q-30 -35 -70 -35z" />
    <glyph glyph-name="odieresis" unicode="&#xf6;" horiz-adv-x="531" 
d="M168 582q-32 0 -54 22q-22 21 -22 52q0 32 22 54q22 21 54 21t54 -21q22 -22 22 -54q0 -31 -22 -52q-22 -22 -54 -22zM360 582q-32 0 -54 22q-22 21 -22 52q0 32 22 54q22 21 54 21t55 -21q22 -22 22 -54q0 -31 -22 -52q-22 -22 -55 -22zM265 -10q-51 0 -94 15t-75 44
t-50 72q-18 42 -18 96v86q0 54 18 98q17 42 50 73q31 28 76 45q44 15 94 15q52 0 95 -15t75 -44q31 -29 49 -72q18 -44 18 -97v-86q0 -54 -18 -98q-18 -43 -50 -72t-75 -44q-42 -16 -95 -16zM266 101q42 0 65 30q22 28 22 85v92q0 114 -87 114q-43 0 -65 -28
q-23 -29 -23 -85v-92q0 -58 22 -86q22 -30 66 -30z" />
    <glyph glyph-name="divide" unicode="&#xf7;" horiz-adv-x="497" 
d="M249 442q-34 0 -59 23q-24 23 -24 58t24 57q25 23 59 23q33 0 58 -23q24 -22 24 -57t-24 -58q-25 -23 -58 -23zM33 394h432v-107h-432v107zM249 78q-34 0 -59 23q-24 23 -24 57q0 36 24 58q25 23 59 23q33 0 58 -23q24 -23 24 -58q0 -34 -24 -57q-25 -23 -58 -23z" />
    <glyph glyph-name="oslash" unicode="&#xf8;" horiz-adv-x="530" 
d="M20 3l55 68q-23 29 -36 66q-13 36 -13 83v79q0 55 18 99t50 74q30 29 76 46q42 16 96 16q86 0 147 -42l49 61l46 -34l-53 -65q22 -27 37 -67q13 -36 13 -84v-79q0 -56 -18 -99q-18 -44 -50 -74q-31 -29 -76 -45q-42 -16 -96 -16q-87 0 -148 42l-52 -65zM174 217v-11
q0 -7 1 -10l159 197q-24 30 -68 30t-68 -29q-24 -28 -24 -86v-91zM266 101q46 0 68 30q23 31 23 87v90v12q0 7 -1 10l-159 -199q23 -30 69 -30z" />
    <glyph glyph-name="ugrave" unicode="&#xf9;" horiz-adv-x="530" 
d="M483 0h-149v72q-19 -37 -52 -59q-34 -24 -89 -24q-34 0 -60 10q-30 13 -48 32q-21 22 -31 53q-11 33 -11 75v364h150v-342q0 -39 15 -58t48 -19q34 0 57 21q21 21 21 64v334h149v-523zM118 741h157l49 -158h-110z" />
    <glyph glyph-name="uacute" unicode="&#xfa;" horiz-adv-x="530" 
d="M253 741h156l-95 -158h-109zM483 0h-149v72q-19 -37 -52 -59q-34 -24 -89 -24q-34 0 -60 10q-30 13 -48 32q-21 22 -31 53q-11 33 -11 75v364h150v-342q0 -39 15 -58t48 -19q34 0 57 21q21 21 21 64v334h149v-523z" />
    <glyph glyph-name="ucircumflex" unicode="&#xfb;" horiz-adv-x="530" 
d="M208 740h115l101 -156h-104l-57 59l-58 -59h-102zM483 0h-149v72q-19 -37 -52 -59q-34 -24 -89 -24q-34 0 -60 10q-30 13 -48 32q-21 22 -31 53q-11 33 -11 75v364h150v-342q0 -39 15 -58t48 -19q34 0 57 21q21 21 21 64v334h149v-523z" />
    <glyph glyph-name="udieresis" unicode="&#xfc;" horiz-adv-x="530" 
d="M167 582q-32 0 -54 22q-22 21 -22 52q0 32 22 54q23 21 54 21t54 -21q22 -22 22 -54q0 -31 -22 -52q-22 -22 -54 -22zM359 582q-32 0 -54 22q-22 21 -22 52q0 32 22 54q23 21 54 21q33 0 55 -21q22 -22 22 -54q0 -31 -22 -52q-22 -22 -55 -22zM483 0h-149v72
q-19 -37 -52 -59q-34 -24 -89 -24q-34 0 -60 10q-30 13 -48 32q-21 22 -31 53q-11 33 -11 75v364h150v-342q0 -39 15 -58t48 -19q34 0 57 21q21 21 21 64v334h149v-523z" />
    <glyph glyph-name="yacute" unicode="&#xfd;" horiz-adv-x="502" 
d="M263 223l88 300h142l-237 -698h-144l74 220l-177 478h160zM248 741h156l-95 -158h-109z" />
    <glyph glyph-name="thorn" unicode="&#xfe;" horiz-adv-x="551" 
d="M47 751h151v-299q18 32 54 58q34 24 88 24q37 0 73 -14q33 -15 58 -43q25 -29 39 -72q14 -45 14 -101v-84q0 -55 -14 -100q-14 -44 -39 -72q-27 -31 -59 -43q-34 -15 -75 -15q-52 0 -86 22q-37 23 -53 57v-244h-151v926zM284 104q87 0 87 115v86q0 59 -23 88
q-22 28 -63 28q-42 0 -66 -29q-24 -30 -24 -88v-84q0 -58 23 -87t66 -29z" />
    <glyph glyph-name="ydieresis" unicode="&#xff;" horiz-adv-x="502" 
d="M263 223l88 300h142l-237 -698h-144l74 220l-177 478h160zM162 582q-32 0 -54 22q-22 21 -22 52q0 32 22 54q22 21 54 21t54 -21q22 -22 22 -54q0 -31 -22 -52q-22 -22 -54 -22zM354 582q-32 0 -54 22q-22 21 -22 52q0 32 22 54q22 21 54 21t55 -21q22 -22 22 -54
q0 -31 -22 -52q-22 -22 -55 -22z" />
    <glyph glyph-name="Amacron" unicode="&#x100;" horiz-adv-x="616" 
d="M396 147h-195l-33 -147h-154l182 715h225l181 -715h-173zM228 264h141l-71 312zM164 865h286v-96h-286v96z" />
    <glyph glyph-name="amacron" unicode="&#x101;" horiz-adv-x="499" 
d="M178 -10q-32 0 -59 9q-29 9 -48 28q-21 18 -33 47t-12 67v12q0 88 61 124q62 35 168 35h52v37q0 37 -12 58q-12 20 -49 20q-32 0 -46 -17q-16 -19 -17 -47h-141q4 88 61 130q58 41 150 41q97 0 149 -42q53 -44 53 -137v-355h-145v56q-5 -9 -19 -25q-12 -12 -27 -21
q-17 -9 -37 -15q-23 -5 -49 -5zM230 92q35 0 56 18t21 55v55h-46q-46 0 -66 -13q-22 -13 -22 -46v-11q0 -58 57 -58zM112 698h273v-91h-273v91z" />
    <glyph glyph-name="Abreve" unicode="&#x102;" horiz-adv-x="616" 
d="M396 147h-195l-33 -147h-154l182 715h225l181 -715h-173zM228 264h141l-71 312zM306 752q-65 0 -103 37q-39 36 -43 103h98q2 -20 14 -32t34 -12t35 12t15 32h98q-4 -67 -45 -103q-40 -37 -103 -37z" />
    <glyph glyph-name="abreve" unicode="&#x103;" horiz-adv-x="499" 
d="M178 -10q-32 0 -59 9q-29 9 -48 28q-21 18 -33 47t-12 67v12q0 88 61 124q62 35 168 35h52v37q0 37 -12 58q-12 20 -49 20q-32 0 -46 -17q-16 -19 -17 -47h-141q4 88 61 130q58 41 150 41q97 0 149 -42q53 -44 53 -137v-355h-145v56q-5 -9 -19 -25q-12 -12 -27 -21
q-17 -9 -37 -15q-23 -5 -49 -5zM230 92q35 0 56 18t21 55v55h-46q-46 0 -66 -13q-22 -13 -22 -46v-11q0 -58 57 -58zM248 585q-61 0 -101 38q-39 38 -42 110h95q4 -49 48 -49q47 0 51 49h94q-4 -73 -44 -110q-41 -38 -101 -38z" />
    <glyph glyph-name="Aogonek" unicode="&#x104;" horiz-adv-x="616" 
d="M421 -104q0 20 7 34q5 13 17 29q7 9 25 23q13 10 29 18h-70l-33 147h-195l-33 -147h-154l182 715h225l181 -715h-14q-23 -21 -31 -34q-11 -17 -11 -34q0 -13 8 -21q7 -7 22 -7q17 0 29 5v-75q-14 -7 -31 -11t-46 -4q-44 0 -76 20q-31 19 -31 57zM228 264h141l-71 312z
" />
    <glyph glyph-name="aogonek" unicode="&#x105;" horiz-adv-x="499" 
d="M274 -104q0 20 7 34q5 13 17 29q7 9 25 23q13 10 29 18h-42v56q-5 -9 -19 -25q-12 -12 -27 -21q-17 -9 -37 -15q-23 -5 -49 -5q-32 0 -59 9q-29 9 -48 28q-21 18 -33 47t-12 67v12q0 88 61 124q62 35 168 35h52v37q0 37 -12 58q-12 20 -49 20q-32 0 -46 -17
q-16 -19 -17 -47h-141q4 88 61 130q58 41 150 41q97 0 149 -42q53 -44 53 -137v-355h-14q-23 -21 -31 -34q-11 -17 -11 -34q0 -13 8 -21q7 -7 22 -7q17 0 29 5v-75q-14 -7 -31 -11t-46 -4q-44 0 -76 20q-31 19 -31 57zM230 92q35 0 56 18t21 55v55h-46q-46 0 -66 -13
q-22 -13 -22 -46v-11q0 -58 57 -58z" />
    <glyph glyph-name="Cacute" unicode="&#x106;" horiz-adv-x="631" 
d="M335 -11q-145 0 -222 80t-77 220v136q0 72 22 126q23 56 62 94q39 39 93 60q55 20 117 20q58 0 106 -13q46 -13 84 -43q36 -30 58 -76q20 -45 25 -110h-170q-4 58 -30 85q-26 26 -73 26q-56 0 -88 -42q-32 -43 -32 -124v-140q0 -166 123 -166q47 0 77 27q31 27 35 90h164
q-3 -65 -24 -111q-23 -47 -58 -78t-85 -46t-107 -15zM310 896h160l-92 -138h-114z" />
    <glyph glyph-name="cacute" unicode="&#x107;" horiz-adv-x="500" 
d="M246 741h156l-95 -158h-109zM259 -10q-48 0 -92 14q-43 13 -73 42q-32 29 -48 71q-18 42 -18 99v86q0 58 18 101t49 73q33 30 74 44q44 14 90 14q44 0 80 -10q40 -11 68 -32q29 -23 47 -60q18 -38 21 -91h-140q-3 43 -21 61q-20 17 -52 17q-40 0 -62 -27q-22 -28 -22 -85
v-92q0 -115 87 -115q31 0 54 21q22 19 24 68h134q-2 -98 -58 -148q-57 -51 -160 -51z" />
    <glyph glyph-name="Ccircumflex" unicode="&#x108;" horiz-adv-x="631" 
d="M266 896h128l98 -138h-107l-57 49l-58 -49h-104zM335 -11q-145 0 -222 80t-77 220v136q0 72 22 126q23 56 62 94q39 39 93 60q55 20 117 20q58 0 106 -13q46 -13 84 -43q36 -30 58 -76q20 -45 25 -110h-170q-4 58 -30 85q-26 26 -73 26q-56 0 -88 -42q-32 -43 -32 -124
v-140q0 -166 123 -166q47 0 77 27q31 27 35 90h164q-3 -65 -24 -111q-23 -47 -58 -78t-85 -46t-107 -15z" />
    <glyph glyph-name="ccircumflex" unicode="&#x109;" horiz-adv-x="500" 
d="M201 740h115l101 -156h-104l-57 59l-58 -59h-102zM259 -10q-48 0 -92 14q-43 13 -73 42q-32 29 -48 71q-18 42 -18 99v86q0 58 18 101t49 73q33 30 74 44q44 14 90 14q44 0 80 -10q40 -11 68 -32q29 -23 47 -60q18 -38 21 -91h-140q-3 43 -21 61q-20 17 -52 17
q-40 0 -62 -27q-22 -28 -22 -85v-92q0 -115 87 -115q31 0 54 21q22 19 24 68h134q-2 -98 -58 -148q-57 -51 -160 -51z" />
    <glyph glyph-name="Cdotaccent" unicode="&#x10a;" horiz-adv-x="631" 
d="M335 -11q-145 0 -222 80t-77 220v136q0 72 22 126q23 56 62 94q39 39 93 60q55 20 117 20q58 0 106 -13q46 -13 84 -43q36 -30 58 -76q20 -45 25 -110h-170q-4 58 -30 85q-26 26 -73 26q-56 0 -88 -42q-32 -43 -32 -124v-140q0 -166 123 -166q47 0 77 27q31 27 35 90h164
q-3 -65 -24 -111q-23 -47 -58 -78t-85 -46t-107 -15zM328 759q-35 0 -58 23q-24 22 -24 55t24 56q22 22 58 22t58 -22q23 -23 23 -56q0 -32 -23 -55t-58 -23z" />
    <glyph glyph-name="cdotaccent" unicode="&#x10b;" horiz-adv-x="500" 
d="M259 -10q-48 0 -92 14q-43 13 -73 42q-32 29 -48 71q-18 42 -18 99v86q0 58 18 101t49 73q33 30 74 44q44 14 90 14q44 0 80 -10q40 -11 68 -32q29 -23 47 -60q18 -38 21 -91h-140q-3 43 -21 61q-20 17 -52 17q-40 0 -62 -27q-22 -28 -22 -85v-92q0 -115 87 -115
q31 0 54 21q22 19 24 68h134q-2 -98 -58 -148q-57 -51 -160 -51zM258 581q-34 0 -59 23q-24 22 -24 55q0 35 24 57q23 22 59 22t59 -22q23 -23 23 -57q0 -32 -23 -55q-25 -23 -59 -23z" />
    <glyph glyph-name="Ccaron" unicode="&#x10c;" horiz-adv-x="631" 
d="M165 896h107l57 -50l58 50h104l-100 -138h-128zM335 -11q-145 0 -222 80t-77 220v136q0 72 22 126q23 56 62 94q39 39 93 60q55 20 117 20q58 0 106 -13q46 -13 84 -43q36 -30 58 -76q20 -45 25 -110h-170q-4 58 -30 85q-26 26 -73 26q-56 0 -88 -42q-32 -43 -32 -124
v-140q0 -166 123 -166q47 0 77 27q31 27 35 90h164q-3 -65 -24 -111q-23 -47 -58 -78t-85 -46t-107 -15z" />
    <glyph glyph-name="ccaron" unicode="&#x10d;" horiz-adv-x="500" 
d="M95 740h104l57 -59l59 59h101l-105 -156h-115zM259 -10q-48 0 -92 14q-43 13 -73 42q-32 29 -48 71q-18 42 -18 99v86q0 58 18 101t49 73q33 30 74 44q44 14 90 14q44 0 80 -10q40 -11 68 -32q29 -23 47 -60q18 -38 21 -91h-140q-3 43 -21 61q-20 17 -52 17
q-40 0 -62 -27q-22 -28 -22 -85v-92q0 -115 87 -115q31 0 54 21q22 19 24 68h134q-2 -98 -58 -148q-57 -51 -160 -51z" />
    <glyph glyph-name="Dcaron" unicode="&#x10e;" horiz-adv-x="634" 
d="M121 896h107l57 -50l58 50h104l-100 -138h-128zM284 715q157 0 236 -73q78 -73 78 -218v-128q0 -142 -78 -219q-80 -77 -236 -77h-226v715h226zM225 586v-457h54q78 0 112 40t34 127v125q0 87 -33 126q-34 39 -115 39h-52z" />
    <glyph glyph-name="dcaron" unicode="&#x10f;" horiz-adv-x="547" 
d="M539 751h116l-44 -166h-80zM500 0h-149v74q-17 -35 -53 -59q-35 -25 -88 -25q-40 0 -71 14q-34 14 -57 41q-25 30 -38 70q-14 42 -14 98v94q0 54 14 99q14 43 39 71q24 28 58 43q36 14 74 14q52 0 85 -21q33 -23 51 -57v294h149v-750zM353 307q0 116 -87 116
q-86 0 -86 -114v-96q0 -57 22 -82q22 -27 61 -27q42 0 66 29t24 85v89z" />
    <glyph glyph-name="Dcroat" unicode="&#x110;" horiz-adv-x="653" 
d="M75 303h-51v119h51v293h224q159 0 239 -74q79 -75 79 -221v-120q0 -147 -79 -223q-80 -77 -238 -77h-225v303zM294 131q79 0 114 41t35 127v118q0 90 -34 128q-35 39 -116 39h-51v-162h107v-119h-107v-172h52z" />
    <glyph glyph-name="dcroat" unicode="&#x111;" horiz-adv-x="547" 
d="M500 0h-149v74q-17 -35 -53 -59q-35 -25 -88 -25q-40 0 -71 14q-34 14 -57 41q-25 30 -38 70q-14 42 -14 98v94q0 54 14 99q14 43 39 71q24 28 58 43q36 14 74 14q52 0 85 -21q33 -23 51 -57v134h-136v82h136v78h149v-78h55v-82h-55v-590zM353 307q0 116 -87 116
q-86 0 -86 -114v-96q0 -57 22 -82q22 -27 61 -27q42 0 66 29t24 85v89z" />
    <glyph glyph-name="Emacron" unicode="&#x112;" horiz-adv-x="515" 
d="M58 715h413v-130h-247v-156h197v-121h-197v-178h261v-130h-427v715zM125 865h286v-96h-286v96z" />
    <glyph glyph-name="emacron" unicode="&#x113;" horiz-adv-x="512" 
d="M264 -10q-52 0 -96 15q-42 13 -75 43q-31 28 -48 72q-17 43 -17 98v84q0 54 18 98q16 41 49 73q31 30 74 46q42 15 92 15q49 0 88 -13q42 -14 71 -40q31 -29 48 -71q17 -45 17 -104v-80h-309v-11q0 -65 24 -92t67 -27q37 0 57 18q17 16 22 49h140q-7 -85 -64 -129
q-58 -44 -158 -44zM262 432q-34 0 -58 -24q-25 -25 -28 -88h166v7q0 57 -21 81t-59 24zM121 698h273v-91h-273v91z" />
    <glyph glyph-name="Ebreve" unicode="&#x114;" horiz-adv-x="515" 
d="M58 715h413v-130h-247v-156h197v-121h-197v-178h261v-130h-427v715zM268 752q-65 0 -103 37q-39 36 -43 103h98q2 -20 14 -32t34 -12t35 12t15 32h98q-4 -67 -45 -103q-40 -37 -103 -37z" />
    <glyph glyph-name="ebreve" unicode="&#x115;" horiz-adv-x="512" 
d="M264 -10q-52 0 -96 15q-42 13 -75 43q-31 28 -48 72q-17 43 -17 98v84q0 54 18 98q16 41 49 73q31 30 74 46q42 15 92 15q49 0 88 -13q42 -14 71 -40q31 -29 48 -71q17 -45 17 -104v-80h-309v-11q0 -65 24 -92t67 -27q37 0 57 18q17 16 22 49h140q-7 -85 -64 -129
q-58 -44 -158 -44zM262 432q-34 0 -58 -24q-25 -25 -28 -88h166v7q0 57 -21 81t-59 24zM254 585q-61 0 -101 38q-39 38 -42 110h95q4 -49 48 -49q47 0 51 49h94q-4 -73 -44 -110q-41 -38 -101 -38z" />
    <glyph glyph-name="Edotaccent" unicode="&#x116;" horiz-adv-x="515" 
d="M269 759q-35 0 -58 23q-24 22 -24 55t24 56q22 22 58 22t58 -22q23 -23 23 -56q0 -32 -23 -55t-58 -23zM58 715h413v-130h-247v-156h197v-121h-197v-178h261v-130h-427v715z" />
    <glyph glyph-name="edotaccent" unicode="&#x117;" horiz-adv-x="512" 
d="M264 -10q-52 0 -96 15q-42 13 -75 43q-31 28 -48 72q-17 43 -17 98v84q0 54 18 98q16 41 49 73q31 30 74 46q42 15 92 15q49 0 88 -13q42 -14 71 -40q31 -29 48 -71q17 -45 17 -104v-80h-309v-11q0 -65 24 -92t67 -27q37 0 57 18q17 16 22 49h140q-7 -85 -64 -129
q-58 -44 -158 -44zM262 432q-34 0 -58 -24q-25 -25 -28 -88h166v7q0 57 -21 81t-59 24zM258 581q-34 0 -59 23q-24 22 -24 55q0 35 24 57q23 22 59 22t59 -22q23 -23 23 -57q0 -32 -23 -55q-25 -23 -59 -23z" />
    <glyph glyph-name="Eogonek" unicode="&#x118;" horiz-adv-x="515" 
d="M279 -104q0 20 7 34q5 13 17 29q7 9 25 23q13 10 29 18h-299v715h413v-130h-247v-156h197v-121h-197v-178h261v-130h-39q-23 -21 -31 -34q-11 -17 -11 -34q0 -13 8 -21q7 -7 22 -7q17 0 29 5v-75q-14 -7 -31 -11t-46 -4q-44 0 -76 20q-31 19 -31 57z" />
    <glyph glyph-name="eogonek" unicode="&#x119;" horiz-adv-x="512" 
d="M409 -166q-14 -7 -31 -11t-46 -4q-44 0 -76 20q-31 19 -31 57q0 33 19 55q18 24 43 40q-3 -1 -11 -1h-12q-52 0 -96 15q-42 13 -75 43q-31 28 -48 72q-17 43 -17 98v84q0 54 18 98q16 41 49 73q31 30 74 46q42 15 92 15q49 0 88 -13q42 -14 71 -40q31 -29 48 -71
q17 -45 17 -104v-80h-309v-11q0 -65 24 -92t67 -27q37 0 57 18q17 16 22 49h140q-5 -39 -15 -64q-11 -26 -29 -46q-17 -19 -28 -28q-16 -15 -30 -30q-16 -16 -24 -31q-10 -14 -10 -32q0 -13 8 -21q7 -7 22 -7q17 0 29 5v-75zM262 432q-34 0 -58 -24q-25 -25 -28 -88h166v7
q0 57 -21 81t-59 24z" />
    <glyph glyph-name="Ecaron" unicode="&#x11a;" horiz-adv-x="515" 
d="M106 896h107l57 -50l58 50h104l-100 -138h-128zM58 715h413v-130h-247v-156h197v-121h-197v-178h261v-130h-427v715z" />
    <glyph glyph-name="ecaron" unicode="&#x11b;" horiz-adv-x="512" 
d="M97 740h104l57 -59l59 59h101l-105 -156h-115zM264 -10q-52 0 -96 15q-42 13 -75 43q-31 28 -48 72q-17 43 -17 98v84q0 54 18 98q16 41 49 73q31 30 74 46q42 15 92 15q49 0 88 -13q42 -14 71 -40q31 -29 48 -71q17 -45 17 -104v-80h-309v-11q0 -65 24 -92t67 -27
q37 0 57 18q17 16 22 49h140q-7 -85 -64 -129q-58 -44 -158 -44zM262 432q-34 0 -58 -24q-25 -25 -28 -88h166v7q0 57 -21 81t-59 24z" />
    <glyph glyph-name="Gcircumflex" unicode="&#x11c;" horiz-adv-x="656" 
d="M271 896h128l98 -138h-107l-57 49l-58 -49h-104zM349 383h274v-122q0 -129 -72 -200q-72 -72 -213 -72q-74 0 -129 21q-58 21 -95 60q-38 38 -58 94q-20 57 -20 124v138q0 69 23 126q23 56 62 94q42 39 95 59q57 20 121 20q55 0 103 -12q49 -14 85 -41q37 -28 60 -74
q21 -43 26 -109h-165q-4 57 -32 81q-29 24 -76 24q-63 0 -96 -43q-34 -43 -34 -124v-142q0 -77 31 -121q30 -46 103 -46q63 0 90 34q28 34 29 90v28h-112v113z" />
    <glyph glyph-name="gcircumflex" unicode="&#x11d;" horiz-adv-x="547" 
d="M206 740h115l101 -156h-104l-57 59l-58 -59h-102zM258 -188q-110 0 -166 44q-54 44 -62 122h147q5 -28 23 -43q17 -16 59 -16q48 0 70 25t22 72v81q-16 -34 -53 -57q-36 -24 -87 -24q-38 0 -72 14t-57 40q-25 26 -38 66q-14 40 -14 91v92q0 49 14 91q13 39 39 68
q24 27 58 42q36 14 74 14q52 0 85 -21q33 -23 51 -57v67h149v-504q0 -105 -63 -156q-65 -51 -179 -51zM264 123q42 0 66 28q23 28 23 78v88q0 51 -22 79q-22 27 -65 27q-41 0 -64 -26q-22 -26 -22 -78v-95q0 -50 22 -75q23 -26 62 -26z" />
    <glyph glyph-name="Gbreve" unicode="&#x11e;" horiz-adv-x="656" 
d="M333 752q-65 0 -103 37q-39 36 -43 103h98q1 -20 14 -32q12 -12 34 -12q21 0 35 12q13 12 15 32h98q-4 -67 -45 -103q-40 -37 -103 -37zM349 383h274v-122q0 -129 -72 -200q-72 -72 -213 -72q-74 0 -129 21q-58 21 -95 60q-38 38 -58 94q-20 57 -20 124v138q0 69 23 126
q23 56 62 94q42 39 95 59q57 20 121 20q55 0 103 -12q49 -14 85 -41q37 -28 60 -74q21 -43 26 -109h-165q-4 57 -32 81q-29 24 -76 24q-63 0 -96 -43q-34 -43 -34 -124v-142q0 -77 31 -121q30 -46 103 -46q63 0 90 34q28 34 29 90v28h-112v113z" />
    <glyph glyph-name="gbreve" unicode="&#x11f;" horiz-adv-x="547" 
d="M258 -188q-110 0 -166 44q-54 44 -62 122h147q5 -28 23 -43q17 -16 59 -16q48 0 70 25t22 72v81q-16 -34 -53 -57q-36 -24 -87 -24q-38 0 -72 14t-57 40q-25 26 -38 66q-14 40 -14 91v92q0 49 14 91q13 39 39 68q24 27 58 42q36 14 74 14q52 0 85 -21q33 -23 51 -57v67
h149v-504q0 -105 -63 -156q-65 -51 -179 -51zM264 123q42 0 66 28q23 28 23 78v88q0 51 -22 79q-22 27 -65 27q-41 0 -64 -26q-22 -26 -22 -78v-95q0 -50 22 -75q23 -26 62 -26zM261 585q-61 0 -101 38q-39 38 -42 110h95q4 -49 48 -49q47 0 51 49h94q-4 -73 -44 -110
q-41 -38 -101 -38z" />
    <glyph glyph-name="Gdotaccent" unicode="&#x120;" horiz-adv-x="656" 
d="M335 759q-35 0 -58 23q-24 22 -24 55t24 56q22 22 58 22t58 -22q23 -23 23 -56q0 -32 -23 -55t-58 -23zM349 383h274v-122q0 -129 -72 -200q-72 -72 -213 -72q-74 0 -129 21q-58 21 -95 60q-38 38 -58 94q-20 57 -20 124v138q0 69 23 126q23 56 62 94q42 39 95 59
q57 20 121 20q55 0 103 -12q49 -14 85 -41q37 -28 60 -74q21 -43 26 -109h-165q-4 57 -32 81q-29 24 -76 24q-63 0 -96 -43q-34 -43 -34 -124v-142q0 -77 31 -121q30 -46 103 -46q63 0 90 34q28 34 29 90v28h-112v113z" />
    <glyph glyph-name="gdotaccent" unicode="&#x121;" horiz-adv-x="547" 
d="M258 -188q-110 0 -166 44q-54 44 -62 122h147q5 -28 23 -43q17 -16 59 -16q48 0 70 25t22 72v81q-16 -34 -53 -57q-36 -24 -87 -24q-38 0 -72 14t-57 40q-25 26 -38 66q-14 40 -14 91v92q0 49 14 91q13 39 39 68q24 27 58 42q36 14 74 14q52 0 85 -21q33 -23 51 -57v67
h149v-504q0 -105 -63 -156q-65 -51 -179 -51zM264 123q42 0 66 28q23 28 23 78v88q0 51 -22 79q-22 27 -65 27q-41 0 -64 -26q-22 -26 -22 -78v-95q0 -50 22 -75q23 -26 62 -26zM262 581q-34 0 -59 23q-24 22 -24 55q0 35 24 57q23 22 59 22t59 -22q23 -23 23 -57
q0 -32 -23 -55q-25 -23 -59 -23z" />
    <glyph glyph-name="uni0122" unicode="&#x122;" horiz-adv-x="656" 
d="M233 -191l38 156l136 -9l-87 -170zM349 383h274v-122q0 -129 -72 -200q-72 -72 -213 -72q-74 0 -129 21q-58 21 -95 60q-38 38 -58 94q-20 57 -20 124v138q0 69 23 126q23 56 62 94q42 39 95 59q57 20 121 20q55 0 103 -12q49 -14 85 -41q37 -28 60 -74q21 -43 26 -109
h-165q-4 57 -32 81q-29 24 -76 24q-63 0 -96 -43q-34 -43 -34 -124v-142q0 -77 31 -121q30 -46 103 -46q63 0 90 34q28 34 29 90v28h-112v113z" />
    <glyph glyph-name="uni0123" unicode="&#x123;" horiz-adv-x="547" 
d="M198 588l86 170l86 -24l-37 -155zM258 -188q-110 0 -166 44q-54 44 -62 122h147q5 -28 23 -43q17 -16 59 -16q48 0 70 25t22 72v81q-16 -34 -53 -57q-36 -24 -87 -24q-38 0 -72 14t-57 40q-25 26 -38 66q-14 40 -14 91v92q0 49 14 91q13 39 39 68q24 27 58 42
q36 14 74 14q52 0 85 -21q33 -23 51 -57v67h149v-504q0 -105 -63 -156q-65 -51 -179 -51zM264 123q42 0 66 28q23 28 23 78v88q0 51 -22 79q-22 27 -65 27q-41 0 -64 -26q-22 -26 -22 -78v-95q0 -50 22 -75q23 -26 62 -26z" />
    <glyph glyph-name="Hcircumflex" unicode="&#x124;" horiz-adv-x="651" 
d="M58 715h166v-286h202v286h166v-715h-166v296h-202v-296h-166v715zM263 896h128l98 -138h-107l-57 49l-58 -49h-104z" />
    <glyph glyph-name="hcircumflex" unicode="&#x125;" horiz-adv-x="531" 
d="M47 750h149v-301q18 35 54 61q36 24 91 24q65 0 106 -42q40 -41 40 -130v-362h-149v337q0 78 -65 78q-34 0 -55 -21q-22 -21 -22 -65v-329h-149v750zM209 933h128l98 -138h-107l-57 49l-58 -49h-104z" />
    <glyph glyph-name="Hbar" unicode="&#x126;" horiz-adv-x="651" 
d="M7 602h52v113h166v-113h202v113h166v-113h61v-87h-61v-515h-166v296h-202v-296h-166v515h-52v87zM427 429v86h-202v-86h202z" />
    <glyph glyph-name="hbar" unicode="&#x127;" horiz-adv-x="531" 
d="M-3 672h51v78h149v-78h139v-82h-139v-141q18 35 54 61q36 24 91 24q66 0 106 -42q40 -41 40 -130v-362h-149v337q0 78 -65 78q-34 0 -55 -21q-22 -21 -22 -65v-329h-149v590h-51v82z" />
    <glyph glyph-name="Itilde" unicode="&#x128;" horiz-adv-x="292" 
d="M62 715h168v-715h-168v715zM205 758q-16 0 -33 5q-11 3 -29 11q-4 2 -12 5.5t-12 5.5q-13 5 -22 5q-11 0 -19 -9q-8 -10 -11 -23h-86q5 70 36 105q30 34 71 34q16 0 34 -5q6 -2 16 -5.5t13 -4.5q23 -10 25 -11q12 -5 22 -5q23 0 29 32h86q-4 -71 -36 -106
q-31 -34 -72 -34z" />
    <glyph glyph-name="itilde" unicode="&#x129;" horiz-adv-x="249" 
d="M50 523h149v-523h-149v523zM182 588q-16 0 -33 5q-13 4 -27 11q-3 1 -7.5 3.5t-8 4.5t-6.5 3q-12 5 -21 5q-11 0 -19 -9q-9 -10 -10 -24h-83q5 73 31 107q29 35 70 35q16 0 33 -5q9 -3 27 -11q4 -2 12 -5.5t12 -5.5q12 -5 22 -5q12 0 19 9q7 8 10 24h83q-4 -71 -34 -107
q-30 -35 -70 -35z" />
    <glyph glyph-name="Imacron" unicode="&#x12a;" horiz-adv-x="292" 
d="M62 715h168v-715h-168v715zM3 865h286v-96h-286v96z" />
    <glyph glyph-name="imacron" unicode="&#x12b;" horiz-adv-x="249" 
d="M17 698h216v-91h-216v91zM50 523h149v-523h-149v523z" />
    <glyph glyph-name="Ibreve" unicode="&#x12c;" horiz-adv-x="292" 
d="M62 715h168v-715h-168v715zM146 752q-65 0 -103 37q-39 36 -43 103h98q2 -20 14 -32t34 -12t35 12t15 32h98q-4 -67 -45 -103q-40 -37 -103 -37z" />
    <glyph glyph-name="ibreve" unicode="&#x12d;" horiz-adv-x="249" 
d="M50 523h149v-523h-149v523zM125 585q-61 0 -101 38q-39 38 -42 110h95q4 -49 48 -49q47 0 51 49h94q-4 -73 -44 -110q-41 -38 -101 -38z" />
    <glyph glyph-name="Iogonek" unicode="&#x12e;" horiz-adv-x="292" 
d="M49 -104q0 20 7 34q5 13 17 29q7 9 25 23q13 10 29 18h-65v715h168v-715h-14q-23 -21 -31 -34q-11 -17 -11 -34q0 -13 8 -21q7 -7 22 -7q17 0 29 5v-75q-14 -7 -31 -11t-46 -4q-44 0 -76 20q-31 19 -31 57z" />
    <glyph glyph-name="iogonek" unicode="&#x12f;" horiz-adv-x="249" 
d="M124 578q-35 0 -60 23q-24 23 -24 57t24 57q23 22 60 22q35 0 60 -22q24 -23 24 -57t-24 -57q-25 -23 -60 -23zM21 -104q0 20 7 34q5 13 17 29q7 9 25 23q13 10 29 18h-49v523h149v-523h-11q-23 -21 -31 -34q-11 -17 -11 -34q0 -13 8 -21q7 -7 22 -7q17 0 29 5v-75
q-14 -7 -31 -11t-46 -4q-44 0 -76 20q-31 19 -31 57z" />
    <glyph glyph-name="Idotaccent" unicode="&#x130;" horiz-adv-x="292" 
d="M62 715h168v-715h-168v715zM147 759q-35 0 -58 23q-24 22 -24 55t24 56q22 22 58 22t58 -22q23 -23 23 -56q0 -32 -23 -55t-58 -23z" />
    <glyph glyph-name="dotlessi" unicode="&#x131;" horiz-adv-x="249" 
d="M50 523h149v-523h-149v523z" />
    <glyph glyph-name="IJ" unicode="&#x132;" horiz-adv-x="675" 
d="M63 715h169v-715h-169v715zM406 -8q-41 0 -65 6q-22 5 -43 14v128q18 -6 32 -8q15 -4 41 -4q38 0 61 20q22 19 22 71v496h169v-499q0 -112 -56 -168t-161 -56z" />
    <glyph glyph-name="ij" unicode="&#x133;" horiz-adv-x="504" 
d="M124 578q-35 0 -60 23q-24 23 -24 57t24 57q23 22 60 22q35 0 60 -22q24 -23 24 -57t-24 -57q-25 -23 -60 -23zM50 523h149v-523h-149v523zM377 578q-35 0 -60 23q-24 23 -24 57t24 57q23 22 60 22q35 0 60 -22q24 -23 24 -57t-24 -57q-25 -23 -60 -23zM238 -70
q34 3 50 17q15 15 15 46v530h148v-533q0 -42 -10 -72t-36 -53q-25 -22 -65 -34t-102 -12v111z" />
    <glyph glyph-name="Jcircumflex" unicode="&#x134;" horiz-adv-x="397" 
d="M200 896h128l98 -138h-107l-57 49l-58 -49h-104zM131 -8q-41 0 -65 6q-23 6 -41 14v127q16 -5 31 -8q15 -4 40 -4q38 0 61 20q22 19 22 71v497h167v-501q0 -112 -55 -167t-160 -55z" />
    <glyph glyph-name="jcircumflex" unicode="&#x135;" horiz-adv-x="248" 
d="M-15 -71q33 3 50 17q15 15 15 46v531h148v-534q0 -42 -10 -72t-36 -53q-26 -21 -65 -33q-39 -11 -102 -13v111zM69 740h115l101 -156h-104l-57 59l-58 -59h-102z" />
    <glyph glyph-name="uni0136" unicode="&#x136;" horiz-adv-x="606" 
d="M211 -191l38 156l136 -9l-87 -170zM58 715h167v-297l189 297h172l-218 -331l229 -384h-187l-185 319v-319h-167v715z" />
    <glyph glyph-name="uni0137" unicode="&#x137;" horiz-adv-x="496" 
d="M155 -191l38 156l136 -9l-87 -170zM47 750h149v-443l131 216h153l-152 -238l162 -285h-164l-130 237v-237h-149v750z" />
    <glyph glyph-name="Lacute" unicode="&#x139;" horiz-adv-x="486" 
d="M126 896h160l-92 -138h-114zM58 715h167v-584h233v-131h-400v715z" />
    <glyph glyph-name="lacute" unicode="&#x13a;" horiz-adv-x="250" 
d="M109 933h160l-92 -138h-114zM50 750h149v-750h-149v750z" />
    <glyph glyph-name="uni013B" unicode="&#x13b;" horiz-adv-x="486" 
d="M155 -191l38 156l136 -9l-87 -170zM58 715h167v-584h233v-131h-400v715z" />
    <glyph glyph-name="uni013C" unicode="&#x13c;" horiz-adv-x="250" 
d="M24 -191l38 156l136 -9l-87 -170zM50 750h149v-750h-149v750z" />
    <glyph glyph-name="Lcaron" unicode="&#x13d;" horiz-adv-x="486" 
d="M289 716h119l-45 -170h-82zM58 715h167v-584h233v-131h-400v715z" />
    <glyph glyph-name="lcaron" unicode="&#x13e;" horiz-adv-x="250" 
d="M239 751h116l-44 -166h-80zM50 750h149v-750h-149v750z" />
    <glyph glyph-name="Ldot" unicode="&#x13f;" horiz-adv-x="510" 
d="M400 302q-37 0 -62 25q-25 24 -25 60t25 61q26 24 62 24q38 0 63 -24q25 -25 25 -61t-25 -60q-25 -25 -63 -25zM58 715h167v-584h233v-131h-400v715z" />
    <glyph glyph-name="ldot" unicode="&#x140;" horiz-adv-x="392" 
d="M320 280q-36 0 -61 25t-25 60q0 36 25 61q25 24 61 24q38 0 64 -24q25 -25 25 -61q0 -35 -25 -60t-64 -25zM50 750h149v-750h-149v750z" />
    <glyph glyph-name="Lslash" unicode="&#x141;" horiz-adv-x="507" 
d="M21 333l52 20v362h167v-299l157 60v-100l-157 -60v-185h233v-131h-400v253l-52 -20v100z" />
    <glyph glyph-name="lslash" unicode="&#x142;" horiz-adv-x="279" 
d="M12 389l53 27v334h149v-258l60 31v-102l-60 -31v-390h-149v314l-53 -27v102z" />
    <glyph glyph-name="Nacute" unicode="&#x143;" horiz-adv-x="649" 
d="M319 896h160l-92 -138h-114zM58 715h189l195 -433v433h148v-715h-163l-220 482v-482h-149v715z" />
    <glyph glyph-name="nacute" unicode="&#x144;" horiz-adv-x="531" 
d="M256 741h156l-95 -158h-109zM47 523h149v-74q18 35 54 61q36 24 91 24q65 0 106 -42q40 -41 40 -130v-362h-149v337q0 78 -65 78q-34 0 -55 -21q-22 -21 -22 -65v-329h-149v523z" />
    <glyph glyph-name="uni0145" unicode="&#x145;" horiz-adv-x="649" 
d="M219 -191l38 156l136 -9l-87 -170zM58 715h189l195 -433v433h148v-715h-163l-220 482v-482h-149v715z" />
    <glyph glyph-name="uni0146" unicode="&#x146;" horiz-adv-x="531" 
d="M164 -191l38 156l136 -9l-87 -170zM47 523h149v-74q18 35 54 61q36 24 91 24q65 0 106 -42q40 -41 40 -130v-362h-149v337q0 78 -65 78q-34 0 -55 -21q-22 -21 -22 -65v-329h-149v523z" />
    <glyph glyph-name="Ncaron" unicode="&#x147;" horiz-adv-x="649" 
d="M174 896h107l57 -50l58 50h104l-100 -138h-128zM58 715h189l195 -433v433h148v-715h-163l-220 482v-482h-149v715z" />
    <glyph glyph-name="ncaron" unicode="&#x148;" horiz-adv-x="531" 
d="M106 740h104l57 -59l59 59h101l-105 -156h-115zM47 523h149v-74q18 35 54 61q36 24 91 24q65 0 106 -42q40 -41 40 -130v-362h-149v337q0 78 -65 78q-34 0 -55 -21q-22 -21 -22 -65v-329h-149v523z" />
    <glyph glyph-name="napostrophe" unicode="&#x149;" horiz-adv-x="616" 
d="M-35 493l68 234l134 -43l-116 -223zM127 523h149v-74q18 35 54 61q36 24 91 24q65 0 106 -42q40 -41 40 -130v-362h-149v337q0 78 -65 78q-34 0 -55 -21q-22 -21 -22 -65v-329h-149v523z" />
    <glyph glyph-name="Eng" unicode="&#x14a;" horiz-adv-x="657" 
d="M394 -175q-37 0 -62 5q-23 4 -41 14v120l30 -9q13 -3 38 -3q30 0 49 13q21 14 25 42l-224 475v-482h-150v715h191l197 -424v424h150v-696q0 -93 -51 -144q-52 -50 -152 -50z" />
    <glyph glyph-name="eng" unicode="&#x14b;" horiz-adv-x="536" 
d="M281 -71q33 5 46 18q14 16 14 47v342q0 40 -15 59q-15 18 -49 18q-35 0 -57 -21t-22 -65v-327h-151v523h151v-75q18 35 54 61q35 25 93 25q67 0 107 -42q40 -41 40 -131v-371q0 -42 -10 -72t-36 -53q-25 -22 -65 -34q-39 -11 -100 -13v111z" />
    <glyph glyph-name="Omacron" unicode="&#x14c;" horiz-adv-x="681" 
d="M197 865h286v-96h-286v96zM339 -11q-69 0 -125 21t-95 60q-40 39 -61 94q-21 56 -21 123v139q0 68 23 125q22 53 64 94q40 39 96 60q57 20 121 20q69 0 123 -19q52 -18 95 -58q41 -38 63 -93q22 -54 22 -126v-138q0 -70 -21 -125q-23 -58 -62 -95q-40 -40 -96 -61
q-55 -21 -126 -21zM341 122q63 0 97 43t34 124v138q0 79 -34 122q-35 44 -97 44q-63 0 -97 -42q-35 -44 -35 -124v-139q0 -80 35 -123q34 -43 97 -43z" />
    <glyph glyph-name="omacron" unicode="&#x14d;" horiz-adv-x="531" 
d="M127 698h273v-91h-273v91zM265 -10q-51 0 -94 15t-75 44t-50 72q-18 42 -18 96v86q0 54 18 98q17 42 50 73q31 28 76 45q44 15 94 15q52 0 95 -15t75 -44q31 -29 49 -72q18 -44 18 -97v-86q0 -54 -18 -98q-18 -43 -50 -72t-75 -44q-42 -16 -95 -16zM266 101q42 0 65 30
q22 28 22 85v92q0 114 -87 114q-43 0 -65 -28q-23 -29 -23 -85v-92q0 -58 22 -86q22 -30 66 -30z" />
    <glyph glyph-name="Obreve" unicode="&#x14e;" horiz-adv-x="681" 
d="M339 752q-65 0 -103 37q-39 36 -43 103h98q1 -20 14 -32q12 -12 34 -12q21 0 35 12q13 12 15 32h98q-4 -67 -45 -103q-40 -37 -103 -37zM339 -11q-69 0 -125 21t-95 60q-40 39 -61 94q-21 56 -21 123v139q0 68 23 125q22 53 64 94q40 39 96 60q57 20 121 20q69 0 123 -19
q52 -18 95 -58q41 -38 63 -93q22 -54 22 -126v-138q0 -70 -21 -125q-23 -58 -62 -95q-40 -40 -96 -61q-55 -21 -126 -21zM341 122q63 0 97 43t34 124v138q0 79 -34 122q-35 44 -97 44q-63 0 -97 -42q-35 -44 -35 -124v-139q0 -80 35 -123q34 -43 97 -43z" />
    <glyph glyph-name="obreve" unicode="&#x14f;" horiz-adv-x="531" 
d="M265 -10q-51 0 -94 15t-75 44t-50 72q-18 42 -18 96v86q0 54 18 98q17 42 50 73q31 28 76 45q44 15 94 15q52 0 95 -15t75 -44q31 -29 49 -72q18 -44 18 -97v-86q0 -54 -18 -98q-18 -43 -50 -72t-75 -44q-42 -16 -95 -16zM266 101q42 0 65 30q22 28 22 85v92
q0 114 -87 114q-43 0 -65 -28q-23 -29 -23 -85v-92q0 -58 22 -86q22 -30 66 -30zM263 585q-61 0 -101 38q-39 38 -42 110h95q4 -49 48 -49q47 0 51 49h94q-4 -73 -44 -110q-41 -38 -101 -38z" />
    <glyph glyph-name="Ohungarumlaut" unicode="&#x150;" horiz-adv-x="681" 
d="M227 896h134l-65 -138h-101zM399 896h134l-65 -138h-102zM339 -11q-69 0 -125 21t-95 60q-40 39 -61 94q-21 56 -21 123v139q0 68 23 125q22 53 64 94q40 39 96 60q57 20 121 20q69 0 123 -19q52 -18 95 -58q41 -38 63 -93q22 -54 22 -126v-138q0 -70 -21 -125
q-23 -58 -62 -95q-40 -40 -96 -61q-55 -21 -126 -21zM341 122q63 0 97 43t34 124v138q0 79 -34 122q-35 44 -97 44q-63 0 -97 -42q-35 -44 -35 -124v-139q0 -80 35 -123q34 -43 97 -43z" />
    <glyph glyph-name="ohungarumlaut" unicode="&#x151;" horiz-adv-x="531" 
d="M165 741h125l-66 -158h-93zM324 741h125l-66 -158h-92zM265 -10q-51 0 -94 15t-75 44t-50 72q-18 42 -18 96v86q0 54 18 98q17 42 50 73q31 28 76 45q44 15 94 15q52 0 95 -15t75 -44q31 -29 49 -72q18 -44 18 -97v-86q0 -54 -18 -98q-18 -43 -50 -72t-75 -44
q-42 -16 -95 -16zM266 101q42 0 65 30q22 28 22 85v92q0 114 -87 114q-43 0 -65 -28q-23 -29 -23 -85v-92q0 -58 22 -86q22 -30 66 -30z" />
    <glyph glyph-name="OE" unicode="&#x152;" horiz-adv-x="827" 
d="M350 0q-158 0 -237 75q-81 73 -81 222v115q0 147 81 225t237 78h434v-130h-231v-156h183v-121h-183v-178h245v-130h-448zM387 129v456h-33q-80 0 -114 -42q-35 -43 -35 -131v-112q0 -89 35 -130t116 -41h31z" />
    <glyph glyph-name="oe" unicode="&#x153;" horiz-adv-x="840" 
d="M264 -10q-51 0 -93 16q-43 15 -75 45q-32 29 -50 72t-18 97v79q0 55 18 99t50 74q31 29 75 46q42 16 94 16q109 0 166 -72q59 72 162 72q46 0 85 -13q41 -14 70 -40q31 -29 48 -71q17 -45 17 -104v-80h-309v-11q0 -65 24 -92t67 -27q37 0 57 18q17 16 22 49h139
q-7 -85 -63 -129t-155 -44q-111 0 -166 70q-55 -70 -165 -70zM590 432q-35 0 -59 -24q-24 -26 -27 -89h165v8q0 56 -20 81q-21 24 -59 24zM268 101q44 0 67 30q22 29 22 87v88q0 56 -23 87q-23 29 -66 29q-42 0 -65 -29q-24 -29 -24 -86v-88q0 -58 22 -87q22 -31 67 -31z
" />
    <glyph glyph-name="Racute" unicode="&#x154;" horiz-adv-x="591" 
d="M269 896h160l-92 -138h-114zM58 715h234q124 0 189 -50q63 -51 63 -155v-26q0 -35 -8 -65q-9 -28 -24 -49t-35 -35q-21 -15 -46 -24l144 -311h-175l-126 281h-50v-281h-166v715zM286 392q48 0 72 21q24 20 24 68v24q0 45 -24 64q-23 19 -72 19h-62v-196h62z" />
    <glyph glyph-name="racute" unicode="&#x155;" horiz-adv-x="364" 
d="M190 741h156l-95 -158h-109zM47 523h149v-91q21 52 57 74q35 23 89 23v-144q-69 1 -108 -22q-38 -24 -38 -81v-282h-149v523z" />
    <glyph glyph-name="uni0156" unicode="&#x156;" horiz-adv-x="591" 
d="M204 -191l38 156l136 -9l-87 -170zM58 715h234q124 0 189 -50q63 -51 63 -155v-26q0 -35 -8 -65q-9 -28 -24 -49t-35 -35q-21 -15 -46 -24l144 -311h-175l-126 281h-50v-281h-166v715zM286 392q48 0 72 21q24 20 24 68v24q0 45 -24 64q-23 19 -72 19h-62v-196h62z" />
    <glyph glyph-name="uni0157" unicode="&#x157;" horiz-adv-x="364" 
d="M22 -191l38 156l136 -9l-87 -170zM47 523h149v-91q21 52 57 74q35 23 89 23v-144q-69 1 -108 -22q-38 -24 -38 -81v-282h-149v523z" />
    <glyph glyph-name="Rcaron" unicode="&#x158;" horiz-adv-x="591" 
d="M123 896h107l57 -50l58 50h104l-100 -138h-128zM58 715h234q124 0 189 -50q63 -51 63 -155v-26q0 -35 -8 -65q-9 -28 -24 -49t-35 -35q-21 -15 -46 -24l144 -311h-175l-126 281h-50v-281h-166v715zM286 392q48 0 72 21q24 20 24 68v24q0 45 -24 64q-23 19 -72 19h-62
v-196h62z" />
    <glyph glyph-name="rcaron" unicode="&#x159;" horiz-adv-x="364" 
d="M40 740h104l57 -59l59 59h101l-105 -156h-115zM47 523h149v-91q21 52 57 74q35 23 89 23v-144q-69 1 -108 -22q-38 -24 -38 -81v-282h-149v523z" />
    <glyph glyph-name="Sacute" unicode="&#x15a;" horiz-adv-x="561" 
d="M284 -11q-124 0 -189 56t-68 170h160q1 -51 23 -77q21 -26 74 -26q38 0 61 21q21 19 21 59q0 22 -6 37q-8 15 -21 27q-14 11 -35 20q-39 13 -53 17q-54 17 -93 36q-40 19 -66 45t-38 62q-13 35 -13 85q0 48 16 84q17 38 47 64q30 27 74 42q45 14 97 14q109 0 171 -50
q63 -52 67 -158h-156q-3 47 -24 66q-22 19 -59 19q-36 0 -55 -18q-19 -19 -19 -51q0 -16 5 -31q5 -14 17 -25q13 -11 33 -20q18 -8 52 -18q42 -11 90 -31q40 -16 70 -43q28 -25 45 -64q16 -36 16 -93q0 -101 -64 -159q-64 -60 -180 -60zM254 896h160l-92 -138h-114z" />
    <glyph glyph-name="sacute" unicode="&#x15b;" horiz-adv-x="455" 
d="M211 741h156l-95 -158h-109zM229 -10q-99 0 -151 43q-55 44 -56 128h139q2 -35 17 -52q15 -18 50 -18q58 0 58 51q0 14 -6 24q-5 8 -18 16q-10 6 -30 13q-18 6 -42 12q-39 11 -72 26q-28 12 -50 34q-20 21 -29 46q-10 26 -10 64q0 39 15 69q16 30 41 49q23 17 61 29
q33 10 75 10q41 0 78 -8q37 -10 61 -28q24 -19 40 -50q15 -32 18 -75h-137q-6 61 -60 61q-27 0 -40 -12q-14 -14 -14 -34q0 -26 20 -37q18 -10 67 -24q42 -11 75 -24q36 -15 56 -32q21 -18 34 -47q12 -27 12 -66q0 -85 -53 -126q-52 -42 -149 -42z" />
    <glyph glyph-name="Scircumflex" unicode="&#x15c;" horiz-adv-x="561" 
d="M210 896h128l98 -138h-107l-57 49l-58 -49h-104zM284 -11q-124 0 -189 56t-68 170h160q1 -51 23 -77q21 -26 74 -26q38 0 61 21q21 19 21 59q0 22 -6 37q-8 15 -21 27q-14 11 -35 20q-39 13 -53 17q-54 17 -93 36q-40 19 -66 45t-38 62q-13 35 -13 85q0 48 16 84
q17 38 47 64q30 27 74 42q45 14 97 14q109 0 171 -50q63 -52 67 -158h-156q-3 47 -24 66q-22 19 -59 19q-36 0 -55 -18q-19 -19 -19 -51q0 -16 5 -31q5 -14 17 -25q13 -11 33 -20q18 -8 52 -18q42 -11 90 -31q40 -16 70 -43q28 -25 45 -64q16 -36 16 -93q0 -101 -64 -159
q-64 -60 -180 -60z" />
    <glyph glyph-name="scircumflex" unicode="&#x15d;" horiz-adv-x="455" 
d="M165 740h115l101 -156h-104l-57 59l-58 -59h-102zM229 -10q-99 0 -151 43q-55 44 -56 128h139q2 -35 17 -52q15 -18 50 -18q58 0 58 51q0 14 -6 24q-5 8 -18 16q-10 6 -30 13q-18 6 -42 12q-39 11 -72 26q-28 12 -50 34q-20 21 -29 46q-10 26 -10 64q0 39 15 69
q16 30 41 49q23 17 61 29q33 10 75 10q41 0 78 -8q37 -10 61 -28q24 -19 40 -50q15 -32 18 -75h-137q-6 61 -60 61q-27 0 -40 -12q-14 -14 -14 -34q0 -26 20 -37q18 -10 67 -24q42 -11 75 -24q36 -15 56 -32q21 -18 34 -47q12 -27 12 -66q0 -85 -53 -126q-52 -42 -149 -42z
" />
    <glyph glyph-name="uni015E" unicode="&#x15e;" horiz-adv-x="561" 
d="M284 -11q-124 0 -189 56t-68 170h160q1 -51 23 -77q21 -26 74 -26q38 0 61 21q21 19 21 59q0 22 -6 37q-8 15 -21 27q-14 11 -35 20q-39 13 -53 17q-54 17 -93 36q-40 19 -66 45t-38 62q-13 35 -13 85q0 48 16 84q17 38 47 64q30 27 74 42q45 14 97 14q109 0 171 -50
q63 -52 67 -158h-156q-3 47 -24 66q-22 19 -59 19q-36 0 -55 -18q-19 -19 -19 -51q0 -16 5 -31q5 -14 17 -25q13 -11 33 -20q18 -8 52 -18q42 -11 90 -31q40 -16 70 -43q28 -25 45 -64q16 -36 16 -93q0 -101 -64 -159q-64 -60 -180 -60zM274 -216q-50 0 -81 23
q-31 22 -36 65h77q2 -10 10 -19q8 -8 23 -8q14 0 24 8q8 8 8 21q0 14 -8 22q-9 9 -24 9q-11 0 -18 -4q-8 -3 -12 -7l-36 35l45 71h65l-28 -44q23 2 38 -2q18 -3 32 -14t23 -27q8 -18 8 -39q0 -44 -30 -67q-32 -23 -80 -23z" />
    <glyph glyph-name="uni015F" unicode="&#x15f;" horiz-adv-x="455" 
d="M229 -10q-99 0 -151 43q-55 44 -56 128h139q2 -35 17 -52q15 -18 50 -18q58 0 58 51q0 14 -6 24q-5 8 -18 16q-10 6 -30 13q-18 6 -42 12q-39 11 -72 26q-28 12 -50 34q-20 21 -29 46q-10 26 -10 64q0 39 15 69q16 30 41 49q23 17 61 29q33 10 75 10q41 0 78 -8
q37 -10 61 -28q24 -19 40 -50q15 -32 18 -75h-137q-6 61 -60 61q-27 0 -40 -12q-14 -14 -14 -34q0 -26 20 -37q18 -10 67 -24q42 -11 75 -24q36 -15 56 -32q21 -18 34 -47q12 -27 12 -66q0 -85 -53 -126q-52 -42 -149 -42zM221 -216q-50 0 -81 23q-31 22 -36 65h77
q1 -10 10 -19q8 -8 23 -8q14 0 24 8q8 8 8 21q0 14 -8 22q-9 9 -24 9q-11 0 -18 -4q-8 -3 -12 -7l-36 35l45 71h65l-28 -44q23 2 38 -2q18 -3 32 -14t23 -27q8 -18 8 -39q0 -44 -30 -67q-32 -23 -80 -23z" />
    <glyph glyph-name="Scaron" unicode="&#x160;" horiz-adv-x="561" 
d="M109 896h107l57 -50l58 50h104l-100 -138h-128zM284 -11q-124 0 -189 56t-68 170h160q1 -51 23 -77q21 -26 74 -26q38 0 61 21q21 19 21 59q0 22 -6 37q-8 15 -21 27q-14 11 -35 20q-39 13 -53 17q-54 17 -93 36q-40 19 -66 45t-38 62q-13 35 -13 85q0 48 16 84
q17 38 47 64q30 27 74 42q45 14 97 14q109 0 171 -50q63 -52 67 -158h-156q-3 47 -24 66q-22 19 -59 19q-36 0 -55 -18q-19 -19 -19 -51q0 -16 5 -31q5 -14 17 -25q13 -11 33 -20q18 -8 52 -18q42 -11 90 -31q40 -16 70 -43q28 -25 45 -64q16 -36 16 -93q0 -101 -64 -159
q-64 -60 -180 -60z" />
    <glyph glyph-name="scaron" unicode="&#x161;" horiz-adv-x="455" 
d="M58 740h104l57 -59l59 59h101l-105 -156h-115zM229 -10q-99 0 -151 43q-55 44 -56 128h139q2 -35 17 -52q15 -18 50 -18q58 0 58 51q0 14 -6 24q-5 8 -18 16q-10 6 -30 13q-18 6 -42 12q-39 11 -72 26q-28 12 -50 34q-20 21 -29 46q-10 26 -10 64q0 39 15 69q16 30 41 49
q23 17 61 29q33 10 75 10q41 0 78 -8q37 -10 61 -28q24 -19 40 -50q15 -32 18 -75h-137q-6 61 -60 61q-27 0 -40 -12q-14 -14 -14 -34q0 -26 20 -37q18 -10 67 -24q42 -11 75 -24q36 -15 56 -32q21 -18 34 -47q12 -27 12 -66q0 -85 -53 -126q-52 -42 -149 -42z" />
    <glyph glyph-name="Tcommaaccent" unicode="&#x162;" horiz-adv-x="523" 
d="M159 -191l38 156l136 -9l-87 -170zM177 585h-157v130h483v-130h-158l-1 -585h-167v585z" />
    <glyph glyph-name="tcommaaccent" unicode="&#x163;" horiz-adv-x="339" 
d="M86 -191l38 156l136 -9l-87 -170zM220 630v-107h92v-105h-92v-254q0 -53 49 -53q30 0 44 7v-114q-4 -2 -31 -8q-21 -3 -47 -3q-83 0 -124 38t-41 119v268h-56v105h56v107h150z" />
    <glyph glyph-name="Tcaron" unicode="&#x164;" horiz-adv-x="523" 
d="M96 896h107l57 -50l58 50h104l-100 -138h-128zM177 585h-157v130h483v-130h-158l-1 -585h-167v585z" />
    <glyph glyph-name="tcaron" unicode="&#x165;" horiz-adv-x="339" 
d="M268 751h116l-44 -166h-80zM220 630v-107h92v-105h-92v-254q0 -53 49 -53q30 0 44 7v-114q-4 -2 -31 -8q-21 -3 -47 -3q-83 0 -124 38t-41 119v268h-56v105h56v107h150z" />
    <glyph glyph-name="Tbar" unicode="&#x166;" horiz-adv-x="523" 
d="M68 422h109v163h-157v130h483v-130h-158l-1 -163h116v-111h-116v-311h-167v311h-109v111z" />
    <glyph glyph-name="tbar" unicode="&#x167;" horiz-adv-x="339" 
d="M14 342h56v76h-56v105h56v107h150v-107h92v-105h-92v-76h95v-75h-95v-103q0 -53 49 -53q30 0 44 7v-114q-4 -2 -31 -8q-21 -3 -47 -3q-83 0 -124 38t-41 119v117h-56v75z" />
    <glyph glyph-name="Utilde" unicode="&#x168;" horiz-adv-x="640" 
d="M585 715v-469q0 -131 -70 -194q-71 -63 -197 -63q-127 0 -194 64q-69 63 -69 191v471h167v-465q0 -68 22 -97q21 -31 75 -31q53 0 76 30q22 29 22 101v462h168zM374 758q-16 0 -33 5q-11 3 -29 11q-4 2 -12 5.5t-12 5.5q-13 5 -22 5q-12 0 -19 -9q-8 -10 -11 -23h-86
q4 70 36 105q30 34 71 34q16 0 34 -5q6 -2 16 -5.5t13 -4.5q23 -10 25 -11q12 -5 22 -5q23 0 29 32h86q-4 -71 -36 -106q-31 -34 -72 -34z" />
    <glyph glyph-name="utilde" unicode="&#x169;" horiz-adv-x="530" 
d="M483 0h-149v72q-19 -37 -52 -59q-34 -24 -89 -24q-34 0 -60 10q-30 13 -48 32q-21 22 -31 53q-11 33 -11 75v364h150v-342q0 -39 15 -58t48 -19q34 0 57 21q21 21 21 64v334h149v-523zM320 588q-16 0 -33 5q-13 4 -27 11l-22 11q-12 5 -21 5q-11 0 -19 -9q-9 -10 -10 -24
h-83q5 74 32 107q27 35 69 35q16 0 33 -5q9 -3 27 -11q4 -2 12 -5.5t12 -5.5q12 -5 22 -5q12 0 19 9q7 8 10 24h83q-4 -71 -34 -107q-30 -35 -70 -35z" />
    <glyph glyph-name="Umacron" unicode="&#x16a;" horiz-adv-x="640" 
d="M585 715v-469q0 -131 -70 -194q-71 -63 -197 -63q-127 0 -194 64q-69 63 -69 191v471h167v-465q0 -68 22 -97q21 -31 75 -31q53 0 76 30q22 29 22 101v462h168zM173 865h286v-96h-286v96z" />
    <glyph glyph-name="umacron" unicode="&#x16b;" horiz-adv-x="530" 
d="M483 0h-149v72q-19 -37 -52 -59q-34 -24 -89 -24q-34 0 -60 10q-30 13 -48 32q-21 22 -31 53q-11 33 -11 75v364h150v-342q0 -39 15 -58t48 -19q34 0 57 21q21 21 21 64v334h149v-523zM127 698h273v-91h-273v91z" />
    <glyph glyph-name="Ubreve" unicode="&#x16c;" horiz-adv-x="640" 
d="M585 715v-469q0 -131 -70 -194q-71 -63 -197 -63q-127 0 -194 64q-69 63 -69 191v471h167v-465q0 -68 22 -97q21 -31 75 -31q53 0 76 30q22 29 22 101v462h168zM315 752q-65 0 -103 37q-39 36 -43 103h98q1 -20 14 -32q12 -12 34 -12q21 0 35 12q13 12 15 32h98
q-4 -67 -45 -103q-40 -37 -103 -37z" />
    <glyph glyph-name="ubreve" unicode="&#x16d;" horiz-adv-x="530" 
d="M483 0h-149v72q-19 -37 -52 -59q-34 -24 -89 -24q-34 0 -60 10q-30 13 -48 32q-21 22 -31 53q-11 33 -11 75v364h150v-342q0 -39 15 -58t48 -19q34 0 57 21q21 21 21 64v334h149v-523zM263 585q-61 0 -101 38q-39 38 -42 110h95q4 -49 48 -49q47 0 51 49h94
q-4 -73 -44 -110q-41 -38 -101 -38z" />
    <glyph glyph-name="Uring" unicode="&#x16e;" horiz-adv-x="640" 
d="M585 715v-469q0 -131 -70 -194q-71 -63 -197 -63q-127 0 -194 64q-69 63 -69 191v471h167v-465q0 -68 22 -97q21 -31 75 -31q53 0 76 30q22 29 22 101v462h168zM316 729q-22 0 -43 8q-20 8 -34 23q-16 14 -23 33q-9 19 -9 41t9 41q7 19 23 33q14 14 34 23q21 8 43 8
t43 -8q19 -9 35 -23q14 -14 23 -33q8 -21 8 -41t-8 -41q-9 -19 -23 -33q-16 -16 -35 -23q-21 -8 -43 -8zM316 787q19 0 31 14q12 13 12 33t-12 34q-12 13 -31 13q-21 0 -31 -13q-12 -14 -12 -34t12 -33q11 -14 31 -14z" />
    <glyph glyph-name="uring" unicode="&#x16f;" horiz-adv-x="530" 
d="M262 562q-21 0 -42 8q-20 8 -34 23q-16 14 -23 33q-9 20 -9 40q0 22 9 41q7 18 23 34q14 14 34 23q21 8 42 8q22 0 43 -8q17 -8 34 -23q15 -17 23 -34q8 -21 8 -41q0 -19 -8 -40q-9 -19 -23 -33q-16 -16 -34 -23q-21 -8 -43 -8zM262 620q19 0 31 13t12 33q0 22 -12 35
t-31 13t-31 -13t-12 -35q0 -20 12 -33t31 -13zM483 0h-149v72q-19 -37 -52 -59q-34 -24 -89 -24q-34 0 -60 10q-30 13 -48 32q-21 22 -31 53q-11 33 -11 75v364h150v-342q0 -39 15 -58t48 -19q34 0 57 21q21 21 21 64v334h149v-523z" />
    <glyph glyph-name="Uhungarumlaut" unicode="&#x170;" horiz-adv-x="640" 
d="M204 896h134l-65 -138h-101zM376 896h134l-65 -138h-102zM585 715v-469q0 -131 -70 -194q-71 -63 -197 -63q-127 0 -194 64q-69 63 -69 191v471h167v-465q0 -68 22 -97q21 -31 75 -31q53 0 76 30q22 29 22 101v462h168z" />
    <glyph glyph-name="uhungarumlaut" unicode="&#x171;" horiz-adv-x="530" 
d="M483 0h-149v72q-19 -37 -52 -59q-34 -24 -89 -24q-34 0 -60 10q-30 13 -48 32q-21 22 -31 53q-11 33 -11 75v364h150v-342q0 -39 15 -58t48 -19q34 0 57 21q21 21 21 64v334h149v-523zM163 741h125l-66 -158h-93zM322 741h125l-66 -158h-92z" />
    <glyph glyph-name="Uogonek" unicode="&#x172;" horiz-adv-x="640" 
d="M361 -181q-44 0 -76 20q-31 19 -31 57q0 32 18 54t42 39q-124 0 -191 64q-68 65 -68 191v471h167v-465q0 -68 22 -97q21 -31 75 -31q53 0 76 30q22 29 22 101v462h168v-469q0 -90 -32 -145q-32 -54 -88 -83q-5 -2 -15 -7.5t-15 -8.5q-17 -9 -28 -19q-13 -10 -20 -23
q-8 -13 -8 -28q0 -13 8 -21q7 -7 22 -7q17 0 29 5v-75q-14 -7 -31 -11t-46 -4z" />
    <glyph glyph-name="uogonek" unicode="&#x173;" horiz-adv-x="530" 
d="M304 -104q0 20 7 34q5 13 17 29q7 9 25 23q13 10 29 18h-48v72q-19 -37 -52 -59q-34 -24 -89 -24q-34 0 -60 10q-30 13 -48 32q-21 22 -31 53q-11 33 -11 75v364h150v-342q0 -39 15 -58t48 -19q34 0 57 21q21 21 21 64v334h149v-523h-12q-23 -21 -31 -34q-11 -17 -11 -34
q0 -13 8 -21q7 -7 22 -7q17 0 29 5v-75q-14 -7 -31 -11t-46 -4q-44 0 -76 20q-31 19 -31 57z" />
    <glyph glyph-name="Wcircumflex" unicode="&#x174;" horiz-adv-x="839" 
d="M359 896h128l98 -138h-107l-57 49l-58 -49h-104zM15 715h168l80 -469l95 469h129l101 -472l82 472h154l-143 -715h-159l-98 446l-99 -446h-168z" />
    <glyph glyph-name="wcircumflex" unicode="&#x175;" horiz-adv-x="727" 
d="M308 740h115l101 -156h-104l-57 59l-58 -59h-102zM10 523h155l66 -329l82 329h115l76 -329l72 329h140l-137 -523h-146l-70 302l-74 -302h-148z" />
    <glyph glyph-name="Ycircumflex" unicode="&#x176;" horiz-adv-x="569" 
d="M205 305l-197 410h181l107 -259l107 259h158l-188 -410v-305h-168v305zM228 896h128l98 -138h-107l-57 49l-58 -49h-104z" />
    <glyph glyph-name="ycircumflex" unicode="&#x177;" horiz-adv-x="502" 
d="M263 223l88 300h142l-237 -698h-144l74 220l-177 478h160zM200 740h115l101 -156h-104l-57 59l-58 -59h-102z" />
    <glyph glyph-name="Ydieresis" unicode="&#x178;" horiz-adv-x="569" 
d="M205 305l-197 410h181l107 -259l107 259h158l-188 -410v-305h-168v305zM191 760q-31 0 -53 21t-22 52t22 52t53 21t54 -21q22 -21 22 -52t-22 -52q-23 -21 -54 -21zM390 760q-31 0 -52 21q-22 21 -22 52t22 52q21 21 52 21q32 0 54 -21t22 -52t-22 -52t-54 -21z" />
    <glyph glyph-name="Zacute" unicode="&#x179;" horiz-adv-x="522" 
d="M247 896h160l-92 -138h-114zM12 19l270 570h-236v126h458v-19l-269 -568h256v-128h-479v19z" />
    <glyph glyph-name="zacute" unicode="&#x17a;" horiz-adv-x="434" 
d="M214 741h156l-95 -158h-109zM11 15l205 393h-182v115h387v-17l-209 -391h198v-115h-399v15z" />
    <glyph glyph-name="Zdotaccent" unicode="&#x17b;" horiz-adv-x="522" 
d="M12 19l270 570h-236v126h458v-19l-269 -568h256v-128h-479v19zM266 759q-35 0 -58 23q-24 22 -24 55t24 56q22 22 58 22t58 -22q23 -23 23 -56q0 -32 -23 -55t-58 -23z" />
    <glyph glyph-name="zdotaccent" unicode="&#x17c;" horiz-adv-x="434" 
d="M11 15l205 393h-182v115h387v-17l-209 -391h198v-115h-399v15zM225 581q-34 0 -59 23q-24 22 -24 55q0 35 24 57q23 22 59 22t59 -22q23 -23 23 -57q0 -32 -23 -55q-25 -23 -59 -23z" />
    <glyph glyph-name="Zcaron" unicode="&#x17d;" horiz-adv-x="522" 
d="M102 896h107l57 -50l58 50h104l-100 -138h-128zM12 19l270 570h-236v126h458v-19l-269 -568h256v-128h-479v19z" />
    <glyph glyph-name="zcaron" unicode="&#x17e;" horiz-adv-x="434" 
d="M64 740h104l57 -59l59 59h101l-105 -156h-115zM11 15l205 393h-182v115h387v-17l-209 -391h198v-115h-399v15z" />
    <glyph glyph-name="uni0192" unicode="&#x192;" horiz-adv-x="392" 
d="M88 315h-67v106h80l16 127q12 94 63 134q50 40 135 40q35 0 64 -8v-116q-9 4 -19 5q-8 1 -25 1q-31 0 -46 -17q-16 -16 -21 -50l-15 -116h102v-106h-115l-62 -482h-151z" />
    <glyph glyph-name="Aringacute" unicode="&#x1fa;" horiz-adv-x="616" 
d="M396 147h-195l-33 -147h-154l182 715h225l181 -715h-173zM228 264h141l-71 312zM297 1104h160l-92 -138h-114zM310 739q-22 0 -43 8q-20 8 -34 23q-16 14 -23 33q-9 19 -9 41t9 41q7 19 23 33q14 14 34 23q21 8 43 8t43 -8q19 -9 35 -23q14 -14 23 -33q8 -21 8 -41
t-8 -41q-9 -19 -23 -33q-16 -16 -35 -23q-21 -8 -43 -8zM310 797q19 0 31 14q12 13 12 33q0 21 -12 34t-31 13q-21 0 -31 -13q-12 -13 -12 -34q0 -20 12 -33q11 -14 31 -14z" />
    <glyph glyph-name="aringacute" unicode="&#x1fb;" horiz-adv-x="499" 
d="M178 -10q-32 0 -59 9q-29 9 -48 28q-21 18 -33 47t-12 67v12q0 88 61 124q62 35 168 35h52v37q0 37 -12 58q-12 20 -49 20q-32 0 -46 -17q-16 -19 -17 -47h-141q4 88 61 130q58 41 150 41q97 0 149 -42q53 -44 53 -137v-355h-145v56q-5 -9 -19 -25q-12 -12 -27 -21
q-17 -9 -37 -15q-23 -5 -49 -5zM230 92q35 0 56 18t21 55v55h-46q-46 0 -66 -13q-22 -13 -22 -46v-11q0 -58 57 -58zM249 572q-21 0 -42 8q-20 8 -34 23q-16 14 -23 33q-9 20 -9 40q0 22 9 41q7 18 23 34q14 14 34 23q21 8 42 8q22 0 43 -8q17 -8 34 -23q15 -17 23 -34
q8 -21 8 -41q0 -19 -8 -40q-9 -19 -23 -33q-16 -16 -34 -23q-21 -8 -43 -8zM249 630q19 0 31 13t12 33q0 22 -12 35t-31 13t-31 -13t-12 -35q0 -20 12 -33t31 -13zM239 942h160l-92 -138h-114z" />
    <glyph glyph-name="AEacute" unicode="&#x1fc;" horiz-adv-x="833" 
d="M490 896h160l-92 -138h-114zM266 715h525v-130h-238v-156h188v-121h-188v-178h251v-130h-417v155h-166l-52 -155h-157zM260 269h127v316h-21z" />
    <glyph glyph-name="aeacute" unicode="&#x1fd;" horiz-adv-x="780" 
d="M387 741h156l-95 -158h-109zM198 -10q-76 0 -124 39q-48 37 -48 114v13q0 88 61 125q59 37 167 37h53v32q0 39 -13 58t-48 19q-33 0 -46 -16q-14 -17 -17 -48h-140q4 84 60 128q55 43 147 43q101 0 140 -54q54 54 143 54q47 0 86 -13q41 -14 70 -41q31 -30 47 -71
q17 -45 17 -103v-79h-304v-11q0 -63 22 -91q21 -29 64 -29q38 0 56 18q18 17 23 49h140q-7 -85 -64 -129q-56 -44 -157 -44q-119 0 -171 79q-27 -39 -63 -58q-37 -21 -101 -21zM531 432q-35 0 -57 -25q-24 -27 -25 -89h160v16q0 53 -19 75q-20 23 -59 23zM230 92q36 0 56 19
q21 18 21 54v62h-46q-45 0 -67 -12q-22 -13 -22 -50v-15q0 -58 58 -58z" />
    <glyph glyph-name="Oslashacute" unicode="&#x1fe;" horiz-adv-x="680" 
d="M27 10l66 85q-29 37 -45 87q-16 48 -16 109v132q0 69 24 125q22 54 64 96q40 39 98 60q55 21 122 21q118 0 198 -59l54 70l48 -39l-57 -73q33 -39 49 -87q17 -51 17 -111v-131q0 -72 -22 -126q-22 -56 -63 -97q-39 -39 -98 -61q-56 -22 -127 -22q-63 0 -112 16
q-52 17 -90 46l-62 -80zM202 288q0 -31 4 -48l239 307q-36 47 -105 47q-65 0 -101 -44q-37 -44 -37 -126v-136zM342 121q63 0 100 46q36 45 36 126v137q0 24 -5 52l-240 -308q36 -53 109 -53zM321 896h160l-92 -138h-114z" />
    <glyph glyph-name="oslashacute" unicode="&#x1ff;" horiz-adv-x="530" 
d="M20 3l55 68q-23 29 -36 66q-13 36 -13 83v79q0 55 18 99t50 74q30 29 76 46q42 16 96 16q86 0 147 -42l49 61l46 -34l-53 -65q22 -27 37 -67q13 -36 13 -84v-79q0 -56 -18 -99q-18 -44 -50 -74q-31 -29 -76 -45q-42 -16 -96 -16q-87 0 -148 42l-52 -65zM174 217v-11
q0 -7 1 -10l159 197q-24 30 -68 30t-68 -29q-24 -28 -24 -86v-91zM266 101q46 0 68 30q23 31 23 87v90v12q0 7 -1 10l-159 -199q23 -30 69 -30zM254 741h156l-95 -158h-109z" />
    <glyph glyph-name="uni0218" unicode="&#x218;" horiz-adv-x="561" 
d="M170 -191l38 156l136 -9l-87 -170zM284 -11q-124 0 -189 56t-68 170h160q1 -51 23 -77q21 -26 74 -26q38 0 61 21q21 19 21 59q0 22 -6 37q-8 15 -21 27q-14 11 -35 20q-39 13 -53 17q-54 17 -93 36q-40 19 -66 45t-38 62q-13 35 -13 85q0 48 16 84q17 38 47 64
q30 27 74 42q45 14 97 14q109 0 171 -50q63 -52 67 -158h-156q-3 47 -24 66q-22 19 -59 19q-36 0 -55 -18q-19 -19 -19 -51q0 -16 5 -31q5 -14 17 -25q13 -11 33 -20q18 -8 52 -18q42 -11 90 -31q40 -16 70 -43q28 -25 45 -64q16 -36 16 -93q0 -101 -64 -159
q-64 -60 -180 -60z" />
    <glyph glyph-name="uni0219" unicode="&#x219;" horiz-adv-x="455" 
d="M119 -191l38 156l136 -9l-87 -170zM228 -10q-99 0 -151 43q-55 44 -56 128h139q2 -35 17 -52q15 -18 50 -18q58 0 58 51q0 14 -6 24q-5 8 -18 16q-10 6 -30 13q-18 6 -42 12q-39 11 -72 26q-28 12 -50 34q-21 21 -29 46q-10 26 -10 64q0 39 15 69q16 30 41 49
q23 17 61 29q33 10 75 10q41 0 78 -8q37 -10 61 -28q24 -19 40 -50q15 -32 18 -75h-137q-6 61 -60 61q-26 0 -40 -12q-14 -14 -14 -34q0 -26 20 -37q18 -10 67 -24q42 -11 75 -24q36 -15 56 -32q21 -18 34 -47q12 -27 12 -66q0 -85 -53 -126q-53 -42 -149 -42z" />
    <glyph glyph-name="uni021A" unicode="&#x21a;" horiz-adv-x="523" 
d="M159 -191l38 156l136 -9l-87 -170zM177 585h-157v130h483v-130h-158l-1 -585h-167v585z" />
    <glyph glyph-name="uni021B" unicode="&#x21b;" horiz-adv-x="339" 
d="M86 -191l38 156l136 -9l-87 -170zM220 630v-107h92v-105h-92v-254q0 -53 49 -53q30 0 44 7v-114q-4 -2 -31 -8q-21 -3 -47 -3q-83 0 -124 38t-41 119v268h-56v105h56v107h150z" />
    <glyph glyph-name="uni0237" unicode="&#x237;" horiz-adv-x="248" 
d="M-15 -71q33 3 50 17q15 15 15 46v531h148v-534q0 -42 -10 -72t-36 -53q-26 -21 -65 -33q-39 -11 -102 -13v111z" />
    <glyph glyph-name="circumflex" unicode="&#x2c6;" horiz-adv-x="400" 
d="M144 740h115l101 -156h-104l-57 59l-58 -59h-102z" />
    <glyph glyph-name="caron" unicode="&#x2c7;" horiz-adv-x="400" 
d="M39 740h104l57 -59l59 59h101l-105 -156h-115z" />
    <glyph glyph-name="breve" unicode="&#x2d8;" horiz-adv-x="400" 
d="M199 585q-61 0 -101 38q-39 38 -42 110h95q4 -49 48 -49q47 0 51 49h94q-4 -73 -44 -110q-41 -38 -101 -38z" />
    <glyph glyph-name="dotaccent" unicode="&#x2d9;" horiz-adv-x="400" 
d="M200 581q-34 0 -59 23q-24 22 -24 55q0 35 24 57q23 22 59 22t59 -22q23 -23 23 -57q0 -32 -23 -55q-25 -23 -59 -23z" />
    <glyph glyph-name="ring" unicode="&#x2da;" horiz-adv-x="400" 
d="M200 578q-21 0 -42 8q-20 8 -34 23q-16 14 -23 33q-9 20 -9 40q0 22 9 41q7 18 23 34q14 14 34 23q21 8 42 8q22 0 43 -8q17 -8 34 -23q15 -17 23 -34q8 -21 8 -41q0 -19 -8 -40q-9 -19 -23 -33q-16 -16 -34 -23q-21 -8 -43 -8zM200 636q19 0 31 13t12 33q0 22 -12 35
t-31 13t-31 -13t-12 -35q0 -20 12 -33t31 -13z" />
    <glyph glyph-name="ogonek" unicode="&#x2db;" horiz-adv-x="400" 
d="M208 -181q-44 0 -76 20q-31 19 -31 57q0 20 7 34q5 13 17 29q7 9 25 23q13 10 29 18h89q-23 -21 -31 -34q-11 -17 -11 -34q0 -13 8 -21q7 -7 22 -7q17 0 29 5v-75q-14 -7 -31 -11t-46 -4z" />
    <glyph glyph-name="tilde" unicode="&#x2dc;" horiz-adv-x="400" 
d="M256 588q-16 0 -33 5q-12 4 -27 11l-22 11q-12 5 -21 5q-11 0 -19 -9q-9 -10 -10 -24h-83q5 74 32 107q27 35 69 35q16 0 33 -5q9 -3 27 -11q4 -2 12 -5.5t12 -5.5q12 -5 22 -5q12 0 19 9q7 8 10 24h83q-4 -71 -34 -107q-30 -35 -70 -35z" />
    <glyph glyph-name="hungarumlaut" unicode="&#x2dd;" horiz-adv-x="400" 
d="M104 741h125l-66 -158h-93zM263 741h125l-66 -158h-92z" />
    <glyph glyph-name="Wgrave" unicode="&#x1e80;" horiz-adv-x="839" 
d="M283 896h160l44 -138h-114zM15 715h168l80 -469l95 469h129l101 -472l82 472h154l-143 -715h-159l-98 446l-99 -446h-168z" />
    <glyph glyph-name="wgrave" unicode="&#x1e81;" horiz-adv-x="727" 
d="M10 523h155l66 -329l82 329h115l76 -329l72 329h140l-137 -523h-146l-70 302l-74 -302h-148zM224 741h157l49 -158h-110z" />
    <glyph glyph-name="Wacute" unicode="&#x1e82;" horiz-adv-x="839" 
d="M410 896h160l-92 -138h-114zM15 715h168l80 -469l95 469h129l101 -472l82 472h154l-143 -715h-159l-98 446l-99 -446h-168z" />
    <glyph glyph-name="wacute" unicode="&#x1e83;" horiz-adv-x="727" 
d="M362 741h156l-95 -158h-109zM10 523h155l66 -329l82 329h115l76 -329l72 329h140l-137 -523h-146l-70 302l-74 -302h-148z" />
    <glyph glyph-name="Wdieresis" unicode="&#x1e84;" horiz-adv-x="839" 
d="M323 760q-31 0 -53 21t-22 52t22 52t53 21t54 -21q22 -21 22 -52t-22 -52q-23 -21 -54 -21zM522 760q-31 0 -52 21q-22 21 -22 52t22 52q21 21 52 21q32 0 54 -21t22 -52t-22 -52t-54 -21zM15 715h168l80 -469l95 469h129l101 -472l82 472h154l-143 -715h-159l-98 446
l-99 -446h-168z" />
    <glyph glyph-name="wdieresis" unicode="&#x1e85;" horiz-adv-x="727" 
d="M273 582q-32 0 -54 22q-22 21 -22 52q0 32 22 54q23 21 54 21t54 -21q22 -22 22 -54q0 -31 -22 -52q-22 -22 -54 -22zM465 582q-32 0 -54 22q-22 21 -22 52q0 32 22 54q23 21 54 21q33 0 55 -21q22 -22 22 -54q0 -31 -22 -52q-22 -22 -55 -22zM10 523h155l66 -329l82 329
h115l76 -329l72 329h140l-137 -523h-146l-70 302l-74 -302h-148z" />
    <glyph glyph-name="Ygrave" unicode="&#x1ef2;" horiz-adv-x="569" 
d="M205 305l-197 410h181l107 -259l107 259h158l-188 -410v-305h-168v305zM153 896h160l44 -138h-114z" />
    <glyph glyph-name="ygrave" unicode="&#x1ef3;" horiz-adv-x="502" 
d="M263 223l88 300h142l-237 -698h-144l74 220l-177 478h160zM113 741h157l49 -158h-110z" />
    <glyph glyph-name="uni2009" unicode="&#x2009;" horiz-adv-x="84" 
 />
    <glyph glyph-name="endash" unicode="&#x2013;" horiz-adv-x="528" 
d="M42 334h444v-93h-444v93z" />
    <glyph glyph-name="emdash" unicode="&#x2014;" horiz-adv-x="920" 
d="M42 334h837v-93h-837v93z" />
    <glyph glyph-name="quoteleft" unicode="&#x2018;" horiz-adv-x="264" 
d="M230 695l-69 -234l-134 43l117 222z" />
    <glyph glyph-name="quoteright" unicode="&#x2019;" horiz-adv-x="264" 
d="M35 493l68 234l134 -43l-116 -223z" />
    <glyph glyph-name="quotesinglbase" unicode="&#x201a;" horiz-adv-x="261" 
d="M32 -65l68 235l134 -42l-116 -225z" />
    <glyph glyph-name="quotedblleft" unicode="&#x201c;" horiz-adv-x="458" 
d="M230 695l-69 -234l-134 43l117 222zM424 695l-68 -234l-135 43l117 222z" />
    <glyph glyph-name="quotedblright" unicode="&#x201d;" horiz-adv-x="459" 
d="M35 493l68 234l134 -43l-116 -223zM230 493l69 234l134 -43l-117 -223z" />
    <glyph glyph-name="quotedblbase" unicode="&#x201e;" horiz-adv-x="456" 
d="M32 -65l68 235l134 -42l-116 -225zM228 -65l67 235l134 -42l-116 -225z" />
    <glyph glyph-name="dagger" unicode="&#x2020;" horiz-adv-x="358" 
d="M119 501h-94v105h94v109h121v-109h93v-105h-93v-252h-121v252z" />
    <glyph glyph-name="daggerdbl" unicode="&#x2021;" horiz-adv-x="358" 
d="M119 347h-94v98h94v74h-94v98h94v98h121v-98h93v-98h-93v-74h93v-98h-93v-98h-121v98z" />
    <glyph glyph-name="bullet" unicode="&#x2022;" horiz-adv-x="330" 
d="M165 181q-29 0 -50 10q-26 11 -41 28q-17 16 -27 40q-10 21 -10 50t10 50q9 23 27 41q16 16 41 27q21 10 50 10t52 -10q24 -11 40 -27q16 -17 27 -41q9 -22 9 -50q0 -27 -9 -50q-11 -24 -27 -40q-15 -16 -40 -28q-23 -10 -52 -10z" />
    <glyph glyph-name="ellipsis" unicode="&#x2026;" horiz-adv-x="771" 
d="M129 -8q-38 0 -63 25q-25 24 -25 60q0 37 25 62t63 25t63 -25t25 -62q0 -36 -25 -60q-25 -25 -63 -25zM385 -8q-38 0 -63 25q-25 24 -25 60q0 37 25 62t63 25q39 0 64 -25t25 -62q0 -36 -25 -60q-25 -25 -64 -25zM641 -8q-38 0 -63 25q-25 24 -25 60q0 37 25 62t63 25
q39 0 64 -25t25 -62q0 -36 -25 -60q-25 -25 -64 -25z" />
    <glyph glyph-name="perthousand" unicode="&#x2030;" horiz-adv-x="1081" 
d="M193 398q-37 0 -69 12q-31 12 -53 34t-34 52q-12 28 -12 65q0 36 13 65t36 52q23 22 53 33q31 12 66 12t67 -12q31 -12 53 -33t36 -50q13 -27 13 -64q0 -36 -12 -66q-14 -32 -35 -53q-22 -22 -53 -34q-30 -13 -69 -13zM545 715h87l-456 -715h-88zM193 490q26 0 41 19
q14 20 14 53q0 31 -14 51q-15 19 -41 19q-27 0 -40 -18q-14 -20 -14 -52q0 -34 14 -53q13 -19 40 -19zM524 -10q-38 0 -69 12t-53 34t-34 52q-12 29 -12 65t13 65q13 28 36 51q23 22 53 33q32 12 66 12t67 -11q31 -12 53 -33t36 -50q13 -29 13 -65t-12 -66q-14 -32 -35 -52
q-22 -22 -53 -34q-30 -13 -69 -13zM887 -10q-37 0 -69 12q-31 12 -53 34t-34 52q-12 29 -12 65t13 65q14 28 36 51q22 21 54 33t66 12t67 -11q31 -12 53 -33q20 -19 35 -50q13 -29 13 -65t-12 -66q-12 -31 -34 -52q-22 -22 -54 -34q-30 -13 -69 -13zM524 81q28 0 41 19
q14 20 14 53t-14 53q-13 19 -41 19q-27 0 -40 -19q-14 -20 -14 -53q0 -34 14 -53q13 -19 40 -19zM888 81q26 0 41 19q14 20 14 53t-14 53q-15 19 -41 19q-27 0 -40 -19q-15 -20 -15 -53q0 -35 15 -53q13 -19 40 -19z" />
    <glyph glyph-name="uni2032" unicode="&#x2032;" horiz-adv-x="215" 
d="M49 715h142l-56 -249h-104z" />
    <glyph glyph-name="uni2033" unicode="&#x2033;" horiz-adv-x="398" 
d="M49 715h142l-56 -249h-104zM233 715h141l-55 -249h-104z" />
    <glyph glyph-name="guilsinglleft" unicode="&#x2039;" horiz-adv-x="276" 
d="M31 261l108 180h107l-104 -180l104 -180h-107z" />
    <glyph glyph-name="guilsinglright" unicode="&#x203a;" horiz-adv-x="276" 
d="M135 261l-106 180h108l108 -180l-108 -180h-108z" />
    <glyph glyph-name="fraction" unicode="&#x2044;" horiz-adv-x="159" 
d="M294 715h84l-513 -715h-85z" />
    <glyph glyph-name="zero.sup" unicode="&#x2070;" horiz-adv-x="374" 
d="M186 381q-78 0 -120 43q-43 43 -43 124v62q0 40 12 72q12 31 34 52q24 22 52 32q31 11 65 11q37 0 66 -10t52 -30q21 -20 35 -52q12 -31 12 -73v-61q0 -82 -43 -125q-44 -45 -122 -45zM187 469q25 0 39 20q12 20 12 61v60q0 43 -13 62t-39 19q-27 0 -37 -19
q-12 -20 -12 -63v-60q0 -41 12 -61q12 -19 38 -19z" />
    <glyph glyph-name="four.sup" unicode="&#x2074;" horiz-adv-x="354" 
d="M181 464h-170v40l143 267h137v-231h44v-76h-44v-76h-110v76zM184 540v150l-74 -150h74z" />
    <glyph glyph-name="five.sup" unicode="&#x2075;" horiz-adv-x="328" 
d="M161 382q-74 0 -107 33q-34 31 -36 88h102q1 -18 11 -28q7 -10 27 -10q17 0 26 12t9 32v16q0 46 -44 46q-17 0 -28 -6q-12 -7 -18 -18h-73l8 224h248v-82h-167l-2 -85q12 16 29 26q20 12 54 12q48 0 77 -29q29 -31 29 -88v-16q0 -60 -37 -93q-37 -34 -108 -34z" />
    <glyph glyph-name="six.sup" unicode="&#x2076;" horiz-adv-x="350" 
d="M182 382q-84 0 -121 45q-38 46 -38 122v60q0 81 45 125q43 43 117 43q64 0 98 -28q36 -29 40 -87h-104q-3 32 -34 32q-25 0 -36 -21t-12 -60v-22q11 18 30 30q19 11 51 11q23 0 44 -6t35 -19q15 -13 24 -33q9 -21 9 -50v-19q0 -57 -39 -90t-109 -33zM181 458q19 0 29 12
q10 11 10 33v19q0 21 -10 32q-10 12 -29 12t-30 -12q-11 -13 -11 -31v-20q0 -20 11 -33q11 -12 30 -12z" />
    <glyph glyph-name="seven.sup" unicode="&#x2077;" horiz-adv-x="305" 
d="M156 680h-139v91h278v-13l-122 -370h-113z" />
    <glyph glyph-name="eight.sup" unicode="&#x2078;" horiz-adv-x="343" 
d="M170 382q-73 0 -111 28q-39 27 -39 81v11q0 32 17 55t48 33q-24 11 -38 29q-14 19 -14 47v6q0 25 11 45q11 21 29 33q15 12 44 20q24 7 54 7q61 0 101 -26q38 -27 38 -78v-7q0 -28 -14 -47q-13 -17 -39 -28q33 -10 50 -33q15 -22 15 -54v-11q0 -53 -39 -82
q-41 -29 -113 -29zM171 619q17 0 27 10q9 9 9 27v9q0 19 -10 28q-11 8 -26 8t-25 -9t-10 -28v-8q0 -19 11 -28t24 -9zM171 459q18 0 29 11t11 30v16q0 19 -11 30t-29 11q-17 0 -28 -11q-12 -10 -12 -31v-15q0 -20 12 -30q11 -11 28 -11z" />
    <glyph glyph-name="nine.sup" unicode="&#x2079;" horiz-adv-x="350" 
d="M168 381q-66 0 -102 30q-37 28 -40 86h103q2 -17 11 -25q8 -9 26 -9q26 0 37 20q10 19 10 57v23q-10 -15 -28 -27q-17 -11 -50 -11q-25 0 -44 6t-37 20q-16 13 -25 34q-9 19 -9 50v16q0 59 39 92t108 33q82 0 121 -45q39 -47 39 -121v-62q0 -81 -40 -124t-119 -43z
M168 592q20 0 30 12q10 10 10 31v18q0 46 -40 46q-18 0 -29 -12q-10 -13 -10 -34v-17q0 -21 10 -32q9 -12 29 -12z" />
    <glyph glyph-name="plus.sup" unicode="&#x207a;" horiz-adv-x="331" 
d="M123 544h-91v83h91v97h84v-97h92v-83h-92v-95h-84v95z" />
    <glyph glyph-name="minus.sup" unicode="&#x207b;" horiz-adv-x="331" 
d="M32 627h267v-83h-267v83z" />
    <glyph glyph-name="zero.sub" unicode="&#x2080;" horiz-adv-x="374" 
d="M186 -122q-78 0 -120 43q-43 43 -43 124v62q0 41 12 72t34 52q24 22 52 32q29 10 65 10q37 0 66 -10t52 -30q21 -18 35 -51q12 -32 12 -73v-61q0 -83 -43 -126q-44 -44 -122 -44zM187 -34q51 0 51 80v61q0 43 -13 62q-13 18 -39 18q-27 0 -37 -19q-12 -20 -12 -62v-60
q0 -42 12 -61t38 -19z" />
    <glyph glyph-name="one.sub" unicode="&#x2081;" horiz-adv-x="256" 
d="M94 155l-74 -47v96l89 64h100v-384h-115v271z" />
    <glyph glyph-name="two.sub" unicode="&#x2082;" horiz-adv-x="318" 
d="M5 -100l114 133q33 39 48 64q17 26 17 52v4q0 35 -31 35q-17 0 -26 -12q-10 -12 -12 -41h-104q2 69 41 104q37 34 106 34q70 0 104 -31q33 -32 33 -83v-3q0 -42 -20 -74q-25 -37 -52 -67l-41 -47h115v-84h-292v16z" />
    <glyph glyph-name="three.sub" unicode="&#x2083;" horiz-adv-x="334" 
d="M166 -122q-78 0 -112 33q-36 34 -37 93h101q3 -45 41 -45t38 39v8q0 21 -10 31q-11 9 -36 9h-24v68h24q46 0 46 39v4q0 37 -33 37q-17 0 -27 -10t-12 -34h-101q3 58 39 91q35 32 104 32q64 0 101 -26q36 -25 36 -77v-5q0 -63 -64 -79q33 -6 52 -27q19 -22 19 -57v-8
q0 -54 -36 -85q-37 -31 -109 -31z" />
    <glyph glyph-name="four.sub" unicode="&#x2084;" horiz-adv-x="354" 
d="M181 -39h-170v39l143 268h137v-230h44v-77h-44v-77h-110v77zM184 38v149l-74 -149h74z" />
    <glyph glyph-name="five.sub" unicode="&#x2085;" horiz-adv-x="328" 
d="M161 -122q-74 0 -107 33q-34 33 -36 89h102q1 -18 11 -29q7 -10 27 -10q17 0 26 12t9 33v16q0 46 -44 46q-18 0 -28 -7q-13 -8 -18 -17h-73l8 224h248v-82h-167l-2 -86q12 16 29 26q20 12 54 12q48 0 77 -29t29 -87v-16q0 -60 -37 -94t-108 -34z" />
    <glyph glyph-name="six.sub" unicode="&#x2086;" horiz-adv-x="350" 
d="M182 -122q-84 0 -121 45q-38 47 -38 122v61q0 80 45 124q43 43 117 43q64 0 98 -28q36 -29 40 -86h-104q-1 15 -9 24t-25 9q-25 0 -36 -21q-11 -23 -12 -62v-21q11 17 30 29q18 12 51 12q47 0 79 -25q33 -26 33 -84v-18q0 -56 -39 -91q-39 -33 -109 -33zM181 -46
q19 0 29 12q10 13 10 33v19q0 21 -10 32q-10 12 -29 12t-30 -11q-11 -13 -11 -32v-19q0 -46 41 -46z" />
    <glyph glyph-name="seven.sub" unicode="&#x2087;" horiz-adv-x="305" 
d="M156 177h-139v91h278v-14l-122 -370h-113z" />
    <glyph glyph-name="eight.sub" unicode="&#x2088;" horiz-adv-x="343" 
d="M170 -122q-73 0 -111 28q-39 29 -39 82v11q0 32 17 55q17 22 48 33q-26 11 -38 29q-14 19 -14 47v6q0 25 11 45q11 21 29 33q15 12 44 20q25 6 54 6q61 0 101 -26q38 -26 38 -77v-7q0 -28 -14 -47q-13 -19 -39 -28q33 -10 50 -33q15 -23 15 -54v-11q0 -54 -39 -83
q-41 -29 -113 -29zM171 116q17 0 27 10q9 9 9 27v9q0 18 -10 27t-26 9q-15 0 -25 -9q-10 -10 -10 -28v-9q0 -18 11 -27t24 -9zM171 -44q19 0 29 10q11 11 11 31v15q0 20 -11 31t-29 11q-17 0 -28 -11q-12 -11 -12 -31v-15q0 -21 12 -31q10 -10 28 -10z" />
    <glyph glyph-name="nine.sub" unicode="&#x2089;" horiz-adv-x="350" 
d="M168 -122q-65 0 -102 29q-37 28 -40 87h103q1 -17 11 -26q8 -9 26 -9q26 0 37 20q10 19 10 58v24q-11 -17 -28 -28t-50 -11q-25 0 -44 6t-37 20q-16 13 -25 34q-9 19 -9 50v16q0 58 39 92q39 33 108 33q82 0 121 -45q39 -46 39 -121v-63q0 -81 -40 -124q-41 -42 -119 -42
zM168 89q40 0 40 43v18q0 22 -10 33q-10 12 -30 12q-18 0 -29 -12q-10 -11 -10 -33v-17q0 -44 39 -44z" />
    <glyph glyph-name="plus.sub" unicode="&#x208a;" horiz-adv-x="331" 
d="M123 33h-91v83h91v96h84v-96h92v-83h-92v-96h-84v96z" />
    <glyph glyph-name="minus.sub" unicode="&#x208b;" horiz-adv-x="331" 
d="M32 116h267v-83h-267v83z" />
    <glyph glyph-name="Euro" unicode="&#x20ac;" horiz-adv-x="611" 
d="M19 334h52v47h-52v68h52q1 59 22 113q19 51 54 87q36 37 82 56q49 20 107 20q110 0 174 -56q63 -56 70 -174v-2h-157v4q-5 51 -27 75t-61 24q-51 0 -74 -39q-25 -41 -26 -108h155l-12 -68h-143v-47h136l-12 -68h-124q1 -69 24 -107t76 -38q44 0 67 26t27 83v6h156v-6
q-19 -241 -253 -241q-62 0 -111 20q-48 19 -81 57q-34 37 -50 87q-17 49 -19 113h-52v68z" />
    <glyph glyph-name="trademark" unicode="&#x2122;" horiz-adv-x="636" 
d="M289 715h104l50 -156l51 156h106v-304h-85v186l-63 -186h-27l-62 186v-186h-74v304zM97 647h-71v68h228v-68h-71v-236h-86v236z" />
    <glyph glyph-name="onethird" unicode="&#x2153;" horiz-adv-x="748" 
d="M576 -6q-78 0 -112 33q-36 34 -37 93h101q3 -46 41 -46t38 40v8q0 20 -10 30t-36 10h-24v67h24q46 0 46 39v5q0 35 -33 35q-17 0 -27 -10q-11 -10 -12 -33h-101q3 58 39 91q35 33 104 33q63 0 101 -26q36 -25 36 -77v-6q0 -63 -64 -79q33 -6 52 -27q19 -20 19 -56v-9
q0 -53 -36 -84q-37 -31 -109 -31zM97 602l-74 -47v96l89 64h100v-383h-115v270zM564 715h84l-513 -715h-85z" />
    <glyph glyph-name="twothirds" unicode="&#x2154;" horiz-adv-x="801" 
d="M629 -6q-77 0 -112 33q-36 34 -37 93h101q3 -46 41 -46t38 40v8q0 20 -10 30t-36 10h-24v67h24q46 0 46 39v5q0 35 -33 35q-17 0 -27 -10t-12 -33h-101q3 58 39 91q34 33 104 33q63 0 101 -26q36 -25 36 -77v-6q0 -63 -64 -79q33 -6 52 -27q19 -20 19 -56v-9
q0 -53 -36 -84q-37 -31 -109 -31zM8 347l114 133q33 39 48 64q17 26 17 52v4q0 36 -31 36q-17 0 -26 -12q-10 -14 -12 -42h-104q2 69 41 104q38 35 106 35q70 0 104 -31q33 -32 33 -83v-4q0 -41 -20 -73q-23 -36 -52 -68l-41 -48h115v-82h-292v15zM627 715h84l-513 -715h-85
z" />
    <glyph glyph-name="oneeighth" unicode="&#x215b;" horiz-adv-x="755" 
d="M579 -6q-73 0 -111 28q-39 27 -39 81v12q0 31 17 54q16 23 48 33q-24 11 -38 29q-14 17 -14 46v8q0 25 11 45q10 19 29 32q15 12 44 20q24 7 54 7q61 0 101 -26q38 -27 38 -78v-7q0 -28 -14 -47q-13 -19 -39 -28q33 -10 50 -33q15 -22 15 -54v-11q0 -53 -39 -82
q-41 -29 -113 -29zM580 230q17 0 27 10q9 10 9 28v10q0 17 -10 27q-10 9 -26 9q-15 0 -25 -10t-10 -27v-10q0 -18 11 -27q10 -10 24 -10zM580 71q18 0 29 11t11 30v15q0 20 -11 31t-29 11q-17 0 -28 -11q-12 -10 -12 -31v-15q0 -20 12 -30q11 -11 28 -11zM97 602l-74 -47v96
l89 64h100v-383h-115v270zM561 715h84l-513 -715h-85z" />
    <glyph glyph-name="threeeighths" unicode="&#x215c;" horiz-adv-x="785" 
d="M609 -6q-73 0 -111 28q-39 27 -39 81v12q0 31 17 54q16 23 48 33q-24 11 -38 29q-14 17 -14 46v8q0 25 11 45q10 19 29 32q15 12 44 20q24 7 54 7q61 0 101 -26q38 -27 38 -78v-7q0 -28 -14 -47q-13 -19 -39 -28q33 -10 50 -33q15 -22 15 -54v-11q0 -53 -39 -82
q-41 -29 -113 -29zM610 230q17 0 27 10q9 10 9 28v10q0 17 -10 27q-10 9 -26 9q-15 0 -25 -10t-10 -27v-10q0 -18 11 -27q10 -10 24 -10zM610 71q18 0 29 11t11 30v15q0 20 -11 31t-29 11q-17 0 -28 -11q-12 -10 -12 -31v-15q0 -20 12 -30q11 -11 28 -11zM607 715h84
l-513 -715h-85zM169 326q-77 0 -112 33q-36 34 -37 93h101q3 -46 41 -46t38 39v9q0 20 -10 30q-10 9 -36 9h-24v68h24q46 0 46 39v4q0 37 -33 37q-17 0 -27 -10t-12 -34h-101q3 56 39 91q35 33 104 33q64 0 101 -26q36 -27 36 -77v-6q0 -63 -64 -79q33 -6 52 -27
q19 -22 19 -57v-8q0 -53 -36 -84q-37 -31 -109 -31z" />
    <glyph glyph-name="fiveeighths" unicode="&#x215d;" horiz-adv-x="779" 
d="M603 -6q-73 0 -111 28q-39 27 -39 81v12q0 31 17 54q16 23 48 33q-24 11 -38 29q-14 17 -14 46v8q0 25 11 45q10 19 29 32q15 12 44 20q24 7 54 7q61 0 101 -26q38 -27 38 -78v-7q0 -28 -14 -47q-13 -19 -39 -28q33 -10 50 -33q15 -22 15 -54v-11q0 -53 -39 -82
q-41 -29 -113 -29zM604 230q17 0 27 10q9 10 9 28v10q0 17 -10 27q-10 9 -26 9q-15 0 -25 -10t-10 -27v-10q0 -18 11 -27q10 -10 24 -10zM604 71q18 0 29 11t11 30v15q0 20 -11 31t-29 11q-17 0 -28 -11q-12 -10 -12 -31v-15q0 -20 12 -30q11 -11 28 -11zM164 326
q-74 0 -107 33q-34 31 -36 88h102q1 -18 11 -28q7 -10 27 -10q35 0 35 44v16q0 46 -44 46q-18 0 -28 -7q-13 -8 -18 -17h-73l8 224h248v-82h-167l-2 -85q12 16 29 26q20 11 54 11q48 0 77 -29t29 -87v-16q0 -60 -37 -93q-37 -34 -108 -34zM598 715h84l-513 -715h-85z" />
    <glyph glyph-name="seveneighths" unicode="&#x215e;" horiz-adv-x="747" 
d="M572 -6q-73 0 -111 28q-39 27 -39 81v12q0 31 17 54t48 33q-24 11 -38 29q-14 17 -14 46v8q0 25 11 45q10 19 29 32q15 12 44 20q24 7 54 7q61 0 101 -26q38 -27 38 -78v-7q0 -28 -14 -47q-13 -19 -39 -28q33 -10 50 -33q15 -22 15 -54v-11q0 -53 -39 -82
q-41 -29 -113 -29zM573 230q17 0 27 10q9 10 9 28v10q0 17 -10 27q-11 9 -26 9t-25 -10t-10 -27v-10q0 -18 11 -27q10 -10 24 -10zM573 71q18 0 29 11t11 30v15q0 20 -11 31t-29 11q-17 0 -28 -11q-12 -10 -12 -31v-15q0 -20 12 -30q11 -11 28 -11zM159 624h-139v91h278v-13
l-122 -370h-113zM551 715h84l-513 -715h-85z" />
    <glyph glyph-name="minus" unicode="&#x2212;" horiz-adv-x="497" 
d="M33 283v115h431v-115h-431z" />
    <glyph glyph-name="approxequal" unicode="&#x2248;" horiz-adv-x="502" 
d="M32 338q3 39 14 69q10 29 27 48q17 18 37 27q22 8 44 8q25 0 53 -5q34 -8 50 -12q24 -7 45 -12q21 -6 38 -6q35 0 39 40h90q-4 -78 -39 -116q-36 -37 -82 -37q-28 0 -53 6q-27 4 -51 12q-24 6 -45 12q-25 5 -38 5q-34 0 -40 -39h-89zM32 145q3 39 14 69q10 28 27 48
q17 18 37 27q21 9 44 9q25 0 53 -5q34 -8 50 -13q24 -8 45 -12q21 -6 38 -6q35 0 39 40h90q-4 -78 -39 -116q-36 -37 -82 -37q-28 0 -53 6q-27 5 -51 12q-5 2 -45 13q-25 5 -38 5q-34 0 -40 -40h-89z" />
    <glyph glyph-name="notequal" unicode="&#x2260;" horiz-adv-x="487" 
d="M139 180h-105v106h146l28 72h-174v107h216l34 89h100l-34 -89h103v-107h-145l-28 -72h173v-106h-214l-34 -89h-100z" />
    <glyph glyph-name="lessequal" unicode="&#x2264;" horiz-adv-x="457" 
d="M36 351v29l375 200v-134l-163 -80l163 -81v-135zM36 122h375v-104h-375v104z" />
    <glyph glyph-name="greaterequal" unicode="&#x2265;" horiz-adv-x="457" 
d="M45 285l164 81l-164 80v134l375 -200v-29l-375 -201v135zM45 122h375v-104h-375v104z" />
    <glyph glyph-name="uni24C5" unicode="&#x24c5;" horiz-adv-x="759" 
d="M379 19q-71 0 -135 26q-61 24 -110 73q-48 48 -74 109q-27 63 -27 137q0 73 27 136t74 110q46 46 110 73q63 27 137 27q73 0 137 -26q65 -28 110 -73q46 -46 72 -110t26 -136q0 -74 -27 -137t-73 -109q-48 -48 -110 -73q-64 -27 -137 -27zM379 67q62 0 113 22
q51 20 92 60q40 40 62 94q23 57 23 122q0 68 -22 122t-62 94q-38 38 -91 61q-52 21 -113 21q-63 0 -115 -21q-54 -23 -92 -61q-39 -40 -61 -95q-23 -57 -23 -122q0 -67 23 -122q22 -55 63 -94q39 -39 92 -60q52 -21 111 -21zM254 557h140q78 0 110 -31q33 -32 33 -92v-8
q0 -118 -139 -118h-37v-132h-107v381zM389 382q46 0 46 45v6q0 43 -45 43h-29v-94h28z" />
    <glyph glyph-name="zero.den" unicode="&#xe402;" horiz-adv-x="374" 
d="M186 -7q-78 0 -120 44q-43 43 -43 124v61q0 40 12 72q12 31 34 52q24 22 52 32q31 11 65 11q37 0 66 -10t52 -30q21 -18 35 -51q12 -32 12 -74v-61q0 -82 -43 -125q-44 -45 -122 -45zM187 81q25 0 39 20q12 19 12 61v60q0 43 -13 62t-39 19q-27 0 -37 -19
q-12 -20 -12 -62v-61q0 -41 12 -61q12 -19 38 -19z" />
    <glyph glyph-name="one.den" unicode="&#xe403;" horiz-adv-x="256" 
d="M94 271l-74 -47v96l89 63h100v-383h-115v271z" />
    <glyph glyph-name="two.den" unicode="&#xe404;" horiz-adv-x="318" 
d="M5 14l114 135q31 36 48 63q17 26 17 52v4q0 36 -31 36q-17 0 -26 -12q-11 -14 -12 -42h-104q2 69 41 104q38 35 106 35q70 0 104 -31q33 -32 33 -83v-4q0 -41 -20 -73q-23 -36 -52 -68l-41 -47h115v-83h-292v14z" />
    <glyph glyph-name="three.den" unicode="&#xe405;" horiz-adv-x="334" 
d="M166 -6q-78 0 -112 33q-36 34 -37 93h101q3 -46 41 -46t38 40v8q0 20 -10 30t-36 10h-24v67h24q46 0 46 39v5q0 35 -33 35q-17 0 -27 -10q-11 -10 -12 -33h-101q3 58 39 91q34 33 104 33q63 0 101 -26q36 -25 36 -77v-6q0 -63 -64 -79q33 -6 52 -27q19 -20 19 -56v-9
q0 -53 -36 -84q-37 -31 -109 -31z" />
    <glyph glyph-name="four.den" unicode="&#xe406;" horiz-adv-x="354" 
d="M181 76h-170v39l143 268h137v-230h44v-77h-44v-76h-110v76zM184 153v150l-74 -150h74z" />
    <glyph glyph-name="five.den" unicode="&#xe407;" horiz-adv-x="328" 
d="M161 -6q-74 0 -107 33q-34 31 -36 88h102q1 -18 11 -28q7 -10 27 -10q16 0 27 12q9 11 9 32v16q0 23 -12 35q-13 11 -33 11q-18 0 -28 -7q-13 -8 -18 -16h-73l8 223h248v-82h-167l-2 -85q12 16 29 26q20 12 54 12q48 0 77 -29q29 -31 29 -87v-17q0 -60 -37 -93
q-37 -34 -108 -34z" />
    <glyph glyph-name="six.den" unicode="&#xe408;" horiz-adv-x="350" 
d="M182 -6q-84 0 -121 45q-38 46 -38 121v60q0 82 45 125q44 44 117 44q64 0 98 -28q36 -29 40 -87h-104q-1 15 -9 24t-25 9q-25 0 -36 -21t-12 -61v-22q11 18 30 30q19 11 51 11q23 0 44 -6t35 -19q15 -13 24 -33q9 -21 9 -50v-18q0 -58 -39 -91t-109 -33zM181 70
q19 0 29 12q10 11 10 32v19q0 22 -10 33q-10 12 -29 12t-30 -11q-11 -13 -11 -32v-20q0 -20 11 -33q11 -12 30 -12z" />
    <glyph glyph-name="seven.den" unicode="&#xe409;" horiz-adv-x="305" 
d="M156 292h-139v91h278v-13l-122 -370h-113z" />
    <glyph glyph-name="eight.den" unicode="&#xe40a;" horiz-adv-x="343" 
d="M170 -6q-73 0 -111 28q-39 27 -39 81v12q0 31 17 54t48 33q-24 11 -38 29q-14 17 -14 46v8q0 25 11 45q10 19 29 32q15 12 44 20q24 7 54 7q61 0 101 -26q38 -27 38 -78v-7q0 -28 -14 -47q-13 -19 -39 -28q33 -10 50 -33q15 -22 15 -54v-11q0 -53 -39 -82
q-41 -29 -113 -29zM171 230q17 0 27 10q9 10 9 28v10q0 17 -10 27q-10 9 -26 9q-15 0 -25 -10t-10 -27v-10q0 -18 11 -27q10 -10 24 -10zM171 71q18 0 29 11t11 30v15q0 20 -11 31t-29 11q-17 0 -28 -11q-12 -10 -12 -31v-15q0 -20 12 -30q11 -11 28 -11z" />
    <glyph glyph-name="nine.den" unicode="&#xe40b;" horiz-adv-x="350" 
d="M168 -7q-66 0 -102 30q-37 28 -40 86h103q2 -17 11 -25q8 -9 26 -9q26 0 37 20q10 19 10 57v24q-11 -17 -28 -28t-50 -11q-25 0 -44 6t-37 20q-16 13 -25 34q-9 19 -9 50v16q0 57 39 92q38 34 108 34q82 0 121 -45q39 -47 39 -121v-63q0 -81 -40 -124t-119 -43zM168 204
q20 0 30 12q10 10 10 31v17q0 47 -40 47q-18 0 -29 -12q-10 -13 -10 -35v-15q0 -22 10 -33q9 -12 29 -12z" />
    <glyph glyph-name="zero.num" unicode="&#xe416;" horiz-adv-x="374" 
d="M186 325q-78 0 -120 43q-43 43 -43 124v62q0 40 12 72q12 31 34 52q24 22 52 32q31 11 65 11q37 0 66 -10t52 -30q21 -20 35 -52q12 -31 12 -73v-61q0 -82 -43 -125q-44 -45 -122 -45zM187 412q51 0 51 81v61q0 43 -13 62t-39 19q-27 0 -37 -19q-12 -20 -12 -63v-60
q0 -41 12 -61t38 -20z" />
    <glyph glyph-name="one.num" unicode="&#xe417;" horiz-adv-x="256" 
d="M94 602l-74 -47v96l89 64h100v-383h-115v270z" />
    <glyph glyph-name="two.num" unicode="&#xe418;" horiz-adv-x="318" 
d="M5 347l114 133q33 39 48 64q17 26 17 52v4q0 36 -31 36q-17 0 -26 -12q-11 -14 -12 -42h-104q2 69 41 104q38 35 106 35q70 0 104 -31q33 -32 33 -83v-4q0 -41 -20 -73q-23 -36 -52 -68l-41 -48h115v-82h-292v15z" />
    <glyph glyph-name="three.num" unicode="&#xe419;" horiz-adv-x="334" 
d="M166 326q-78 0 -112 33q-36 34 -37 93h101q3 -46 41 -46t38 39v9q0 20 -10 30q-11 9 -36 9h-24v68h24q46 0 46 39v4q0 37 -33 37q-17 0 -27 -10t-12 -34h-101q3 56 39 91q34 33 104 33q64 0 101 -26q36 -27 36 -77v-6q0 -63 -64 -79q33 -6 52 -27q19 -22 19 -57v-8
q0 -53 -36 -84q-37 -31 -109 -31z" />
    <glyph glyph-name="four.num" unicode="&#xe41a;" horiz-adv-x="353" 
d="M181 408h-170v40l143 267h137v-230h44v-77h-44v-76h-110v76zM184 485v149l-74 -149h74z" />
    <glyph glyph-name="five.num" unicode="&#xe41b;" horiz-adv-x="328" 
d="M161 326q-74 0 -107 33q-34 31 -36 88h102q1 -18 11 -28q7 -10 27 -10q35 0 35 44v16q0 46 -44 46q-18 0 -28 -7q-13 -8 -18 -17h-73l8 224h248v-82h-167l-2 -85q12 16 29 26q20 11 54 11q48 0 77 -29t29 -87v-16q0 -60 -37 -93q-37 -34 -108 -34z" />
    <glyph glyph-name="six.num" unicode="&#xe41c;" horiz-adv-x="350" 
d="M182 326q-84 0 -121 45q-38 46 -38 122v60q0 81 45 124q44 44 117 44q64 0 98 -28q36 -29 40 -87h-104q-1 15 -9 24t-25 9q-25 0 -36 -21q-11 -23 -12 -61v-23q11 18 30 30q18 12 51 12q47 0 79 -25q33 -25 33 -84v-17q0 -58 -39 -91t-109 -33zM181 402q19 0 29 12
q10 11 10 33v18q0 20 -10 33q-10 12 -29 12t-30 -12q-11 -13 -11 -32v-20q0 -19 11 -32q11 -12 30 -12z" />
    <glyph glyph-name="seven.num" unicode="&#xe41d;" horiz-adv-x="305" 
d="M156 624h-139v91h278v-13l-122 -370h-113z" />
    <glyph glyph-name="eight.num" unicode="&#xe41e;" horiz-adv-x="342" 
d="M170 326q-73 0 -111 28q-39 27 -39 81v11q0 32 17 55t48 33q-26 11 -38 29q-14 19 -14 47v6q0 25 11 45q11 21 29 33q15 12 44 20q24 7 54 7q61 0 101 -26q38 -27 38 -78v-7q0 -28 -14 -47q-13 -19 -39 -28q33 -10 50 -33q15 -22 15 -54v-10q0 -54 -39 -83
q-41 -29 -113 -29zM171 562q17 0 27 10q9 10 9 28v9q0 18 -10 27t-26 9q-15 0 -25 -9q-10 -10 -10 -28v-9q0 -18 11 -27q10 -10 24 -10zM171 403q18 0 29 11t11 30v15q0 18 -11 31q-11 11 -29 11q-17 0 -28 -11q-12 -10 -12 -31v-15q0 -20 12 -30q11 -11 28 -11z" />
    <glyph glyph-name="nine.num" unicode="&#xe41f;" horiz-adv-x="350" 
d="M168 325q-66 0 -102 30q-37 28 -40 86h103q2 -17 11 -25q8 -9 26 -9q26 0 37 20q10 19 10 57v23q-10 -15 -28 -27q-17 -11 -50 -11q-25 0 -44 6t-37 20q-16 13 -25 34q-9 19 -9 50v16q0 57 39 92q39 33 108 33q82 0 121 -45q39 -47 39 -121v-63q0 -82 -40 -123
q-40 -43 -119 -43zM168 536q20 0 30 12q10 10 10 31v18q0 21 -10 34q-10 12 -30 12q-18 0 -29 -12q-10 -13 -10 -34v-17q0 -21 10 -32q9 -12 29 -12z" />
    <glyph glyph-name="f_i" unicode="&#xfb01;" horiz-adv-x="570" 
d="M445 578q-35 0 -60 23q-24 23 -24 57t24 57q23 22 60 22q35 0 60 -22q24 -23 24 -57t-24 -57q-25 -23 -60 -23zM371 523h149v-523h-149v523zM72 418h-58v105h58v65q0 85 47 126t125 41q17 0 39 -2q12 -1 25 -5v-111q-15 5 -35 5q-27 0 -39 -15q-13 -14 -13 -41v-63h88
v-105h-88v-418h-149v418z" />
    <glyph glyph-name="f_l" unicode="&#xfb02;" horiz-adv-x="571" 
d="M72 418h-58v105h58v65q0 85 47 126t125 41q17 0 39 -2q12 -1 25 -5v-111q-15 5 -35 5q-27 0 -39 -15q-13 -14 -13 -41v-63h88v-105h-88v-418h-149v418zM371 750h149v-750h-149v750z" />
    <glyph glyph-name="Euro.old" horiz-adv-x="593" 
d="M18 324h51v45h-51v66h51q2 63 20 110q20 50 52 85q33 34 80 54q45 19 105 19q106 0 168 -53q60 -53 68 -168v-2h-152v3q-9 95 -86 95q-50 0 -73 -39q-22 -40 -22 -104h150l-11 -66h-139v-45h130l-11 -66h-119q2 -71 23 -105q22 -36 75 -36q42 0 63 25t25 81v4h152v-4
q-19 -234 -244 -234q-64 0 -108 20q-48 20 -79 54q-33 36 -49 85t-18 110h-51v66z" />
    <glyph glyph-name="Euro.oldtab" 
d="M14 324h44v47h-44v65h44v16q0 59 17 107q17 49 46 79q30 33 71 49q39 16 91 16q48 0 87 -12q38 -12 66 -37t43 -66q15 -40 15 -97v-2h-140v3q0 48 -18 69q-18 20 -52 20q-41 0 -59 -30q-19 -31 -19 -96v-19h140l-11 -65h-129v-47h121l-11 -65h-110v-20q0 -65 18 -95
q18 -31 62 -31q36 0 55 21q19 20 19 76v4h137v-4q0 -60 -15 -100q-15 -43 -43 -69q-29 -27 -68 -39q-39 -13 -90 -13q-105 0 -163 64q-60 64 -60 188v18h-44v65z" />
    <glyph glyph-name="Euro.tab" 
d="M5 335h43v48h-43v67h43v18q0 60 17 109q17 48 48 81q31 34 73 50q45 17 95 17q47 0 88 -12q40 -12 69 -38q27 -25 44 -68q15 -42 15 -101v-2h-144v3q0 51 -18 72q-20 20 -54 20q-42 0 -61 -31t-19 -97v-21h144l-12 -67h-132v-48h125l-12 -68h-113v-23q0 -66 18 -97
t63 -31q38 0 57 22q20 23 20 78v5h142v-5q0 -60 -15 -103q-16 -43 -45 -70q-27 -27 -70 -41q-40 -13 -94 -13q-107 0 -168 66q-61 65 -61 191v21h-43v68z" />
    <glyph glyph-name="Gcommaaccent.alt1" horiz-adv-x="656" 
d="M272 -168q57 4 60 36q-32 -2 -48 12q-17 14 -17 38q0 22 18 36q17 14 45 14q31 0 51 -17q19 -16 19 -51v-7q0 -49 -31 -76q-32 -27 -97 -29v44zM349 383h274v-122q0 -129 -72 -200q-72 -72 -213 -72q-74 0 -129 21q-58 21 -95 60q-38 38 -58 94q-20 57 -20 124v138
q0 69 23 126q23 56 62 94q42 39 95 59q57 20 121 20q55 0 103 -12q49 -14 85 -41q37 -28 60 -74q21 -43 26 -109h-165q-4 57 -32 81q-29 24 -76 24q-63 0 -96 -43q-34 -43 -34 -124v-142q0 -77 31 -121q30 -46 103 -46q63 0 90 34q28 34 29 90v28h-112v113z" />
    <glyph glyph-name="Kcommaaccent.alt1" horiz-adv-x="606" 
d="M58 715h167v-297l189 297h172l-218 -331l229 -384h-187l-185 319v-319h-167v715zM253 -168q57 4 60 36q-31 -2 -48 12t-17 38q0 22 18 36q17 14 45 14q31 0 51 -17q19 -16 19 -51v-7q0 -49 -31 -76q-32 -27 -97 -29v44z" />
    <glyph glyph-name="Lcommaaccent.alt1" horiz-adv-x="486" 
d="M58 715h167v-584h233v-131h-400v715zM201 -168q57 4 60 36q-31 -2 -48 12t-17 38q0 22 18 36q17 14 45 14q31 0 51 -17q19 -16 19 -51v-7q0 -49 -31 -76q-32 -27 -97 -29v44z" />
    <glyph glyph-name="Ncommaaccent.alt1" horiz-adv-x="649" 
d="M257 -168q57 4 60 36q-31 -2 -48 12t-17 38q0 22 18 36q17 14 45 14q31 0 51 -17q19 -16 19 -51v-7q0 -49 -31 -76q-32 -27 -97 -29v44zM58 715h189l195 -433v433h148v-715h-163l-220 482v-482h-149v715z" />
    <glyph glyph-name="Rcommaaccent.alt1" horiz-adv-x="591" 
d="M58 715h234q124 0 189 -50q63 -51 63 -155v-26q0 -35 -8 -65q-9 -28 -24 -49t-35 -35q-21 -15 -46 -24l144 -311h-175l-126 281h-50v-281h-166v715zM286 392q48 0 72 21q24 20 24 68v24q0 45 -24 64q-23 19 -72 19h-62v-196h62zM240 -168q57 4 60 36q-32 -2 -48 12
q-17 14 -17 38q0 22 18 36q17 14 45 14q31 0 51 -17q19 -16 19 -51v-7q0 -49 -31 -76q-32 -27 -97 -29v44z" />
    <glyph glyph-name="Scommaaccent.alt1" horiz-adv-x="561" 
d="M284 -11q-124 0 -189 56t-68 170h160q1 -51 23 -77q21 -26 74 -26q38 0 61 21q21 19 21 59q0 22 -6 37q-8 15 -21 27q-14 11 -35 20q-39 13 -53 17q-54 17 -93 36q-40 19 -66 45t-38 62q-13 35 -13 85q0 48 16 84q17 38 47 64q30 27 74 42q45 14 97 14q109 0 171 -50
q63 -52 67 -158h-156q-3 47 -24 66q-22 19 -59 19q-36 0 -55 -18q-19 -19 -19 -51q0 -16 5 -31q5 -14 17 -25q13 -11 33 -20q18 -8 52 -18q42 -11 90 -31q40 -16 70 -43q28 -25 45 -64q16 -36 16 -93q0 -101 -64 -159q-64 -60 -180 -60zM218 -168q57 4 60 36q-32 -2 -48 12
q-17 14 -17 38q0 22 18 36q17 14 45 14q31 0 51 -17q19 -16 19 -51v-7q0 -49 -31 -76q-32 -27 -97 -29v44z" />
    <glyph glyph-name="Tcommaaccent.alt1" horiz-adv-x="523" 
d="M177 585h-157v130h483v-130h-158l-1 -585h-167v585zM200 -168q57 4 60 36q-32 -2 -48 12q-17 14 -17 38q0 22 18 36q17 14 45 14q31 0 51 -17q19 -16 19 -51v-7q0 -49 -31 -76q-32 -27 -97 -29v44z" />
    <glyph glyph-name="a.alt" horiz-adv-x="541" 
d="M493 0h-148v74q-17 -35 -51 -59q-34 -25 -86 -25q-40 0 -69 14q-34 14 -57 41q-25 30 -38 70q-14 42 -14 98v94q0 54 14 99q14 43 39 71t58 43q34 14 71 14q51 0 84 -21q33 -22 49 -56v66h148v-523zM348 307q0 59 -22 87q-23 29 -63 29q-39 0 -61 -28t-22 -86v-96
q0 -57 22 -82q21 -27 59 -27q39 0 63 29t24 86v88z" />
    <glyph glyph-name="aacute.alt" horiz-adv-x="541" 
d="M261 741h156l-95 -158h-109zM493 0h-148v74q-17 -35 -51 -59q-34 -25 -86 -25q-40 0 -69 14q-34 14 -57 41q-25 30 -38 70q-14 42 -14 98v94q0 54 14 99q14 43 39 71t58 43q34 14 71 14q51 0 84 -21q33 -22 49 -56v66h148v-523zM348 307q0 59 -22 87q-23 29 -63 29
q-39 0 -61 -28t-22 -86v-96q0 -57 22 -82q21 -27 59 -27q39 0 63 29t24 86v88z" />
    <glyph glyph-name="abreve.alt" horiz-adv-x="541" 
d="M493 0h-148v74q-17 -35 -51 -59q-34 -25 -86 -25q-40 0 -69 14q-34 14 -57 41q-25 30 -38 70q-14 42 -14 98v94q0 54 14 99q14 43 39 71t58 43q34 14 71 14q51 0 84 -21q33 -22 49 -56v66h148v-523zM348 307q0 59 -22 87q-23 29 -63 29q-39 0 -61 -28t-22 -86v-96
q0 -57 22 -82q21 -27 59 -27q39 0 63 29t24 86v88zM272 585q-61 0 -101 38q-39 38 -42 110h95q4 -49 48 -49q47 0 51 49h94q-4 -73 -44 -110q-41 -38 -101 -38z" />
    <glyph glyph-name="acircumflex.alt" horiz-adv-x="541" 
d="M217 740h115l101 -156h-104l-57 59l-58 -59h-102zM493 0h-148v74q-17 -35 -51 -59q-34 -25 -86 -25q-40 0 -69 14q-34 14 -57 41q-25 30 -38 70q-14 42 -14 98v94q0 54 14 99q14 43 39 71t58 43q34 14 71 14q51 0 84 -21q33 -22 49 -56v66h148v-523zM348 307q0 59 -22 87
q-23 29 -63 29q-39 0 -61 -28t-22 -86v-96q0 -57 22 -82q21 -27 59 -27q39 0 63 29t24 86v88z" />
    <glyph glyph-name="acute.uc" horiz-adv-x="400" 
d="M179 896h160l-92 -138h-114z" />
    <glyph glyph-name="adieresis.alt" horiz-adv-x="541" 
d="M177 582q-32 0 -54 22q-22 21 -22 52q0 32 22 54q23 21 54 21t54 -21q22 -22 22 -54q0 -31 -22 -52q-22 -22 -54 -22zM369 582q-32 0 -54 22q-22 21 -22 52q0 32 22 54q23 21 54 21q33 0 55 -21q22 -22 22 -54q0 -31 -22 -52q-22 -22 -55 -22zM493 0h-148v74
q-17 -35 -51 -59q-34 -25 -86 -25q-40 0 -69 14q-34 14 -57 41q-25 30 -38 70q-14 42 -14 98v94q0 54 14 99q14 43 39 71t58 43q34 14 71 14q51 0 84 -21q33 -22 49 -56v66h148v-523zM348 307q0 59 -22 87q-23 29 -63 29q-39 0 -61 -28t-22 -86v-96q0 -57 22 -82
q21 -27 59 -27q39 0 63 29t24 86v88z" />
    <glyph glyph-name="agrave.alt" horiz-adv-x="541" 
d="M493 0h-148v74q-17 -35 -51 -59q-34 -25 -86 -25q-40 0 -69 14q-34 14 -57 41q-25 30 -38 70q-14 42 -14 98v94q0 54 14 99q14 43 39 71t58 43q34 14 71 14q51 0 84 -21q33 -22 49 -56v66h148v-523zM348 307q0 59 -22 87q-23 29 -63 29q-39 0 -61 -28t-22 -86v-96
q0 -57 22 -82q21 -27 59 -27q39 0 63 29t24 86v88zM127 741h157l49 -158h-110z" />
    <glyph glyph-name="amacron.alt" horiz-adv-x="541" 
d="M493 0h-148v74q-17 -35 -51 -59q-34 -25 -86 -25q-40 0 -69 14q-34 14 -57 41q-25 30 -38 70q-14 42 -14 98v94q0 54 14 99q14 43 39 71t58 43q34 14 71 14q51 0 84 -21q33 -22 49 -56v66h148v-523zM348 307q0 59 -22 87q-23 29 -63 29q-39 0 -61 -28t-22 -86v-96
q0 -57 22 -82q21 -27 59 -27q39 0 63 29t24 86v88zM136 698h273v-91h-273v91z" />
    <glyph glyph-name="aogonek.alt" horiz-adv-x="541" 
d="M313 -104q0 20 7 34q5 13 17 29q7 9 25 23q13 10 29 18h-46v74q-17 -35 -51 -59q-34 -25 -86 -25q-40 0 -69 14q-34 14 -57 41q-25 30 -38 70q-14 42 -14 98v94q0 54 14 99q14 43 39 71t58 43q34 14 71 14q51 0 84 -21q33 -22 49 -56v66h148v-523h-13q-23 -21 -31 -34
q-11 -17 -11 -34q0 -13 8 -21q7 -7 22 -7q17 0 29 5v-75q-14 -7 -31 -11t-46 -4q-44 0 -76 20q-31 19 -31 57zM348 307q0 59 -22 87q-23 29 -63 29q-39 0 -61 -28t-22 -86v-96q0 -57 22 -82q21 -27 59 -27q39 0 63 29t24 86v88z" />
    <glyph glyph-name="approxequal.tab" 
d="M44 338q4 81 39 117q35 35 82 35q25 0 53 -5q17 -4 49 -12q22 -7 44 -12q20 -6 37 -6q35 0 39 40h90q-4 -78 -39 -116q-36 -37 -82 -37q-28 0 -54 6q-28 5 -49 12q-27 7 -44 12q-23 5 -37 5q-34 0 -39 -39h-89zM44 145q4 81 39 117t82 36q25 0 53 -5q30 -7 49 -13
q22 -7 44 -12q19 -6 37 -6q35 0 39 40h90q-4 -78 -39 -116q-36 -37 -82 -37q-28 0 -54 6q-28 5 -49 12q-9 3 -23.5 7t-20.5 6q-23 5 -37 5q-35 0 -39 -40h-89z" />
    <glyph glyph-name="aring.alt" horiz-adv-x="541" 
d="M271 578q-21 0 -42 8q-20 8 -34 23q-16 14 -23 33q-9 20 -9 40q0 22 9 41q7 18 23 34q14 14 34 23q21 8 42 8q22 0 43 -8q17 -8 34 -23q15 -17 23 -34q8 -21 8 -41q0 -19 -8 -40q-9 -19 -23 -33q-16 -16 -34 -23q-21 -8 -43 -8zM271 636q19 0 31 13t12 33q0 22 -12 35
t-31 13t-31 -13t-12 -35q0 -20 12 -33t31 -13zM493 0h-148v74q-17 -35 -51 -59q-34 -25 -86 -25q-40 0 -69 14q-34 14 -57 41q-25 30 -38 70q-14 42 -14 98v94q0 54 14 99q14 43 39 71t58 43q34 14 71 14q51 0 84 -21q33 -22 49 -56v66h148v-523zM348 307q0 59 -22 87
q-23 29 -63 29q-39 0 -61 -28t-22 -86v-96q0 -57 22 -82q21 -27 59 -27q39 0 63 29t24 86v88z" />
    <glyph glyph-name="aringacute.alt" horiz-adv-x="541" 
d="M271 572q-21 0 -42 8q-20 8 -34 23q-16 14 -23 33q-9 20 -9 40q0 22 9 41q7 18 23 34q14 14 34 23q21 8 42 8q22 0 43 -8q17 -8 34 -23q15 -17 23 -34q8 -21 8 -41q0 -19 -8 -40q-9 -19 -23 -33q-16 -16 -34 -23q-21 -8 -43 -8zM271 630q19 0 31 13t12 33q0 22 -12 35
t-31 13t-31 -13t-12 -35q0 -20 12 -33t31 -13zM493 0h-148v74q-17 -35 -51 -59q-34 -25 -86 -25q-40 0 -69 14q-34 14 -57 41q-25 30 -38 70q-14 42 -14 98v94q0 54 14 99q14 43 39 71t58 43q34 14 71 14q51 0 84 -21q33 -22 49 -56v66h148v-523zM348 307q0 59 -22 87
q-23 29 -63 29q-39 0 -61 -28t-22 -86v-96q0 -57 22 -82q21 -27 59 -27q39 0 63 29t24 86v88zM261 942h160l-92 -138h-114z" />
    <glyph glyph-name="at.uc" horiz-adv-x="811" 
d="M408 -68q-89 0 -157 28q-71 29 -118 77q-48 48 -74 117t-26 147v61q0 89 31 161q30 73 82 125q54 53 122 80q69 28 150 28q80 0 146 -24q65 -24 114 -68q47 -44 74 -105q26 -63 26 -137v-60q0 -61 -14 -106q-13 -43 -38 -72q-23 -27 -56 -40q-32 -13 -71 -13
q-59 0 -91 20q-31 19 -40 56q-17 -35 -45 -56q-28 -22 -74 -22q-65 0 -105 45q-41 44 -36 124l3 48q6 92 50 147q44 53 114 53q42 0 66 -15q24 -18 34 -39l5 46h126l-30 -274q-7 -67 40 -67q37 0 62 40q25 38 25 126v60q0 62 -19 110q-20 50 -55 84q-36 33 -89 53
q-51 19 -120 19q-71 0 -125 -22q-58 -23 -98 -66q-41 -44 -63 -104q-23 -63 -23 -137v-59q0 -67 19 -121q18 -55 56 -96q39 -42 93 -64q57 -23 131 -23q81 0 134 25q55 24 86 57h83q-20 -34 -49 -60q-34 -29 -70 -47q-40 -20 -87 -30q-44 -10 -99 -10zM388 229q30 0 48 28
q17 28 22 75l4 46q3 33 -12 51q-16 18 -45 18t-46 -26t-20 -71l-3 -48q-2 -33 12 -53t40 -20z" />
    <glyph glyph-name="atilde.alt" horiz-adv-x="541" 
d="M493 0h-148v74q-17 -35 -51 -59q-34 -25 -86 -25q-40 0 -69 14q-34 14 -57 41q-25 30 -38 70q-14 42 -14 98v94q0 54 14 99q14 43 39 71t58 43q34 14 71 14q51 0 84 -21q33 -22 49 -56v66h148v-523zM348 307q0 59 -22 87q-23 29 -63 29q-39 0 -61 -28t-22 -86v-96
q0 -57 22 -82q21 -27 59 -27q39 0 63 29t24 86v88zM328 588q-16 0 -33 5q-13 4 -27 11q-3 1 -7.5 3.5t-8 4.5t-6.5 3q-12 5 -21 5q-11 0 -19 -9q-9 -10 -10 -24h-83q5 74 32 107q27 35 69 35q16 0 33 -5q9 -3 27 -11q4 -2 12 -5.5t12 -5.5q12 -5 22 -5q12 0 19 9q7 8 10 24
h83q-4 -71 -34 -107q-30 -35 -70 -35z" />
    <glyph glyph-name="backslash.uc" horiz-adv-x="390" 
d="M2 773h121l266 -851h-121z" />
    <glyph glyph-name="bar.uc" horiz-adv-x="233" 
d="M63 773h107v-851h-107v851z" />
    <glyph glyph-name="braceleft.tab" horiz-adv-x="260" 
d="M252 -143q-123 0 -171 51q-49 52 -28 161l20 109q8 40 -7 62t-61 28v96q46 6 61 29q15 22 7 60l-20 107q-23 112 27 162q49 49 172 49v-101q-45 -3 -60 -23q-16 -19 -7 -73l19 -116q10 -58 -14 -90q-24 -33 -78 -51q54 -16 79 -50q23 -34 13 -91l-19 -118q-9 -54 7 -76
q15 -21 60 -24v-101z" />
    <glyph glyph-name="braceleft.uc" horiz-adv-x="364" 
d="M332 -90q-130 0 -189 48q-58 47 -41 155l16 94q6 38 -14 63q-21 23 -77 25v105q56 0 77 24q20 25 14 63l-16 91q-17 110 41 156q59 47 189 47v-109q-52 -2 -72 -21t-12 -69l14 -104q6 -53 -20 -85q-27 -31 -78 -45q52 -12 78 -44t20 -86l-14 -106q-8 -51 12 -71t72 -23
v-108z" />
    <glyph glyph-name="braceright.tab" horiz-adv-x="260" 
d="M9 -42q44 3 61 24q15 22 6 76l-19 118q-10 58 14 91q23 33 77 50q-54 18 -78 51q-24 31 -13 90l19 116q8 54 -7 73q-15 20 -60 23v101q123 0 172 -49q49 -50 27 -162l-21 -107q-8 -39 8 -60q15 -23 60 -29v-96q-45 -6 -60 -28q-15 -23 -8 -62l21 -109q21 -109 -27 -161
q-49 -51 -172 -51v101z" />
    <glyph glyph-name="braceright.uc" horiz-adv-x="364" 
d="M32 18q53 3 73 23t12 71l-14 106q-7 54 20 86q26 32 78 44q-51 14 -78 45q-27 32 -20 85l14 104q7 50 -12 69t-73 21v109q130 0 189 -47q58 -46 41 -156l-15 -91q-6 -38 14 -63q19 -24 77 -24v-105q-58 -2 -77 -25q-20 -25 -14 -63l15 -94q17 -108 -41 -155
q-59 -48 -189 -48v108z" />
    <glyph glyph-name="bracketleft.tab" horiz-adv-x="260" 
d="M37 770h213v-101h-76v-711h76v-102h-213v914z" />
    <glyph glyph-name="bracketleft.uc" horiz-adv-x="349" 
d="M59 781h258v-109h-110v-652h110v-110h-258v871z" />
    <glyph glyph-name="bracketright.tab" horiz-adv-x="260" 
d="M11 -42h76v711h-76v101h213v-914h-213v102z" />
    <glyph glyph-name="bracketright.uc" horiz-adv-x="349" 
d="M33 20h109v652h-109v109h258v-871h-258v110z" />
    <glyph glyph-name="breve.uc" horiz-adv-x="400" 
d="M199 752q-65 0 -103 37q-39 36 -43 103h98q1 -20 14 -32q12 -12 34 -12q21 0 35 12q13 12 15 32h98q-4 -67 -45 -103q-40 -37 -103 -37z" />
    <glyph glyph-name="caron.alt" horiz-adv-x="400" 
d="M164 751h116l-44 -166h-80z" />
    <glyph glyph-name="caron.uc" horiz-adv-x="400" 
d="M36 896h107l57 -50l58 50h104l-100 -138h-128z" />
    <glyph glyph-name="cent.tab" 
d="M245 -10q-49 5 -84 20q-39 16 -66 45q-27 27 -43 70q-15 41 -15 94v80q0 54 16 95q18 43 44 71q28 30 65 46q40 18 83 22v88h56v-88q38 -3 73 -15q33 -12 59 -35q24 -21 41 -57q16 -36 17 -83h-132q-5 35 -19 54q-17 19 -39 23v-321q25 4 45 26q19 22 20 61h127
q-1 -86 -52 -138q-49 -50 -140 -58v-113h-56v113zM179 219q0 -54 17 -83q16 -28 49 -36v320q-31 -7 -48 -35q-18 -27 -18 -81v-85z" />
    <glyph glyph-name="circumflex.uc" horiz-adv-x="400" 
d="M137 896h128l98 -138h-107l-57 49l-58 -49h-104z" />
    <glyph glyph-name="colon.tab" horiz-adv-x="260" 
d="M130 284q-37 0 -63 26t-26 62q0 37 26 63q25 25 63 25q21 0 36 -7q16 -7 28 -19q12 -11 19 -28q7 -15 7 -34t-7 -34q-7 -16 -19 -28q-11 -12 -28 -19q-15 -7 -36 -7zM130 -8q-38 0 -63 25q-26 26 -26 62t26 62q25 25 63 25q39 0 64 -25q26 -26 26 -62t-26 -62
q-25 -25 -64 -25z" />
    <glyph glyph-name="comma.alt1" horiz-adv-x="263" 
d="M49 -37q71 7 72 48q-37 1 -59 22q-21 20 -21 55q0 36 26 57q25 21 61 21q39 0 67 -26q26 -26 26 -73v-15q0 -76 -46 -113q-48 -39 -126 -40v64z" />
    <glyph glyph-name="comma.tab" horiz-adv-x="260" 
d="M11 -78l71 239l143 -49l-125 -223z" />
    <glyph glyph-name="commaaccent.alt1" horiz-adv-x="382" 
d="M128 -168q57 4 60 36q-32 -2 -48 12q-17 14 -17 38q0 22 18 36q17 14 45 14q31 0 51 -17q19 -16 19 -51v-7q0 -49 -31 -76q-32 -27 -97 -29v44z" />
    <glyph glyph-name="commaaccent.alt1alt" horiz-adv-x="393" 
d="M198 579q-31 0 -51 17q-19 16 -19 49v8q0 50 32 77q32 28 96 29v-44q-57 -4 -60 -37q33 2 48 -11q17 -14 17 -39q0 -22 -18 -36q-17 -13 -45 -13z" />
    <glyph glyph-name="dieresis.uc" horiz-adv-x="400" 
d="M100 760q-30 0 -53 21q-22 21 -22 52t22 52q23 21 53 21q32 0 54 -21t22 -52t-22 -52t-54 -21zM299 760q-31 0 -52 21q-22 21 -22 52t22 52q21 21 52 21t54 -21q22 -21 22 -52t-22 -52q-23 -21 -54 -21z" />
    <glyph glyph-name="divide.tab" 
d="M260 442q-35 0 -58 23q-24 23 -24 58t24 57q23 23 58 23q34 0 59 -23q24 -22 24 -57t-24 -58q-25 -23 -59 -23zM45 394h432v-107h-432v107zM260 78q-35 0 -58 23q-24 23 -24 57q0 36 24 58q23 23 58 23q34 0 59 -23q24 -23 24 -58q0 -34 -24 -57q-25 -23 -59 -23z" />
    <glyph glyph-name="dollar.old" horiz-adv-x="546" 
d="M243 -11q-107 8 -161 63q-55 56 -59 146v4h144v-6q1 -35 19 -62q17 -27 57 -34v193q-54 13 -93 33q-39 18 -64 43q-27 27 -38 59q-12 33 -12 78v2q0 40 15 75q13 32 41 59q25 23 65 41q37 15 86 18v81h64v-82q91 -8 144 -54t57 -135v-5h-140v5q-3 32 -17 52
q-14 17 -44 25v-172q55 -15 87 -29q39 -17 67 -40q26 -25 43 -60q15 -35 15 -85v-4q0 -88 -53 -144q-55 -58 -159 -65v-109h-64v109zM175 519q0 -32 16 -49q16 -19 52 -34v154q-68 -11 -68 -70v-1zM375 184q0 34 -16 54q-17 20 -52 35v-173q33 6 51 28q17 22 17 53v3z" />
    <glyph glyph-name="dollar.oldtab" 
d="M232 -11q-102 7 -155 62q-53 53 -54 147v4h134v-6q3 -37 20 -63q16 -24 55 -32v192q-47 13 -87 32q-38 17 -62 42q-25 25 -37 59q-13 33 -13 80v2q0 39 14 75q13 33 40 60q25 25 62 40q38 15 83 18v81h60v-82q88 -8 138 -54t54 -135v-5h-132v5q-7 62 -60 76v-170
q51 -15 82 -29q35 -16 64 -41q27 -25 42 -60q14 -37 14 -86v-5q0 -86 -50 -142q-51 -57 -152 -65v-109h-60v109zM166 519q0 -31 15 -50t51 -33v153q-31 -5 -49 -22q-17 -19 -17 -47v-1zM358 185q0 34 -16 53q-18 21 -50 35v-173q33 8 49 28q17 22 17 53v4z" />
    <glyph glyph-name="dollar.tab" 
d="M231 -123v113q-103 7 -160 64q-55 55 -55 154v6h140v-7q0 -41 18 -67q17 -27 57 -34v197q-50 13 -89 32q-37 17 -64 44q-26 26 -38 60q-13 33 -13 83v2q0 86 55 140q54 54 149 60v83h62v-84q90 -7 145 -56q53 -50 53 -141v-6h-138v6q0 34 -15 53q-16 19 -45 27v-176
q45 -14 84 -30q37 -16 66 -42q26 -24 43 -62q15 -36 15 -87v-4q0 -91 -52 -149q-53 -58 -156 -66v-113h-62zM164 536q0 -30 15 -50t52 -36v158q-33 -5 -50 -23q-17 -20 -17 -48v-1zM361 192q0 34 -16 53t-52 36v-176q33 8 50 29q18 21 18 56v2z" />
    <glyph glyph-name="dotaccent.uc" horiz-adv-x="400" 
d="M200 759q-35 0 -58 23q-24 22 -24 55t24 56q22 22 58 22t58 -22q23 -23 23 -56q0 -32 -23 -55t-58 -23z" />
    <glyph glyph-name="eight.old" horiz-adv-x="547" 
d="M273 -11q-54 0 -99 12q-46 12 -77 36q-33 24 -51 61q-18 36 -18 85v34q0 58 32 99q32 40 87 60q-45 19 -70 52q-26 35 -26 88v17q0 47 18 81q17 34 48 57t71 35t87 12q46 0 88 -11q39 -11 70 -35q31 -25 47 -58q17 -36 17 -80v-17q0 -53 -26 -88q-26 -33 -71 -52
q56 -19 88 -59q30 -39 30 -98v-33q0 -49 -18 -86q-17 -35 -50 -62q-30 -25 -77 -37q-45 -13 -100 -13zM275 423q33 0 54 21q20 20 20 61v21q0 38 -21 59q-22 20 -53 20t-54 -20q-22 -21 -22 -59v-22q0 -39 22 -60q23 -21 54 -21zM274 106q37 0 62 23q24 23 24 66v38
q0 42 -23 67q-25 23 -62 23q-39 0 -62 -22q-25 -22 -25 -68v-38q0 -43 24 -66q25 -23 62 -23z" />
    <glyph glyph-name="eight.oldtab" 
d="M261 -11q-51 0 -94 12t-73 36q-32 24 -48 61q-17 37 -17 85v34q0 58 29 99q28 40 83 60q-45 19 -67 52q-24 35 -24 88v17q0 45 17 81q17 34 45 57q30 24 67 35q39 12 83 12q43 0 84 -11q38 -12 67 -35q27 -23 44 -58q16 -33 16 -80v-17q0 -53 -24 -88q-25 -34 -67 -52
q53 -19 82 -59q28 -38 28 -98v-33q0 -47 -17 -86q-15 -35 -47 -62q-31 -25 -73 -37q-42 -13 -94 -13zM262 423q32 0 52 21q19 20 19 61v21q0 37 -20 59q-20 20 -51 20t-51 -20q-20 -22 -20 -59v-22q0 -39 21 -60q19 -21 50 -21zM261 106q36 0 59 23q22 22 22 66v38
q0 43 -21 67q-23 23 -59 23t-59 -23t-23 -68v-38q0 -43 23 -66q22 -22 58 -22z" />
    <glyph glyph-name="eight.tab" 
d="M260 -11q-52 0 -96 12t-75 37q-34 27 -49 62q-18 38 -18 87v31q0 61 29 102q29 42 83 61q-44 20 -67 53q-24 34 -24 88v15q0 45 17 82q17 35 47 59q31 24 70 35q39 12 84 12t86 -12q38 -12 69 -35q30 -25 46 -59q16 -33 16 -81v-15q0 -54 -24 -88q-24 -35 -66 -53
q110 -41 110 -161v-29q0 -49 -17 -88q-18 -38 -49 -63t-76 -39q-42 -13 -96 -13zM262 428q32 0 52 21q20 22 20 61v18q0 39 -20 59t-52 20q-31 0 -53 -20q-21 -19 -21 -60v-18q0 -41 21 -60q21 -21 53 -21zM261 111q38 0 61 23q22 22 22 67v35q0 46 -22 68q-23 23 -61 23
q-37 0 -60 -22q-25 -22 -25 -69v-35q0 -45 24 -67q25 -23 61 -23z" />
    <glyph glyph-name="emdash.uc" horiz-adv-x="882" 
d="M37 378h807v-94h-807v94z" />
    <glyph glyph-name="endash.uc" horiz-adv-x="497" 
d="M37 378h423v-94h-423v94z" />
    <glyph glyph-name="equal.tab" 
d="M55 465h411v-107h-411v107zM55 286h411v-106h-411v106z" />
    <glyph glyph-name="exclamdown.uc" horiz-adv-x="285" 
d="M228 0h-168l23 497h122zM144 723q20 0 36 -6q15 -7 28 -18q11 -11 19 -27q7 -14 7 -33q0 -35 -26 -61q-25 -25 -64 -25q-38 0 -63 25q-26 26 -26 61q0 19 7 33q8 16 19 27q13 11 28 18q16 6 35 6z" />
    <glyph glyph-name="f.short" horiz-adv-x="319" 
d="M72 418h-58v105h58v65q0 85 47 126t125 41q17 0 39 -2q12 -1 25 -5v-111q-15 5 -35 5q-27 0 -39 -15q-13 -14 -13 -41v-63h88v-105h-88v-418h-149v418z" />
    <glyph glyph-name="f_f.short" horiz-adv-x="598" 
d="M72 418h-58v105h58v58q0 85 47 127q47 41 123 41q18 0 40 -2q18 -4 26 -7v-110q-17 5 -36 5q-27 0 -39 -14q-12 -15 -12 -41v-57h130v65q0 85 47 126t124 41q17 0 39 -2q13 -1 26 -5v-111q-2 1 -7 2.5t-8 1.5q-5 1 -21 1q-27 0 -39 -15q-13 -14 -13 -41v-63h88v-105h-88
v-418h-148v418h-130v-418h-149v418z" />
    <glyph glyph-name="five.old" horiz-adv-x="526" 
d="M258 -102q-56 0 -101 14q-43 15 -72 42q-31 28 -45 65q-14 36 -16 83v3h147v-4q5 -39 22 -59q18 -22 63 -22q40 0 61 27q21 25 21 71v38q0 50 -25 75q-26 26 -69 26q-38 0 -63 -13q-27 -14 -43 -35h-89l12 405h403v-126h-285l-4 -177q20 25 54 41q34 17 85 17
q41 0 74 -13q33 -14 57 -39q25 -28 38 -66t13 -90v-44q0 -102 -62 -161q-62 -58 -176 -58z" />
    <glyph glyph-name="five.oldtab" 
d="M255 -102q-111 0 -166 53q-55 54 -58 151h143q4 -38 21 -61q16 -22 58 -22q38 0 58 26q19 25 19 73v38q0 51 -23 77q-22 25 -65 25q-36 0 -59 -13q-25 -13 -42 -35h-86l11 404h386v-125h-270l-3 -178q16 21 49 42q32 18 81 18q80 0 128 -53q47 -53 47 -153v-43
q0 -104 -59 -165q-61 -59 -170 -59z" />
    <glyph glyph-name="five.tab" 
d="M254 -11q-116 0 -171 55q-57 54 -57 155v4h146v-5q0 -39 19 -59q18 -21 61 -21q77 0 77 106v28q0 54 -24 79q-24 26 -66 26q-37 0 -62 -14t-41 -36h-88l11 408h396v-127h-277l-4 -178q19 25 50 44q32 18 82 18q84 0 134 -54q48 -56 48 -161v-34q0 -111 -60 -172
q-62 -62 -174 -62z" />
    <glyph glyph-name="florin.tab" 
d="M151 315h-79v106h93l16 127q12 94 63 134q49 40 135 40q40 0 67 -9v-116q-9 4 -20 5q-16 2 -26 2q-32 0 -47 -17q-16 -16 -21 -50l-15 -116h112v-106h-126l-62 -482h-151z" />
    <glyph glyph-name="four.old" horiz-adv-x="575" 
d="M316 53h-301v52l258 510h199v-453h82v-109h-82v-145h-156v145zM319 162v322l-154 -322h154z" />
    <glyph glyph-name="four.oldtab" 
d="M282 53h-271v51l229 511h193v-453h70v-109h-70v-145h-151v145zM285 162v317l-139 -317h139z" />
    <glyph glyph-name="four.tab" 
d="M284 148h-274v56l233 511h194v-451h67v-116h-67v-148h-153v148zM287 264v313l-136 -313h136z" />
    <glyph glyph-name="gcommaaccent.alt1" horiz-adv-x="547" 
d="M266 579q-31 0 -51 17q-19 16 -19 49v8q0 50 32 77q32 28 96 29v-44q-57 -4 -60 -37q33 2 48 -11q17 -14 17 -39q0 -22 -18 -36q-17 -13 -45 -13zM258 -188q-110 0 -166 44q-54 44 -62 122h147q5 -28 23 -43q17 -16 59 -16q48 0 70 25t22 72v81q-16 -34 -53 -57
q-36 -24 -87 -24q-38 0 -72 14t-57 40q-25 26 -38 66q-14 40 -14 91v92q0 49 14 91q13 39 39 68q24 27 58 42q36 14 74 14q52 0 85 -21q33 -23 51 -57v67h149v-504q0 -105 -63 -156q-65 -51 -179 -51zM264 123q42 0 66 28q23 28 23 78v88q0 51 -22 79q-22 27 -65 27
q-41 0 -64 -26q-22 -26 -22 -78v-95q0 -50 22 -75q23 -26 62 -26z" />
    <glyph glyph-name="germandbls.alt" horiz-adv-x="597" 
d="M403 -9q-88 0 -129 41q-43 41 -44 114h128q2 -54 41 -54q38 0 38 44q0 32 -22 51q-19 17 -60 46q-13 9 -37 29q-17 13 -32 31q-15 16 -24 38q-9 21 -9 47q0 32 17 61q16 27 36 51q16 19 36 47q16 22 16 48q0 31 -19 47t-55 16q-39 0 -62 -23q-24 -24 -24 -73v-552h-151
v550q0 50 18 90q16 38 49 66q32 28 75 41q45 14 96 14t90 -10q38 -10 69 -31q28 -21 45 -50q16 -29 16 -68q0 -41 -17 -70q-16 -28 -37 -53q-23 -25 -38 -41q-17 -20 -17 -36q0 -17 18 -32q11 -10 61 -48q22 -15 40 -31q15 -14 33 -37q15 -23 23 -46q8 -27 8 -57
q0 -79 -48 -119q-50 -41 -128 -41z" />
    <glyph glyph-name="grave.uc" horiz-adv-x="400" 
d="M63 896h160l44 -138h-114z" />
    <glyph glyph-name="greater.tab" 
d="M70 229l186 92l-186 98v133l387 -215v-30l-387 -215v137z" />
    <glyph glyph-name="greaterequal.tab" 
d="M77 285l163 81l-163 80v134l375 -200v-29l-375 -201v135zM77 122h375v-104h-375v104z" />
    <glyph glyph-name="guillemotleft.uc" horiz-adv-x="435" 
d="M31 306l108 183h103l-104 -183l104 -182h-103zM194 306l108 183h103l-104 -183l104 -182h-103z" />
    <glyph glyph-name="guillemotright.uc" horiz-adv-x="435" 
d="M135 306l-106 183h104l108 -183l-108 -182h-104zM297 306l-105 183h104l108 -183l-108 -182h-104z" />
    <glyph glyph-name="guilsinglleft.uc" horiz-adv-x="276" 
d="M31 306l108 183h107l-104 -183l104 -182h-107z" />
    <glyph glyph-name="guilsinglright.uc" horiz-adv-x="276" 
d="M135 306l-106 183h108l108 -183l-108 -182h-108z" />
    <glyph glyph-name="hungarumlaut.uc" horiz-adv-x="400" 
d="M92 896h134l-65 -138h-101zM264 896h134l-65 -138h-102z" />
    <glyph glyph-name="hyphen.uc" horiz-adv-x="347" 
d="M44 392h259v-120h-259v120z" />
    <glyph glyph-name="idotaccent" horiz-adv-x="249" 
d="M124 578q-35 0 -60 23q-24 23 -24 57t24 57q23 22 60 22q35 0 60 -22q24 -23 24 -57t-24 -57q-25 -23 -60 -23zM50 523h149v-523h-149v523z" />
    <glyph glyph-name="kcommaaccent.alt1" horiz-adv-x="496" 
d="M47 750h149v-443l131 216h153l-152 -238l162 -285h-164l-130 237v-237h-149v750zM192 -168q57 4 60 36q-32 -2 -48 12q-17 14 -17 38q0 22 18 36q17 14 45 14q31 0 51 -17q19 -16 19 -51v-7q0 -49 -31 -76q-32 -27 -97 -29v44z" />
    <glyph glyph-name="lcommaaccent.alt1" horiz-adv-x="250" 
d="M50 750h149v-750h-149v750zM66 -168q57 4 60 36q-32 -2 -48 12q-17 14 -17 38q0 22 18 36q17 14 45 14q31 0 51 -17q19 -16 19 -51v-7q0 -49 -31 -76q-32 -27 -97 -29v44z" />
    <glyph glyph-name="less.tab" 
d="M65 307v30l386 215v-137l-187 -93l187 -97v-133z" />
    <glyph glyph-name="lessequal.tab" 
d="M68 351v29l376 200v-134l-164 -80l164 -81v-135zM68 122h376v-104h-376v104z" />
    <glyph glyph-name="macron.uc" horiz-adv-x="400" 
d="M57 865h286v-96h-286v96z" />
    <glyph glyph-name="minus.tab" 
d="M49 398h424v-115h-424v115z" />
    <glyph glyph-name="multiply.tab" 
d="M51 199l131 135l-132 136l80 79l130 -134l129 132l80 -78l-131 -135l133 -136l-81 -78l-130 134l-129 -132z" />
    <glyph glyph-name="ncommaaccent.alt1" horiz-adv-x="531" 
d="M207 -168q57 4 60 36q-31 -2 -48 12t-17 38q0 22 18 36q17 14 45 14q31 0 51 -17q19 -16 19 -51v-7q0 -49 -31 -76q-32 -27 -97 -29v44zM47 523h149v-74q18 35 54 61q36 24 91 24q65 0 106 -42q40 -41 40 -130v-362h-149v337q0 78 -65 78q-34 0 -55 -21q-22 -21 -22 -65
v-329h-149v523z" />
    <glyph glyph-name="nine.old" horiz-adv-x="556" 
d="M263 -104q-104 0 -162 49t-66 146v4h150v-5q5 -34 24 -53q18 -20 56 -20q52 0 75 41q22 40 24 137v49q-20 -33 -53 -55q-35 -23 -88 -23q-43 0 -76 13q-37 13 -61 37q-28 26 -42 62q-15 36 -15 84v46q0 103 65 160q64 57 176 57q66 0 115 -20q47 -19 79 -57
q30 -38 45 -90q14 -54 14 -119v-144q0 -144 -67 -221q-68 -78 -193 -78zM271 272q38 0 64 26q24 26 24 72v35q0 51 -24 77t-64 26q-39 0 -62 -26t-23 -70v-44q0 -45 22 -70q23 -26 63 -26z" />
    <glyph glyph-name="nine.oldtab" 
d="M247 -104q-100 0 -156 47q-57 49 -61 148v4h141v-5q5 -35 22 -54q17 -20 54 -20q50 0 70 41q19 41 21 132v49q-18 -31 -50 -51q-32 -21 -83 -21q-39 0 -70 12q-32 10 -57 35q-26 24 -39 61q-14 37 -14 86v47q0 51 16 90q17 41 45 69q27 27 71 44q42 15 94 15
q122 0 180 -70t58 -192v-177q0 -142 -63 -217q-63 -73 -179 -73zM253 273q35 0 61 24q24 24 24 71v37q0 53 -24 78t-61 25q-38 0 -60 -25q-23 -26 -23 -70v-44q0 -45 23 -71q22 -25 60 -25z" />
    <glyph glyph-name="nine.tab" 
d="M249 -11q-101 0 -160 48q-58 46 -63 148h145q3 -35 22 -54q20 -20 54 -20q48 0 72 38q23 38 23 128v53q-19 -32 -51 -55q-32 -22 -87 -22q-38 0 -71 12q-34 12 -58 37q-26 26 -39 62q-15 37 -15 88v49q0 106 62 165t170 59q120 0 181 -67q62 -68 62 -196v-191
q0 -141 -66 -211q-66 -71 -181 -71zM255 603q-39 0 -62 -26q-22 -25 -22 -71v-47q0 -94 82 -94q38 0 64 23q25 22 25 71v40q0 53 -24 79q-24 25 -63 25z" />
    <glyph glyph-name="notequal.tab" 
d="M156 180h-105v106h146l28 72h-174v107h215l35 89h100l-35 -89h104v-107h-145l-28 -72h173v-106h-214l-35 -89h-100z" />
    <glyph glyph-name="one.old" horiz-adv-x="369" 
d="M142 456l-115 -77v136l136 100h137v-615h-158v456z" />
    <glyph glyph-name="one.oldtab" 
d="M230 456l-152 -107v135l173 131h137v-615h-158v456z" />
    <glyph glyph-name="one.sup" horiz-adv-x="256" 
d="M94 659l-74 -48v96l89 64h100v-383h-115v271z" />
    <glyph glyph-name="one.tab" 
d="M225 547l-152 -112v144l171 136h150v-715h-169v547z" />
    <glyph glyph-name="parenleft.tab" horiz-adv-x="260" 
d="M156 -144q-28 44 -46 81q-23 45 -43 103q-20 57 -32 124t-12 149q0 81 12 150q12 67 32 124q21 59 43 102q18 37 46 81h112q-18 -36 -39 -86q-21 -51 -35 -104q-15 -57 -24 -123q-10 -64 -10 -144t10 -143q9 -68 24 -123q14 -54 35 -105q21 -50 39 -86h-112z" />
    <glyph glyph-name="parenleft.uc" horiz-adv-x="319" 
d="M189 -98q-24 31 -54 79q-28 46 -48 100q-23 55 -36 120q-14 67 -14 142t14 142q13 65 36 120q20 54 48 100q30 48 54 79h119q-22 -34 -46 -84q-25 -52 -40 -102q-19 -58 -29 -119q-11 -68 -11 -136q0 -69 11 -135q10 -59 29 -119q15 -50 40 -102q26 -54 46 -85h-119z" />
    <glyph glyph-name="parenright.tab" horiz-adv-x="260" 
d="M-8 -144q22 41 41 86q18 45 34 105q14 51 25 123q9 66 9 143t-9 144q-11 71 -25 123q-16 61 -34 104q-19 45 -41 86h112q26 -41 47 -81q26 -50 44 -102t31 -124q12 -69 12 -150q0 -82 -12 -149q-13 -72 -31 -124q-18 -53 -44 -103q-21 -40 -47 -81h-112z" />
    <glyph glyph-name="parenright.uc" horiz-adv-x="319" 
d="M11 -98q25 42 46 85t40 102q19 60 29 119q11 66 11 135q0 68 -11 136q-10 61 -29 119q-19 59 -40 102q-18 38 -46 84h119q24 -31 54 -79q26 -46 48 -100q22 -55 36 -120q13 -62 13 -142t-13 -142q-14 -65 -36 -120q-22 -54 -48 -100q-30 -48 -54 -79h-119z" />
    <glyph glyph-name="percent.tab" horiz-adv-x="700" 
d="M182 392q-72 0 -115 43q-43 42 -43 112v22q0 35 12 64t34 48q22 21 50 31q30 11 63 11q36 0 63 -10q28 -11 51 -30q21 -19 33 -48t12 -63v-23q0 -34 -11 -64q-13 -30 -33 -49q-21 -22 -50 -32q-30 -12 -66 -12zM533 715h87l-450 -715h-87zM183 479q50 0 50 68v23
q0 67 -50 67q-22 0 -36 -17q-13 -16 -13 -49v-24q0 -68 49 -68zM517 -10q-72 0 -115 43q-44 42 -44 111v23q0 36 13 63q12 29 34 48q23 21 51 31q30 11 62 11q35 0 62 -10q28 -10 51 -30q20 -19 34 -48q12 -28 12 -62v-24q0 -71 -44 -113q-43 -43 -116 -43zM518 76
q24 0 37 18q12 18 12 50v24q0 67 -49 67q-22 0 -36 -17t-14 -50v-24q0 -34 14 -51t36 -17z" />
    <glyph glyph-name="period.tab" horiz-adv-x="260" 
d="M130 -8q-38 0 -63 25q-26 26 -26 62t26 62q25 25 63 25q39 0 64 -25q26 -26 26 -62t-26 -62q-25 -25 -64 -25z" />
    <glyph glyph-name="perthousand.tab" horiz-adv-x="900" 
d="M151 396q-65 0 -102 40q-39 40 -39 112v23q0 35 11 65q10 27 31 48q18 18 45 29q24 10 55 10t56 -9q26 -11 44 -29q20 -20 30 -47q11 -30 11 -64v-23q0 -73 -39 -114q-41 -41 -103 -41zM480 715h86l-451 -715h-85zM152 478q20 0 29 17t9 53v24q0 38 -9 54t-29 16t-29 -16
q-10 -16 -10 -54v-24q0 -38 10 -54q9 -16 29 -16zM440 -10q-64 0 -103 40q-39 41 -39 112v23q0 34 11 64q10 27 31 48q18 18 45 29q24 10 55 10q30 0 56 -9q27 -11 45 -29q20 -20 30 -46q11 -30 11 -65v-22q0 -75 -39 -115q-40 -40 -103 -40zM749 -10q-64 0 -103 40
q-39 41 -39 112v23q0 34 11 64q10 27 31 48q18 18 45 29q24 10 55 10t56 -9q27 -11 45 -29q20 -20 30 -46q11 -30 11 -65v-22q0 -75 -39 -115q-40 -40 -103 -40zM440 72q19 0 30 17q9 17 9 54v23q0 38 -9 54q-10 16 -30 16t-29 -16t-9 -54v-24q0 -38 9 -54t29 -16zM749 72
q19 0 30 17q9 17 9 54v23q0 38 -9 54q-10 16 -30 16t-29 -16t-9 -54v-24q0 -38 9 -54t29 -16z" />
    <glyph glyph-name="plus.tab" 
d="M200 285h-151v111h151v166h122v-166h150v-111h-150v-166h-122v166z" />
    <glyph glyph-name="plusminus.tab" 
d="M200 328h-155v111h155v150h122v-150h154v-111h-154v-150h-122v150zM45 121h432v-104h-432v104z" />
    <glyph glyph-name="questiondown.uc" horiz-adv-x="484" 
d="M338 464q0 -30 -7 -51q-8 -25 -18 -43q-12 -20 -27 -39l-33 -39q-31 -36 -43 -54q-18 -24 -18 -60q0 -34 15 -49q13 -15 43 -15q64 0 71 85h146q-3 -103 -63 -156q-61 -53 -163 -53t-155 46q-54 45 -54 133q0 51 20 88q20 35 51 72q12 13 35 36q6 6 29 34q12 14 22 35
q7 18 9 38v25h140v-33zM268 723q38 0 64 -24q26 -26 26 -61q0 -37 -26 -61q-25 -25 -64 -25t-64 25q-26 24 -26 61q0 35 26 61q26 24 64 24z" />
    <glyph glyph-name="quotedblbase.alt1" horiz-adv-x="420" 
d="M232 -24q64 6 65 45q-35 1 -54 21q-19 18 -19 50q0 34 24 53q22 19 56 19q37 0 61 -24q24 -26 24 -67v-14q0 -66 -41 -104q-41 -37 -116 -38v59zM38 -24q63 6 66 45q-34 1 -54 21q-20 18 -20 50q0 34 24 53q22 19 55 19q38 0 62 -24q24 -26 24 -67v-14q0 -66 -41 -104
q-41 -37 -116 -38v59z" />
    <glyph glyph-name="quotedblleft.alt1" horiz-adv-x="420" 
d="M188 660q-64 -6 -66 -45q34 -1 54 -20q19 -19 19 -51q0 -33 -23 -53q-22 -19 -56 -19q-37 0 -61 25q-24 24 -24 67v13q0 68 41 104q41 37 116 38v-59zM382 660q-63 -6 -65 -45q34 -1 54 -20q19 -19 19 -51q0 -33 -23 -53q-23 -19 -57 -19q-37 0 -61 25q-24 24 -24 67v13
q0 68 41 104q41 37 116 38v-59z" />
    <glyph glyph-name="quotedblright.alt1" horiz-adv-x="420" 
d="M38 533q63 8 66 46q-34 1 -54 21q-20 18 -20 50q0 34 24 53q22 19 55 19q38 0 62 -24q24 -26 24 -68v-13q0 -68 -41 -104q-41 -37 -116 -38v58zM232 533q63 8 65 46q-35 1 -54 21q-19 18 -19 50q0 34 24 53q22 19 56 19q37 0 61 -24q24 -26 24 -68v-13q0 -68 -41 -104
q-41 -37 -116 -38v58z" />
    <glyph glyph-name="quoteleft.alt1" horiz-adv-x="225" 
d="M188 660q-64 -6 -66 -45q34 -1 54 -20q19 -19 19 -51q0 -33 -23 -53q-22 -19 -56 -19q-37 0 -61 25q-24 24 -24 67v13q0 68 41 104q41 37 116 38v-59z" />
    <glyph glyph-name="quoteright.alt1" horiz-adv-x="225" 
d="M38 533q63 8 66 46q-34 1 -54 21q-20 18 -20 50q0 34 24 53q22 19 55 19q38 0 62 -24q24 -26 24 -68v-13q0 -68 -41 -104q-41 -37 -116 -38v58z" />
    <glyph glyph-name="quotesinglbase.alt1" horiz-adv-x="226" 
d="M38 -24q63 6 66 45q-34 1 -54 21q-20 18 -20 50q0 34 24 53q22 19 55 19q38 0 62 -24q24 -26 24 -67v-14q0 -66 -41 -104q-41 -37 -116 -38v59z" />
    <glyph glyph-name="rcommaaccent.alt1" horiz-adv-x="364" 
d="M47 523h149v-91q21 52 57 74q35 23 89 23v-144q-69 1 -108 -22q-38 -24 -38 -81v-282h-149v523zM61 -168q57 4 60 36q-31 -2 -48 12t-17 38q0 22 18 36q17 14 45 14q31 0 51 -17q19 -16 19 -51v-7q0 -49 -31 -76q-32 -27 -97 -29v44z" />
    <glyph glyph-name="registered.alt" horiz-adv-x="759" 
d="M379 19q-71 0 -135 26q-61 24 -110 73q-48 48 -74 109q-27 63 -27 137q0 73 27 136t74 110q46 46 110 73q63 27 137 27q73 0 137 -26q65 -28 110 -73q46 -46 72 -110t26 -136q0 -74 -27 -137t-73 -109q-48 -48 -110 -73q-64 -27 -137 -27zM379 66q62 0 113 22
q52 22 92 61q40 40 62 94q23 57 23 122q0 68 -22 122t-62 94q-38 38 -91 61q-52 21 -113 21q-63 0 -115 -21q-54 -23 -92 -61q-39 -40 -61 -95q-23 -57 -23 -122q0 -67 23 -122q22 -55 63 -94q39 -39 92 -60q51 -22 111 -22zM240 557h142q74 0 109 -29q35 -30 35 -87v-8
q0 -40 -16 -62q-18 -24 -42 -34l78 -160h-110l-66 140h-24v-140h-106v380zM377 386q46 0 46 43v7q0 41 -45 41h-32v-91h31z" />
    <glyph glyph-name="ring.uc" horiz-adv-x="400" 
d="M200 744q-22 0 -43 8q-20 8 -34 23q-16 14 -23 33q-9 20 -9 41t9 41q7 19 23 33q14 14 34 23q21 8 43 8t43 -8q19 -9 35 -23q14 -14 23 -33q8 -21 8 -41t-8 -41q-9 -19 -23 -33q-16 -15 -35 -23q-21 -8 -43 -8zM200 802q19 0 31 14t12 33q0 21 -12 34t-31 13
q-21 0 -31 -13q-12 -13 -12 -34q0 -19 12 -33q11 -14 31 -14z" />
    <glyph glyph-name="scommaaccent.alt1" horiz-adv-x="455" 
d="M228 -10q-99 0 -151 43q-55 44 -56 128h139q2 -35 17 -52q15 -18 50 -18q58 0 58 51q0 14 -6 24q-5 8 -18 16q-10 6 -30 13q-18 6 -42 12q-39 11 -72 26q-28 12 -50 34q-21 21 -29 46q-10 26 -10 64q0 39 15 69q16 30 41 49q23 17 61 29q33 10 75 10q41 0 78 -8
q37 -10 61 -28q24 -19 40 -50q15 -32 18 -75h-137q-6 61 -60 61q-26 0 -40 -12q-14 -14 -14 -34q0 -26 20 -37q18 -10 67 -24q42 -11 75 -24q36 -15 56 -32q21 -18 34 -47q12 -27 12 -66q0 -85 -53 -126q-53 -42 -149 -42zM164 -168q57 4 60 36q-32 -2 -48 12q-17 14 -17 38
q0 22 18 36q17 14 45 14q31 0 51 -17q19 -16 19 -51v-7q0 -49 -31 -76q-32 -27 -97 -29v44z" />
    <glyph glyph-name="semicolon.alt1" horiz-adv-x="268" 
d="M133 284q-37 0 -63 26t-26 62q0 37 26 63q25 25 63 25q40 0 65 -25q26 -26 26 -63q0 -36 -26 -62t-65 -26zM51 -37q70 7 73 48q-39 2 -59 22q-21 20 -21 55q0 36 26 57t61 21q39 0 67 -26q26 -26 26 -73v-15q0 -76 -46 -113q-48 -39 -127 -40v64z" />
    <glyph glyph-name="semicolon.tab" horiz-adv-x="260" 
d="M134 284q-37 0 -63 26t-26 62q0 37 26 63q25 25 63 25q40 0 65 -25q26 -26 26 -63q0 -36 -26 -62t-65 -26zM-2 -78l71 239l142 -49l-124 -223z" />
    <glyph glyph-name="seven.old" horiz-adv-x="489" 
d="M279 484h-258v131h457v-18l-225 -689h-165z" />
    <glyph glyph-name="seven.oldtab" 
d="M288 484h-250v131h451v-18l-225 -689h-165z" />
    <glyph glyph-name="seven.tab" 
d="M289 579h-253v136h458v-18l-223 -697h-169z" />
    <glyph glyph-name="six.old" horiz-adv-x="556" 
d="M287 -11q-66 0 -115 20q-47 19 -79 57q-31 36 -45 87q-15 51 -15 113v151q0 72 20 129t54 94q36 39 82 58q49 20 105 20q101 0 157 -46q58 -47 65 -143v-4h-150v5q-5 32 -21 50q-17 17 -50 17q-49 0 -74 -43q-27 -45 -28 -134v-50q21 33 54 55q35 23 88 23q41 0 75 -12
q38 -15 61 -38q27 -27 41 -62q15 -38 15 -87v-45q0 -101 -64 -158q-65 -57 -176 -57zM286 107q39 0 62 26t23 69v44q0 46 -22 71t-63 25q-39 0 -64 -25t-25 -71v-36q0 -52 24 -77q24 -26 65 -26z" />
    <glyph glyph-name="six.oldtab" 
d="M272 -11q-62 0 -106 19q-46 19 -74 52q-31 36 -44 83q-15 50 -15 109v176q0 70 18 125q17 52 50 91q31 35 78 55q44 19 100 19q93 0 149 -44t60 -144h-143q-4 34 -18 52q-15 17 -47 17q-47 0 -71 -42q-25 -43 -25 -136v-50q16 31 51 54q34 23 84 23q38 0 71 -12
q32 -12 56 -36q25 -27 38 -61q13 -36 13 -86v-46q0 -103 -60 -160q-59 -58 -165 -58zM271 108q37 0 59 25q22 23 22 68v45q0 46 -21 71q-22 25 -60 25q-37 0 -62 -24t-25 -71v-38q0 -51 25 -76q24 -25 62 -25z" />
    <glyph glyph-name="six.tab" 
d="M271 -11q-125 0 -185 72q-61 70 -61 194v176q0 73 19 127q17 54 51 92q31 36 80 56q45 19 102 19q96 0 153 -45q57 -47 61 -146h-146q-5 34 -19 51q-17 17 -48 17q-48 0 -73 -40q-26 -41 -26 -130v-48q19 33 52 55q31 22 86 22q37 0 72 -12q33 -14 58 -37q25 -26 39 -62
q14 -39 14 -89v-50q0 -105 -60 -164q-61 -58 -169 -58zM268 113q38 0 60 25t22 70v48q0 48 -22 71q-22 24 -61 24q-37 0 -63 -23q-25 -24 -25 -72v-39q0 -54 25 -79q24 -25 64 -25z" />
    <glyph glyph-name="slash.uc" horiz-adv-x="390" 
d="M266 773h121l-265 -851h-122z" />
    <glyph glyph-name="space.tab" horiz-adv-x="260" 
 />
    <glyph glyph-name="space_uni0326" horiz-adv-x="400" 
d="M109 -191l38 156l136 -9l-87 -170z" />
    <glyph glyph-name="space_uni0326.alt" horiz-adv-x="400" 
d="M126 588l86 170l86 -24l-37 -155z" />
    <glyph glyph-name="sterling.old" horiz-adv-x="545" 
d="M31 386h47q-5 20 -10 55q-4 25 -4 58v3q0 47 17 86q16 37 47 63q30 25 72 39q39 13 90 13q110 0 165 -53q53 -52 58 -150h-150q-4 41 -20 60q-17 18 -48 18q-32 0 -50 -20q-19 -20 -19 -60v-5q0 -27 3 -52q1 -16 5 -55h154v-96h-143l3 -36q1 -13 1 -39q0 -41 -12 -70
q5 -1 52 -16q24 -8 41 -8q24 0 38 12q14 11 15 39h141q-2 -39 -12 -72q-10 -31 -31 -57q-20 -23 -51 -37q-28 -14 -69 -14q-33 0 -57 7q-29 8 -49 16q-25 8 -41 15q-18 7 -35 7q-20 0 -29 -11q-10 -10 -12 -26h-121q3 45 23 87q19 39 59 57q6 18 7 30q2 22 2 39q0 13 -2 39
q-2 19 -6 38h-69v96z" />
    <glyph glyph-name="sterling.oldtab" 
d="M33 385h45q-4 18 -10 56q-4 25 -4 58v3q0 51 16 87q17 39 44 63t67 38q38 13 85 13q102 0 154 -50q51 -51 54 -151v-6h-138v6q-4 42 -19 60q-15 16 -46 16t-49 -19t-18 -61v-5q0 -26 3 -53q1 -26 6 -55h145v-94h-134q1 -13 3 -37q1 -13 1 -39q0 -41 -12 -71q26 -8 48 -15
q21 -7 40 -7q22 0 36 11t15 39h131q-3 -81 -41 -131q-37 -49 -112 -49q-31 0 -53 7q-28 8 -45 16q-23 8 -38 15q-17 7 -33 7q-19 0 -28 -11q-10 -11 -11 -26h-115q3 49 22 87q20 39 55 57q9 26 9 69q0 13 -2 39q-2 20 -6 39h-65v94z" />
    <glyph glyph-name="sterling.tab" 
d="M25 394h47q-5 20 -11 60q-5 33 -5 62v3q0 49 17 89q17 39 45 64q30 27 69 40t88 13q108 0 161 -52q54 -53 54 -155v-7h-142v5q0 43 -17 62q-19 17 -50 17q-32 0 -50 -20q-19 -19 -19 -62v-5q0 -26 3 -55q1 -19 7 -59h148v-95h-137l3 -36q1 -13 1 -38q0 -23 -3 -41
q-3 -13 -9 -35q34 -10 49 -15q24 -8 40 -8q23 0 38 12q15 11 16 39h135q-3 -86 -43 -135q-41 -50 -116 -50q-31 0 -55 7q-28 8 -46 16q-8 3 -21.5 8.5t-17.5 7.5q-17 7 -34 7q-19 0 -28 -11q-10 -11 -11 -27h-119q3 48 23 90q19 40 57 60q9 28 9 73q0 33 -8 76h-68v95z" />
    <glyph glyph-name="t.alt" horiz-adv-x="329" 
d="M227 630v-107h85v-105h-85v-418h-150v418h-63v105h63v107h150z" />
    <glyph glyph-name="tbar.alt" horiz-adv-x="329" 
d="M14 342h63v76h-63v105h63v107h150v-107h85v-105h-85v-76h88v-87h-88v-255h-150v255h-63v87z" />
    <glyph glyph-name="tcaron.alt" horiz-adv-x="329" 
d="M227 630v-107h85v-105h-85v-418h-150v418h-63v105h63v107h150zM272 751h116l-44 -166h-80z" />
    <glyph glyph-name="tcommaaccent.alt" horiz-adv-x="329" 
d="M52 -191l38 156l136 -9l-87 -170zM227 630v-107h85v-105h-85v-418h-150v418h-63v105h63v107h150z" />
    <glyph glyph-name="tcommaaccent.alt1" horiz-adv-x="339" 
d="M220 630v-107h92v-105h-92v-254q0 -53 49 -53q30 0 44 7v-114q-4 -2 -31 -8q-21 -3 -47 -3q-83 0 -124 38t-41 119v268h-56v105h56v107h150zM132 -168q57 4 60 36q-32 -2 -48 12q-17 14 -17 38q0 22 18 36q17 14 45 14q31 0 51 -17q19 -16 19 -51v-7q0 -49 -31 -76
q-32 -27 -97 -29v44z" />
    <glyph glyph-name="tcommaaccent.altalt1" horiz-adv-x="329" 
d="M227 630v-107h85v-105h-85v-418h-150v418h-63v105h63v107h150zM94 -168q57 4 60 36q-32 -2 -48 12q-17 14 -17 38q0 22 18 36q17 14 45 14q31 0 51 -17q19 -16 19 -51v-7q0 -49 -31 -76q-32 -27 -97 -29v44z" />
    <glyph glyph-name="three.old" horiz-adv-x="533" 
d="M265 -102q-121 0 -179 57q-59 59 -63 160v3h146v-4q3 -47 24 -71q19 -25 66 -25q44 0 65 23q20 23 20 64v26q0 48 -22 69t-73 21h-46v105h43q49 0 71 22q21 22 21 63v19q0 76 -71 76q-38 0 -60 -22q-21 -21 -26 -67v-3h-144v3q1 46 18 85q17 38 46 66q29 27 72 42
q42 15 98 15q103 0 160 -48t57 -133v-19q0 -58 -28 -92q-29 -37 -81 -53q57 -13 91 -50q33 -38 33 -107v-26q0 -45 -15 -81q-17 -38 -46 -63q-31 -26 -74 -41q-47 -14 -103 -14z" />
    <glyph glyph-name="three.oldtab" 
d="M255 -103q-117 0 -174 58q-58 59 -59 159h145q1 -46 22 -71q19 -25 64 -25q81 0 81 86v26q0 48 -21 70q-21 21 -69 21h-44v105h42q45 0 66 22t21 64v18q0 36 -17 56q-18 20 -53 20t-56 -21q-20 -22 -25 -67h-142q2 48 18 85q17 38 45 65t71 42q40 15 94 15q101 0 157 -47
q55 -46 55 -134v-19q0 -59 -28 -93q-28 -36 -78 -51q57 -12 89 -50q31 -38 31 -106v-26q0 -93 -60 -148q-60 -54 -175 -54z" />
    <glyph glyph-name="three.sup" horiz-adv-x="334" 
d="M166 382q-78 0 -112 33q-36 34 -37 93h101q3 -46 41 -46t38 39v8q0 21 -10 31q-11 9 -36 9h-24v68h24q46 0 46 39v4q0 36 -33 36q-17 0 -27 -10q-11 -10 -12 -33h-101q3 58 39 91q34 33 104 33q64 0 101 -26q36 -27 36 -78v-5q0 -63 -64 -79q33 -6 52 -27q19 -20 19 -56
v-9q0 -53 -36 -84q-37 -31 -109 -31z" />
    <glyph glyph-name="three.tab" 
d="M258 -11q-122 0 -180 57q-60 56 -60 164v4h148v-5q0 -45 20 -70q19 -25 65 -25q82 0 82 87v19q0 49 -20 72q-21 22 -70 22h-43v109h41q47 0 68 22q20 23 20 65v13q0 78 -72 78q-38 0 -57 -22q-21 -23 -21 -65v-5h-145v2q0 101 59 158q59 56 167 56q104 0 162 -48
q58 -49 58 -140v-13q0 -59 -29 -96q-30 -38 -82 -51q57 -12 91 -52t34 -108v-20q0 -97 -60 -152q-61 -56 -176 -56z" />
    <glyph glyph-name="tilde.uc" horiz-adv-x="400" 
d="M258 758q-16 0 -33 5q-11 3 -29 11q-4 2 -12 5.5t-12 5.5q-13 5 -22 5q-12 0 -19 -9q-8 -10 -11 -23h-86q4 70 36 105q30 34 71 34q16 0 34 -5q6 -2 16 -5.5t13 -4.5q23 -10 25 -11q12 -5 22 -5q23 0 29 32h86q-4 -71 -36 -106q-31 -34 -72 -34z" />
    <glyph glyph-name="two.old" horiz-adv-x="508" 
d="M11 23l185 202q56 64 86 109q32 49 32 95v6q0 68 -66 68q-35 0 -54 -22q-21 -24 -25 -72v-3h-144v1q4 102 63 161q58 57 168 57q106 0 161 -49q56 -50 56 -131v-10q0 -59 -36 -115q-39 -58 -94 -120l-74 -81h207v-119h-465v23z" />
    <glyph glyph-name="two.oldtab" 
d="M21 23l185 202q55 63 83 109q29 49 29 93v7q0 69 -63 69q-34 0 -52 -22q-19 -23 -24 -72h-144q4 103 63 160q59 56 165 56q104 0 159 -49t55 -131v-10q0 -59 -35 -115q-33 -54 -92 -120l-75 -81h205v-119h-459v23z" />
    <glyph glyph-name="two.sup" horiz-adv-x="318" 
d="M5 403l114 134q31 36 48 63q17 26 17 52v4q0 36 -31 36q-17 0 -26 -12q-11 -14 -12 -42h-104q1 70 41 105q37 34 106 34q70 0 104 -31q33 -31 33 -83v-4q0 -41 -20 -73q-23 -36 -52 -68l-41 -47h115v-83h-292v15z" />
    <glyph glyph-name="two.tab" 
d="M16 25l201 263q16 22 45 64q15 22 32 56q11 23 19 51q6 24 6 50v9q0 81 -63 81q-34 0 -54 -23q-19 -23 -19 -81v-8h-152v3q0 52 14 97q13 40 43 74q28 31 72 48q42 16 102 16q111 0 167 -53q55 -54 55 -145v-10q0 -36 -9 -69q-10 -35 -25 -66q-14 -29 -41 -67
q-19 -27 -53 -72l-95 -115h222v-128h-467v25z" />
    <glyph glyph-name="yen.old" horiz-adv-x="538" 
d="M56 238h135v46h-135v66h117l-160 344h174l93 -243l92 243h153l-153 -344h118v-66h-135v-46h135v-66h-135v-172h-164v172h-135v66z" />
    <glyph glyph-name="yen.oldtab" 
d="M184 180h-128v66h128v46h-128v66h117l-150 336h163l86 -230l83 230h144l-145 -336h120v-66h-131v-46h131v-66h-131v-180h-159v180z" />
    <glyph glyph-name="yen.tab" 
d="M180 178h-130v67h130v48h-130v68h120l-154 354h168l87 -237l85 237h149l-149 -354h123v-68h-134v-48h134v-67h-134v-178h-165v178z" />
    <glyph glyph-name="zero.old" horiz-adv-x="575" 
d="M286 -11q-56 0 -104 17q-46 16 -81 50q-34 33 -52 82q-19 47 -19 112v112q0 65 19 113t54 83q36 34 82 50q48 17 103 17q57 0 102 -16q46 -16 82 -49q33 -32 53 -82q19 -48 19 -113v-110q0 -63 -18 -113q-20 -51 -53 -84q-35 -34 -81 -51q-48 -18 -106 -18zM288 112
q96 0 96 141v111q0 139 -96 139q-98 0 -98 -139v-111q0 -141 98 -141z" />
    <glyph glyph-name="zero.oldtab" 
d="M258 -11q-106 0 -167 63q-62 62 -62 180v151q0 56 17 104q16 44 48 76q31 29 73 46q41 16 93 16q50 0 94 -15q41 -15 73 -45q30 -31 47 -74q17 -46 17 -105v-151q0 -117 -62 -182q-61 -64 -171 -64zM262 116q41 0 58 29t17 89v150q0 58 -18 88q-18 29 -58 29
q-41 0 -59 -29q-18 -28 -18 -88v-151q0 -59 18 -88t60 -29z" />
    <glyph glyph-name="zero.tab" 
d="M259 -11q-107 0 -170 64q-63 63 -63 192v223q0 65 18 113q17 49 48 80q32 32 74 48t95 16q51 0 95 -15q43 -15 74 -46q32 -32 48 -78q17 -49 17 -114v-223q0 -66 -16 -113q-16 -49 -47 -81q-31 -33 -74 -49q-41 -17 -99 -17zM262 118q42 0 59 30q17 29 17 99v224
q0 66 -17 97q-18 30 -60 30t-60 -30q-18 -32 -18 -100v-222q0 -71 19 -99q18 -29 60 -29z" />
    </font>
</defs>
</svg>
