<?xml version="1.0" encoding="utf-8"?>
<!-- Generator: Adobe Illustrator 24.0.3, SVG Export Plug-In . SVG Version: 6.00 Build 0)  -->
<svg version="1.1" id="Layer_1" xmlns="http://www.w3.org/2000/svg" xmlns:xlink="http://www.w3.org/1999/xlink" x="0px" y="0px"
	 viewBox="0 0 305 70" style="enable-background:new 0 0 305 70;" xml:space="preserve">
<style type="text/css">
	.st0{fill:#FFFFFF;}
	.st1{opacity:0.85;fill:#8C8C8C;}
	.st2{opacity:0.85;fill:#CCCCCC;}
	.st3{opacity:0.85;fill:#FFFFFF;enable-background:new    ;}
</style>
<g>
	<path class="st0" d="M99.2,41.4V52h-5.7V22.7h5.2v2.6c1.4-2,3.6-3,6.6-3s5.3,1,7,3.1s2.6,4.7,2.6,7.8S114,39,112.3,41
		s-4.1,3.1-7,3.1c-1.4,0-2.6-0.3-3.7-0.8C100.7,42.8,99.8,42.2,99.2,41.4z M100.5,28.9c-0.9,1.1-1.4,2.5-1.4,4.3
		c0,1.7,0.5,3.2,1.4,4.3s2.2,1.7,3.7,1.7s2.8-0.6,3.7-1.7s1.4-2.5,1.4-4.3c0-1.7-0.5-3.2-1.4-4.3c-0.9-1.1-2.2-1.7-3.7-1.7
		S101.4,27.8,100.5,28.9z"/>
	<path class="st0" d="M128.9,22.5v5.3c-0.4-0.1-0.8-0.1-1.1-0.1c-1.7,0-2.9,0.4-3.8,1.3s-1.3,2.3-1.3,4.2v10.4H117v-21h5.2v2.7
		c1.2-1.9,3.2-2.9,5.9-2.9L128.9,22.5z"/>
	<path class="st0" d="M135.1,19c-0.6,0.6-1.5,1-2.5,1s-1.8-0.3-2.5-1c-0.6-0.6-1-1.5-1-2.4c0-1,0.3-1.8,1-2.5c0.6-0.7,1.5-1,2.5-1
		s1.8,0.3,2.5,1c0.6,0.7,1,1.5,1,2.5S135.7,18.4,135.1,19z M129.8,43.7v-21h5.7v21H129.8z"/>
	<path class="st0" d="M143.8,22.7v2.6c1.1-2,3.2-3,6.2-3c2.5,0,4.4,0.8,5.7,2.3s2,3.5,2,6.1v13.1H152V31.2c0-2.7-1.2-4.1-3.6-4.1
		c-1.4,0-2.4,0.4-3.2,1.2c-0.7,0.8-1.1,1.9-1.1,3.3v12h-5.7v-21h5.4V22.7z"/>
	<path class="st0" d="M170.4,38.6v4.9c-0.6,0.2-1.5,0.2-2.7,0.2c-4.3,0-6.4-2.1-6.4-6.4V27.2h-2.8v-4.5h2.8v-5.2h5.7v5.2h3.5v4.5
		H167v9.6c0,1.4,0.7,2,2.1,2L170.4,38.6z"/>
	<path class="st0" d="M181.3,36.8l5.1-14.1h5.9l-8.4,21h-5.3l-8.4-21h6L181.3,36.8z"/>
	<path class="st0" d="M211.7,34.8h-15.2c0.2,1.4,0.7,2.5,1.6,3.3c0.9,0.8,2,1.1,3.5,1.1c0.9,0,1.7-0.2,2.5-0.6
		c0.7-0.4,1.3-1,1.6-1.7h5.7c-0.6,2.1-1.8,3.9-3.6,5.2s-3.9,2-6.3,2c-3.1,0-5.6-1-7.6-3.1s-3-4.7-3-7.9c0-3.1,1-5.7,3-7.8
		s4.5-3.1,7.6-3.1s5.6,1,7.5,3.1s2.9,4.7,2.9,7.8L211.7,34.8z M201.3,26.8c-1.3,0-2.3,0.4-3.2,1.1s-1.4,1.7-1.6,2.9h9.5
		c-0.2-1.2-0.7-2.2-1.6-2.9C203.7,27.1,202.7,26.8,201.3,26.8z"/>
	<path class="st0" d="M225.5,22.5v5.3c-0.4-0.1-0.8-0.1-1.1-0.1c-1.7,0-2.9,0.4-3.8,1.3s-1.3,2.3-1.3,4.2v10.4h-5.7v-21h5.2v2.7
		c1.2-1.9,3.2-2.9,5.9-2.9L225.5,22.5z"/>
	<path class="st0" d="M234.2,44.1c-5.7,0-8.7-2.4-9.1-7.3h5.8c0.1,0.8,0.4,1.4,0.9,1.9c0.6,0.5,1.4,0.8,2.5,0.8s1.9-0.2,2.4-0.5
		c0.6-0.3,0.8-0.8,0.8-1.4c0-0.6-0.4-1.1-1.2-1.4c-0.8-0.3-1.8-0.6-2.9-0.7c-1.1-0.2-2.3-0.4-3.4-0.8c-1.1-0.3-2.1-0.9-2.9-1.9
		c-0.8-0.9-1.2-2.2-1.2-3.7c0-1.9,0.8-3.6,2.3-4.9s3.6-2,6.1-2c2.9,0,5,0.7,6.4,2.2c1.4,1.4,2.1,3.1,2.2,4.9h-5.5
		c-0.1-0.7-0.4-1.3-0.9-1.8s-1.3-0.7-2.3-0.7c-0.9,0-1.6,0.2-2.1,0.6s-0.8,0.9-0.8,1.5s0.4,1.1,1.2,1.4s1.8,0.5,2.9,0.7
		c1.1,0.2,2.3,0.4,3.4,0.7c1.1,0.3,2.1,1,2.9,1.9s1.2,2.2,1.2,3.8c0,1.9-0.8,3.6-2.4,4.8C239.1,43.5,237,44.1,234.2,44.1z"/>
	<path class="st0" d="M264.5,34.8h-15.2c0.2,1.4,0.7,2.5,1.6,3.3c0.9,0.8,2,1.1,3.5,1.1c0.9,0,1.7-0.2,2.5-0.6
		c0.7-0.4,1.3-1,1.6-1.7h5.7c-0.6,2.1-1.8,3.9-3.6,5.2c-1.8,1.3-3.9,2-6.3,2c-3.1,0-5.6-1-7.6-3.1s-3-4.7-3-7.9c0-3.1,1-5.7,3-7.8
		s4.5-3.1,7.6-3.1c3.1,0,5.6,1,7.5,3.1c1.9,2.1,2.9,4.7,2.9,7.8L264.5,34.8z M254.2,26.8c-1.3,0-2.3,0.4-3.2,1.1s-1.4,1.7-1.6,2.9
		h9.5c-0.2-1.2-0.7-2.2-1.6-2.9C256.5,27.1,255.5,26.8,254.2,26.8z"/>
</g>
<path class="st1" d="M41.6,0.2L2,18.1c-1.2,0.5-2,1.8-2,3.1v35.1C0,57.2,0.8,58,1.7,58c0.2,0,0.5-0.1,0.7-0.2l39.6-18
	c1.2-0.5,2-1.8,2-3.1v-35C44,0.8,43.2,0,42.3,0C42.1,0,41.8,0.1,41.6,0.2z"/>
<path class="st2" d="M51.6,6.2L12,24.1c-1.2,0.5-2,1.8-2,3.1v35.1c0,0.9,0.8,1.7,1.7,1.7c0.2,0,0.5-0.1,0.7-0.2l39.6-18
	c1.2-0.5,2-1.8,2-3.1v-35C54,6.8,53.2,6,52.3,6C52.1,6,51.8,6.1,51.6,6.2z"/>
<path class="st3" d="M61.6,12.2L22,30.1c-1.2,0.5-2,1.8-2,3.1v35.1c0,0.9,0.8,1.7,1.7,1.7c0.2,0,0.5-0.1,0.7-0.2l39.6-18
	c1.2-0.5,2-1.8,2-3.1v-35c0-0.9-0.8-1.7-1.7-1.7C62.1,12,61.8,12.1,61.6,12.2z"/>
</svg>
