<svg viewBox="0 0 196 37" xmlns="http://www.w3.org/2000/svg"><path d="m195.5 17.5c.1-2.5-.8-4.9-2.5-6.7-1.6-1.8-4-2.8-6.4-2.7-2.4-.1-4.8.9-6.6 2.7-1.7 1.8-2.7 4.2-2.6 6.7-.1 2.5.9 5 2.6 6.8s4.1 2.8 6.6 2.7c2 0 3.9-.6 5.4-1.7s2.6-2.7 3.1-4.5h-4.9c-.3.6-.8 1.1-1.4 1.5-1.6.8-3.6.6-5.1-.5-.8-.8-1.3-1.7-1.4-2.8h13.1zm-13.1-2.1c.2-.9.6-1.8 1.4-2.5 1.6-1.2 3.9-1.2 5.5 0 .7.6 1.2 1.6 1.4 2.5zm-10.8 7.2c-.7.3-1.4.5-2.1.4-.8.1-1.6-.2-2.2-.7-.5-.4-.8-1-.8-1.6h-5c.3 4.2 2.9 6.3 7.8 6.3 2 .1 4-.4 5.6-1.6 1.3-.9 2.1-2.5 2.1-4.1.2-2.2-1.3-4.4-3.5-5-.9-.3-2-.5-2.9-.6s-1.7-.3-2.5-.6c-.7-.3-1-.7-1-1.2s.3-.9.7-1.3c.5-.3 1.2-.5 1.8-.5.7 0 1.4.2 2 .6.4.4.8.9.8 1.6h4.7c-.1-1.6-.8-3.1-1.9-4.2-1.2-1.2-3-1.9-5.5-1.9-1.9-.1-3.8.5-5.3 1.7-1.3 1-2 2.6-2 4.2-.1 1.1.3 2.3 1 3.2.7.8 1.6 1.4 2.5 1.6.9.3 2 .5 2.9.7.9.1 1.7.3 2.5.6.7.3 1 .7 1 1.2s-.2 1-.7 1.2zm-20-14.1v18.1h4.9v-9.1c-.1-1.3.3-2.6 1.1-3.6.9-.8 2.1-1.2 3.2-1.1.3 0 .7 0 .9.1v-4.5h-.6c-2.3 0-4.1.9-5.1 2.5v-2.4zm-18.3 0h-5.1l-4.4 12.2-4.4-12.2h-5.2l7.2 18.1h4.6zm16.7 9c.1-2.5-.8-4.9-2.5-6.7-1.6-1.8-4.1-2.8-6.5-2.7-2.4-.1-4.8.9-6.6 2.7-1.7 1.8-2.7 4.2-2.6 6.7-.1 2.5.9 5 2.6 6.8s4.1 2.8 6.6 2.7c2 0 3.9-.6 5.4-1.7s2.6-2.7 3.1-4.5h-4.9c-.3.6-.8 1.1-1.4 1.5-1.6.8-3.6.6-5.1-.5-.8-.8-1.3-1.7-1.4-2.8h13.1zm-13.1-2.1c.2-.9.7-1.8 1.4-2.5 1.6-1.2 3.9-1.2 5.5 0 .7.6 1.2 1.6 1.4 2.5zm-30.5-11.3v4.5h-2.4v3.8h2.4v8.8c0 3.7 1.8 5.5 5.5 5.5.8 0 1.6 0 2.2-.2v-4.2l-1.1.2c-1.2 0-1.8-.6-1.8-1.7v-8.4h3v-3.9h-3v-4.4zm-19.5 4.4v18.1h4.9v-10.3c-.1-1 .3-2.1.9-2.8.7-.7 1.7-1.1 2.8-1 2.1 0 3.1 1.2 3.1 3.5v10.6h4.9v-11.2c.1-1.9-.5-3.8-1.7-5.3-1.3-1.4-3.1-2.1-4.9-2-2.7 0-4.5.9-5.3 2.6v-2.2zm-5.1-8.2c-1.6-.1-2.9 1.2-2.9 2.8v.3c0 .8.3 1.6.9 2.1 1.2 1.1 3.1 1.1 4.3 0 .6-.5.9-1.3.9-2.1s-.4-1.7-1-2.3-1.4-.8-2.2-.8zm-2.5 8.2h4.9v18.1h-4.9zm-6.5 2.4v-2.4h-4.5v18.1h4.9v-9.1c-.1-1.3.3-2.6 1.1-3.6.9-.8 2.1-1.2 3.3-1.1.3 0 .7 0 .9.1v-4.5h-.5c-2.4 0-4.1.8-5.2 2.5zm-14.5-2.8c-2.6 0-4.6.9-5.7 2.6v-2.2h-4.5v25.3h4.9v-9.1c.6.7 1.3 1.3 2.2 1.6 1 .4 2.1.7 3.2.7 2.3.1 4.6-.9 6-2.7 1.6-1.9 2.3-4.3 2.2-6.8.1-2.4-.7-4.8-2.2-6.7-1.5-1.8-3.7-2.8-6.1-2.7zm2.2 13.1c-1.6 1.8-4.3 1.9-6.1.3-.1-.1-.3-.3-.3-.3-.9-1-1.3-2.4-1.2-3.7-.1-1.4.3-2.7 1.2-3.7 1.6-1.8 4.3-1.9 6.1-.3.1.1.3.3.3.3.9 1 1.3 2.3 1.2 3.7.1 1.4-.4 2.7-1.2 3.7z" fill="#100107"/><path d="m22.8 18.9v-17.3c0-.5-.3-.9-.9-.9-.1 0-.3 0-.3.1l-19.6 8.9c-.9.4-1.6 1.3-1.6 2.3v17.3c0 .5.3.9.9.9.1 0 .3 0 .3-.1l19.7-8.9c.9-.3 1.5-1.3 1.5-2.3z" fill="#22c2ff" opacity=".75"/><path d="m27.7 22.2v-17.4c0-.5-.3-.9-.9-.9-.1 0-.3 0-.3.1l-19.6 8.9c-.9.4-1.6 1.4-1.6 2.3v17.3c0 .5.3.9.9.9.1 0 .3 0 .3-.1l19.7-8.9c.9-.3 1.5-1.2 1.5-2.2z" fill="#8a4092" opacity=".85"/><path d="m32.5 25.4v-17.3c0-.5-.3-.9-.9-.9-.1 0-.3 0-.3.1l-19.6 8.9c-.9.4-1.6 1.4-1.6 2.3v17.3c0 .5.3.9.9.9.1 0 .3 0 .3-.1l19.7-8.9c.9-.4 1.5-1.3 1.5-2.3z" fill="#ff0065" opacity=".9"/></svg>