<?xml version="1.0" encoding="UTF-8" standalone="no"?>
<svg
   xmlns:dc="http://purl.org/dc/elements/1.1/"
   xmlns:cc="http://creativecommons.org/ns#"
   xmlns:rdf="http://www.w3.org/1999/02/22-rdf-syntax-ns#"
   xmlns:svg="http://www.w3.org/2000/svg"
   xmlns="http://www.w3.org/2000/svg"
   xml:space="preserve"
   style="enable-background:new 0 0 232.4 45.4;"
   viewBox="0 0 232.4 45.4"
   y="0px"
   x="0px"
   id="Layer_1"
   version="1.1"><metadata
   id="metadata19"><rdf:RDF><cc:Work
       rdf:about=""><dc:format>image/svg+xml</dc:format><dc:type
         rdf:resource="http://purl.org/dc/dcmitype/StillImage" /></cc:Work></rdf:RDF></metadata><defs
   id="defs17" />
<style
   id="style2"
   type="text/css">
	.st0{fill:#222222;}
	.st1{opacity:0.75;fill:#22C2FF;enable-background:new    ;}
	.st2{opacity:0.85;fill:#8A4092;enable-background:new    ;}
	.st3{opacity:0.85;fill:#FF0065;enable-background:new    ;}
</style>
<title
   id="title4">printverse_logo_Var_i</title>
<path
   id="path6"
   d="M229.3,21.5c0.1-2.9-0.9-5.7-2.9-7.8c-1.9-2.1-4.7-3.2-7.5-3.1c-2.8-0.1-5.6,1-7.6,3.1c-2,2.1-3.1,4.9-3,7.8  c-0.1,2.9,1,5.8,3,7.9c2,2.1,4.7,3.2,7.6,3.1c2.3,0,4.5-0.7,6.3-2c1.8-1.3,3-3.1,3.6-5.2h-5.7c-0.3,0.7-0.9,1.3-1.6,1.7  c-1.9,0.9-4.2,0.7-5.9-0.6c-0.9-0.9-1.5-2-1.6-3.3h15.2L229.3,21.5z M214.1,19.1c0.2-1.1,0.7-2.1,1.6-2.9c1.9-1.4,4.5-1.4,6.4,0  c0.8,0.7,1.4,1.8,1.6,2.9L214.1,19.1z M201.6,27.4c-0.8,0.4-1.6,0.6-2.4,0.5c-0.9,0.1-1.8-0.2-2.5-0.8c-0.6-0.5-0.9-1.2-0.9-1.9  h-5.8c0.4,4.9,3.4,7.3,9.1,7.3c2.3,0.1,4.6-0.5,6.5-1.9c1.5-1.1,2.4-2.9,2.4-4.8c0.2-2.6-1.5-5.1-4.1-5.8c-1.1-0.3-2.3-0.6-3.4-0.7  c-1-0.1-2-0.4-2.9-0.7c-0.8-0.3-1.2-0.8-1.2-1.4c0-0.6,0.3-1.1,0.8-1.5c0.6-0.4,1.4-0.6,2.1-0.6c0.8,0,1.6,0.2,2.3,0.7  c0.5,0.5,0.9,1.1,0.9,1.8h5.5c-0.1-1.9-0.9-3.6-2.2-4.9c-1.4-1.4-3.5-2.2-6.4-2.2c-2.2-0.1-4.4,0.6-6.1,2c-1.5,1.2-2.3,3-2.3,4.9  c-0.1,1.3,0.4,2.7,1.2,3.7c0.8,0.9,1.8,1.6,2.9,1.9c1.1,0.3,2.3,0.6,3.4,0.8c1,0.1,2,0.4,2.9,0.7c0.8,0.3,1.2,0.8,1.2,1.4  C202.4,26.6,202.1,27.2,201.6,27.4L201.6,27.4z M178.4,11.1v21h5.7V21.6c-0.1-1.5,0.3-3,1.3-4.2c1-0.9,2.4-1.4,3.7-1.3  c0.4,0,0.8,0,1.1,0.1v-5.3h-0.7c-2.7,0-4.7,1-5.9,2.9v-2.8L178.4,11.1z M157.1,11.1h-5.9l-5.1,14.1L141,11.1h-6l8.4,21h5.3  L157.1,11.1L157.1,11.1z M176.5,21.5c0.1-2.9-0.9-5.7-2.9-7.8c-1.9-2.1-4.7-3.2-7.5-3.1c-2.8-0.1-5.6,1-7.6,3.1  c-2,2.1-3.1,4.9-3,7.8c-0.1,2.9,1,5.8,3,7.9c2,2.1,4.7,3.2,7.6,3.1c2.3,0,4.5-0.7,6.3-2c1.8-1.3,3-3.1,3.6-5.2h-5.7  c-0.3,0.7-0.9,1.3-1.6,1.7c-1.9,0.9-4.2,0.7-5.9-0.6c-0.9-0.9-1.5-2-1.6-3.3h15.2L176.5,21.5z M161.3,19.1c0.2-1.1,0.8-2.1,1.6-2.9  c1.9-1.4,4.5-1.4,6.4,0c0.8,0.7,1.4,1.8,1.6,2.9L161.3,19.1z M126,5.9v5.2h-2.8v4.4h2.8v10.2c0,4.3,2.1,6.4,6.4,6.4  c0.9,0,1.8,0,2.6-0.2V27l-1.3,0.2c-1.4,0-2.1-0.7-2.1-2v-9.7h3.5v-4.4h-3.5V5.9L126,5.9z M103.3,11.1v21h5.7v-12  c-0.1-1.2,0.3-2.4,1.1-3.3c0.8-0.8,2-1.3,3.2-1.2c2.4,0,3.6,1.4,3.6,4.1V32h5.7V19c0.1-2.2-0.6-4.4-2-6.1c-1.5-1.6-3.6-2.4-5.7-2.3  c-3.1,0-5.2,1-6.2,3v-2.5L103.3,11.1z M97.4,1.5c-1.8-0.1-3.4,1.4-3.4,3.2c0,0.1,0,0.2,0,0.3c0,0.9,0.3,1.8,1,2.4  c1.4,1.3,3.6,1.3,5,0c0.7-0.6,1-1.5,1-2.4c0-0.9-0.3-1.8-1-2.5C99.3,1.8,98.3,1.5,97.4,1.5z M94.5,11.1h5.7v21h-5.7V11.1z M87,13.8  v-2.7h-5.2v21h5.7V21.6c-0.1-1.5,0.3-3,1.3-4.2c1-0.9,2.4-1.4,3.8-1.3c0.4,0,0.8,0,1.1,0.1v-5.3h-0.7C90.2,10.9,88.2,11.9,87,13.8z   M70.2,10.6c-3,0-5.3,1-6.6,3v-2.5h-5.2v29.3H64V29.8c0.7,0.8,1.5,1.5,2.5,1.9c1.2,0.5,2.4,0.8,3.7,0.8c2.7,0.1,5.3-1,7-3.1  c1.8-2.2,2.7-5,2.6-7.9c0.1-2.8-0.8-5.6-2.6-7.8C75.5,11.6,72.9,10.5,70.2,10.6z M72.7,25.8c-1.8,2.1-5,2.2-7.1,0.4  c-0.1-0.1-0.3-0.3-0.4-0.4c-1-1.2-1.5-2.8-1.4-4.3c-0.1-1.6,0.4-3.1,1.4-4.3c1.8-2.1,5-2.2,7.1-0.4c0.1,0.1,0.3,0.3,0.4,0.4  c1,1.2,1.5,2.7,1.4,4.3C74.2,23.1,73.7,24.6,72.7,25.8z"
   class="st0" />
<path
   id="path8"
   d="M29,23.1V3c0-0.6-0.4-1-1-1c-0.1,0-0.3,0-0.4,0.1L4.9,12.5C3.8,13,3.1,14,3.1,15.2v20.1c0,0.6,0.4,1,1,1  c0.1,0,0.3,0,0.4-0.1l22.8-10.3C28.3,25.4,29,24.3,29,23.1z"
   class="st1" />
<path
   id="path10"
   d="M34.7,26.9V6.8c0-0.6-0.4-1-1-1c-0.1,0-0.3,0-0.4,0.1L10.5,16.2c-1.1,0.5-1.8,1.6-1.8,2.7v20.1c0,0.6,0.4,1,1,1  c0.1,0,0.3,0,0.4-0.1l22.8-10.3C34,29.1,34.7,28.1,34.7,26.9z"
   class="st2" />
<path
   id="path12"
   d="M40.3,30.7V10.6c0-0.6-0.4-1-1-1c-0.1,0-0.3,0-0.4,0.1L16.2,20c-1.1,0.5-1.8,1.6-1.8,2.7v20.1c0,0.6,0.4,1,1,1  c0.1,0,0.3,0,0.4-0.1l22.8-10.3C39.6,32.9,40.3,31.8,40.3,30.7z"
   class="st3" />
</svg>