<svg viewBox="0 0 33 37" xmlns="http://www.w3.org/2000/svg"><path d="m22.8 18.7v-17.4c0-.5-.3-.9-.9-.9-.1 0-.3 0-.3.1l-19.6 9c-.9.4-1.6 1.3-1.6 2.3v17.3c0 .5.3.9.9.9.1 0 .3 0 .3-.1l19.7-8.9c.9-.3 1.5-1.3 1.5-2.3z" fill="#22c2ff" opacity=".75"/><path d="m27.7 21.9v-17.3c0-.5-.3-.9-.9-.9-.1 0-.3 0-.3.1l-19.7 8.9c-.9.4-1.6 1.4-1.6 2.3v17.3c0 .5.3.9.9.9.1 0 .3 0 .3-.1l19.7-8.9c1-.4 1.6-1.2 1.6-2.3z" fill="#8a4092" opacity=".85"/><path d="m32.5 25.2v-17.3c0-.5-.3-.9-.9-.9-.1 0-.3 0-.3.1l-19.5 8.9c-.9.4-1.6 1.4-1.6 2.3v17.3c0 .5.3.9.9.9.1 0 .3 0 .3-.1l19.7-8.9c.8-.4 1.4-1.3 1.4-2.3z" fill="#ff0065" opacity=".9"/></svg>