<svg width="180" height="128" viewBox="0 0 180 128" fill="none" xmlns="http://www.w3.org/2000/svg">
<g clip-path="url(#clip0)">
<path d="M15.2973 128C23.7415 128 30.5868 127.179 30.5868 126.167C30.5868 125.155 23.7415 124.335 15.2973 124.335C6.85307 124.335 0.00769043 125.155 0.00769043 126.167C0.00769043 127.179 6.85307 128 15.2973 128Z" fill="#E6E6E6"/>
<path d="M180 0.0794678H39.9268V89.8521H180V0.0794678Z" fill="#E6E6E6"/>
<path d="M175.995 11.3392H43.9321V84.5412H175.995V11.3392Z" fill="white"/>
<path d="M179.94 0H39.8669V5.95503H179.94V0Z" fill="#EA3467"/>
<path d="M44.2891 4.14823C44.8982 4.14823 45.392 3.65408 45.392 3.04451C45.392 2.43495 44.8982 1.9408 44.2891 1.9408C43.68 1.9408 43.1862 2.43495 43.1862 3.04451C43.1862 3.65408 43.68 4.14823 44.2891 4.14823Z" fill="white"/>
<path d="M48.4756 4.14823C49.0847 4.14823 49.5785 3.65408 49.5785 3.04451C49.5785 2.43495 49.0847 1.9408 48.4756 1.9408C47.8665 1.9408 47.3727 2.43495 47.3727 3.04451C47.3727 3.65408 47.8665 4.14823 48.4756 4.14823Z" fill="white"/>
<path d="M52.662 4.14823C53.2712 4.14823 53.765 3.65408 53.765 3.04451C53.765 2.43495 53.2712 1.9408 52.662 1.9408C52.0529 1.9408 51.5591 2.43495 51.5591 3.04451C51.5591 3.65408 52.0529 4.14823 52.662 4.14823Z" fill="white"/>
<path d="M118.985 29.769C118.963 29.8509 118.949 29.9353 118.947 30.0203L118.985 29.769Z" fill="#7F77FF"/>
<path d="M102.096 37.5033C102.088 37.3193 102.055 37.2424 102.026 37.2332C102.047 37.404 102.067 37.5442 102.096 37.5033Z" fill="#7F77FF"/>
<path d="M101.755 41.3862C101.749 41.4659 101.743 41.5396 101.733 41.6293C101.714 41.548 101.722 41.4627 101.755 41.3862Z" fill="#7F77FF"/>
<path d="M118.946 30.0203L118.843 30.6658C118.95 30.711 118.922 30.335 118.946 30.0203Z" fill="#7F77FF"/>
<path d="M124.771 24.0055L124.967 24.005C125.026 23.9661 125.081 23.9212 125.13 23.871L124.771 24.0055Z" fill="#7F77FF"/>
<path d="M132.457 24.345C132.464 24.2989 132.484 24.256 132.516 24.2218C132.547 24.1876 132.588 24.1637 132.634 24.1531C132.582 24.081 132.523 24.0146 132.458 23.9549C132.363 23.9427 132.463 24.2226 132.457 24.345Z" fill="#7F77FF"/>
<path d="M140.498 18.86C140.524 18.8561 140.548 18.8523 140.567 18.8484L140.498 18.86Z" fill="#7F77FF"/>
<path d="M140.338 18.8868L140.497 18.86C140.444 18.8681 140.384 18.8765 140.338 18.8868Z" fill="#7F77FF"/>
<path d="M118.618 24.6669C118.599 24.663 118.579 24.6653 118.561 24.6735C118.543 24.6817 118.529 24.6954 118.519 24.7127C118.554 24.7354 118.587 24.7121 118.618 24.6669Z" fill="#7F77FF"/>
<path d="M150.297 19.1742L150.312 19.3055C150.363 19.3216 150.415 19.3312 150.468 19.3339L150.297 19.1742Z" fill="#7F77FF"/>
<path d="M101.135 46.1019C101.137 46.1019 101.137 46.1039 101.133 46.1079C101.133 46.1099 101.131 46.1119 101.129 46.1139C101.129 46.1179 101.1 46.1219 101.078 46.1258C101.067 46.1227 101.056 46.1207 101.044 46.1199C101.074 46.1159 101.104 46.1099 101.127 46.1079C101.131 46.1039 101.133 46.1019 101.135 46.1019Z" fill="#7F77FF"/>
<path d="M78.7215 76.9534C77.9368 76.7032 79.9985 76.6321 78.8171 76.3539C78.9271 76.4636 77.7434 76.7907 78.7215 76.9534Z" fill="#7F77FF"/>
<path d="M84.9932 49.7159C84.9659 49.7835 84.924 49.8441 84.8705 49.8932C84.9299 49.7618 84.9635 49.7219 84.9932 49.7159Z" fill="#7F77FF"/>
<path d="M96.6107 46.6856C96.5031 46.6825 96.3958 46.6705 96.2902 46.6498L96.6107 46.6856Z" fill="#7F77FF"/>
<path d="M80.8364 50.705C80.7271 50.6838 80.6148 50.6838 80.5055 50.7051C80.5281 50.7193 80.5524 50.7307 80.5778 50.7391C80.6595 50.7051 80.7487 50.6934 80.8364 50.705Z" fill="#7F77FF"/>
<path d="M80.8364 50.705C80.8778 50.7122 80.921 50.7206 80.9761 50.7275C80.9301 50.7169 80.8834 50.7094 80.8364 50.705Z" fill="#7F77FF"/>
<path d="M73.9777 50.7291C74.0147 50.7506 74.0637 50.7666 74.1068 50.7855C74.1761 50.7808 74.2571 50.7753 74.3286 50.7705L73.9777 50.7291Z" fill="#7F77FF"/>
<path d="M79.7884 50.9174C79.7878 50.9222 79.786 50.9269 79.7831 50.9309C79.7802 50.9349 79.7763 50.938 79.7719 50.9401C79.7801 50.9277 79.7884 50.9174 79.7884 50.9174Z" fill="#7F77FF"/>
<path d="M149.154 76.547C149.109 76.5431 149.065 76.5394 149.016 76.5341C149.067 76.5408 149.112 76.5446 149.154 76.547Z" fill="#7F77FF"/>
<path d="M151.042 70.1187C151.04 70.1187 151.039 70.1199 151.037 70.1199C151.039 70.1278 151.04 70.1255 151.042 70.1187Z" fill="#7F77FF"/>
<path d="M96.0134 46.867C96.085 46.8535 96.155 46.8328 96.2224 46.8053C96.3678 46.8431 96.1687 46.8411 96.0134 46.867Z" fill="#7F77FF"/>
<path d="M150.839 45.569C150.849 45.5218 150.86 45.4686 150.874 45.4038C150.861 45.4596 150.85 45.514 150.839 45.569Z" fill="#7F77FF"/>
<path d="M151.198 66.7878C151.22 66.7401 151.25 66.6968 151.288 66.6603L151.316 66.7599C151.338 66.5553 151.324 66.3484 151.276 66.1483C151.319 65.8827 151.345 65.6144 151.352 65.3454C151.563 65.2318 151.465 64.2058 151.477 63.7117C151.198 63.7515 151.242 63.116 151.017 63.6958C151.033 63.6619 151.043 63.8312 151.055 64.1341C151.059 64.2051 151.069 64.2758 151.085 64.3452C151.077 64.3353 151.069 64.3233 151.059 64.3114C151.065 64.6361 151.071 65.0605 151.079 65.5426C150.889 65.1189 150.851 64.6424 150.971 64.1938C150.792 63.9408 150.607 63.6599 150.522 63.5025C150.912 62.8251 151.123 61.5182 151.362 61.3369C151.206 59.8248 151.258 57.7747 150.733 56.8224C150.665 56.392 150.884 56.3283 150.967 56.1669C151.019 56.4159 151.011 56.7108 151.087 56.8463C150.952 55.9856 151.035 54.2982 150.667 54.0929C150.832 53.0091 151.005 54.7026 150.946 53.2124L151.057 53.4136C151.634 50.5347 150.173 48.7138 150.838 45.568C150.812 45.6855 150.788 45.7552 150.745 45.7871C151.077 42.0854 150.432 38.1567 150.96 34.5028C151.065 33.4648 150.832 33.3513 150.653 32.7177L150.954 32.4926L150.607 31.4088C150.352 29.8727 151.344 28.7491 150.864 26.8026L150.661 27.0537C150.701 26.3544 150.541 24.8402 150.774 24.9578C150.713 24.8914 150.671 24.8096 150.653 24.7211C150.635 24.6327 150.641 24.5409 150.671 24.4557L150.828 24.4338L150.557 22.7164C150.671 21.3876 151.183 22.9256 151.212 20.9832C151.153 20.2619 150.754 18.9291 150.649 19.2001C150.643 19.4909 150.551 19.9432 150.394 19.9651L150.313 19.3057C150.283 19.2977 150.255 19.2897 150.225 19.2798V19.1742H149.94C149.881 19.149 149.817 19.136 149.753 19.136C149.689 19.136 149.625 19.149 149.566 19.1742H142.429L142.506 19.0965L142.271 19.1742H141.264C141.294 19.1144 141.389 19.0646 141.588 19.0407C140.856 18.8355 140.939 19.1881 140.312 18.959C140.243 18.9231 140.273 18.9032 140.338 18.8873L139.621 19.0108C139.763 18.9231 139.504 18.7179 139.942 18.7777C138.66 18.5386 137.873 19.0885 137.39 18.7737L137.497 18.7498C136.165 18.8534 136.729 18.971 136.538 19.1742H135.705L135.538 19.0347L135.313 18.8474C135.237 18.777 135.153 18.7143 135.064 18.6602C134.996 18.7564 134.935 18.8576 134.881 18.963C134.674 18.953 134.248 18.9311 134.268 18.8076C133.904 18.9132 133.979 18.9451 134.067 18.9769C134.163 19.0088 134.278 19.0387 134.131 19.1383C133.897 19.0831 133.659 19.0505 133.42 19.0407C133.394 19.483 133.426 20.0189 133.416 20.4273C133.406 20.8537 133.356 21.1286 133.161 21.2143C133.392 21.531 133.34 20.3675 133.502 21.3119C132.98 21.5769 133.589 22.4156 133.35 23.2026C133.081 22.9754 133.225 22.1945 132.984 23.0073C133.06 23.0876 133.115 23.1845 133.147 23.2902C133.17 23.3971 133.172 23.5072 133.155 23.615C133.12 23.8064 133.066 23.9939 132.994 24.1748C132.876 24.1453 132.754 24.1378 132.634 24.1529C132.753 24.3342 132.486 24.372 132.086 24.38C131.845 24.38 131.568 24.382 131.286 24.382C130.989 24.386 130.684 24.3939 130.398 24.4238C130.469 24.3023 128.246 24.2266 127.182 24.0951L127.212 24.0333C127.007 24.3999 125.91 24.3302 125.11 24.4059C125.142 24.1868 125.285 24.1011 125.719 24.0035L124.967 24.0054C124.789 24.123 124.557 24.1848 124.069 24.2266L124.258 23.9517C123.758 23.9596 123.255 24.0413 122.715 24.0971C122.444 24.125 122.167 24.1449 121.875 24.1489C121.729 24.1509 121.58 24.1469 121.427 24.1389C121.351 24.135 121.274 24.129 121.196 24.121C121.108 24.111 121.021 24.1011 120.933 24.0911C120.905 24.1549 121.003 24.2326 121.065 24.3123C121.141 24.3895 121.21 24.4735 121.272 24.5633C121.289 24.5878 121.3 24.6165 121.303 24.6466C121.306 24.6766 121.302 24.707 121.289 24.7346H120.593C120.595 24.6589 120.64 24.5912 120.788 24.5553C120.583 24.6139 120.368 24.6282 120.157 24.5972C120.316 24.5215 120.501 24.4438 120.71 24.366C119.954 24.2645 120.4 24.5593 119.868 24.5374C119.759 24.3421 119.358 24.3979 119.315 24.2425C119.464 24.2226 119.894 24.3222 120.085 24.2465C119.689 24.2266 119.221 24.1808 118.791 24.117C118.766 24.3087 118.708 24.4947 118.62 24.6669C118.731 24.6768 118.885 24.8641 118.908 25.3761C118.916 26.0316 118.857 26.1372 118.783 26.179C118.747 26.199 118.707 26.201 118.669 26.2528C118.647 26.288 118.628 26.3262 118.616 26.3663C118.595 26.4197 118.581 26.4751 118.572 26.5317C118.707 26.7747 118.566 27.4123 118.861 27.4302C118.859 27.7231 118.721 27.7768 118.642 27.8904C118.771 28.4084 118.679 30.309 118.992 29.7253L119.012 29.5918C119.018 29.6177 119.02 29.6456 119.026 29.6775C119.108 30.1919 119.14 30.7129 119.121 31.2335C119.109 31.6678 119.068 32.0802 119.028 32.4428C118.735 32.4169 118.464 32.395 118.212 32.383C118.084 32.379 117.961 32.375 117.837 32.379L117.598 32.385C117.515 32.391 117.429 32.395 117.346 32.3989L117.35 32.3013C116.344 32.4129 115.112 32.3671 114.395 32.5802C114.098 32.5782 113.694 32.3989 113.822 32.2834C113.053 32.3571 112.968 32.4667 111.859 32.3053C112.629 32.134 111.592 32.1519 112.649 32.1798C111.652 32.0941 111.425 31.9367 110.354 32.2057C110.718 31.9527 109.603 31.8889 109.129 31.9626L109.828 32.1439C109.337 32.1704 108.845 32.1677 108.355 32.136L108.61 31.8052C107.59 31.604 106.668 31.7754 105.808 31.9128C105.396 31.9881 104.979 32.0314 104.56 32.0423L104.409 32.0403L104.216 32.0304C104.066 32.0224 103.915 32.0104 103.762 31.9925C103.426 31.9524 103.093 31.8939 102.764 31.8172C102.406 31.9328 102.884 31.9726 103.324 32.0184C103.776 32.0642 104.186 32.116 103.875 32.2515C103.217 32.2079 102.562 32.1234 101.914 31.9985C101.786 32.4327 101.696 32.8773 101.646 33.3274C101.622 33.5884 101.614 33.8254 101.614 34.0346C101.614 34.1382 101.616 34.2378 101.622 34.3295C101.624 34.3713 101.626 34.4331 101.63 34.453C101.634 34.4769 101.638 34.5028 101.642 34.5267C101.675 34.6992 101.73 34.867 101.803 35.0268C101.993 35.4308 102.063 35.8811 102.004 36.3237C102.121 36.1504 102.438 35.989 102.547 36.9951C102.523 37.553 102.352 37.8578 102.199 37.8857C102.113 37.9036 102.034 37.8339 101.988 37.6785C101.974 37.6391 101.964 37.5984 101.958 37.557C101.948 37.3318 101.986 37.2243 102.026 37.2322C101.982 36.9294 101.932 36.5309 101.805 36.9035L101.922 37.025C101.885 37.1957 101.86 37.3688 101.847 37.543C101.793 38.079 101.761 38.7025 101.62 38.4814C101.717 39.089 101.791 38.8799 101.849 38.4754C101.723 39.5513 101.863 40.2207 101.755 41.3862C101.821 41.1889 101.96 41.0056 101.958 41.2029C101.811 43.0238 102.183 42.0058 102.235 43.239C102.054 43.9402 101.805 42.9879 101.954 44.2291C101.833 44.9882 101.642 44.3905 101.546 44.0897C101.64 44.606 101.641 45.1349 101.55 45.6516C101.544 45.6855 101.54 45.7194 101.534 45.7512C101.53 45.7751 101.526 45.8011 101.522 45.825L101.514 45.8668C101.512 45.8788 101.51 45.8768 101.508 45.8807L101.492 45.9007C101.474 45.9207 101.454 45.9388 101.433 45.9545C101.404 45.9708 101.378 45.9895 101.353 46.0102C101.333 45.9785 101.309 45.9497 101.281 45.9246C101.293 45.9384 101.302 45.9545 101.308 45.972C101.313 45.9895 101.315 46.008 101.313 46.0262C101.337 46.0423 101.363 46.0569 101.389 46.07C101.44 46.0966 101.494 46.1173 101.55 46.1318C101.51 46.1895 101.508 46.2473 101.431 46.1756C101.422 46.1693 101.414 46.162 101.407 46.1537C101.476 46.2578 101.559 46.3523 101.653 46.4346C101.757 46.5402 101.88 46.6537 101.763 46.7593C101.599 46.7188 101.429 46.7121 101.263 46.7394C101.221 46.7414 101.18 46.7414 101.14 46.7394C101.077 46.7358 101.015 46.7285 100.953 46.7175C100.903 46.714 100.854 46.6992 100.811 46.6744C100.768 46.6496 100.73 46.6153 100.702 46.5741C100.887 46.588 101.02 46.592 101.12 46.59C101.174 46.59 101.194 46.582 101.21 46.5681C101.237 46.5442 101.217 46.4984 101.2 46.4505C101.166 46.3688 101.154 46.2772 101.214 46.2314C101.204 46.2338 101.195 46.2352 101.186 46.2354C101.168 46.2348 101.15 46.2314 101.134 46.2254C101.058 46.2194 100.981 46.2115 100.899 46.2035C100.847 46.1676 100.949 46.1377 101.044 46.1198C100.937 46.0979 100.841 46.082 100.758 46.07C100.592 46.04 100.423 46.04 100.258 46.07C99.8955 46.1557 99.9732 46.4724 98.9459 46.4665C99.1291 46.2911 98.6074 46.1318 98.3705 46.1696C98.9578 46.1736 98.6512 46.4645 98.1137 46.6C97.18 46.4625 97.1003 46.7016 96.6106 46.6856L97.168 46.7514C96.9789 46.9287 96.513 46.9048 95.864 46.9606C95.8461 46.9167 95.8959 46.8928 95.9675 46.8749C95.2966 46.9785 94.4923 46.5163 93.6103 46.6876C93.6016 46.688 93.5929 46.6893 93.5845 46.6916C93.1186 46.5721 93.5387 46.3609 93.1286 46.2792C92.0017 46.5083 91.9081 46.0361 90.7216 46.2254C91.064 46.4645 91.1237 46.4067 90.2876 46.6378L92.2386 46.4704L90.9864 46.8151C91.5757 46.8191 92.2287 46.6657 92.5811 46.7075C91.9838 46.9008 92.0455 46.841 92.3282 47.0383C91.5219 46.6816 90.7315 47.2474 89.8018 47.0064L89.8297 46.4167C89.2379 46.3226 88.6348 46.3253 88.0438 46.4246L87.8169 46.4545L87.7034 46.4685L87.6735 46.4725L87.6278 46.4764L87.5342 46.4844C87.2893 46.5023 87.0404 46.5223 86.7836 46.5422C86.2799 46.576 85.7663 46.6 85.179 46.596C85.177 46.859 85.169 47.1319 85.1551 47.4168L85.2487 46.6657L85.3223 46.6737C85.3136 46.6869 85.3011 46.6973 85.2865 46.7036C85.3713 47.073 85.3995 47.4532 85.3701 47.8312C85.3701 47.8651 85.3681 47.9009 85.3681 47.9368V47.9388C85.3641 48.126 85.3582 48.3213 85.3562 48.5165C85.3562 48.6321 85.3582 48.7457 85.3621 48.8572C85.3641 48.913 85.3681 48.9668 85.3701 49.0206L85.3761 49.0983L85.384 49.1521C85.1869 49.0963 85.1153 49.4649 84.9938 49.7159C85.0297 49.7079 85.0476 49.7876 85.0595 49.9131C85.0715 49.9649 85.0774 50.0287 85.0914 50.1044C85.128 50.3116 85.2257 50.5031 85.3721 50.6543C85.3418 50.6845 85.3076 50.7106 85.2706 50.732C85.1483 50.6863 85.0286 50.6337 84.9122 50.5746C84.7901 50.5488 84.6629 50.5635 84.5499 50.6164C84.524 50.6284 84.4981 50.6423 84.4722 50.6562C84.4518 50.6673 84.4295 50.6747 84.4065 50.6782C84.3787 50.6861 84.3508 50.6941 84.3249 50.7021C84.2154 50.7359 84.1119 50.7718 84.0103 50.8077C83.529 51.0068 83.0094 51.096 82.4893 51.0687C82.9134 50.8555 82.2723 50.716 83.218 50.5626C82.7461 50.5606 82.3241 50.5248 82.3161 50.6602C82.2645 50.6414 82.2097 50.6333 82.1548 50.6363C81.9179 50.6383 81.5377 50.73 81.1893 50.7718C81.0224 50.7978 80.8525 50.7978 80.6856 50.7718C80.6485 50.766 80.6123 50.7553 80.5781 50.7399C80.5569 50.7494 80.5363 50.76 80.5163 50.7718C80.4182 50.861 80.3025 50.9287 80.1767 50.9706C80.0509 51.0124 79.9177 51.0275 79.7857 51.0149C79.7794 51.0112 79.774 51.0062 79.7698 51.0002C79.7656 50.9942 79.7628 50.9874 79.7614 50.9802C79.7601 50.973 79.7604 50.9656 79.7621 50.9586C79.7639 50.9515 79.7672 50.9449 79.7718 50.9392C79.6662 51.0208 78.9953 51.0667 79.4234 51.2679C78.7962 51.0029 77.9541 50.975 77.096 50.987C75.9712 51.0009 74.8224 51.0846 74.1057 50.7858C73.5921 50.8176 73.0267 50.8515 72.4712 50.8774C72.1945 50.8874 71.9197 50.8993 71.6569 50.9093C71.5255 50.9133 71.3961 50.9172 71.2727 50.9212C71.1333 50.9232 71 50.9272 70.8725 50.9292C70.9124 50.8993 70.9124 50.8754 70.9342 50.8615C70.983 50.8421 71.0367 50.8386 71.0876 50.8515C71.0517 50.8475 71.0278 50.8415 70.984 50.8395C70.9402 50.8356 70.8964 50.8336 70.8546 50.8296C70.771 50.8256 70.6934 50.8236 70.6217 50.8216C70.4993 50.821 70.377 50.8277 70.2554 50.8415C70.1065 50.8559 69.9622 50.9007 69.8313 50.973C69.6283 51.1417 69.3744 51.2371 69.1106 51.244C69.1198 51.4583 69.1092 51.6731 69.0788 51.8855C68.9991 52.0588 68.9494 52.0987 68.9155 52.0409C68.877 51.9225 68.8575 51.7988 68.8578 51.6743C68.8399 51.3575 68.8458 50.9989 68.7861 51.2659C68.4636 51.1224 68.4855 51.8835 68.5412 52.7163C68.5691 53.2004 68.6049 53.4116 68.6109 53.7164C68.6251 53.9941 68.5866 54.2719 68.4974 54.5352L68.4596 54.2962C68.2386 55.0492 68.7045 56.135 68.6587 57.3663C68.6587 57.3663 68.6009 57.3065 68.5611 57.3583C68.8896 58.201 68.9991 59.7949 69.0907 60.9783C68.8379 60.6097 68.9573 60.4404 68.7005 60.6655C68.7363 61.1974 69.1126 60.5101 69.1843 61.57C69.0469 61.9147 68.9255 62.6797 68.6507 62.7813L68.6348 61.7812C68.2804 62.2932 68.6487 63.0742 68.587 63.6021L68.4317 63.5344C68.4815 65.0665 68.8717 65.0884 68.8438 66.734L68.9613 66.5646C69.3495 67.4652 68.7443 67.3197 69.033 68.2163L68.6388 68.4892C68.7343 69.0829 69.019 70.5672 69.0927 71.633C68.802 71.0294 68.6527 69.7842 68.4795 69.0132C68.4775 69.6009 68.5094 71.0134 68.7025 71.3202C68.6647 71.0832 68.5691 70.7843 68.6288 70.5492C68.9374 71.2704 69.0887 72.2207 69.0827 73.3942C68.8339 73.3265 68.7264 73.6293 68.6746 74.0995C68.6726 74.1294 68.6686 74.1593 68.6667 74.1911C68.6647 74.2349 68.6607 74.2808 68.6587 74.3266C68.6547 74.4202 68.6507 74.5159 68.6447 74.6155C68.6408 74.8147 68.6348 75.0259 68.6288 75.2411C68.6189 75.6813 68.6089 76.1436 68.599 76.5918C69.5088 76.6217 70.345 76.6874 70.8307 76.8927L70.994 76.8787L71.0955 76.8668L71.2906 76.8468C71.42 76.8349 71.5494 76.8249 71.6788 76.817C71.9377 76.799 72.1965 76.793 72.4573 76.7911C72.9769 76.7891 73.5025 76.811 74.038 76.8409C75.1091 76.9006 76.222 76.9903 77.4305 76.9664C76.5744 76.3747 78.1353 76.9504 77.9879 76.3408C78.5454 76.3029 78.7604 76.3129 78.8122 76.3508L78.7305 76.3328C78.7604 76.3408 78.7843 76.3468 78.8161 76.3547V76.3527L80.5203 76.7153C80.9245 76.8927 79.9848 76.8488 80.0366 76.9863C81.2689 77.0341 80.5542 77.2453 81.3684 77.4067C81.2012 77.1895 81.7965 77.0939 82.4993 77.1776L81.5098 76.8967C83.2319 76.5719 82.999 77.4087 84.733 77.0859L84.1835 77.2792C85.0754 77.1656 87.4685 77.2832 88.3425 76.7931C88.4998 76.8628 88.7088 77.0301 88.3166 77.074C90.4448 77.1477 93.0529 76.554 94.7073 76.8548L94.5461 77.0042C94.9422 76.9604 95.2369 76.7233 95.7346 76.8727C95.7087 76.9345 95.5733 77.0222 95.7585 77.0301C95.9675 76.9803 96.8117 76.7691 97.3392 76.8568L96.8893 77.0241C98.1953 77.1477 99.1191 76.9544 100.059 76.7672C100.637 76.6413 101.224 76.5567 101.815 76.5141C101.811 76.9524 103.443 77.0959 104.26 77.1656L104.23 77.2274C105.199 77.2453 106.168 77.198 107.13 77.0859C107.869 77.0042 108.586 76.9006 109.344 76.815H109.346C109.394 76.809 109.442 76.803 109.492 76.797C109.667 76.7771 109.846 76.7592 110.027 76.7413C110.083 76.7353 110.141 76.7293 110.198 76.7233C110.322 76.7134 110.447 76.7034 110.575 76.6934C111.208 76.8668 111.861 76.9592 112.518 76.9684C114.075 77.0441 116.034 76.9823 117.515 77.1596C117.172 77.0799 117.571 76.817 117.967 76.7731C118.458 76.8568 119.303 76.5161 119.336 76.805C119.339 76.827 119.338 76.8492 119.332 76.8708L119.155 76.8628H119.145L119.147 76.8648C119.543 77.2573 120.619 77.1537 121.459 77.1636L121.596 76.6376C123.796 77.4027 127.36 76.3567 128.56 77.0421C129.092 76.9106 129.749 76.9126 130.274 76.7811L130.246 77.062C131.585 77.147 132.928 77.1603 134.268 77.1019L133.898 77.3051C134.923 77.323 135.192 76.4902 136.139 76.4743L136.422 76.8947C138.212 76.8887 140.022 77.2593 141.79 76.8767C141.762 76.9385 141.708 77.06 141.419 77.078C142.234 77.0879 144.519 77.3449 144.392 76.8389C144.587 77.1238 146.267 76.813 147.181 76.6556L147.032 76.9325C147.44 76.7552 147.649 76.6416 147.9 76.562C148.042 76.5169 148.188 76.4829 148.336 76.4603C148.427 76.4464 148.515 76.4325 148.64 76.4205C148.791 76.4086 148.963 76.3966 149.156 76.3826C149.498 76.4165 149.556 76.5699 149.154 76.548C149.453 76.5875 149.757 76.574 150.052 76.5082C150.299 76.4295 150.557 76.3886 150.816 76.3866C150.815 76.1863 150.826 75.986 150.848 75.787C150.908 76.0181 150.967 76.2631 151.025 76.5221C151.048 76.0957 151.03 75.6681 150.971 75.245C150.924 74.99 150.848 74.8008 150.747 74.4481C150.739 74.4003 150.733 74.3485 150.729 74.2947C150.725 74.2449 150.721 74.1951 150.717 74.1413C150.713 74.0537 150.711 73.958 150.713 73.8624C150.719 73.6641 150.738 73.4664 150.77 73.2707C150.832 72.8862 150.942 72.5594 151.067 72.4917C150.914 72.3662 150.709 71.8602 150.78 71.3143C150.876 71.2406 150.936 71.4378 150.964 71.5394C151.153 69.9914 150.641 69.2363 150.914 68.1724C150.955 68.1606 150.992 68.1377 151.022 68.106C151.051 68.0744 151.071 68.0353 151.079 67.9931C151.073 69.1208 151.059 70.0452 151.041 70.1189C151.294 70.1049 151.34 69.1307 151.69 69.9157C151.497 69.1188 151.079 67.7561 151.198 66.7878ZM151.423 64.7258C151.463 65.0565 151.407 65.1661 151.35 65.2119C151.346 65.0565 151.336 64.8732 151.316 64.6341C151.306 64.6262 151.294 64.6062 151.282 64.5963C151.339 64.6266 151.388 64.6712 151.423 64.7258ZM140.028 19.1303C140.061 19.1411 140.093 19.1558 140.123 19.1742H139.701C139.803 19.1582 139.91 19.1443 140.028 19.1303V19.1303Z" fill="#EA3467"/>
<path d="M101.263 46.2075C101.25 46.2216 101.233 46.2302 101.214 46.2314C101.229 46.2207 101.245 46.2126 101.263 46.2075Z" fill="#7F77FF"/>
<path d="M95.9677 46.8759C95.9831 46.8734 95.9982 46.8698 96.0134 46.8667C95.9976 46.8694 95.9822 46.8725 95.9677 46.8759Z" fill="#7F77FF"/>
<path d="M151.055 64.1341C151.046 64.0893 151.039 64.0439 151.035 63.9983C151.01 64.0656 150.99 64.1296 150.972 64.1948L151.06 64.3115L151.055 64.1341Z" fill="#7F77FF"/>
<path d="M118.986 29.769C118.993 29.7362 119.007 29.705 119.025 29.6769C119.012 29.7062 119.003 29.7062 118.992 29.725L118.986 29.769Z" fill="#7F77FF"/>
<path d="M132.9 18.8385C132.99 18.8406 133.091 18.9704 133.072 19.9237L133.132 18.7523L133.571 18.7736C133.216 18.6654 132.63 18.5199 133.442 18.4939C133.162 18.4613 132.949 18.4364 132.798 18.4188C132.732 18.9805 132.81 18.8409 132.9 18.8385Z" fill="#7F77FF"/>
<path d="M132.915 23.7137C132.89 23.4905 132.851 23.4843 132.81 23.5105C132.769 23.5389 132.728 23.5958 132.697 23.568C132.795 23.8324 132.82 23.9606 132.915 23.7137Z" fill="#7F77FF"/>
<path d="M113.532 32.1837L113.601 31.9288C113.07 31.9655 113.596 32.0276 113.532 32.1837Z" fill="#7F77FF"/>
<path d="M104.341 31.7241L104.385 31.7206L104.467 31.7135L104.794 31.6856L105.026 31.6492L104.583 31.6954L104.361 31.7184L103.999 31.7416L104.272 31.7276L104.341 31.7241Z" fill="#7F77FF"/>
<path d="M75.2225 50.4816L75.3831 50.7953C75.7421 50.7391 75.8174 50.3865 75.2225 50.4816Z" fill="#7F77FF"/>
<path d="M68.6681 66.5479C68.5722 66.7265 68.5136 66.9227 68.4958 67.1247C68.478 67.3267 68.5014 67.5302 68.5646 67.7229C68.5862 67.2541 68.7085 66.7866 68.6681 66.5479Z" fill="#7F77FF"/>
<path d="M122.223 77.139L123.012 77.0514L122.642 77.0339L122.223 77.139Z" fill="#7F77FF"/>
<path d="M126.095 51.4213C126.047 53.8384 125.71 56.2409 125.09 58.5776C122.677 67.503 116.075 73.9979 112.518 76.9684C111.861 76.9592 111.208 76.8668 110.575 76.6934C110.447 76.7034 110.322 76.7134 110.198 76.7233C110.141 76.7293 110.083 76.7353 110.027 76.7412C109.846 76.7592 109.667 76.7771 109.492 76.797C109.442 76.803 109.394 76.809 109.346 76.815H109.344C108.193 73.8031 107.368 70.6767 106.882 67.4891L106.88 67.4871V67.4851C106.264 63.3969 106.165 58.5995 107.461 53.8061C108.016 51.7775 108.784 49.8135 109.752 47.9468C114.379 38.9615 122.381 33.6083 122.381 33.6083C122.381 33.6083 126.334 41.7348 126.095 51.4213Z" fill="white"/>
<path d="M101.755 41.3862C101.749 41.4659 101.743 41.5396 101.733 41.6293C101.714 41.548 101.722 41.4627 101.755 41.3862Z" fill="white"/>
<path d="M96.0134 46.867C96.085 46.8535 96.155 46.8328 96.2224 46.8053C96.3678 46.8431 96.1687 46.8411 96.0134 46.867Z" fill="white"/>
<path d="M96.2902 46.6498L96.6107 46.6856C96.5031 46.6825 96.3958 46.6705 96.2902 46.6498Z" fill="white"/>
<path d="M101.078 46.1258C101.067 46.1227 101.056 46.1207 101.044 46.1199C101.074 46.1159 101.104 46.1099 101.127 46.1079C101.131 46.1039 101.133 46.1019 101.135 46.1019C101.137 46.1019 101.137 46.1039 101.133 46.1079C101.133 46.1099 101.131 46.1119 101.129 46.1139C101.129 46.1179 101.1 46.1219 101.078 46.1258Z" fill="white"/>
<path d="M101.263 46.2075C101.25 46.2216 101.233 46.2302 101.214 46.2314C101.229 46.2207 101.245 46.2126 101.263 46.2075Z" fill="white"/>
<path d="M112.631 67.4732C112.631 67.4772 112.629 67.4812 112.629 67.4852C112.148 70.6419 111.333 73.7387 110.198 76.7234C110.141 76.7294 110.083 76.7354 110.027 76.7413C109.846 76.7593 109.667 76.7772 109.492 76.7971C109.442 76.8031 109.394 76.8091 109.346 76.815H109.344C108.586 76.9007 107.869 77.0043 107.13 77.086C103.609 74.1713 96.8635 67.6226 94.4207 58.5777C93.7992 56.2406 93.4609 53.8373 93.4133 51.4194C93.3771 49.8395 93.4429 48.259 93.6104 46.6877C94.4924 46.5164 95.2967 46.9785 95.9676 46.875C95.896 46.8929 95.8462 46.9168 95.8641 46.9606C96.5131 46.9048 96.979 46.9287 97.1681 46.7514L96.6107 46.6857C97.1005 46.7016 97.1801 46.4626 98.1138 46.6C98.6514 46.4646 98.9579 46.1737 98.3706 46.1697C98.6075 46.1318 99.1291 46.2912 98.946 46.4665C99.9733 46.4725 99.8956 46.1557 100.258 46.0701H100.758C100.841 46.082 100.937 46.098 101.044 46.1199C100.949 46.1378 100.847 46.1677 100.899 46.2036C100.981 46.2115 101.058 46.2195 101.134 46.2255C101.151 46.2315 101.168 46.2348 101.186 46.2354C101.195 46.2352 101.205 46.2339 101.214 46.2315C101.154 46.2773 101.166 46.3689 101.2 46.4506C101.218 46.4984 101.238 46.5442 101.21 46.5681C101.194 46.5821 101.174 46.5901 101.12 46.5901C101.02 46.5921 100.887 46.5881 100.702 46.5741C100.73 46.6153 100.768 46.6496 100.811 46.6745C100.854 46.6993 100.903 46.714 100.953 46.7176C101.015 46.7286 101.077 46.7359 101.14 46.7395C101.18 46.7415 101.222 46.7415 101.263 46.7395C101.43 46.7121 101.6 46.7189 101.763 46.7594C101.881 46.6538 101.757 46.5403 101.654 46.4347C101.559 46.3523 101.476 46.2579 101.407 46.1538C101.414 46.162 101.422 46.1694 101.431 46.1757C101.508 46.2474 101.51 46.1896 101.55 46.1318C101.494 46.1174 101.44 46.0967 101.389 46.0701H101.534V45.7513C101.54 45.7194 101.544 45.6856 101.55 45.6517C101.641 45.1349 101.64 44.606 101.546 44.0897C101.642 44.3906 101.833 44.9883 101.954 44.2292C101.805 42.988 102.054 43.9403 102.235 43.239C102.183 42.0058 101.811 43.0239 101.958 41.2029C101.96 41.0057 101.821 41.189 101.755 41.3862C101.863 40.2207 101.723 39.5513 101.849 38.4755C101.791 38.8799 101.717 39.0891 101.62 38.4815C101.761 38.7026 101.793 38.079 101.847 37.5431C101.892 37.5869 101.94 37.6327 101.988 37.6786C102.058 37.7463 102.129 37.816 102.199 37.8858C104.68 40.3223 107.588 43.7331 109.752 47.9468C109.753 47.9468 109.753 47.9469 109.753 47.947C109.753 47.9471 109.754 47.9472 109.754 47.9474C109.754 47.9476 109.754 47.9478 109.754 47.948C109.754 47.9483 109.754 47.9485 109.754 47.9488C110.725 49.8143 111.493 51.7778 112.048 53.8061C113.342 58.5956 113.244 63.385 112.631 67.4732Z" fill="white"/>
<path d="M84.9932 49.7159C84.9659 49.7835 84.924 49.8441 84.8705 49.8932C84.9299 49.7618 84.9635 49.7219 84.9932 49.7159Z" fill="#3F3D56"/>
<path d="M79.7884 50.9174C79.7878 50.9222 79.786 50.9269 79.7831 50.9309C79.7802 50.9349 79.7763 50.938 79.7719 50.9401C79.7801 50.9277 79.7884 50.9174 79.7884 50.9174Z" fill="#3F3D56"/>
<path d="M109.492 76.7971C109.442 76.8031 109.394 76.8091 109.346 76.815H109.344C108.586 76.9007 107.869 77.0043 107.13 77.086C106.168 77.1981 105.199 77.2454 104.23 77.2274L104.26 77.1657C103.443 77.0959 101.811 76.9525 101.815 76.5142C101.224 76.5568 100.637 76.6413 100.059 76.7672C95.7526 75.3647 90.7376 72.9898 86.6344 68.9933C80.8509 63.3611 78.2408 55.8363 77.0961 50.987C77.9541 50.9751 78.7963 51.003 79.4234 51.268C78.9954 51.0667 79.6663 51.0209 79.7718 50.9392C79.7673 50.9449 79.764 50.9515 79.7622 50.9586C79.7604 50.9657 79.7602 50.9731 79.7615 50.9803C79.7628 50.9874 79.7657 50.9943 79.7699 51.0002C79.774 51.0062 79.7795 51.0112 79.7857 51.0149C79.9177 51.0276 80.0509 51.0125 80.1767 50.9706C80.3026 50.9288 80.4182 50.8611 80.5164 50.7719H82.1549V50.6364C82.2097 50.6334 82.2646 50.6415 82.3162 50.6603C82.3241 50.5248 82.7462 50.5607 83.218 50.5627C82.2724 50.7161 82.9134 50.8555 82.4894 51.0687C83.0095 51.0961 83.5291 51.0069 84.0104 50.8077C84.1119 50.7719 84.2155 50.736 84.325 50.7021C84.3508 50.6942 84.3787 50.6862 84.4066 50.6782C84.4296 50.6748 84.4518 50.6674 84.4723 50.6563C84.4982 50.6424 84.524 50.6284 84.5499 50.6165C84.663 50.5635 84.7902 50.5489 84.9123 50.5746C85.0287 50.6338 85.1483 50.6863 85.2706 50.732C85.3077 50.7106 85.3418 50.6845 85.3722 50.6543C85.2258 50.5032 85.128 50.3117 85.0914 50.1045C85.0775 50.0287 85.0715 49.965 85.0596 49.9132C85.0476 49.7877 85.0297 49.708 84.9939 49.716C85.1153 49.4649 85.187 49.0964 85.3841 49.1521L85.3762 49.0984L85.3702 49.0206C85.3682 48.9669 85.3642 48.9131 85.3622 48.8573C85.3582 48.7457 85.3562 48.6322 85.3562 48.5166C85.3582 48.3214 85.3642 48.1261 85.3682 47.9388C88.1714 48.7947 90.8699 49.9621 93.4133 51.4194C95.5763 52.6602 97.5777 54.1638 99.372 55.896C102.964 59.3945 105.331 63.6221 106.88 67.4852V67.4871L106.882 67.4891C108.082 70.4893 108.957 73.6099 109.492 76.7971Z" fill="#3F3D56"/>
<path d="M119.145 76.8628H119.156C119.153 76.8643 119.15 76.865 119.147 76.8649L119.145 76.8628Z" fill="#3F3D56"/>
<path d="M143.257 46.1279C143.257 46.1279 142.126 59.9823 132.876 68.9934C128.735 73.0278 123.669 75.4085 119.336 76.8051C119.303 76.5162 118.458 76.8569 117.967 76.7733C117.571 76.8171 117.172 77.0801 117.515 77.1598C116.034 76.9824 114.075 77.0442 112.518 76.9685C111.861 76.9593 111.208 76.8669 110.575 76.6936C110.447 76.7035 110.322 76.7135 110.198 76.7234C110.141 76.7294 110.083 76.7354 110.027 76.7414C110.563 73.5682 111.436 70.4612 112.631 67.4733C114.184 63.6142 116.551 59.3906 120.137 55.8981C121.931 54.1655 123.932 52.6619 126.095 51.4214C134.382 46.6121 143.257 46.1279 143.257 46.1279Z" fill="#3F3D56"/>
<path d="M13.1084 38.132C13.1084 38.132 10.3355 43.6818 6.05007 44.9431C1.76462 46.2044 16.3856 44.9431 16.3856 44.9431C16.3856 44.9431 15.6293 40.9069 16.6376 40.4023C17.646 39.8978 13.1084 38.132 13.1084 38.132Z" fill="#A0616A"/>
<path d="M8.62812 28.5974C8.47731 27.2825 9.19599 26.1199 10.2334 26.0008C10.2451 25.9994 10.2567 26.0001 10.2684 25.999C10.1388 25.98 10.0072 25.9778 9.87693 25.9926C8.83958 26.1118 8.12089 27.2743 8.2717 28.5892C8.42081 29.8892 9.36415 30.8496 10.388 30.7561C9.50984 30.6285 8.75972 29.7447 8.62812 28.5974Z" fill="#2F2E41"/>
<path d="M9.55798 30.3804C8.30523 29.9559 7.56115 28.8094 7.89606 27.8197C7.89985 27.8085 7.90538 27.7983 7.90943 27.7872C7.83686 27.8965 7.77877 28.0146 7.73661 28.1388C7.4017 29.1285 8.14578 30.275 9.39853 30.6995C10.6371 31.1192 11.9075 30.6751 12.2598 29.7086C11.7698 30.4489 10.651 30.7508 9.55798 30.3804Z" fill="#2F2E41"/>
<path d="M0.889893 54.6917L1.26043 65.3764L7.05839 78.9986C7.05839 78.9986 5.54588 86.062 8.5709 85.8097C11.5959 85.5575 8.82299 78.7464 8.82299 78.7464L6.05005 64.3674L5.54588 52.511L0.889893 54.6917Z" fill="#A0616A"/>
<path d="M17.1417 41.916C20.2046 41.916 22.6876 39.4313 22.6876 36.3662C22.6876 33.3011 20.2046 30.8164 17.1417 30.8164C14.0788 30.8164 11.5958 33.3011 11.5958 36.3662C11.5958 39.4313 14.0788 41.916 17.1417 41.916Z" fill="#A0616A"/>
<path d="M21.6793 45.9521L16.2139 43.7671C16.2139 43.7671 15.1251 43.934 12.1001 44.1862C9.0751 44.4385 7.73192 44.2006 7.73192 44.2006C7.73192 44.2006 1.26046 46.4566 1.51255 47.7179C1.76463 48.9792 4.53757 68.908 5.798 67.899C7.05842 66.8899 7.81467 66.6377 7.81467 66.6377L21.6793 65.3763V45.9521Z" fill="#CFCCE0"/>
<path d="M2.52085 47.2135H1.70048C1.70048 47.2135 0.756255 47.718 0.756255 49.2316C0.756255 50.7452 0 55.2859 0 55.2859H4.03336L2.52085 47.2135Z" fill="#CFCCE0"/>
<path d="M9.95742 49.61L6.91269 44.6881C6.84335 44.576 6.74332 44.4862 6.62449 44.4293C6.50565 44.3725 6.373 44.3509 6.24229 44.3673L5.44831 44.4666C5.35067 44.4788 5.25679 44.5118 5.17299 44.5634C5.0892 44.615 5.01744 44.684 4.96255 44.7658C4.90767 44.8475 4.87094 44.94 4.85484 45.0372C4.83874 45.1343 4.84365 45.2338 4.86923 45.3289L6.42824 51.1236C6.42824 51.1236 8.89328 61.3604 6.52638 66.8371L6.42824 69.2865C6.42824 69.2865 4.15948 76.8544 4.66364 82.6565C5.1678 88.4586 5.41989 93.5038 5.41989 93.5038C5.41989 93.5038 4.15947 97.2878 4.66364 98.5491C4.81489 98.9275 4.78464 99.4875 4.66817 100.086C3.9573 103.74 3.77379 107.477 3.87429 111.198L3.90738 112.424C3.90738 112.424 2.14278 113.937 3.6553 114.189C5.16781 114.442 9.95742 114.946 9.95742 114.946C9.95742 114.946 10.9658 113.18 10.4616 112.928L11.9741 104.603C11.9741 104.603 14.495 101.072 14.2429 98.8013C14.2429 98.8013 14.9991 95.0174 14.2429 93.2515L14.495 82.152L15.5033 95.5219L13.9908 112.171C13.9908 112.171 11.9741 113.685 13.2345 114.189C14.495 114.694 22.3096 117.217 22.3096 115.955C22.3096 114.694 21.8054 114.189 21.8054 114.189L25.0825 80.1339L23.3179 66.0071C23.3179 66.0071 11.4699 64.9981 12.4783 51.6281C12.4783 51.6281 15.3769 45.6036 18.2384 44.4668C18.2709 44.4547 18.2987 44.4327 18.318 44.4039C18.3372 44.375 18.3469 44.3408 18.3456 44.3061C18.3442 44.2715 18.332 44.2381 18.3106 44.2108C18.2892 44.1835 18.2598 44.1637 18.2265 44.1541L17.0648 43.822C17.0331 43.8125 16.9994 43.8131 16.9681 43.8237C16.464 43.9945 12.0935 45.5724 9.95742 49.61Z" fill="#2F2E41"/>
<path d="M15.7553 113.937L15.715 114.3C15.4439 116.611 14.6931 118.839 13.5108 120.843C12.9463 121.814 12.5142 122.91 12.7303 123.775C13.2344 125.793 12.9823 126.55 12.9823 126.55H17.0157V125.793L19.2676 126.408C19.7697 126.553 20.3047 126.537 20.797 126.361C21.3012 126.172 21.8053 125.793 21.8053 125.037C21.8053 124.406 21.3239 123.819 20.7623 123.349C19.5781 122.377 18.7203 121.065 18.3044 119.59L18.2761 119.487L19.7887 113.937L15.7553 113.937Z" fill="#2F2E41"/>
<path d="M5.29374 114.063L5.25347 114.426C4.98235 116.737 4.23155 118.966 3.04923 120.969C2.48479 121.94 2.05265 123.037 2.26872 123.902C2.77289 125.92 2.5208 126.677 2.5208 126.677H6.55416V125.92L8.80603 126.534C9.30816 126.679 9.84314 126.663 10.3354 126.487C10.8396 126.298 11.3438 125.92 11.3438 125.163C11.3438 124.532 10.8624 123.945 10.3007 123.475C9.1166 122.503 8.25874 121.192 7.84282 119.717L7.81459 119.613L9.3271 114.063H5.29374Z" fill="#2F2E41"/>
<path d="M18.2613 37.3026C18.2613 37.3026 22.234 35.0058 23.7724 34.8666C23.7724 34.8666 24.2204 33.8574 23.7373 32.8864C23.7373 32.8864 23.503 29.7711 19.6171 29.8921C19.6171 29.8921 15.0274 27.4041 13.4866 28.4199C11.9458 29.4357 8.51498 34.31 9.96416 37.2231C9.96416 37.2231 8.28892 38.0666 8.2092 37.6125C8.12948 37.1585 6.88495 38.3781 8.52806 39.4287C8.52806 39.4287 6.22816 41.7586 8.4638 43.2168C8.4638 43.2168 8.36148 41.1504 9.65837 40.5257C10.9553 39.9009 9.82018 40.5571 9.82018 40.5571C9.82018 40.5571 7.6 43.3411 10.916 44.4248C10.916 44.4248 9.67859 43.0146 10.9231 41.795C10.9231 41.795 10.5376 44.6435 12.8304 44.9434C12.8304 44.9434 11.6477 43.2515 12.27 42.6417C12.27 42.6417 12.5341 44.7396 13.8286 44.9914L14.7995 45.1803L15.1279 43.4901C15.1279 43.4901 14.2046 45.6493 16.3629 45.7769C16.3629 45.7769 15.3194 42.5042 16.7008 40.5803C18.0822 38.6564 18.2613 37.3026 18.2613 37.3026Z" fill="#2F2E41"/>
<path d="M12.0947 30.1928C12.8933 29.1377 12.8658 27.771 12.0335 27.1401C11.2011 26.5092 9.87895 26.8531 9.08041 27.9082C8.28187 28.9633 8.3093 30.33 9.14167 30.9609C9.97405 31.5918 11.2962 31.2479 12.0947 30.1928Z" fill="#2F2E41"/>
<path d="M12.6457 28.9297C12.1442 29.1198 11.7078 29.4501 11.3884 29.8813C11.1043 30.251 10.9152 30.6848 10.8374 31.1446C11.339 30.9544 11.7754 30.6241 12.0947 30.1929C12.3788 29.8232 12.568 29.3895 12.6457 28.9297Z" fill="#EA3467"/>
<path d="M31.8926 76.9835L31.5724 76.5559L33.8967 74.813C34.1725 74.6055 34.3889 74.329 34.524 74.0113C34.6591 73.6935 34.7082 73.3458 34.6663 73.003L33.5149 63.6983C33.4321 63.0228 33.5288 62.3373 33.795 61.7111C34.0613 61.0848 34.4877 60.5398 35.0314 60.131L37.5649 58.2312C38.0455 57.8716 38.649 57.7175 39.243 57.8027C39.837 57.8879 40.373 58.2054 40.7334 58.6855L41.3202 59.4691L40.8929 59.7895L40.3062 59.0059C40.0308 58.639 39.6212 58.3964 39.1673 58.3314C38.7134 58.2663 38.2523 58.384 37.8851 58.6588L35.3516 60.5586C34.8831 60.9109 34.5156 61.3805 34.2862 61.9202C34.0568 62.4598 33.9735 63.0504 34.0447 63.6326L35.1961 72.9373C35.2495 73.3735 35.1871 73.816 35.0152 74.2204C34.8433 74.6247 34.5679 74.9766 34.2169 75.2406L31.8926 76.9835Z" fill="#CFCCE0"/>
<path d="M32.7214 77.7723L34.6165 75.2748L33.9759 74.4198L31.1347 75.6534L18.7316 84.2299L20.9271 87.1619L32.7214 77.7723Z" fill="#CFCCE0"/>
<path d="M41.6548 58.1212L39.262 59.9156C38.6079 60.406 38.4751 61.3342 38.9652 61.9886L50.0668 76.8139C50.5569 77.4684 51.4844 77.6014 52.1384 77.111L54.5313 75.3166C55.1853 74.8262 55.3182 73.898 54.8281 73.2435L43.7264 58.4182C43.2363 57.7637 42.3088 57.6308 41.6548 58.1212Z" fill="#E6E6E6"/>
<path opacity="0.2" d="M54.8283 73.2437L54.4853 72.7856L54.4167 72.694C54.5332 72.8496 54.6179 73.0266 54.6661 73.215C54.7142 73.4033 54.7248 73.5993 54.6972 73.7918C54.6697 73.9842 54.6045 74.1694 54.5055 74.3366C54.4064 74.5039 54.2754 74.65 54.1199 74.7666L51.7266 76.5614C51.4125 76.7968 51.0179 76.8978 50.6295 76.8421C50.2411 76.7864 49.8907 76.5786 49.6554 76.2644L49.724 76.356L50.0671 76.8142C50.3024 77.1284 50.6528 77.3362 51.0412 77.3919C51.4296 77.4476 51.8242 77.3466 52.1382 77.1111L54.5316 75.3163C54.8456 75.0809 55.0533 74.7302 55.1089 74.3415C55.1646 73.9529 55.0636 73.558 54.8283 73.2437Z" fill="black"/>
<path d="M47.7288 63.4564C47.7081 63.436 47.6907 63.4195 47.6902 63.4286C47.71 63.4525 47.7231 63.4589 47.7288 63.4564Z" fill="#7F77FF"/>
<path d="M47.3525 62.8617C47.3504 62.8475 47.343 62.8348 47.3317 62.826L47.3525 62.8617Z" fill="#7F77FF"/>
<path d="M50.0595 66.6189C50.0375 66.626 50.0798 66.6734 50.1076 66.7189L50.0595 66.6189Z" fill="#7F77FF"/>
<path d="M51.2305 68.127L51.2503 68.1534C51.2628 68.1567 51.2756 68.1586 51.2885 68.1591L51.2305 68.127Z" fill="#7F77FF"/>
<path d="M51.9706 69.2309C51.984 69.231 51.9973 69.2337 52.0096 69.2391C52.022 69.2444 52.0331 69.2522 52.0424 69.262C52.0538 69.2528 52.0621 69.2404 52.0663 69.2264C52.0496 69.1999 51.9976 69.2255 51.9706 69.2309Z" fill="#7F77FF"/>
<path d="M54.2659 72.4222L54.2549 72.4417C54.2616 72.4501 54.2691 72.4579 54.2775 72.4647L54.2659 72.4222Z" fill="#7F77FF"/>
<path d="M46.6256 61.7609L46.6282 61.7663C46.6545 61.7901 46.6418 61.775 46.6256 61.7609Z" fill="#7F77FF"/>
<path d="M39.9041 63.9557C39.8657 63.8188 40.085 64.0892 40.0112 63.8951C40.0044 63.9235 39.8319 63.8034 39.9041 63.9557Z" fill="#7F77FF"/>
<path d="M44.8361 59.4285C44.8323 59.4411 44.8316 59.4545 44.834 59.4675C44.8381 59.4632 44.8397 59.4534 44.8361 59.4285Z" fill="#7F77FF"/>
<path d="M43.897 58.7537C43.8649 58.7738 43.8366 58.7995 43.8134 58.8295C43.8187 58.8285 43.8238 58.8267 43.8286 58.8243C43.8447 58.795 43.8683 58.7706 43.897 58.7537Z" fill="#7F77FF"/>
<path d="M42.9657 59.6316C42.9737 59.6301 42.9816 59.6281 42.9894 59.6257L43.0151 59.5986L42.9657 59.6316Z" fill="#7F77FF"/>
<path d="M54.3211 72.4689C54.2896 72.5072 54.2278 72.557 54.2 72.5403L54.2549 72.4418C54.251 72.4372 54.2474 72.432 54.2437 72.4271C54.2471 72.4225 54.2507 72.4181 54.2542 72.4134L53.4639 71.3581L53.4845 71.3594L53.4482 71.3371L53.348 71.2033C53.3607 71.2005 53.3771 71.2045 53.4009 71.2281C53.3601 71.1039 53.3111 71.1584 53.2847 71.0453C53.2835 71.0316 53.2899 71.0334 53.2991 71.04L53.2064 70.9584C53.2349 70.9667 53.2422 70.9064 53.2769 70.9732C53.1859 70.7701 53.0163 70.7311 53.0186 70.6272L53.0337 70.6386C52.8816 70.4712 52.9192 70.5618 52.867 70.561L52.7826 70.4483L52.8042 70.3018L52.7368 70.3154C52.7199 70.2892 52.6868 70.2372 52.7135 70.2314C52.6102 70.1643 52.7037 70.2634 52.6314 70.2337C52.587 70.0801 52.363 69.9195 52.422 69.8331C52.352 69.8185 52.4786 69.9695 52.3566 69.8614C52.4145 69.761 52.2314 69.7246 52.1886 69.5859C52.2577 69.5865 52.312 69.7076 52.2693 69.5687C52.1455 69.5585 52.1261 69.3435 52.0428 69.262C51.9804 69.302 51.8679 69.0799 51.7322 68.9399C51.6518 68.7757 51.5609 68.6168 51.4602 68.4642L51.4733 68.461C51.3926 68.4779 51.2927 68.3209 51.1993 68.222C51.2383 68.1995 51.267 68.2083 51.3269 68.2549L51.2505 68.1534C51.1997 68.1351 51.1555 68.1022 51.1233 68.0589L51.1871 68.0509C51.0519 67.9219 50.932 67.7778 50.8298 67.6213C50.7966 67.6359 50.8015 67.7324 50.757 67.7432L50.688 67.6511C50.6982 67.6468 50.7096 67.6459 50.7203 67.6484C50.7311 67.651 50.7408 67.657 50.7479 67.6655C50.7331 67.6519 50.6871 67.6232 50.6729 67.5842L50.7659 67.6293C50.7231 67.5375 50.7031 67.6116 50.6592 67.5456C50.6923 67.5227 50.647 67.4814 50.6793 67.4714C50.6945 67.4852 50.7075 67.5367 50.7382 67.5515C50.6914 67.4849 50.6604 67.4085 50.6478 67.3281C50.6342 67.3481 50.6045 67.3606 50.5611 67.3114C50.4574 67.1778 50.5651 67.236 50.5225 67.1447C50.4757 67.1287 50.4341 67.025 50.3844 67.0588C50.355 67.019 50.3719 66.9949 50.3734 66.9698C50.2998 66.9157 50.1224 66.6472 50.1304 66.7645L50.1405 66.785L50.1298 66.7751C49.9101 66.5814 49.7999 66.2778 49.6088 66.0655L49.6251 66.0538C49.5197 65.9232 49.4045 65.801 49.2804 65.6881C49.2503 65.6479 49.2386 65.5712 49.2707 65.574C49.1843 65.5027 49.115 65.4128 49.0681 65.311C49.1744 65.3945 49.0659 65.2563 49.1688 65.4027C49.0816 65.2572 49.0844 65.2073 48.9319 65.0953C49.01 65.1138 48.9076 64.9547 48.8472 64.8998L48.8886 65.0165C48.8345 64.9534 48.785 64.8864 48.7404 64.8162L48.8206 64.8102C48.6796 64.4844 48.3352 64.3959 48.288 64.1028C48.1954 64.0581 48.3737 64.2729 48.2804 64.2408C48.2238 64.1239 48.1773 64.0023 48.1415 63.8775C48.0411 63.6809 47.9407 63.7744 47.8247 63.5768C47.8229 63.6145 47.7878 63.6752 47.6676 63.5527C47.5795 63.4201 47.6315 63.3355 47.7072 63.4042C47.7317 63.4335 47.7365 63.4528 47.729 63.4564C47.7668 63.4923 47.8155 63.54 47.7988 63.4739L47.7671 63.4719C47.7395 63.394 47.6064 63.2205 47.6689 63.2379C47.5785 63.1555 47.6064 63.2205 47.6497 63.2993C47.5555 63.1151 47.4596 63.0437 47.3527 62.8617C47.362 62.8963 47.3577 62.938 47.338 62.9112C47.1775 62.6469 47.2202 62.8302 47.0867 62.6697C47.0451 62.5527 47.1825 62.6509 47.0319 62.5014C46.9751 62.3838 47.067 62.4412 47.1132 62.4702C47.0047 62.3559 46.9203 62.2209 46.8649 62.0732L46.9409 62.1422C46.9019 62.1055 46.8668 62.0648 46.8362 62.0209L46.832 62.096C46.8033 62.0436 46.7734 62.0034 46.7902 61.9922C46.7283 61.9624 46.7539 62.0778 46.6467 62.0069C46.6191 61.929 46.4817 61.8305 46.5167 61.7702C46.6479 61.9818 46.5518 61.7096 46.6859 61.8715C46.6501 61.8365 46.6202 61.7959 46.5973 61.7514C46.5977 61.7399 46.613 61.7501 46.6256 61.7608C46.5292 61.5365 46.5022 61.717 46.356 61.5193C46.4036 61.5226 46.3767 61.4325 46.3464 61.405C46.4053 61.4848 46.3266 61.4791 46.25 61.423C46.178 61.2799 46.1305 61.2983 46.0836 61.2302L46.1296 61.3136C46.0815 61.3097 46.038 61.2438 45.963 61.1626C45.9799 61.1382 46.0384 61.2309 46.0248 61.1921C45.9008 61.1325 45.912 60.9319 45.7758 60.8213C45.7481 60.7435 45.8255 60.7745 45.7973 60.7091C45.6455 60.5845 45.7131 60.514 45.5619 60.3768C45.5577 60.4521 45.5733 60.4531 45.4508 60.3685L45.6757 60.6118L45.4924 60.4849C45.5515 60.5649 45.6426 60.6346 45.6717 60.6873C45.5796 60.6304 45.5955 60.6314 45.5918 60.6937C45.5685 60.541 45.3961 60.5032 45.3412 60.3477L45.4402 60.2794C45.3413 60.0579 45.139 59.98 44.979 59.716L45.0215 59.8075C44.9586 59.8032 44.9025 59.6597 44.8274 59.5918C44.8651 59.575 44.8395 59.5165 44.834 59.4675C44.8133 59.4895 44.7015 59.2859 44.6205 59.3118L44.5807 59.1702C44.4586 58.971 44.2944 58.979 44.1351 58.7434C44.1687 58.7518 44.1678 58.7206 44.1739 58.7011C44.1807 58.6828 44.1949 58.6768 44.2785 58.7623C44.2028 58.6606 44.1345 58.5572 44.1285 58.5955C44.123 58.5829 44.1162 58.5709 44.108 58.5599L44.0939 58.5416C44.0887 58.5363 44.0821 58.5516 44.0758 58.5565L43.9899 58.6623C43.9478 58.7268 43.8929 58.7819 43.8287 58.8243C43.8005 58.8766 43.8096 58.9265 43.7269 59.0028C43.7126 59.0053 43.7146 58.987 43.7146 58.987C43.7183 59.012 43.6256 59.1096 43.7124 59.0886C43.4499 59.1669 43.2213 59.5646 42.9896 59.6258C42.8703 59.7513 42.7227 59.8988 42.605 60.0025C42.6048 59.9868 42.5923 59.987 42.6175 59.9708C42.4295 60.0834 42.5922 60.1464 42.3754 60.2723C42.2372 60.3029 42.4535 60.1616 42.3775 60.1929C42.2668 60.113 42.1613 60.3975 41.9825 60.4397L42.0088 60.4087C41.8832 60.4532 41.7995 60.6401 41.6292 60.7581C41.6292 60.7581 41.6301 60.7427 41.6181 60.7415C41.5012 60.9126 41.3579 61.064 41.1935 61.19C41.214 61.112 41.2513 61.1154 41.1899 61.0945C41.1215 61.1522 41.2605 61.1479 41.1234 61.2633C41.0598 61.2739 40.9407 61.3279 40.8945 61.2905L41.0299 61.192C40.919 61.1829 40.8536 61.3176 40.7733 61.3567L40.7648 61.3242C40.5594 61.477 40.5986 61.5434 40.3637 61.6893L40.4005 61.6941C40.3151 61.8427 40.2694 61.7233 40.1723 61.8528L40.0917 61.808C39.9636 61.9328 39.8271 62.0486 39.6832 62.1546C39.7787 62.0357 39.8848 61.9257 40.0001 61.826C39.8841 61.8853 39.7792 61.9644 39.6901 62.0596C39.7208 62.0332 39.754 61.9907 39.794 61.9818C39.6986 62.1175 39.5697 62.2261 39.4199 62.2971C39.4055 62.2171 39.2344 62.2946 39.0272 62.3959L38.9489 62.4343L38.909 62.4538C38.8962 62.4604 38.8752 62.4652 38.8923 62.4787C38.9242 62.5243 38.9548 62.5695 38.9818 62.6126C39.0299 62.6801 39.064 62.7564 39.0824 62.8372C39.1262 62.887 39.1695 62.9363 39.2128 62.9855C39.2416 63.0186 39.2691 63.0527 39.2957 63.0878C39.3489 63.1579 39.3985 63.2317 39.4479 63.3079C39.5467 63.4602 39.645 63.6219 39.7711 63.7825C39.7812 63.5939 39.8453 63.8759 39.9298 63.7812C39.9923 63.8515 40.0125 63.8817 40.0118 63.8938L40.0041 63.8751L40.0118 63.8951L40.0121 63.8949L40.1253 64.1698C40.1373 64.2463 40.0491 64.1139 40.032 64.1376C40.1492 64.3101 40.0422 64.2392 40.0983 64.3694C40.117 64.3201 40.1928 64.3891 40.2503 64.4944L40.196 64.3261C40.4235 64.5194 40.2633 64.5902 40.4916 64.7857L40.4047 64.7349C40.5134 64.8415 40.737 65.1799 40.9054 65.2381C40.9099 65.268 40.9037 65.3166 40.8568 65.269C41.0605 65.566 41.422 65.8463 41.5404 66.1071L41.4997 66.1035C41.547 66.1519 41.6155 66.1627 41.6414 66.2484C41.6287 66.2524 41.6009 66.2449 41.6181 66.2709C41.6931 66.322 41.7572 66.3874 41.8067 66.4635L41.7338 66.4232C41.9123 66.728 42.1234 66.8043 42.3165 67.0274C42.2443 67.0805 42.3866 67.3191 42.4576 67.4381L42.4446 67.4419C42.6698 67.7225 42.9138 67.9875 43.1751 68.2349C43.2381 68.4812 43.6196 68.8963 43.8022 69.2312C43.7807 69.1752 43.8637 69.1969 43.9111 69.2452C43.9497 69.327 44.1077 69.404 44.0335 69.442L44.0159 69.4158C43.9914 69.5176 44.1177 69.6505 44.2012 69.7656L44.3012 69.7199C44.399 70.1114 44.9312 70.4654 44.9409 70.7119C45.0162 70.7676 45.0825 70.8568 45.1574 70.9119L45.1084 70.9426C45.2301 71.1342 45.3641 71.3177 45.5095 71.492L45.439 71.4665C45.54 71.6075 45.7031 71.5421 45.8017 71.6681L45.7617 71.7582C45.9441 71.9995 46.0672 72.2899 46.3087 72.4823C46.2957 72.4859 46.2705 72.4937 46.2383 72.4566C46.3219 72.5719 46.5218 72.9324 46.5853 72.8201C46.5259 72.8691 46.7664 73.0744 46.8914 73.1849L46.8308 73.1985C46.9448 73.2363 47.0456 73.3059 47.1214 73.3991C47.1428 73.4401 47.109 73.4584 47.0843 73.4011C47.1516 73.5407 47.1983 73.4637 47.2846 73.6294L47.2144 73.5962C47.2335 73.6322 47.2595 73.664 47.2911 73.6898C47.3227 73.7155 47.3591 73.7346 47.3982 73.746C47.4754 73.8111 47.5646 73.9921 47.5374 74.0414C47.573 74.0474 47.6065 74.0619 47.6354 74.0835C47.6642 74.1051 47.6875 74.1332 47.7033 74.1656C47.6953 74.1872 47.6655 74.1676 47.6507 74.1576C47.7766 74.3901 47.9366 74.4293 47.9999 74.6067C47.9944 74.6126 47.9907 74.6199 47.9891 74.6278C47.9876 74.6357 47.9882 74.6438 47.991 74.6514C47.8676 74.4842 47.7697 74.3484 47.7824 74.3585C47.7406 74.3898 47.8339 74.5297 47.696 74.4661C47.8503 74.5608 47.9851 74.684 48.0934 74.8291C48.0946 74.8385 48.0941 74.848 48.0919 74.8573L48.077 74.8472C48.0943 74.8776 48.1177 74.9041 48.1458 74.9249C48.1654 74.9661 48.1883 75.0055 48.2144 75.0428C48.1914 75.0843 48.3111 75.2109 48.3596 75.2791C48.4012 75.2393 48.4595 75.3325 48.4358 75.222C48.4405 75.2351 48.4209 75.2134 48.3856 75.1703C48.3777 75.1611 48.369 75.1528 48.3595 75.1453L48.3669 75.1469L48.2391 74.9826C48.275 74.9988 48.3072 75.0221 48.3337 75.0513C48.3601 75.0804 48.3804 75.1146 48.3931 75.1519C48.4482 75.1642 48.5068 75.1794 48.537 75.19C48.5418 75.3296 48.6396 75.5322 48.6187 75.5863C48.7081 75.6789 48.8025 75.7962 48.8974 75.8984C48.9432 75.9481 48.9917 75.9952 49.0427 76.0395C49.0898 76.0903 49.1465 76.1314 49.2094 76.1605C49.2352 76.185 49.2535 76.2165 49.2619 76.2511C49.2699 76.2809 49.2827 76.278 49.2976 76.2863C49.2832 76.2951 49.2677 76.3019 49.2515 76.3067L49.2212 76.2735C49.2067 76.2553 49.1891 76.2397 49.1692 76.2275C49.2095 76.2543 49.2368 76.353 49.3153 76.2908L49.5177 76.2084C49.5647 76.1908 49.6097 76.1681 49.6517 76.1406C49.6809 76.1203 49.6996 76.1001 49.7012 76.0794C49.8854 76.0425 49.6286 76.1827 49.8615 76.0768L49.8377 76.1109C50.3577 76.0327 50.5096 75.6203 51.0622 75.4863C51.0237 75.4967 51.0047 75.5021 50.9917 75.4949C51.5846 75.2451 52.0538 74.7442 52.595 74.4232C52.7461 74.3256 52.726 74.2732 52.782 74.1743L52.8518 74.1939L52.9402 74.0172C53.0903 73.7991 53.3722 73.8063 53.5285 73.4943L53.4686 73.4972C53.557 73.4166 53.7009 73.1999 53.7244 73.2468C53.7219 73.2312 53.7245 73.2152 53.7318 73.2011C53.7391 73.187 53.7506 73.1757 53.7648 73.1686L53.7916 73.1869C53.842 73.1015 53.8884 73.0132 53.9366 72.927C54.0974 72.766 54.0157 73.0379 54.2263 72.7802C54.2925 72.6742 54.3668 72.445 54.3211 72.4689ZM53.2278 71.0278C53.2294 71.0335 53.23 71.0393 53.2296 71.0452L53.1891 70.9911C53.2018 71.0029 53.2141 71.014 53.2278 71.0278ZM48.2922 75.1346L48.3017 75.1356C48.2898 75.1386 48.2774 75.1385 48.2655 75.1353C48.2257 75.0956 48.2235 75.0739 48.2283 75.0608C48.2449 75.0812 48.2649 75.1046 48.2922 75.1346V75.1346Z" fill="#EA3467"/>
<path d="M48.3854 75.1703C48.3915 75.1751 48.3971 75.1804 48.4024 75.1861C48.3998 75.1746 48.3967 75.1631 48.3928 75.1519L48.3668 75.1469L48.3854 75.1703Z" fill="#7F77FF"/>
<path d="M50.127 66.7577C50.1291 66.7634 50.1301 66.7696 50.1299 66.7757C50.1297 66.772 50.1299 66.7683 50.1305 66.7647L50.127 66.7577Z" fill="#7F77FF"/>
<path d="M52.7152 70.1275C52.6048 69.8692 52.7095 70.2024 52.5472 69.9696L52.6633 70.1531C52.6583 70.1095 52.6522 70.0518 52.7152 70.1275Z" fill="#7F77FF"/>
<path d="M52.2081 69.3894C52.148 69.3424 52.1333 69.3311 52.1698 69.4123C52.2474 69.4994 52.1945 69.392 52.2081 69.3894Z" fill="#7F77FF"/>
<path d="M49.2576 65.5228L49.306 65.501C49.2465 65.4336 49.2894 65.5124 49.2576 65.5228Z" fill="#7F77FF"/>
<path d="M48.4822 64.306L48.3778 64.1973L48.4529 64.2789L48.4822 64.306Z" fill="#7F77FF"/>
<path d="M43.0869 59.454L43.1496 59.4831C43.186 59.4337 43.1468 59.3721 43.0869 59.454Z" fill="#7F77FF"/>
<path d="M40.1927 61.7279C40.2539 61.7041 40.3131 61.6753 40.3697 61.6418C40.3355 61.6409 40.3016 61.6483 40.2708 61.6633C40.2401 61.6783 40.2133 61.7004 40.1927 61.7279Z" fill="#7F77FF"/>
<path d="M44.2827 69.866L44.3764 69.9621L44.342 69.91L44.2827 69.866Z" fill="#7F77FF"/>
<path d="M18.2837 53.9349L18.6542 64.6196L24.4522 78.2418C24.4522 78.2418 22.9397 85.3051 25.9647 85.0529C28.9897 84.8006 26.2168 77.9895 26.2168 77.9895L23.4438 63.6105L22.9397 51.7542L18.2837 53.9349Z" fill="#A0616A"/>
<path d="M20.4189 46.4566L20.5575 45.5037L21.6793 45.9523L25.2085 51.5019L17.8979 55.2859L20.4189 46.4566Z" fill="#CFCCE0"/>
</g>
<defs>
<clipPath id="clip0">
<rect width="180" height="128" fill="white"/>
</clipPath>
</defs>
</svg>
