<svg width="180" height="138" viewBox="0 0 180 138" fill="none" xmlns="http://www.w3.org/2000/svg">
<g clip-path="url(#clip0)">
<path opacity="0.1" d="M175.638 93.828C175.477 93.9455 175.328 94.0598 175.17 94.1709C174.587 94.5827 173.977 94.9544 173.343 95.2835C170.024 97.0305 165.933 97.8839 161.949 98.4635C153.012 99.7645 143.887 100.017 134.802 100.265C110.253 100.938 85.6451 101.61 61.1562 100.059C51.4806 99.4473 41.5921 98.4232 32.8244 95.2835C31.5677 94.8348 30.3357 94.34 29.1284 93.799C26.6853 92.7025 24.3389 91.3677 22.3877 89.7737C20.5542 88.2795 19.0673 86.5631 18.1788 84.6117C16.3259 80.5477 17.3064 75.983 19.4221 71.9996C20.3008 70.3881 21.2918 68.8402 22.3877 67.3673C24.0213 65.1244 25.8225 62.9459 27.4658 60.7046C33.3131 52.7378 37.1285 42.6584 31.7311 34.4871C30.1798 32.1395 27.9383 30.0786 26.674 27.628C25.0614 24.4931 25.1855 21.012 25.6984 17.6308C25.765 17.2014 25.8354 16.7763 25.9096 16.3555C26.7853 11.3416 28.4333 5.93968 33.5146 2.80961C38.7927 -0.442826 46.288 -0.278594 52.8384 0.877471C63.0252 2.69368 72.4218 6.47424 81.9184 9.88769C91.415 13.3011 101.35 16.4199 111.787 16.7548C121.003 17.0511 131.753 14.834 137.869 9.07136C143.81 3.47459 154.977 3.04791 163.026 6.42916C168.551 8.74934 172.672 12.9292 174.411 17.6308C174.763 18.5747 175.016 19.5524 175.167 20.5483C175.306 21.4585 175.352 22.3805 175.302 23.3C175.278 23.754 175.232 24.2032 175.167 24.6476C173.822 33.9251 164.142 41.2431 158.257 49.5304C155.382 53.5782 153.352 58.4408 155.329 62.8058C158.344 69.4572 168.831 71.8225 175.164 76.772C176.355 77.6728 177.405 78.7475 178.276 79.96C181.348 84.3653 180.214 90.3147 175.638 93.828Z" fill="#EA3467"/>
<path d="M41.6035 52.3063C41.6035 52.3063 34.1856 39.1806 23.007 35.4C18.316 33.8125 14.2216 30.8273 11.4221 26.7473C10.0968 24.8101 8.95242 22.7556 8.00342 20.6095" stroke="#535461" stroke-width="2" stroke-miterlimit="10"/>
<path d="M0.974016 18.1798C2.24797 19.4083 8.17911 20.6964 8.17911 20.6964C8.17911 20.6964 6.72777 14.8163 5.45059 13.5813C4.83666 13.0008 4.01837 12.6853 3.17304 12.7031C2.32772 12.7209 1.52346 13.0706 0.934574 13.6763C0.345683 14.2821 0.0195951 15.0952 0.0269782 15.9394C0.0343612 16.7836 0.37462 17.5908 0.974016 18.1862V18.1798Z" fill="#EA3467"/>
<path d="M4.32986 28.8211C6.06986 29.1657 11.7478 27.0194 11.7478 27.0194C11.7478 27.0194 7.32123 22.8717 5.57963 22.5271C4.7519 22.3816 3.90001 22.5656 3.20654 23.0397C2.51306 23.5138 2.03317 24.2403 1.86972 25.0634C1.70627 25.8866 1.87227 26.7409 2.33213 27.4433C2.792 28.1457 3.50914 28.6403 4.32986 28.8211Z" fill="#EA3467"/>
<path d="M16.5452 40.34C18.2223 39.7603 22.0281 35.0475 22.0281 35.0475C22.0281 35.0475 16.113 33.6966 14.4376 34.2763C14.0264 34.4038 13.6452 34.6125 13.3164 34.8899C12.9876 35.1674 12.718 35.508 12.5236 35.8915C12.3292 36.275 12.2139 36.6935 12.1846 37.1224C12.1553 37.5512 12.2126 37.9815 12.353 38.3878C12.4935 38.7941 12.7143 39.1681 13.0023 39.4876C13.2903 39.8071 13.6396 40.0655 14.0296 40.2476C14.4196 40.4297 14.8422 40.5317 15.2724 40.5475C15.7026 40.5634 16.1316 40.4928 16.5339 40.34H16.5452Z" fill="#EA3467"/>
<path d="M27.7529 46.972C29.5042 46.6822 34.0581 42.6811 34.0581 42.6811C34.0581 42.6811 28.4576 40.3512 26.7063 40.6394C25.8652 40.778 25.1138 41.2445 24.6172 41.9363C24.1206 42.6281 23.9196 43.4885 24.0584 44.3282C24.1972 45.168 24.6644 45.9183 25.3572 46.4141C26.0501 46.9099 26.9118 47.1106 27.7529 46.972Z" fill="#EA3467"/>
<path d="M16.6887 22.4241C16.6887 24.1952 13.4797 29.3363 13.4797 29.3363C13.4797 29.3363 10.2641 24.1985 10.2625 22.4273C10.2529 22 10.329 21.575 10.4861 21.1774C10.6433 20.7798 10.8784 20.4175 11.1777 20.1119C11.4771 19.8063 11.8345 19.5635 12.2291 19.3977C12.6237 19.2319 13.0475 19.1465 13.4756 19.1465C13.9037 19.1465 14.3275 19.2319 14.7222 19.3977C15.1168 19.5635 15.4742 19.8063 15.7735 20.1119C16.0728 20.4175 16.308 20.7798 16.4651 21.1774C16.6223 21.575 16.6983 22 16.6887 22.4273V22.4241Z" fill="#EA3467"/>
<path d="M29.6993 30.3571C29.1687 32.0477 24.5648 35.9925 24.5648 35.9925C24.5648 35.9925 23.036 30.1236 23.5601 28.425C23.8418 27.6472 24.4133 27.0081 25.1555 26.6409C25.8977 26.2737 26.7533 26.2068 27.5437 26.4541C28.3341 26.7015 28.9983 27.244 29.3978 27.9685C29.7974 28.6929 29.9013 29.5435 29.688 30.3426L29.6993 30.3571Z" fill="#EA3467"/>
<path d="M41.2842 39.7845C41.0488 41.5411 37.1785 46.2056 37.1785 46.2056C37.1785 46.2056 34.679 40.6861 34.9209 38.9295C35.0461 38.0963 35.4946 37.3457 36.1693 36.8397C36.8441 36.3338 37.6911 36.1131 38.5274 36.2254C39.3637 36.3377 40.1223 36.7738 40.6393 37.4397C41.1563 38.1056 41.3903 38.9478 41.2907 39.7845H41.2842Z" fill="#EA3467"/>
<path opacity="0.25" d="M0.974016 18.1798C2.24797 19.4083 8.17911 20.6964 8.17911 20.6964C8.17911 20.6964 6.72777 14.8163 5.45059 13.5813C4.83666 13.0008 4.01837 12.6853 3.17304 12.7031C2.32772 12.7209 1.52346 13.0706 0.934574 13.6763C0.345683 14.2821 0.0195951 15.0952 0.0269782 15.9394C0.0343612 16.7836 0.37462 17.5908 0.974016 18.1862V18.1798Z" fill="black"/>
<path opacity="0.25" d="M4.32986 28.8211C6.06986 29.1657 11.7478 27.0194 11.7478 27.0194C11.7478 27.0194 7.32123 22.8717 5.57963 22.5271C4.7519 22.3816 3.90001 22.5656 3.20654 23.0397C2.51306 23.5138 2.03317 24.2403 1.86972 25.0634C1.70627 25.8866 1.87227 26.7409 2.33213 27.4433C2.792 28.1457 3.50914 28.6403 4.32986 28.8211Z" fill="black"/>
<path opacity="0.25" d="M16.5452 40.34C18.2223 39.7603 22.0281 35.0475 22.0281 35.0475C22.0281 35.0475 16.113 33.6966 14.4376 34.2763C14.0264 34.4038 13.6452 34.6125 13.3164 34.8899C12.9876 35.1674 12.718 35.508 12.5236 35.8915C12.3292 36.275 12.2139 36.6935 12.1846 37.1224C12.1553 37.5512 12.2126 37.9815 12.353 38.3878C12.4935 38.7941 12.7143 39.1681 13.0023 39.4876C13.2903 39.8071 13.6396 40.0655 14.0296 40.2476C14.4196 40.4297 14.8422 40.5317 15.2724 40.5475C15.7026 40.5634 16.1316 40.4928 16.5339 40.34H16.5452Z" fill="black"/>
<path opacity="0.25" d="M27.7529 46.972C29.5042 46.6822 34.0581 42.6811 34.0581 42.6811C34.0581 42.6811 28.4576 40.3512 26.7063 40.6394C25.8652 40.778 25.1138 41.2445 24.6172 41.9363C24.1206 42.6281 23.9196 43.4885 24.0584 44.3282C24.1972 45.168 24.6644 45.9183 25.3572 46.4141C26.0501 46.9099 26.9118 47.1106 27.7529 46.972Z" fill="black"/>
<path opacity="0.25" d="M16.6887 22.4241C16.6887 24.1952 13.4797 29.3363 13.4797 29.3363C13.4797 29.3363 10.2641 24.1985 10.2625 22.4273C10.2529 22 10.329 21.575 10.4861 21.1774C10.6433 20.7798 10.8784 20.4175 11.1777 20.1119C11.4771 19.8063 11.8345 19.5635 12.2291 19.3977C12.6237 19.2319 13.0475 19.1465 13.4756 19.1465C13.9037 19.1465 14.3275 19.2319 14.7222 19.3977C15.1168 19.5635 15.4742 19.8063 15.7735 20.1119C16.0728 20.4175 16.308 20.7798 16.4651 21.1774C16.6223 21.575 16.6983 22 16.6887 22.4273V22.4241Z" fill="black"/>
<path opacity="0.25" d="M29.6993 30.3571C29.1687 32.0477 24.5648 35.9925 24.5648 35.9925C24.5648 35.9925 23.036 30.1236 23.5601 28.425C23.8418 27.6472 24.4133 27.0081 25.1555 26.6409C25.8977 26.2737 26.7533 26.2068 27.5437 26.4541C28.3341 26.7015 28.9983 27.244 29.3978 27.9685C29.7974 28.6929 29.9013 29.5435 29.688 30.3426L29.6993 30.3571Z" fill="black"/>
<path opacity="0.25" d="M41.2842 39.7845C41.0488 41.5411 37.1785 46.2056 37.1785 46.2056C37.1785 46.2056 34.679 40.6861 34.9209 38.9295C35.0461 38.0963 35.4946 37.3457 36.1693 36.8397C36.8441 36.3338 37.6911 36.1131 38.5274 36.2254C39.3637 36.3377 40.1223 36.7738 40.6393 37.4397C41.1563 38.1056 41.3903 38.9478 41.2907 39.7845H41.2842Z" fill="black"/>
<path d="M41.1761 52.0455C41.1761 52.0455 39.7248 37.0424 31.0361 29.0626C27.3932 25.7136 24.8615 21.3341 23.9568 16.4651C23.5321 14.1573 23.3205 11.8155 23.3246 9.46912" stroke="#535461" stroke-width="2" stroke-miterlimit="10"/>
<path d="M17.8822 4.40852C18.5466 6.05245 23.4505 9.61886 23.4505 9.61886C23.4505 9.61886 24.5067 3.65337 23.844 2.00944C23.5253 1.21944 22.9054 0.588167 22.1207 0.254506C21.3359 -0.0791553 20.4505 -0.0878762 19.6593 0.230261C18.868 0.548398 18.2358 1.16733 17.9016 1.95091C17.5675 2.73448 17.5587 3.61851 17.8773 4.40852H17.8822Z" fill="#EA3467"/>
<path d="M16.6259 15.4942C18.0773 16.5134 24.1358 16.8467 24.1358 16.8467C24.1358 16.8467 21.7862 11.266 20.3349 10.2468C19.638 9.7557 18.7742 9.56115 17.9336 9.70594C17.0931 9.85073 16.3445 10.323 15.8527 11.0188C15.3608 11.7147 15.166 12.5771 15.311 13.4164C15.456 14.2557 15.929 15.0031 16.6259 15.4942Z" fill="#EA3467"/>
<path d="M23.1263 30.9642C24.9001 31.1139 30.2927 28.3461 30.2927 28.3461C30.2927 28.3461 25.4339 24.7185 23.6649 24.5704C23.2392 24.5252 22.8088 24.5653 22.3989 24.6884C21.989 24.8115 21.6079 25.0151 21.2778 25.2873C20.9478 25.5594 20.6756 25.8947 20.4771 26.2734C20.2786 26.6521 20.1579 27.0665 20.122 27.4924C20.0861 27.9183 20.1358 28.347 20.2682 28.7535C20.4005 29.1599 20.6129 29.5359 20.8927 29.8593C21.1726 30.1827 21.5143 30.447 21.8978 30.6367C22.2814 30.8265 22.699 30.9378 23.1263 30.9642Z" fill="#EA3467"/>
<path d="M30.6797 41.5653C32.3987 42.0096 38.1863 40.1934 38.1863 40.1934C38.1863 40.1934 34.0113 35.7978 32.2939 35.3534C31.4741 35.1551 30.6091 35.2865 29.8855 35.7194C29.1619 36.1522 28.6377 36.8517 28.4261 37.667C28.2144 38.4823 28.3323 39.3479 28.7542 40.0772C29.1761 40.8065 29.8682 41.341 30.6813 41.5653H30.6797Z" fill="#EA3467"/>
<path d="M30.5265 14.6472C29.8089 16.267 24.7873 19.666 24.7873 19.666C24.7873 19.666 23.9326 13.6699 24.6502 12.0485C24.8164 11.6562 25.0591 11.3009 25.3643 11.0033C25.6694 10.7056 26.0309 10.4716 26.4275 10.3149C26.8242 10.1581 27.2481 10.0818 27.6746 10.0904C28.1011 10.0989 28.5217 10.1921 28.9117 10.3646C29.3018 10.5371 29.6535 10.7854 29.9465 11.0951C30.2394 11.4047 30.4677 11.7694 30.618 12.1681C30.7683 12.5667 30.8376 12.9912 30.8219 13.4168C30.8062 13.8425 30.7058 14.2607 30.5265 14.6472Z" fill="#EA3467"/>
<path d="M39.2023 27.1546C38.0315 28.4862 32.2213 30.23 32.2213 30.23C32.2213 30.23 33.2018 24.2532 34.3741 22.9216C34.6525 22.6051 34.9906 22.3464 35.3691 22.1604C35.7476 21.9743 36.1591 21.8645 36.5801 21.8372C37.0011 21.8099 37.4234 21.8657 37.8228 22.0013C38.2222 22.137 38.5909 22.3499 38.908 22.6278C39.225 22.9057 39.4841 23.2433 39.6704 23.6212C39.8568 23.9991 39.9668 24.41 39.9941 24.8304C40.0214 25.2507 39.9656 25.6723 39.8297 26.0711C39.6938 26.4699 39.4806 26.8381 39.2023 27.1546Z" fill="#EA3467"/>
<path d="M45.9752 40.4687C45.0463 41.979 39.6151 44.6775 39.6151 44.6775C39.6151 44.6775 39.5699 38.6203 40.4988 37.11C40.9449 36.384 41.6615 35.8647 42.4911 35.6663C43.3206 35.468 44.1951 35.6067 44.9222 36.0521C45.6492 36.4975 46.1693 37.213 46.368 38.0413C46.5667 38.8696 46.4277 39.7427 45.9816 40.4687H45.9752Z" fill="#EA3467"/>
<path opacity="0.1" d="M65.8199 137.134C75.7529 137.134 83.8053 136.087 83.8053 134.796C83.8053 133.505 75.7529 132.458 65.8199 132.458C55.8869 132.458 47.8346 133.505 47.8346 134.796C47.8346 136.087 55.8869 137.134 65.8199 137.134Z" fill="#EA3467"/>
<path opacity="0.1" d="M29.4912 135.549C32.5086 135.549 34.9547 135.131 34.9547 134.616C34.9547 134.1 32.5086 133.682 29.4912 133.682C26.4738 133.682 24.0277 134.1 24.0277 134.616C24.0277 135.131 26.4738 135.549 29.4912 135.549Z" fill="#EA3467"/>
<path d="M30.6781 124.217C30.6781 124.217 31.5634 125.375 30.2685 127.116C28.9736 128.856 27.906 130.336 28.3334 131.426C28.3334 131.426 30.2862 128.182 31.8811 128.136C33.476 128.091 32.4294 126.169 30.6781 124.217Z" fill="#EA3467"/>
<path opacity="0.1" d="M30.6782 124.217C30.7555 124.329 30.8163 124.452 30.8588 124.581C32.4101 126.401 33.2373 128.099 31.7457 128.141C30.3572 128.182 28.6898 130.661 28.2915 131.287C28.3047 131.336 28.3203 131.384 28.3383 131.431C28.3383 131.431 30.2911 128.186 31.886 128.141C33.4808 128.096 32.4294 126.169 30.6782 124.217Z" fill="black"/>
<path d="M32.3246 125.692C32.3246 126.1 32.2794 126.43 32.223 126.43C32.1665 126.43 32.1198 126.108 32.1198 125.692C32.1198 125.277 32.1778 125.477 32.2342 125.477C32.2907 125.477 32.3246 125.285 32.3246 125.692Z" fill="#FFD037"/>
<path d="M32.8906 126.179C32.5326 126.373 32.2198 126.491 32.1924 126.441C32.1649 126.391 32.4342 126.193 32.7922 125.998C33.1502 125.803 33.0083 125.945 33.0357 125.998C33.0632 126.051 33.2486 125.984 32.8906 126.179Z" fill="#FFD037"/>
<path d="M25.9983 124.217C25.9983 124.217 25.113 125.375 26.4079 127.116C27.7028 128.856 28.7704 130.336 28.343 131.426C28.343 131.426 26.3902 128.182 24.7953 128.136C23.2004 128.091 24.2502 126.169 25.9983 124.217Z" fill="#EA3467"/>
<path opacity="0.1" d="M25.9983 124.217C25.9209 124.329 25.8601 124.452 25.8177 124.581C24.2663 126.401 23.4391 128.099 24.9307 128.141C26.3208 128.182 27.9866 130.661 28.3849 131.287C28.3725 131.336 28.3569 131.384 28.3381 131.431C28.3381 131.431 26.3853 128.186 24.7904 128.141C23.1956 128.096 24.2502 126.169 25.9983 124.217Z" fill="black"/>
<path d="M24.3518 125.692C24.3518 126.1 24.397 126.43 24.4534 126.43C24.5098 126.43 24.5566 126.108 24.5566 125.692C24.5566 125.277 24.4985 125.477 24.4421 125.477C24.3857 125.477 24.3518 125.285 24.3518 125.692Z" fill="#FFD037"/>
<path d="M23.7874 126.179C24.1454 126.373 24.4567 126.491 24.4841 126.441C24.5115 126.391 24.2422 126.193 23.8842 125.998C23.5262 125.803 23.6681 125.945 23.6407 125.998C23.6133 126.051 23.4294 125.984 23.7874 126.179Z" fill="#FFD037"/>
<path d="M24.634 131.279C24.634 131.279 27.111 131.202 27.8592 130.672C28.6075 130.143 31.6682 129.507 31.8536 130.358C32.0391 131.21 35.5755 134.591 32.7793 134.614C29.983 134.636 26.2821 134.179 25.5371 133.727C24.7921 133.274 24.634 131.279 24.634 131.279Z" fill="#A8A8A8"/>
<path opacity="0.2" d="M32.8277 134.318C30.0314 134.34 26.3305 133.883 25.5855 133.43C25.0178 133.084 24.7921 131.846 24.7163 131.276H24.634C24.634 131.276 24.7953 133.269 25.5355 133.723C26.2757 134.178 29.9814 134.633 32.7777 134.611C33.584 134.611 33.8646 134.318 33.8484 133.893C33.7372 134.153 33.4292 134.313 32.8277 134.318Z" fill="black"/>
<path d="M107.351 131.184C107.351 131.184 100.533 130.774 101.337 135.545C101.337 135.545 101.176 136.387 101.942 136.77C101.942 136.77 101.955 136.417 102.642 136.536C102.886 136.578 103.135 136.589 103.382 136.572C103.717 136.55 104.035 136.419 104.288 136.198C104.288 136.198 106.204 135.409 106.949 132.281C106.949 132.281 107.501 131.598 107.48 131.423L106.328 131.906C106.328 131.906 106.722 132.735 106.412 133.424C106.412 133.424 106.375 131.936 106.154 131.975C106.109 131.975 105.556 132.262 105.556 132.262C105.556 132.262 106.233 133.711 105.717 134.754C105.717 134.754 105.911 132.983 105.34 132.366L104.534 132.838C104.534 132.838 105.324 134.329 104.788 135.546C104.788 135.546 104.925 133.68 104.364 132.952L103.63 133.524C103.63 133.524 104.372 134.994 103.919 136.003C103.919 136.003 103.861 133.831 103.471 133.667C103.471 133.667 102.826 134.232 102.731 134.472C102.731 134.472 103.239 135.538 102.924 136.102C102.924 136.102 102.731 134.653 102.571 134.653C102.571 134.653 101.926 135.619 101.865 136.263C101.865 136.263 101.894 135.285 102.416 134.554C102.047 134.625 101.707 134.801 101.437 135.062C101.437 135.062 101.537 134.384 102.566 134.324C102.566 134.324 103.095 133.596 103.237 133.553C103.237 133.553 102.205 133.466 101.579 133.743C101.579 133.743 102.129 133.099 103.426 133.393L104.15 132.804C104.15 132.804 102.792 132.617 102.215 132.823C102.215 132.823 102.879 132.257 104.345 132.662L105.135 132.192C105.135 132.192 103.976 131.943 103.285 132.031C103.285 132.031 104.014 131.638 105.366 132.064L105.93 131.811C105.93 131.811 105.08 131.65 104.832 131.619C104.584 131.589 104.571 131.524 104.571 131.524C105.108 131.435 105.661 131.496 106.166 131.701C106.166 131.701 107.372 131.26 107.351 131.184Z" fill="#EA3467"/>
<path opacity="0.1" d="M102.655 138C105.32 138 107.48 137.635 107.48 137.185C107.48 136.735 105.32 136.371 102.655 136.371C99.9901 136.371 97.83 136.735 97.83 137.185C97.83 137.635 99.9901 138 102.655 138Z" fill="#EA3467"/>
<path d="M95.4063 131.439C95.4063 131.439 91.5619 131.207 92.0198 133.897C91.9967 134.034 92.0173 134.174 92.0787 134.298C92.1401 134.422 92.2391 134.524 92.3617 134.588C92.3617 134.588 92.3617 134.389 92.7568 134.456C92.8943 134.478 93.0338 134.485 93.1728 134.477C93.3615 134.463 93.5407 134.389 93.684 134.266C93.684 134.266 94.7645 133.82 95.1853 132.057C95.1853 132.057 95.495 131.672 95.4837 131.574L94.8386 131.849C94.8386 131.849 95.0596 132.318 94.8854 132.706C94.8854 132.706 94.8644 131.867 94.7403 131.886C94.7145 131.886 94.4032 132.047 94.4032 132.047C94.4032 132.047 94.7838 132.852 94.4968 133.453C94.4968 133.453 94.6048 132.45 94.2839 132.105L93.8275 132.373C93.8275 132.373 94.2726 133.213 93.9711 133.899C93.9711 133.899 94.0485 132.846 93.7308 132.437L93.318 132.759C93.318 132.759 93.7356 133.588 93.4792 134.157C93.4792 134.157 93.4454 132.931 93.226 132.84C93.069 132.972 92.9288 133.123 92.8084 133.289C92.8084 133.289 93.0954 133.891 92.918 134.208C92.918 134.208 92.8084 133.392 92.7197 133.389C92.7197 133.389 92.3585 133.93 92.3214 134.3C92.3377 133.956 92.4445 133.623 92.631 133.334C92.4233 133.373 92.2315 133.472 92.0795 133.619C92.0795 133.619 92.1359 133.236 92.7245 133.203C92.7245 133.203 93.0212 132.793 93.1019 132.769C93.1019 132.769 92.5197 132.719 92.1666 132.875C92.1666 132.875 92.4778 132.514 93.2083 132.679L93.6163 132.345C93.6163 132.345 92.8503 132.241 92.5262 132.357C92.5262 132.357 92.9003 132.034 93.7276 132.27L94.171 132.006C93.8293 131.93 93.479 131.9 93.1293 131.915C93.1293 131.915 93.5405 131.695 94.3016 131.933L94.6242 131.791C94.6242 131.791 94.1404 131.696 94.0065 131.682C93.8727 131.667 93.8582 131.629 93.8582 131.629C94.1616 131.578 94.4731 131.613 94.758 131.729C94.758 131.729 95.4176 131.482 95.4063 131.439Z" fill="#EA3467"/>
<path opacity="0.1" d="M92.7583 135.282C94.2608 135.282 95.4788 135.077 95.4788 134.823C95.4788 134.57 94.2608 134.364 92.7583 134.364C91.2558 134.364 90.0378 134.57 90.0378 134.823C90.0378 135.077 91.2558 135.282 92.7583 135.282Z" fill="#EA3467"/>
<path d="M102.723 125.737C102.723 125.737 98.0832 125.457 98.6299 128.705C98.6018 128.87 98.6266 129.039 98.7007 129.189C98.7749 129.339 98.8946 129.461 99.0427 129.539C99.0427 129.539 99.0427 129.299 99.5184 129.378C99.6847 129.404 99.8534 129.412 100.022 129.402C100.249 129.386 100.466 129.297 100.639 129.148C100.639 129.148 101.944 128.61 102.45 126.48C102.45 126.48 102.826 126.016 102.811 125.897L102.028 126.23C102.028 126.23 102.295 126.795 102.086 127.264C102.086 127.264 102.06 126.251 101.908 126.275C101.879 126.275 101.502 126.47 101.502 126.47C101.502 126.47 101.963 127.454 101.615 128.167C101.615 128.167 101.747 126.956 101.358 126.541L100.807 126.863C100.807 126.863 101.345 127.877 100.981 128.706C100.981 128.706 101.075 127.436 100.691 126.935L100.191 127.323C100.191 127.323 100.697 128.323 100.389 129.011C100.389 129.011 100.349 127.533 100.083 127.42C100.083 127.42 99.6458 127.805 99.5797 127.963C99.5797 127.963 99.9264 128.689 99.7103 129.072C99.7103 129.072 99.5797 128.088 99.4716 128.083C99.4716 128.083 99.0362 128.727 98.9879 129.183C99.0087 128.77 99.1377 128.369 99.362 128.021C99.1111 128.068 98.8796 128.188 98.696 128.365C98.696 128.365 98.7637 127.903 99.47 127.863C99.47 127.863 99.8296 127.368 99.9264 127.338C99.9264 127.338 99.2233 127.28 98.7976 127.468C98.7976 127.468 99.1717 127.032 100.055 127.23L100.549 126.829C100.549 126.829 99.6232 126.702 99.2314 126.842C99.2314 126.842 99.6829 126.457 100.683 126.737L101.22 126.415C101.22 126.415 100.431 126.254 99.9619 126.307C99.9619 126.307 100.457 126.04 101.378 126.328L101.762 126.158C101.762 126.158 101.183 126.043 101.013 126.026C100.844 126.008 100.836 125.961 100.836 125.961C101.202 125.9 101.578 125.942 101.921 126.082C101.921 126.082 102.739 125.789 102.723 125.737Z" fill="#EA3467"/>
<path opacity="0.1" d="M99.528 130.376C101.342 130.376 102.813 130.128 102.813 129.822C102.813 129.516 101.342 129.268 99.528 129.268C97.7138 129.268 96.2432 129.516 96.2432 129.822C96.2432 130.128 97.7138 130.376 99.528 130.376Z" fill="#EA3467"/>
<path d="M175.467 94.1388V15.3831H22.0522V89.6208C24.0116 91.2534 26.3676 92.6269 28.8252 93.7555C30.0357 94.3127 31.272 94.822 32.5341 95.2836H173.637L175.467 94.1388Z" fill="url(#paint0_linear)"/>
<path d="M175.17 94.171V17.6372H22.3877V89.7866C24.3389 91.3742 26.6853 92.709 29.1284 93.8119C30.3346 94.3486 31.5666 94.8434 32.8244 95.2964H173.343L175.17 94.171Z" fill="white"/>
<path d="M175.17 15.6068H22.3893V19.6546H175.17V15.6068Z" fill="#5A5773"/>
<path d="M25.4404 18.6774C26.0193 18.6774 26.4886 18.2088 26.4886 17.6308C26.4886 17.0528 26.0193 16.5842 25.4404 16.5842C24.8615 16.5842 24.3922 17.0528 24.3922 17.6308C24.3922 18.2088 24.8615 18.6774 25.4404 18.6774Z" fill="white"/>
<path d="M28.2624 18.6774C28.8413 18.6774 29.3106 18.2088 29.3106 17.6308C29.3106 17.0528 28.8413 16.5842 28.2624 16.5842C27.6835 16.5842 27.2142 17.0528 27.2142 17.6308C27.2142 18.2088 27.6835 18.6774 28.2624 18.6774Z" fill="white"/>
<path d="M31.0846 18.6774C31.6635 18.6774 32.1328 18.2088 32.1328 17.6308C32.1328 17.0528 31.6635 16.5842 31.0846 16.5842C30.5057 16.5842 30.0364 17.0528 30.0364 17.6308C30.0364 18.2088 30.5057 18.6774 31.0846 18.6774Z" fill="white"/>
<path d="M86.6691 28.5507H61.4319V44.3846H86.6691V28.5507Z" fill="#EA3467"/>
<path opacity="0.2" d="M51.7257 28.5507H26.4885V44.3846H51.7257V28.5507Z" fill="#5A5773"/>
<path opacity="0.2" d="M121.613 28.5507H96.3754V44.3846H121.613V28.5507Z" fill="#5A5773"/>
<path opacity="0.2" d="M51.7257 51.1873H26.4885V67.0212H51.7257V51.1873Z" fill="#5A5773"/>
<path opacity="0.2" d="M86.6691 51.1873H61.4319V67.0212H86.6691V51.1873Z" fill="#5A5773"/>
<path opacity="0.2" d="M121.613 51.1873H96.3754V67.0212H121.613V51.1873Z" fill="#5A5773"/>
<path opacity="0.2" d="M51.7257 73.8224H26.4885V89.6563H51.7257V73.8224Z" fill="#5A5773"/>
<path opacity="0.2" d="M86.6691 73.8224H61.4319V89.6563H86.6691V73.8224Z" fill="#5A5773"/>
<path opacity="0.2" d="M121.613 73.8224H96.3754V89.6563H121.613V73.8224Z" fill="#5A5773"/>
<path d="M80.4849 42.4201L78.7433 43.0351L78.1111 41.9885C77.6274 41.1835 76.9565 40.0822 76.4614 39.2819C75.5874 37.8747 76.7308 35.73 76.7308 35.73C76.7308 35.73 76.9372 33.5773 77.6725 32.9139C78.4079 32.2506 78.6127 35.73 78.6127 35.73C81.5653 37.0696 79.9834 40.2206 79.9834 40.2206L80.2704 41.4701L80.4849 42.4201Z" fill="#EFB7B9"/>
<path opacity="0.1" d="M80.4849 42.4201L78.7433 43.0351L78.1112 41.9885V41.8968C78.1112 41.8968 79.1094 41.2125 80.2737 41.4701L80.4849 42.4201Z" fill="black"/>
<path d="M77.6725 49.4724L78.5449 48.735L78.1079 42.0981C78.1079 42.0981 80.3655 40.5556 82.0362 42.9692C82.0362 42.9692 81.9685 44.444 82.0362 44.8466C82.1039 45.2491 81.5669 45.6516 82.0362 46.0525C82.5054 46.4535 82.0362 47.7963 82.0362 47.7963C82.0362 47.7963 82.5667 48.735 82.9021 49.0023C83.2376 49.2696 83.5746 51.4835 82.9021 51.952C82.2297 52.4206 80.9686 53.4945 80.9686 53.9631C80.9686 54.4316 79.356 55.5732 79.356 55.5732L77.9402 53.7038L77.6725 49.4724Z" fill="#FF6484"/>
<path d="M58.8051 89.7608C55.5509 88.3825 56.2734 85.0158 56.8862 83.3203C57.0086 82.9768 57.1524 82.6413 57.3167 82.3156L59.1422 81.2095C59.1422 81.2095 59.5147 82.1578 59.913 83.4298C60.837 86.3892 61.8997 91.073 58.8051 89.7608Z" fill="#EFB7B9"/>
<path d="M63.2784 120.48C63.0581 120.909 62.8955 121.365 62.7947 121.836C62.6336 122.594 62.5632 123.369 62.585 124.143C62.5979 124.679 62.6431 125.03 62.6431 125.03L59.0179 127.52C59.0179 127.52 59.0389 127.228 59.0744 126.8C59.1679 125.66 59.363 123.544 59.5469 123.271C59.6743 123.081 59.763 122.317 59.8194 121.609C59.8758 120.9 59.8984 120.279 59.8984 120.279C59.8984 120.279 64.2605 118.646 63.2784 120.48Z" fill="#EFB7B9"/>
<path d="M71.8397 122.266C71.8397 122.266 71.8397 122.958 71.8139 123.763C71.7881 124.568 71.7398 125.518 71.6382 125.961C71.5446 126.367 71.5382 127.112 71.5559 127.8C71.5801 128.605 71.6382 129.329 71.6382 129.329C71.6382 129.329 67.9373 125.835 68.3146 125.559C68.4162 125.484 68.5162 125.187 68.6081 124.79C68.721 124.307 68.8226 123.663 68.8984 123.116C68.9887 122.464 69.0451 121.939 69.0451 121.939L71.8397 122.266Z" fill="#EFB7B9"/>
<path opacity="0.1" d="M63.2785 120.48C63.0582 120.909 62.8955 121.365 62.7947 121.836C61.8024 121.81 60.8121 121.734 59.8275 121.609C59.8823 120.917 59.9065 120.279 59.9065 120.279C59.9065 120.279 64.2605 118.646 63.2785 120.48Z" fill="black"/>
<path opacity="0.1" d="M71.8398 122.266C71.8398 122.266 71.8398 122.958 71.814 123.763C70.6594 124.058 69.4725 123.469 68.8984 123.119C68.9887 122.467 69.0452 121.942 69.0452 121.942L71.8398 122.266Z" fill="black"/>
<path d="M79.4173 88.0186C77.9402 91.2389 77.3355 95.0581 77.3355 95.0581L76.7985 98.2783C76.7985 98.2783 77.0678 99.6855 76.7985 100.222C76.5292 100.758 75.9922 101.631 75.9922 101.631C75.9922 101.631 76.3953 104.915 75.9922 105.25C75.589 105.585 75.9922 107.596 75.9922 107.596L74.6489 114.359L72.7686 123.072C70.956 124.549 68.5436 122.672 68.5436 122.672L69.0757 116.973C69.0757 116.973 69.882 106.991 69.5466 106.582C69.2112 106.173 69.6805 104.906 69.6805 104.906C69.6805 104.906 70.1514 103.698 69.8159 103.229C69.4805 102.761 69.882 101.755 69.882 101.755C69.882 101.755 69.7482 97.6648 70.1514 96.7261C70.5545 95.7874 70.1514 89.9814 70.1514 89.9814L69.9901 88.1732L69.8966 87.1717L69.8885 87.0735C69.8885 87.0735 69.8272 87.4744 69.7272 88.0959C69.4305 89.9878 68.7984 93.9084 68.5484 94.7151C68.3785 95.2964 68.1477 95.8582 67.8598 96.3912C67.8598 96.3912 68.2082 98.4023 67.8598 98.9384C67.5115 99.4746 67.8066 100.078 67.8066 100.078C67.8066 100.078 68.1421 101.755 67.1342 102.424C66.1263 103.094 67.1342 103.431 67.1342 103.431C67.1342 103.431 66.3956 105.041 66.1279 105.709C65.8602 106.377 66.1279 107.319 66.1279 107.319L65.5909 112.748C65.5909 112.748 65.12 115.027 65.1878 116.569C65.2555 118.112 64.583 121.664 64.583 121.664C64.583 121.664 59.4131 121.664 58.6164 121.06C57.8198 120.456 59.9468 114.566 59.9468 114.566C59.9468 114.566 60.5515 104.242 60.4161 103.975C60.2806 103.708 60.4161 101.695 60.887 101.294C61.3578 100.893 60.887 100.086 60.887 100.086C60.887 100.086 60.7531 98.4763 60.887 98.0754C61.0208 97.6745 60.866 96.3317 60.866 96.3317C60.866 96.3317 60.4161 93.047 60.35 91.1696C60.2839 89.2922 59.9468 85.0705 59.9468 85.0705C59.9468 85.0705 60.2984 82.4589 60.3516 81.2159C60.3709 80.7586 60.5757 80.187 60.8354 79.6492C61.126 79.042 61.4601 78.4566 61.8352 77.8974C61.8352 77.8974 77.7435 73.2023 78.4111 73.6693C78.5885 73.7932 78.8465 74.6353 79.1013 75.8542C79.8108 79.2596 80.5042 85.6517 79.4173 88.0186Z" fill="#444053"/>
<path d="M69.616 47.0459C72.1748 47.0459 74.249 44.9748 74.249 42.4201C74.249 39.8653 72.1748 37.7942 69.616 37.7942C67.0573 37.7942 64.983 39.8653 64.983 42.4201C64.983 44.9748 67.0573 47.0459 69.616 47.0459Z" fill="#A1616A"/>
<path opacity="0.1" d="M79.1013 75.8574C78.5675 76.1311 78.2095 76.3195 78.2095 76.3195C78.2095 76.3195 70.69 79.873 68.5516 79.6718C66.8971 79.5108 62.6737 79.6025 60.8337 79.6476C61.1243 79.0404 61.4585 78.455 61.8335 77.8958C61.8335 77.8958 77.7435 73.2023 78.4111 73.6693C78.5885 73.7965 78.8465 74.6353 79.1013 75.8574Z" fill="black"/>
<path d="M66.3924 49.8074C66.3924 49.8074 62.1013 50.4836 61.0886 51.147C60.0758 51.8103 58.0698 53.092 58.0698 55.8405C58.0698 58.5889 57.6005 61.405 57.3312 62.2085C57.0619 63.0119 61.5611 69.5152 61.5611 69.5152L59.9485 79.3707C59.9485 79.3707 66.3989 79.1695 68.5468 79.3707C70.6948 79.572 78.2112 76.0185 78.2112 76.0185C78.2112 76.0185 82.6426 73.6725 83.5827 73.6033C84.5229 73.534 81.7024 68.4412 81.7024 68.4412C81.7024 68.4412 77.3371 60.1974 78.0757 58.8562C78.8143 57.515 79.3561 55.5716 79.3561 55.5716L78.5498 48.735C78.5498 48.735 77.342 48.3325 76.3341 49.0699C75.3262 49.8074 71.9027 49.4048 71.9027 49.4048L66.3924 49.8074Z" fill="#FF6484"/>
<path opacity="0.1" d="M59.1083 61.7399L57.4247 62.2084L56.9587 68.5169C56.9587 68.5169 57.5634 70.193 56.9587 70.7292C56.3539 71.2653 56.2201 82.7294 56.2201 82.7294C56.2201 82.7294 58.1681 84.1366 60.4499 83.0643C60.4499 83.0643 60.1145 81.7907 61.1224 77.1648C62.1303 72.539 62.1287 70.193 62.1287 70.193C62.1287 70.193 62.1286 64.4272 62.5995 63.4885C63.0704 62.5498 62.5995 60.2038 62.5995 60.2038C62.5995 60.2038 61.6594 58.9302 61.7255 58.4617C61.7916 57.9931 59.1083 61.7399 59.1083 61.7399Z" fill="black"/>
<path opacity="0.1" d="M59.913 83.4347C58.9243 83.7671 57.8481 83.7282 56.8861 83.3252C57.0086 82.9817 57.1524 82.6462 57.3167 82.3205L59.1421 81.2144C59.1421 81.2144 59.5211 82.1627 59.913 83.4347Z" fill="black"/>
<path d="M59.0067 61.7399L57.328 62.2085L56.8587 68.5169C56.8587 68.5169 57.4634 70.193 56.8587 70.7292C56.254 71.2654 56.1201 82.7294 56.1201 82.7294C56.1201 82.7294 58.0698 84.135 60.35 83.0579C60.35 83.0579 60.0146 81.7843 61.0208 77.1584C62.0271 72.5325 62.0287 70.1866 62.0287 70.1866C62.0287 70.1866 62.0287 64.4208 62.498 63.4821C62.9672 62.5434 62.498 60.1974 62.498 60.1974C62.498 60.1974 61.5578 58.9238 61.6255 58.4553C61.6933 57.9867 59.0067 61.7399 59.0067 61.7399Z" fill="#FF6484"/>
<path opacity="0.1" d="M76.1954 62.7446C76.1954 62.7446 75.323 70.2526 72.7703 71.6614C72.7703 71.6614 78.4772 70.0529 76.1954 62.7446Z" fill="black"/>
<path opacity="0.1" d="M63.3719 63.416C63.3719 63.416 66.5262 64.9569 65.7908 66.0292C65.0555 67.1016 63.3719 63.416 63.3719 63.416Z" fill="black"/>
<path opacity="0.1" d="M63.3719 66.4994C63.3719 66.4994 65.3861 68.578 64.9845 69.3155C64.583 70.0529 63.3719 66.4994 63.3719 66.4994Z" fill="black"/>
<path opacity="0.1" d="M79.6189 49.2711C79.6189 49.2711 80.4091 50.6107 80.4848 51.4834C80.5606 52.3561 79.6189 49.2711 79.6189 49.2711Z" fill="black"/>
<path opacity="0.1" d="M79.6189 47.4615C79.6189 47.4615 80.0156 47.1249 81.0283 47.4615C82.041 47.798 79.6189 47.4615 79.6189 47.4615Z" fill="black"/>
<path opacity="0.1" d="M75.7422 86.6437C74.0787 86.8793 72.3823 86.6624 70.8319 86.0158L69.9853 88.1797L69.8917 87.1783C70.0304 86.3378 70.2997 85.4377 70.8319 85.2107C70.8319 85.2107 72.696 86.6936 75.7422 86.6437Z" fill="black"/>
<path opacity="0.1" d="M61.969 89.4597C61.969 89.4597 66.0989 90.3147 67.2567 90.1633L61.969 89.4597Z" fill="black"/>
<path opacity="0.1" d="M62.3979 90.5402C62.3979 90.5402 64.1605 90.4645 65.041 90.8171L62.3979 90.5402Z" fill="black"/>
<path opacity="0.1" d="M62.5996 91.2695C63.4038 91.4401 64.2201 91.5478 65.0411 91.5916L62.5996 91.2695Z" fill="black"/>
<path opacity="0.1" d="M62.4979 100.496C62.5737 100.446 66.0231 99.6406 66.452 100.219L62.4979 100.496Z" fill="black"/>
<path opacity="0.1" d="M62.4979 101.552C62.4979 101.552 65.4941 101.199 65.5699 101.552C65.6457 101.904 62.4979 101.552 62.4979 101.552Z" fill="black"/>
<path opacity="0.1" d="M62.4979 102.507C62.4979 102.507 65.6957 101.846 66.0731 102.007C66.4504 102.168 62.4979 102.507 62.4979 102.507Z" fill="black"/>
<path opacity="0.1" d="M62.6495 125.032L59.0244 127.521C59.0244 127.521 59.0454 127.23 59.0809 126.802C59.8872 124.821 60.937 123.776 60.937 123.776C61.7545 123.564 62.2706 123.76 62.5915 124.145C62.6044 124.679 62.6495 125.032 62.6495 125.032Z" fill="black"/>
<path d="M63.0027 127.268C62.4904 128.435 62.2326 129.698 62.2464 130.972C62.2668 132.016 62.0014 133.047 61.4788 133.952C61.4032 134.08 61.318 134.201 61.224 134.316C61.224 134.316 58.7051 134.295 57.823 133.566C57.7239 133.487 57.6431 133.388 57.586 133.276C57.0813 132.271 58.5681 128.425 58.5681 128.425C59.3486 125.459 60.9338 123.874 60.9338 123.874C63.7574 123.145 63.0027 127.268 63.0027 127.268Z" fill="#444053"/>
<path opacity="0.1" d="M61.4788 133.944C61.4032 134.072 61.318 134.193 61.224 134.308C61.224 134.308 58.7051 134.287 57.823 133.558C58.2568 132.125 59.6404 127.789 60.2887 128.526C60.8982 129.218 61.3223 132.55 61.4788 133.944Z" fill="black"/>
<path d="M61.1337 128.795L60.9579 135.29H61.8029C61.8029 135.29 61.94 129.592 62.3173 128.795C62.6947 127.998 61.1337 128.795 61.1337 128.795Z" fill="#444053"/>
<path opacity="0.1" d="M71.6382 129.33C71.6382 129.33 67.9373 125.836 68.3146 125.559C68.4162 125.485 68.5162 125.187 68.6081 124.791C69.3193 124.667 70.5432 124.963 71.5559 127.8C71.5801 128.605 71.6382 129.33 71.6382 129.33Z" fill="black"/>
<path d="M72.1913 133.226C72.1629 133.238 72.1331 133.247 72.1026 133.252C71.6672 133.327 70.0627 133.284 69.1645 133.252C68.9999 133.246 68.8439 133.177 68.7293 133.059C68.6146 132.941 68.5504 132.783 68.5501 132.619C68.5501 132.377 68.5501 132.083 68.5307 131.769C68.4888 130.777 68.3695 129.597 68.0131 129.331C67.3825 128.848 66.8843 127.209 68.0131 125.134C68.0131 125.134 70.1772 123.483 71.7382 128.444C71.7382 128.444 71.8898 129.859 72.5687 130.362C73.2476 130.864 72.4945 133.083 72.1913 133.226Z" fill="#444053"/>
<path opacity="0.1" d="M72.0994 133.252C71.664 133.327 70.0594 133.284 69.1612 133.252C68.9966 133.246 68.8406 133.177 68.726 133.059C68.6114 132.941 68.5471 132.783 68.5468 132.619C68.5468 132.377 68.5468 132.083 68.5275 131.769C68.8 130.568 69.1919 129.331 69.6966 129.049C69.6998 129.048 71.227 128.875 72.0994 133.252Z" fill="black"/>
<path d="M68.2872 128.903L68.6936 134.308H69.2096V128.442L68.2872 128.903Z" fill="#444053"/>
<path opacity="0.1" d="M69.5482 35.049C68.0854 35.1577 66.6693 35.6119 65.4167 36.3741C65.0942 36.5689 64.7717 36.8056 64.6378 37.155C64.5217 37.4577 64.5701 37.7991 64.575 38.1211C64.6185 40.8937 61.5223 42.9917 61.6191 45.7627C61.6578 46.8624 62.2109 47.8865 62.3125 48.9829C62.4818 50.812 61.3981 52.4946 60.3596 54.0097C61.4295 54.0747 62.4835 53.7259 63.3026 53.0356C64.3984 56.6826 64.54 60.5491 63.7138 64.2662H65.199C65.3457 64.2555 65.4931 64.2736 65.6328 64.3193C65.7632 64.3811 65.8799 64.4681 65.9763 64.5753C67.3647 65.9552 68.2952 67.9952 67.7647 69.8791L70.9254 68.6956C71.6817 68.4122 72.4493 68.124 73.1072 67.6571C73.7652 67.1902 74.3167 66.5123 74.4553 65.7169C74.5408 65.2339 74.5134 64.6574 74.9117 64.3773C75.1079 64.2731 75.3173 64.1956 75.5342 64.147C76.4018 63.8411 76.7856 62.8396 76.9629 61.938C77.1789 60.8317 77.2467 59.7017 77.1645 58.5776C77.0242 56.6938 76.4663 54.781 76.9258 52.9422C77.1855 51.9101 77.7628 50.9489 77.8096 49.883C77.8853 48.1264 76.5098 46.6128 76.305 44.8659C76.1615 43.6486 76.6017 42.4169 76.4582 41.1996C76.3785 40.5714 76.1483 39.9715 75.787 39.451C75.4257 38.9305 74.944 38.5047 74.3828 38.2096C73.9941 38.01 73.5765 37.8764 73.1927 37.6558C72.317 37.1486 71.7575 36.2356 70.9625 35.6077C70.1674 34.9797 68.8435 34.7431 68.2452 35.5594L69.5482 35.049Z" fill="black"/>
<path d="M69.5482 34.8477C68.0854 34.9565 66.6693 35.4106 65.4167 36.1729C65.0942 36.3677 64.7717 36.6044 64.6378 36.9538C64.5217 37.2565 64.5701 37.5978 64.575 37.9198C64.6185 40.6925 61.5223 42.7904 61.6191 45.5631C61.6578 46.6612 62.2109 47.6852 62.3125 48.7833C62.4818 50.6124 61.3981 52.295 60.3596 53.8117C61.4292 53.8744 62.4823 53.5258 63.3026 52.8376C64.3982 56.4835 64.5398 60.3489 63.7138 64.0649H65.199C65.3458 64.0548 65.4932 64.0734 65.6328 64.1197C65.7634 64.1803 65.8803 64.2669 65.9763 64.3741C67.3648 65.7556 68.2952 67.794 67.7647 69.6778L70.9254 68.4944C71.6817 68.211 72.4493 67.9228 73.1072 67.4558C73.7652 66.9889 74.3167 66.3111 74.4554 65.5157C74.5408 65.0326 74.5134 64.4562 74.9117 64.176C75.108 64.0718 75.3173 63.9944 75.5342 63.9458C76.4018 63.6399 76.7856 62.6384 76.963 61.7367C77.1809 60.6296 77.2503 59.4985 77.1694 58.3732C77.0291 56.4893 76.4711 54.5765 76.9307 52.7378C77.1903 51.7057 77.7676 50.7444 77.8144 49.6785C77.8902 47.9219 76.5147 46.4084 76.3099 44.6614C76.1663 43.4442 76.6066 42.214 76.4631 40.9952C76.3831 40.367 76.1528 39.7673 75.7915 39.2468C75.4302 38.7263 74.9487 38.3004 74.3876 38.0052C73.999 37.8055 73.5813 37.6719 73.1975 37.4529C72.3219 36.9441 71.7623 36.0312 70.9673 35.4032C70.1723 34.7753 68.8484 34.5386 68.2501 35.3549L69.5482 34.8477Z" fill="#925978"/>
<g opacity="0.1">
<path opacity="0.1" d="M64.5717 37.25C64.5652 37.312 64.562 37.3744 64.562 37.4368C64.5669 37.3756 64.5701 37.3128 64.5717 37.25Z" fill="black"/>
<path opacity="0.1" d="M76.2921 43.6953C76.3502 42.842 76.5404 41.9854 76.4695 41.1353C76.4163 41.9886 76.226 42.8452 76.2921 43.6953Z" fill="black"/>
<path opacity="0.1" d="M62.3125 47.938C62.219 46.9397 61.753 46.0058 61.6433 45.0092C61.6214 45.1918 61.6133 45.3759 61.6191 45.5598C61.6578 46.6466 62.198 47.6626 62.3077 48.7446C62.3343 48.4765 62.336 48.2064 62.3125 47.938Z" fill="black"/>
<path opacity="0.1" d="M76.9372 51.9037C76.7862 52.5589 76.7319 53.2326 76.7759 53.9035C76.792 53.5122 76.846 53.1234 76.9372 52.7426C77.1968 51.7105 77.7741 50.7492 77.8209 49.6833C77.8285 49.494 77.8199 49.3044 77.7951 49.1166C77.6693 50.0746 77.1678 50.9666 76.9372 51.9037Z" fill="black"/>
<path opacity="0.1" d="M63.3026 51.9906C62.63 52.5534 61.7975 52.8913 60.9224 52.9567C60.7386 53.2433 60.5483 53.5234 60.3596 53.8004C61.4292 53.8631 62.4823 53.5145 63.3026 52.8263C63.8917 54.7836 64.2075 56.8127 64.2411 58.8561C64.289 56.5328 63.9723 54.2162 63.3026 51.9906Z" fill="black"/>
<path opacity="0.1" d="M76.9678 60.893C76.7904 61.7947 76.4066 62.7961 75.539 63.1005C75.3219 63.1488 75.1124 63.2268 74.9166 63.3323C74.5183 63.6125 74.5457 64.1921 74.4602 64.6719C74.3215 65.4673 73.7716 66.1436 73.1121 66.6041C72.4525 67.0646 71.6865 67.3608 70.9302 67.6442L67.9147 68.7713C67.899 69.0735 67.8504 69.3732 67.7695 69.6649L70.9302 68.4815C71.6865 68.1981 72.4541 67.9099 73.1121 67.4429C73.77 66.976 74.3215 66.2982 74.4602 65.5028C74.5457 65.0197 74.5183 64.4433 74.9166 64.1631C75.1128 64.0589 75.3222 63.9815 75.539 63.9329C76.4066 63.627 76.7904 62.6255 76.9678 61.7238C77.1514 60.7855 77.2277 59.8294 77.1952 58.8739C77.1739 59.5519 77.0979 60.2272 76.9678 60.893Z" fill="black"/>
<path opacity="0.1" d="M65.9811 63.5256C65.8852 63.4179 65.7683 63.3308 65.6376 63.2696C65.4979 63.2239 65.3506 63.2053 65.2038 63.2148H63.8864C63.8348 63.495 63.7799 63.7752 63.7251 64.0537H65.2103C65.3571 64.0436 65.5044 64.0622 65.6441 64.1085C65.7747 64.1691 65.8916 64.2557 65.9876 64.3629C67.0035 65.374 67.7727 66.7362 67.905 68.1338C68.0678 66.4625 67.2002 64.7428 65.9811 63.5256Z" fill="black"/>
</g>
<path opacity="0.1" d="M58.6132 69.0128C58.6132 69.0128 59.8129 68.5105 60.0806 69.0128C60.3483 69.5152 58.6132 69.0128 58.6132 69.0128Z" fill="black"/>
<path opacity="0.1" d="M59.0374 69.8743C59.0374 69.8743 60.2371 69.3719 60.5064 69.8743C60.7757 70.3766 59.0374 69.8743 59.0374 69.8743Z" fill="black"/>
<path opacity="0.1" d="M133.396 4.86571C133.396 4.86571 127.26 4.497 127.984 8.78957C127.984 8.78957 127.84 9.54794 128.529 9.8925C128.529 9.8925 128.54 9.57048 129.158 9.68158C129.378 9.71853 129.601 9.72935 129.824 9.71378C130.124 9.69301 130.41 9.57485 130.637 9.37726C130.637 9.37726 132.361 8.6672 133.031 5.85272C133.031 5.85272 133.528 5.23765 133.515 5.07986L132.48 5.52264C132.48 5.52264 132.833 6.26813 132.554 6.88802C132.554 6.88802 132.522 5.5484 132.322 5.58061C132.282 5.58061 131.785 5.83822 131.785 5.83822C131.785 5.83822 132.393 7.13759 131.933 8.08273C131.933 8.08273 132.107 6.48227 131.595 5.93322L130.862 6.36634C130.862 6.36634 131.574 7.70757 131.091 8.80245C131.091 8.80245 131.216 7.1231 130.709 6.46939L130.048 6.98302C130.048 6.98302 130.717 8.29848 130.314 9.20659C130.314 9.20659 130.261 7.2503 129.909 7.10378C129.909 7.10378 129.332 7.61257 129.245 7.82189C129.245 7.82189 129.701 8.78796 129.418 9.2871C129.418 9.2871 129.243 7.98612 129.095 7.97968C129.095 7.97968 128.519 8.8427 128.46 9.42879C128.488 8.88191 128.658 8.35184 128.955 7.89112C128.623 7.95389 128.316 8.11293 128.074 8.3484C128.074 8.3484 128.163 7.73816 129.097 7.68342C129.097 7.68342 129.572 7.02971 129.7 6.98946C129.7 6.98946 128.771 6.91217 128.208 7.16174C128.208 7.16174 128.703 6.58532 129.871 6.83972L130.516 6.30838C130.516 6.30838 129.293 6.14737 128.774 6.32609C128.774 6.32609 129.371 5.81729 130.692 6.18762L131.401 5.76416C131.401 5.76416 130.359 5.53874 129.738 5.62086C129.738 5.62086 130.393 5.26824 131.609 5.64984L132.117 5.42281C132.117 5.42281 131.353 5.27307 131.13 5.24892C130.908 5.22477 130.895 5.16358 130.895 5.16358C131.378 5.08323 131.875 5.13898 132.328 5.3246C132.328 5.3246 133.414 4.93334 133.396 4.86571Z" fill="#EA3467"/>
<path opacity="0.1" d="M124.651 1.38464C124.651 1.38464 119.49 4.7192 122.62 7.74783C122.62 7.74783 122.954 8.4434 123.714 8.31459C123.714 8.31459 123.533 8.05053 124.096 7.77198C124.296 7.67168 124.482 7.54789 124.652 7.40327C124.882 7.2087 125.042 6.94478 125.109 6.65134C125.109 6.65134 126.076 5.05732 124.947 2.39419C124.947 2.39419 124.983 1.60523 124.873 1.4893L124.302 2.45537C124.302 2.45537 125.03 2.84663 125.173 3.51C125.173 3.51 124.352 2.45215 124.206 2.59545C124.177 2.62443 123.925 3.12196 123.925 3.12196C123.925 3.12196 125.188 3.80787 125.376 4.83996C125.376 4.83996 124.57 3.4472 123.827 3.31034L123.491 4.0832C123.491 4.0832 124.862 4.74335 125.123 5.91069C125.123 5.91069 124.225 4.48412 123.43 4.25709L123.204 5.06215C123.204 5.06215 124.527 5.73196 124.738 6.70447C124.738 6.70447 123.535 5.16198 123.164 5.25537C123.164 5.25537 123.003 6.00568 123.054 6.22144C123.054 6.22144 123.993 6.7238 124.064 7.30022C124.064 7.30022 123.151 6.35508 123.033 6.43397C123.033 6.43397 123.082 7.46928 123.383 7.9813C123.082 7.52415 122.905 6.99635 122.87 6.45008C122.64 6.69706 122.488 7.00611 122.432 7.33886C122.432 7.33886 122.142 6.79464 122.862 6.1989C122.862 6.1989 122.862 5.39384 122.935 5.28274C122.935 5.28274 122.142 5.76577 121.835 6.30355C121.835 6.30355 121.893 5.5468 122.988 5.06698L123.198 4.25387C123.198 4.25387 122.114 4.84318 121.806 5.29884C121.806 5.29884 121.985 4.53564 123.267 4.05261L123.59 3.29102C123.59 3.29102 122.622 3.72737 122.164 4.16049C122.164 4.16049 122.487 3.48746 123.69 3.07688L123.964 2.59384C123.964 2.59384 123.259 2.92553 123.066 3.03824C122.872 3.15094 122.825 3.10908 122.825 3.10908C123.167 2.75809 123.6 2.5089 124.075 2.38936C124.075 2.38936 124.706 1.42973 124.651 1.38464Z" fill="#EA3467"/>
<path opacity="0.1" d="M116.797 5.26986C116.797 5.26986 113.712 10.5833 117.878 11.8601C117.878 11.8601 118.492 12.3286 119.11 11.8601C119.11 11.8601 118.831 11.7087 119.205 11.2048C119.335 11.0249 119.443 10.8303 119.527 10.6251C119.644 10.3475 119.667 10.0395 119.594 9.7476C119.594 9.7476 119.731 7.88952 117.513 6.02662C117.513 6.02662 117.191 5.3085 117.03 5.25537L116.96 6.38245C116.96 6.38245 117.786 6.40178 118.216 6.92828C118.216 6.92828 117.004 6.35669 116.943 6.5483C116.93 6.58694 116.931 7.14404 116.931 7.14404C116.931 7.14404 118.381 7.18751 119.026 8.02155C119.026 8.02155 117.671 7.14726 116.951 7.3598L117.002 8.20028C117.002 8.20028 118.523 8.16808 119.286 9.09067C119.286 9.09067 117.834 8.22604 117.028 8.38383L117.189 9.20338C117.189 9.20338 118.673 9.20338 119.302 9.97302C119.302 9.97302 117.528 9.1422 117.239 9.38854C117.239 9.38854 117.434 10.1324 117.583 10.3047C117.583 10.3047 118.647 10.3272 118.973 10.8087C118.973 10.8087 117.729 10.3788 117.66 10.5044C117.66 10.5044 118.175 11.4044 118.676 11.7232C118.2 11.4539 117.803 11.0654 117.523 10.5961C117.43 10.9204 117.435 11.2646 117.536 11.5864C117.536 11.5864 117.03 11.2337 117.4 10.3755C117.4 10.3755 117.03 9.65743 117.051 9.52701C117.051 9.52701 116.567 10.3208 116.535 10.9343C116.535 10.9343 116.241 10.2339 116.999 9.31126L116.817 8.4901C116.817 8.4901 116.118 9.50608 116.051 10.0519C116.051 10.0519 115.864 9.29033 116.788 8.28078L116.726 7.45801C116.726 7.45801 116.059 8.28722 115.852 8.87814C115.852 8.87814 115.83 8.13426 116.718 7.22133L116.743 6.66584C116.743 6.66584 116.259 7.27929 116.144 7.47089C116.03 7.6625 115.962 7.63513 115.962 7.63513C116.107 7.16718 116.38 6.74862 116.749 6.42593C116.749 6.42593 116.865 5.28435 116.797 5.26986Z" fill="#EA3467"/>
<path d="M143.284 65.8393C142.828 65.8393 142.382 65.9744 142.002 66.2276C141.623 66.4808 141.327 66.8406 141.152 67.2616C140.978 67.6827 140.932 68.1459 141.021 68.5929C141.11 69.0398 141.33 69.4504 141.653 69.7726C141.975 70.0948 142.387 70.3143 142.834 70.4032C143.282 70.4921 143.746 70.4465 144.167 70.2721C144.589 70.0977 144.949 69.8024 145.203 69.4235C145.457 69.0446 145.592 68.5991 145.592 68.1434C145.59 67.5328 145.347 66.9478 144.914 66.516C144.482 66.0843 143.896 65.841 143.284 65.8393ZM136.537 47.7593V50.0634H138.845L142.999 58.465L141.262 61.2875C141.073 61.6213 140.973 61.9986 140.973 62.3824C140.973 63.9249 142.03 64.6865 143.462 64.6865H156.954V62.4709H143.744C143.705 62.4733 143.667 62.4674 143.631 62.4538C143.595 62.4401 143.562 62.419 143.535 62.3917C143.507 62.3645 143.486 62.3318 143.472 62.2957C143.459 62.2597 143.453 62.2212 143.455 62.1827C143.486 62.0831 143.527 61.987 143.578 61.8961L144.731 60.0783H153.328C153.743 60.0817 154.151 59.9706 154.507 59.7573C154.864 59.5439 155.154 59.2366 155.347 58.8691L159.502 51.7347C159.583 51.5535 159.623 51.3566 159.618 51.1582C159.617 51.01 159.585 50.8636 159.526 50.7276C159.467 50.5917 159.381 50.4691 159.273 50.367C159.165 50.2649 159.038 50.1854 158.899 50.1332C158.76 50.0811 158.612 50.0573 158.464 50.0634H141.385L140.288 47.7593H136.537ZM154.645 65.8393C154.189 65.8396 153.743 65.975 153.363 66.2284C152.984 66.4818 152.689 66.8417 152.514 67.2628C152.34 67.6838 152.294 68.147 152.384 68.5939C152.473 69.0407 152.693 69.4511 153.016 69.7732C153.338 70.0952 153.75 70.3145 154.197 70.4033C154.645 70.4921 155.109 70.4464 155.53 70.2719C155.952 70.0975 156.312 69.8022 156.566 69.4233C156.819 69.0444 156.954 68.599 156.954 68.1434C156.953 67.5325 156.709 66.9472 156.276 66.5155C155.843 66.0837 155.257 65.8406 154.645 65.8393Z" fill="#EA3467"/>
<path d="M151.692 54.1338H149.757V52.2017H148.306V54.1338H146.371V55.5829H148.306V57.515H149.757V55.5829H151.692V54.1338Z" fill="white"/>
</g>
<defs>
<linearGradient id="paint0_linear" x1="98.7588" y1="95.2836" x2="98.7588" y2="15.3831" gradientUnits="userSpaceOnUse">
<stop stop-color="#808080" stop-opacity="0.25"/>
<stop offset="0.54" stop-color="#808080" stop-opacity="0.12"/>
<stop offset="1" stop-color="#808080" stop-opacity="0.1"/>
</linearGradient>
<clipPath id="clip0">
<rect width="180" height="138" fill="white"/>
</clipPath>
</defs>
</svg>
