<svg width="169" height="136" viewBox="0 0 169 136" fill="none" xmlns="http://www.w3.org/2000/svg">
<path d="M85.5035 136C131.617 136 169 133.083 169 129.484C169 125.886 131.617 122.969 85.5035 122.969C39.3897 122.969 2.00708 125.886 2.00708 129.484C2.00708 133.083 39.3897 136 85.5035 136Z" fill="#3F3D56"/>
<path d="M156.429 117.38L157.212 123.112L151.734 123.634L152.516 116.599L156.429 117.38Z" fill="#A0616A"/>
<path d="M130.604 38.6925C130.604 38.6925 131.126 45.7275 131.126 45.9881C131.126 46.2486 127.474 64.227 127.474 64.227C127.474 64.227 122.256 74.1281 127.474 73.8675C132.691 73.607 131.126 64.4875 131.126 64.4875L136.604 49.3753L134.256 38.6925L130.604 38.6925Z" fill="#A0616A"/>
<path d="M139.213 117.38L138.43 123.112L143.908 123.634L143.125 116.599L139.213 117.38Z" fill="#A0616A"/>
<path d="M133.213 63.7059L131.908 65.5297C131.908 65.5297 131.126 73.3464 131.908 75.952C132.691 78.5575 134.256 90.5431 134.256 91.3247C134.256 92.1064 134.517 92.6275 134.256 92.8881C133.995 93.1486 133.213 93.1486 133.734 93.6697C134.256 94.1909 134.256 95.7542 134.256 95.7542V97.057L137.647 116.338C137.647 116.338 135.56 118.683 137.125 118.683C138.691 118.683 144.43 118.683 144.169 116.078L143.647 115.817C143.647 115.817 142.864 98.6203 143.125 97.8386C143.386 97.057 143.125 95.4936 143.125 95.4936C143.125 95.4936 142.603 94.712 143.125 94.4514C143.647 94.1908 143.647 92.1064 143.647 92.1064L145.995 76.2125C145.995 76.2125 148.082 86.8953 149.386 87.9375C150.69 88.9797 150.429 91.5853 150.429 91.5853L151.473 114.514C151.473 114.514 150.429 117.12 151.473 117.641C152.516 118.162 156.951 119.986 157.212 117.38C157.473 114.775 158.777 92.1064 158.777 91.0642C158.777 90.022 158.516 89.5008 158.777 88.7192C159.038 87.9375 158.516 87.9375 158.777 87.9375C159.038 87.9375 158.255 87.1558 158.255 86.6347V73.8675C158.255 73.8675 158.516 71.262 158.777 70.7409C159.038 70.2197 158.516 69.6986 158.777 68.917C159.038 68.1353 158.255 65.5297 158.255 65.5297L146.516 62.4031L133.213 63.7059Z" fill="#2F2E41"/>
<path d="M142.343 122.07C142.343 122.07 143.647 120.768 141.821 120.768C140.649 120.791 139.494 121.058 138.43 121.549L137.125 126.239C137.125 126.239 131.778 130.538 137.778 130.017C143.777 129.496 142.864 129.887 142.864 129.887C142.864 129.887 144.69 129.366 144.951 128.845C145.212 128.324 144.43 120.768 144.43 120.768C144.43 120.768 143.647 122.852 142.343 122.07Z" fill="#2F2E41"/>
<path d="M153.56 122.07C153.56 122.07 152.255 120.767 154.081 120.767C155.254 120.791 156.408 121.057 157.473 121.549L158.777 126.239C158.777 126.239 164.124 130.538 158.125 130.017C152.125 129.496 152.255 129.887 152.255 129.887C152.255 129.887 150.429 129.366 150.168 128.845C149.908 128.324 151.473 120.767 151.473 120.767C151.473 120.767 152.255 122.852 153.56 122.07Z" fill="#2F2E41"/>
<path d="M136.604 18.1086C140.35 18.1086 143.386 15.0756 143.386 11.3341C143.386 7.59271 140.35 4.55969 136.604 4.55969C132.858 4.55969 129.821 7.59271 129.821 11.3341C129.821 15.0756 132.858 18.1086 136.604 18.1086Z" fill="#A0616A"/>
<path d="M134.256 16.2847C134.256 16.2847 135.299 21.4959 135.299 22.2775C135.299 23.0592 139.734 25.4042 139.734 25.4042L144.69 19.1509C144.69 19.1509 141.56 14.7214 141.56 13.6792L134.256 16.2847Z" fill="#A0616A"/>
<path d="M138.169 23.0592C138.169 23.0592 135.895 22.4548 135.206 21.4542C135.206 21.4542 127.995 28.5309 127.995 29.8337L133.734 39.9953C133.734 39.9953 133.734 43.6431 134.256 43.9037C134.778 44.1642 134.256 43.9037 134.256 44.9459C134.256 45.9881 132.691 52.7626 133.213 53.8048C133.734 54.847 134.256 54.0654 133.734 55.6287C133.213 57.192 131.908 65.5298 131.908 65.5298C131.908 65.5298 136.604 63.9665 143.386 66.572C150.168 69.1776 158.255 65.5298 158.255 65.5298C158.255 65.5298 156.168 60.8398 156.69 59.2765C157.212 57.7131 155.386 54.847 155.386 54.847L154.081 30.8759C154.081 30.8759 155.907 20.1931 154.603 19.672L151.994 18.6298L143.641 17.6042C143.641 17.6042 141.56 22.7987 138.169 23.0592Z" fill="#D0CDE1"/>
<path d="M130.604 28.0098L127.995 29.8337C127.995 29.8337 126.691 33.742 127.995 35.5659C129.3 37.3898 129.821 39.9953 129.821 39.9953L135.039 39.4742L130.604 28.0098Z" fill="#D0CDE1"/>
<path d="M131.425 4.17474L130.249 3.70429C130.249 3.70429 132.709 0.999231 136.131 1.23446L135.169 0.175942C135.169 0.175942 137.522 -0.764941 139.661 1.70489C140.785 3.00323 142.086 4.52935 142.897 6.24852H144.157L143.631 7.40503L145.472 8.56154L143.583 8.3538C143.762 9.35225 143.701 10.3789 143.404 11.349L143.455 12.2631C143.455 12.2631 141.265 8.87919 141.265 8.40874V9.58486C141.265 9.58486 140.089 8.52635 140.089 7.82069L139.447 8.64397L139.126 7.35024L135.169 8.64397L135.811 7.58547L133.351 7.93831L134.313 6.64458C134.313 6.64458 131.532 8.17353 131.425 9.46727C131.319 10.761 129.928 12.4075 129.928 12.4075L129.286 11.2314C129.286 11.2314 128.324 5.93891 131.425 4.17474Z" fill="#2F2E41"/>
<path d="M132.998 56.7018H29.3379V129.435H132.998V56.7018Z" fill="#F2F2F2"/>
<path d="M64.0921 84.4529H38.0641V129.836H64.0921V84.4529Z" fill="#3F3D56"/>
<path d="M49.8898 87.1755H42.8785V93.7038H49.8898V87.1755Z" fill="#F2F2F2"/>
<path d="M59.2777 87.1755H52.2665V93.7038H59.2777V87.1755Z" fill="#F2F2F2"/>
<path d="M49.8898 96.0776H42.8785V102.843H49.8898V96.0776Z" fill="#F2F2F2"/>
<path d="M59.2777 96.0776H52.2665V102.843H59.2777V96.0776Z" fill="#F2F2F2"/>
<path d="M60.7822 111.853C61.6962 111.853 62.4371 111.113 62.4371 110.2C62.4371 109.287 61.6962 108.547 60.7822 108.547C59.8681 108.547 59.1272 109.287 59.1272 110.2C59.1272 111.113 59.8681 111.853 60.7822 111.853Z" fill="#EA3467"/>
<path d="M124.272 80.1448H72.8182V123.274H124.272V80.1448Z" fill="#3F3D56"/>
<path d="M143.831 70.3948H18.5055L26.8616 52.9447L28.7316 49.0376L31.1781 43.9282L33.0481 40.0211L35.216 35.4949H133.957L135.237 40.0211L136.343 43.9282L137.789 49.0376L138.895 52.9447L143.831 70.3948Z" fill="#3F3D56"/>
<path d="M76.4291 98.0276H74.6237V109.148H76.4291V98.0276Z" fill="#EA3467"/>
<path d="M76.4291 99.6805H74.6237V101.033H76.4291V99.6805Z" fill="#F2F2F2"/>
<path d="M76.4291 106.142H74.6237V107.495H76.4291V106.142Z" fill="#F2F2F2"/>
<path d="M81.6949 98.0276H77.3318V109.148H81.6949V98.0276Z" fill="#EA3467"/>
<path d="M81.6949 99.6805H77.3318V101.033H81.6949V99.6805Z" fill="#F2F2F2"/>
<path d="M81.6949 106.142H77.3318V107.495H81.6949V106.142Z" fill="#F2F2F2"/>
<path d="M84.5535 98.0276H82.748V109.148H84.5535V98.0276Z" fill="#EA3467"/>
<path d="M84.5535 99.6805H82.748V101.033H84.5535V99.6805Z" fill="#F2F2F2"/>
<path d="M84.5535 106.142H82.748V107.495H84.5535V106.142Z" fill="#F2F2F2"/>
<path d="M87.2616 98.0276H85.4562V109.148H87.2616V98.0276Z" fill="#EA3467"/>
<path d="M87.2616 99.6805H85.4562V101.033H87.2616V99.6805Z" fill="#F2F2F2"/>
<path d="M87.2616 106.142H85.4562V107.495H87.2616V106.142Z" fill="#F2F2F2"/>
<path d="M89.0013 98.0669L87.3119 98.703L91.2389 109.109L92.9283 108.473L89.0013 98.0669Z" fill="#EA3467"/>
<path d="M89.585 99.6137L87.8956 100.25L88.3732 101.515L90.0626 100.879L89.585 99.6137Z" fill="#F2F2F2"/>
<path d="M91.8669 105.66L90.1775 106.296L90.6551 107.562L92.3445 106.926L91.8669 105.66Z" fill="#F2F2F2"/>
<path d="M122.617 98.0276H118.254V109.148H122.617V98.0276Z" fill="#EA3467"/>
<path d="M122.617 99.6805H118.254V101.033H122.617V99.6805Z" fill="#F2F2F2"/>
<path d="M122.617 106.142H118.254V107.495H122.617V106.142Z" fill="#F2F2F2"/>
<path d="M117.201 98.0276H115.396V109.148H117.201V98.0276Z" fill="#EA3467"/>
<path d="M117.201 99.6805H115.396V101.033H117.201V99.6805Z" fill="#F2F2F2"/>
<path d="M117.201 106.142H115.396V107.495H117.201V106.142Z" fill="#F2F2F2"/>
<path d="M114.493 98.0276H112.688V109.148H114.493V98.0276Z" fill="#EA3467"/>
<path d="M114.493 99.6805H112.688V101.033H114.493V99.6805Z" fill="#F2F2F2"/>
<path d="M114.493 106.142H112.688V107.495H114.493V106.142Z" fill="#F2F2F2"/>
<path d="M110.948 98.0669L107.021 108.473L108.71 109.109L112.637 98.7029L110.948 98.0669Z" fill="#EA3467"/>
<path d="M110.364 99.6136L109.887 100.879L111.576 101.515L112.054 100.25L110.364 99.6136Z" fill="#F2F2F2"/>
<path d="M108.082 105.66L107.605 106.926L109.294 107.562L109.772 106.296L108.082 105.66Z" fill="#F2F2F2"/>
<path d="M124.272 109.148H72.8182V110.2H124.272V109.148Z" fill="#F2F2F2"/>
<path d="M104.714 98.0276H95.2355V109.148H104.714V98.0276Z" fill="#EA3467"/>
<path d="M102.382 100.432H97.5674V102.536H102.382V100.432Z" fill="#F2F2F2"/>
<path d="M98.9967 80.1448H98.094V89.7624H98.9967V80.1448Z" fill="#F2F2F2"/>
<path d="M98.5454 91.2651C99.3763 91.2651 100.05 90.5922 100.05 89.7623C100.05 88.9323 99.3763 88.2595 98.5454 88.2595C97.7145 88.2595 97.0409 88.9323 97.0409 89.7623C97.0409 90.5922 97.7145 91.2651 98.5454 91.2651Z" fill="#F2F2F2"/>
<path d="M136.343 43.9282H31.1781L33.0481 40.0211H135.237L136.343 43.9282Z" fill="#EA3467"/>
<path d="M138.895 52.9447H26.8616L28.7316 49.0376H137.789L138.895 52.9447Z" fill="#EA3467"/>
<path d="M149.908 30.3547C149.908 30.3547 148.397 34.2346 148.713 38.0734C148.77 38.7607 149.002 39.422 149.386 39.9953L130.879 48.7711C130.879 48.7711 122.517 49.6359 124.604 53.2836C126.691 56.9314 134.256 51.4598 134.256 51.4598C134.256 51.4598 154.081 48.5936 155.647 45.7275C157.212 42.8614 158.255 30.8758 158.255 30.8758L149.908 30.3547Z" fill="#A0616A"/>
<path d="M150.69 19.672H154.603C154.603 19.672 157.472 20.1931 158.255 25.4042C159.038 30.6153 159.82 31.9181 159.038 31.9181C158.255 31.9181 148.864 31.6576 148.864 31.397C148.864 31.1365 150.69 19.672 150.69 19.672Z" fill="#D0CDE1"/>
<path d="M20.0713 97.5081C31.1563 97.5081 40.1425 88.5324 40.1425 77.4602C40.1425 66.3881 31.1563 57.4124 20.0713 57.4124C8.98621 57.4124 0 66.3881 0 77.4602C0 88.5324 8.98621 97.5081 20.0713 97.5081Z" fill="#EA3467"/>
<path opacity="0.1" d="M20.0712 94.7015C29.6044 94.7015 37.3325 86.9823 37.3325 77.4603C37.3325 67.9383 29.6044 60.2191 20.0712 60.2191C10.5381 60.2191 2.80994 67.9383 2.80994 77.4603C2.80994 86.9823 10.5381 94.7015 20.0712 94.7015Z" fill="black"/>
<path d="M19.2442 87.6341V85.1247C17.9742 85.0999 16.6604 84.6526 15.894 84.0315L16.4195 82.3669C17.3302 83.0485 18.4346 83.4227 19.5726 83.4351C21.1273 83.4351 22.1783 82.4165 22.1783 81.0003C22.1783 79.6338 21.3243 78.7891 19.704 78.0436C17.4705 77.0499 16.0911 75.9069 16.0911 73.7454C16.0911 71.6832 17.383 70.1179 19.3975 69.7452V67.2358H20.755V69.6459C21.7673 69.6597 22.7547 69.9613 23.6016 70.5154L23.0541 72.1553C22.2419 71.6 21.2794 71.3053 20.2952 71.3105C18.6092 71.3105 17.9742 72.4533 17.9742 73.4472C17.9742 74.7392 18.7843 75.3851 20.6894 76.2797C22.9446 77.3232 24.0833 78.6151 24.0833 80.8264C24.0833 82.7891 22.879 84.6278 20.6236 85.05V87.6341H19.2442Z" fill="#F2F2F2"/>
</svg>
